<svg xmlns="http://www.w3.org/2000/svg" xmlns:xlink="http://www.w3.org/1999/xlink" class="badge__color__2" fill="currentColor" version="1.1" id="Shape_1_1_" x="0px" y="0px" viewBox="0 0 720 720" enable-background="new 0 0 720 720" xml:space="preserve"><g id="Shape_1"><g><path d="M587.8,321.4c-0.5,0.1-1.1,0.1-1.5,0.3c-0.6,0.4-1.1,0.4-1.8,0.4c-4.6,0-9.2,0-13.8,0.1c-2.1,0-4.3,0-6.4,0    c-1.6,0-3.3,0.1-4.9,0.1c-1.6,0-3.3-0.1-4.9-0.1c-2.8,0-5.6,0-8.5,0c-5.2,0-10.5,0-15.7,0c-4.3,0-8.5,0-12.8,0c-2.8,0-5.7,0-8.5,0    c-2.1,0-4.1,0-6.2,0c-1.4,0-2.9,0-4.3,0c-1.3,0-2.6,0.1-3.9,0.1c-2.6,0-5.3-0.1-7.9-0.1c-3.1,0-6.2,0-9.2,0    c-4.6,0-9.2,0.1-13.8,0.1c-3.7,0-7.4-0.1-11.1-0.1c-6,0-12.1,0-18.1,0c-1.9,0-3.8,0-5.6,0c-2.2,0-4.4,0.1-6.6,0.1    c-2.9,0-5.8-0.1-8.7-0.1c-4,0-7.9,0.1-11.9,0.1c-3.6,0-7.2-0.1-10.7-0.1c-9.4,0-18.7,0-28.1,0c-2.8,0-5.7,0.1-8.5,0.1    c-3,0-5.9-0.1-8.9-0.1c-3.9,0-7.8,0.1-11.7,0.1c-3.6,0-7.1-0.1-10.7-0.1c-5.8,0-11.6,0-17.3,0c-5.8,0-11.7,0-17.5,0    c-3.3,0-6.7,0-10,0c-2.9,0-5.9,0.1-8.8,0c-2.9-0.1-5.9,0-8.8,0c-4.6,0-9.3,0-13.9,0c-5.6,0-11.3,0-16.9,0c-3.6,0-7.2,0.1-10.8,0.1    c-2.8,0-5.5-0.1-8.3-0.1c-2.3,0-4.6,0.1-7,0.1c-3.4,0-6.9-0.1-10.3-0.1c-6.3,0-12.6,0-18.9,0c-5.3,0-10.6,0.1-15.8,0.1    c-4.3,0-8.5-0.1-12.8-0.1c-1.8,0-3.5,0-5.3,0c-1.8,0-3.6-0.1-5.5-0.1c-0.8,0-1.1,0.3-1.2,1.1c0,0.4,0,0.8,0,1.1    c0,44.4,0,88.8,0,133.2c0,1.1,0.1,2.1,0.1,3.1c0.2,0.1,0.3,0.3,0.4,0.3c0.6,0,1.3,0.1,1.9,0.1c41.3,0.1,82.5,0.1,123.8,0.1    c15.2,0,30.4,0,45.5-0.1c62.2,0,124.3-0.1,186.5-0.1c31.1,0,62.2,0,93.3,0c0.6,0,1.3,0,1.9,0c0.2,0,0.5-0.1,0.8-0.2    c0-1.3,0.1-2.5,0.1-3.8c0-43.1,0-86.2,0-129.2c0-1.4,0-2.8,0-4.2C588.3,322.9,588.2,322.2,587.8,321.4z M319.8,440.3    c0,0.8,0,1.6,0,2.5c0,0.4-0.1,0.7-0.1,1.1c-0.8,0.3-1.5,0.2-2.3,0.2c-12.9,0-25.8,0-38.7,0c-1.9,0-3.8,0-5.7,0h-1.5    c-0.5-0.7-0.3-1.4-0.3-2.1c0-5.8,0-11.6,0-17.4c0-1,0-2,0-3c0-0.6,0.2-1.1,0.6-1.4c-1-1.3-7.5-7.8-8.8-8.8    c-1.3,0.9-5.8,5.3-8.8,8.6c0.1,0.9,0.2,1.7,0.2,2.5c0,6.5,0,13.1,0,19.6c0,0.6,0.1,1.2-0.2,1.9c-0.3,0-0.5,0.1-0.7,0.1    c-16.2,0-32.5,0-48.8,0c-0.1-0.5-0.2-0.8-0.2-1.2c0-7.1,0-14.2,0-21.3c0-0.3,0.1-0.6,0.1-1c0.5-0.1,1-0.1,1.5-0.1    c2.1,0,4.2-0.1,6.2,0c1.2,0,2.1-0.3,3-1.2c4.4-4.5,8.9-8.9,13.3-13.4c4.3-4.3,8.7-8.6,13-12.9c0.4-0.4,0.9-0.9,1.4-1.4    c-0.3-0.4-0.5-0.7-0.8-1c-9-9-18-18-27-27c-0.7-0.7-1.3-1-2.3-1c-2.1,0.1-4.2,0-6.2,0h-2c-0.3-1.8-0.3-21.9,0-23.7    c0.3,0,0.7-0.1,1-0.2c0.4,0,0.9,0,1.3,0c15,0,30,0,45,0c0.7,0,1.5,0,2.3,0.1c0.3,2.1,0.1,4.1,0.2,6.1c0,2,0,4,0,6c0,2,0,4,0,6    c0,2,0.2,4-0.2,6.2c2.8,2.8,5.7,5.6,8.7,8.5c0.3-0.2,0.5-0.3,0.7-0.4c2.6-2.6,5.3-5.3,7.9-7.9c0.1-0.1,0.1-0.2,0.1-0.2    c-0.1-0.7-0.3-1.3-0.3-1.9c0-7.1,0-14.2,0-21.3c0-0.3,0.1-0.6,0.1-1c0.4-0.1,0.7-0.2,1.1-0.2c0.4,0,0.9,0,1.3,0    c14.5,0,29.1,0,43.6,0c0.7,0,1.5-0.1,2.3,0.2c0.1,0.3,0.2,0.5,0.2,0.8c0,7.6,0,15.1,0,22.8c-0.5,0.1-0.9,0.2-1.3,0.2    c-1.9,0-3.8,0-5.7,0c-0.7,0-1.2,0.2-1.7,0.7c-0.9,0.9-1.9,1.8-2.8,2.8c-4.9,4.8-9.7,9.7-14.6,14.5c-3.2,3.1-6.4,6.3-9.5,9.4    c-0.4,0.4-0.9,0.9-1.4,1.4c0.3,0.4,0.6,0.7,0.8,1c9,9,18.1,18,27.1,27.1c0.7,0.7,1.4,1,2.3,0.9c1.6-0.1,3.3,0,4.9,0    c0.5,0,1,0,1.5,0.1c0.4,0.7,0.3,1.4,0.3,2.1C319.8,428.4,319.8,434.4,319.8,440.3z M379.2,444.1c-2.8,0-5.5,0-8.3,0    c-9.8,0-19.7,0-29.5,0h-2c-0.6-0.7-0.4-1.4-0.4-2.1c0-6.1,0-12.2,0-18.3c0-0.7,0-1.4,0-2.1c0-0.3,0.1-0.6,0.1-1c2-0.5,4,0.1,6-0.3    c0.4-0.7,0.2-1.4,0.2-2.1c0-6.9,0-13.9,0-20.8c0-10.8,0-21.7,0-32.5c0-0.7,0-1.4,0-2.3c-2.2,0-4.1-0.1-6.1-0.1    c-0.1-0.4-0.2-0.7-0.2-1c0-7.2,0-14.5,0-21.7c0-0.3,0.1-0.6,0.1-0.8c0.2-0.2,0.2-0.2,0.2-0.2c0.1,0,0.1,0,0.2,0    c0.4,0,0.8-0.1,1.1-0.1c13.1,0,26.2,0,39.3,0c0.1,0,0.2,0.1,0.5,0.2c0,0.2,0.1,0.5,0.1,0.8c0,7.3,0,14.6,0,21.9    c0,0.2-0.1,0.5-0.1,0.8c-1,0.3-2,0.1-3,0.1c-1,0-2-0.1-3.1,0.1c-0.1,0.4-0.1,0.8-0.1,1.2c0,0.4,0,0.8,0,1.1c0,17.6,0,35.3,0,52.9    c0,0.7-0.1,1.5,0.2,2.3c2,0.4,4-0.1,6,0.3c0.1,0.4,0.1,0.7,0.1,1c0,7.4,0,14.8,0,22.4C380.1,443.9,379.6,444.1,379.2,444.1z     M519.3,443.8c-0.7,0.4-1.4,0.2-2.1,0.2c-10.1,0-20.3,0-30.4,0c-4.6,0-9.2,0-13.8,0h-1.8c-0.6-0.6-0.4-1.2-0.5-1.7    c0-4.2,0-8.3,0-12.5c0-2.7,0-5.4,0-8.1c0-0.6,0-1.2,0.7-1.6c-0.9-1.3-7.3-7.6-8.8-8.9c-1.2,0.8-5.3,4.8-8.9,8.6    c0.1,0.8,0.2,1.5,0.2,2.2c0,6.7,0,13.4,0,20c0,0.6-0.1,1.1-0.1,1.6c-0.2,0.1-0.2,0.2-0.3,0.2c-0.1,0-0.1,0.1-0.2,0.1    c-16.1,0-32.1,0-48.2,0c-0.3,0-0.6,0-0.9-0.1c-0.5-0.6-0.3-1.3-0.3-2c0-6.1,0-12.2,0-18.3c0-0.7,0-1.4,0-2.1c0-0.3,0.1-0.6,0.1-1    c0.5-0.1,1-0.1,1.5-0.1c2.1,0,4.3-0.1,6.4,0c1.2,0.1,2.1-0.3,2.8-1.2c0.4-0.5,0.9-0.9,1.3-1.3c8.3-8.3,16.7-16.6,25-24.9    c0.5-0.5,1.1-0.9,1.3-1.6c-0.4-0.4-0.8-0.9-1.3-1.3c-3.9-3.9-7.7-7.8-11.6-11.6c-4.9-4.8-9.8-9.7-14.6-14.5    c-0.9-0.9-1.7-1.3-3-1.3c-2.1,0.1-4.2,0-6.2,0c-0.5,0-1.1-0.1-1.6-0.1c-0.3-1.5-0.3-21.5-0.1-23.6c0.3-0.1,0.7-0.2,1-0.2    c0.4,0,0.9,0,1.3,0c15,0,30,0,45,0c0.7,0,1.5,0,2.3,0.1c0.1,0.5,0.2,0.8,0.2,1.2c0,7.1,0,14.2,0,21.3c0,0.5-0.1,1.1-0.2,1.8    c2.8,2.7,5.7,5.6,8.7,8.5c0.4-0.3,0.7-0.4,0.9-0.7c2.5-2.4,4.9-4.9,7.4-7.3c0.2-0.2,0.3-0.4,0.5-0.6c-0.1-0.3-0.3-0.5-0.4-0.8    c-0.1-0.4-0.1-0.7-0.1-1.1c0-6.9,0-13.9,0-20.8c0-0.4,0.1-0.9,0.1-1.4c0.4-0.1,0.7-0.2,1.1-0.2c0.4,0,0.9,0,1.3,0    c14.5,0,29.1,0,43.6,0c0.7,0,1.5-0.1,2.2,0.1c0.1,0.2,0.2,0.4,0.2,0.6c0,7.6,0,15.2,0,22.9c-0.4,0.1-0.7,0.2-1.1,0.2    c-1.9,0-3.8,0-5.7,0c-0.8,0-1.4,0.2-2,0.8c-1.1,1.2-2.3,2.3-3.5,3.4c-5.3,5.2-10.5,10.5-15.8,15.7c-2.5,2.5-5,5-7.5,7.4    c-0.4,0.4-0.9,0.9-1.4,1.5c0.6,0.6,1,1,1.4,1.5c4.1,4.1,8.2,8.2,12.3,12.3c4.7,4.7,9.5,9.4,14.2,14.1c0.8,0.8,1.5,1.2,2.6,1.1    c1.6-0.1,3.3,0,4.9,0c0.5,0,1,0.1,1.4,0.1c0.1,0.3,0.2,0.5,0.2,0.6c0,7.3,0,14.6,0,21.9C519.4,443.3,519.3,443.6,519.3,443.8z     M160.3,313.6c1.3-0.5,2.6-0.2,3.9-0.6c0.3-0.1,0.8,0,1.1,0.1c1.4,0.3,2.7-0.3,4-0.4c0.3-1,0.2-1.8,0.2-2.7    c0-59.8,0-119.6,0-179.3c0-0.7,0-1.4,0-2.1c0-0.3,0.2-0.7,0.3-1c0.6,0,1.1-0.1,1.6-0.1c0.7,0,1-0.5,1.4-0.8c0,0,0.1-0.1,0.2-0.1    c1-0.1,2-0.1,2.7-1c0.1-0.2,0.5-0.1,0.7-0.2c0.7-0.1,1.5-0.2,2-0.8c0.2-0.2,0.7-0.3,1.1-0.3c0.9-0.1,1.8,0,2.4-0.9    c0.1-0.1,0.5-0.1,0.7-0.2c0.7-0.1,1.4-0.3,2-0.8c0.6-0.4,1.5-0.4,2.3-0.6c0.1,0,0.1-0.1,0.1-0.1c0.5-0.7,1.3-0.8,2-0.8    c0.7,0,1.4-0.2,1.8-0.8c0.4,0.1,0.8,0.3,1.2,0.4c0.5-0.8,1.6-0.8,2.2-1.6c0.2-0.2,0.6-0.2,0.8,0.1c0.2,0.3,0.3,0.4,0.7,0.1    c0.8-0.8,1.5-1.5,2.8-1.6c0.7,0,1.3-0.3,2-0.6c0.5-0.2,0.9-0.5,1.4-0.5c0.2,0,0.6-0.1,0.7-0.3c0.6-0.8,1.3-0.5,2-0.1    c0.6-1.2,1.7-1.7,2.8-1.7c1.7-0.1,2.9-1.5,4.6-1.4c0.1,0,0.2-0.1,0.3-0.2c0.6-0.7,1.1-0.6,1.8,0c0.3,0.3,0.7,0.2,0.9-0.3    c0.5-1,1-1.4,1.8-1.3c0.4,0.1,0.7,0,1-0.2c0.9-0.6,1.8-1.1,2.9-1.1c0.2,0,0.5-0.2,0.7-0.3c0.7-0.6,1.5-0.8,2.4-0.8    c0.6,0,1.1-0.2,1.6-0.3c0.3-0.8,1-0.6,1.6-0.7c0.3,0,0.7-0.1,0.9-0.3c0.6-0.9,1.5-0.8,2.4-0.9c0.4,0,1-0.1,1.2-0.4    c0.4-0.7,1-0.7,1.6-0.7c0.6,0,1.3,0,1.7-0.5c0.4-0.5,0.8-0.5,1.3-0.6c0.6-0.1,1.2,0,1.6-0.5c0.3-0.5,0.8-0.6,1.3-0.6    c0.7,0,1.3-0.1,1.8-0.7c0.2-0.2,0.7-0.3,1-0.3c0.5-0.1,1,0,1.5-0.1c0.4-0.2,0.7-0.6,1-0.8c0.5,0.2,0.9,0.3,1.2,0.4    c0.1-0.8,1-0.6,1.4-1.1c0.4-0.5,0.9-0.6,1.5-0.6c0.6,0,1.1-0.1,1.7-0.2c0.4-0.1,0.8-0.1,1-0.4c0.6-0.7,1.6-0.6,2.2-1.4    c0.2-0.2,0.7-0.3,1.1-0.3c1-0.1,2,0.2,2.7-0.9c0.1-0.1,0.2-0.1,0.3-0.1c1.5-0.3,2.7-1.4,4.3-1.3c0.1,0,0.3,0,0.4-0.1    c0.7-0.8,1.6-0.8,2.5-1.1c0.6-0.2,1.1-0.6,1.8-0.4c0.8-0.6,1.8-0.7,2.8-0.9c0.1,0,0.1-0.1,0.1-0.1c0.3-0.6,0.9-0.6,1.4-0.7    c0.6-0.1,1.3-0.1,1.6-0.8c1.1-0.4,2.4-0.4,3.3-1.3c0.2-0.2,0.6-0.1,0.9-0.1c0.4,0,0.7,0,1,0c0.9-1.1,0.9-1.1,2.1-1.1    c0.3,0,0.5,0,0.8,0c0.5-0.1,1-0.2,1.3-0.6c0.1-0.2,0.5-0.4,0.8-0.4c0.5-0.1,1-0.1,1.5-0.1c0.4,0,0.7-0.5,1.2-0.4    c0.6,0.2,0.6-0.7,1.2-0.7c0.7,0,1.1-0.9,1.9-0.4c0.5-0.7,1.5-0.5,2-1.1c0.2-0.2,0.6-0.3,0.8-0.3c1-0.1,1.7-0.4,2.5-0.9    c0.4-0.2,0.8-0.4,1.2-0.5c0.8-0.2,1.8,0.1,2.4-0.8c0.1-0.1,0.4-0.1,0.5-0.1c0.4,0.2,0.7,0,1-0.2c0.4-0.2,0.9-0.3,1.3-0.7    c0.5-0.6,1.2-0.3,1.9-0.2c1.2-1.1,1.2-1.1,2.6-1.3c0.8-0.1,1.6,0,2.2-0.9c0.1-0.2,0.6-0.2,0.9-0.3c0.8-0.2,1.6,0,2.2-0.9    c0.1-0.2,0.5-0.2,0.7-0.2c0.5,0,0.9-0.2,1.4-0.5c0.4-0.3,0.9-0.5,1.4-0.5c1.8-0.1,3.3-1.1,5-1.5c0.3-0.5,0.8-0.3,1.2-0.4    c0.5-0.1,0.9-0.4,1.4-0.5c0.9-0.1,1.9,0,2.5-0.9c0.1-0.1,0.2-0.1,0.4-0.1c1.6,0.2,2.5-1.2,3.9-1.5c0.7-0.7,1.7-0.8,2.6-0.8    c0.4,0,1.1,0,1.2-0.3c0.5-0.8,1.3-0.7,2-0.8c0.3,0,0.7-0.1,0.8-0.4c0.5-0.6,1.1-0.7,1.9-0.7c0.7,0,1.5,0.1,2-0.8    c0.1-0.2,0.6-0.3,0.9-0.3c0.8,0,1.5,0,2-0.8c0.2-0.3,0.8-0.3,1.2-0.3c0.4-0.1,1,0,1.2-0.3c0.7-0.8,1.5-0.8,2.4-0.9    c0.3,0,0.7-0.1,0.8-0.3c0.5-0.6,1.1-0.7,1.8-0.8c0.7,0,1.5,0.1,2-0.8c0.7-0.1,1.3-0.3,2-0.4c0.7-0.2,0.9-1,1.8-0.9    c0.8,0.1,1.6,0,2.2-0.8c0.1-0.2,0.6-0.2,0.9-0.3c0.6-0.1,1.2-0.2,1.9-0.3c0.3-0.1,0.7-0.1,0.8-0.3c0.3-0.5,0.7-0.5,1.1-0.5    c1.8-0.2,3.2,0.6,4.6,1.5c0.4,0.2,0.7,0.5,1.1,0.5c0.4,0.1,0.9,0.2,1.3,0.2c0.6,0,1.1,0.3,1.7,0.7c1.1,0.9,2.4,1.6,3.9,1.4    c0.2,0,0.5,0,0.8,0.1c0.4,0.1,0.8,0.2,1,0.4c0.4,0.5,0.8,0.5,1.3,0.6c0.7,0.1,1.5,0,1.9,0.6c0.4,0.5,1,0.6,1.5,0.6    c0.8,0,1.6,0.1,2.2,0.8c0.1,0.2,0.5,0.2,0.7,0.2c0.7,0,1.3,0.3,1.9,0.7c0.4,0.3,0.9,0.3,1.4,0.4c0.4,0.1,0.9,0,1.1,0.3    c0.7,0.9,1.7,0.8,2.6,0.9c0.4,0.1,0.8,0.2,1,0.4c0.3,0.6,0.9,0.6,1.4,0.7c0.9,0,1.7,0,2.4,0.8c0.2,0.2,0.7,0.2,1.1,0.3    c0.2,0.1,0.6,0.1,0.7,0.2c0.6,0.9,1.5,0.7,2.4,0.8c0.6,0.1,1.2,0.1,1.7,0.7c0.2,0.3,0.6,0.3,1,0.4c0.7,0.2,1.5,0.3,2.2,0.6    c0.7,0.4,1.4,0.6,2.1,0.6c0.4,0,0.7,0.1,1,0.5c0.2,0.2,0.6,0.3,0.8,0.5c0.2,0.2,0.4,0.6,0.5,0.9c0.2-0.1,0.4-0.1,0.5-0.1    c0.5-0.6,1-0.7,1.6-0.2c0.5,0.5,1.1,0.5,1.7,0.7c0.4,0.1,0.8,0.1,1.1,0.3c0.7,0.7,1.6,0.7,2.4,0.9c1,0.2,1.9,0.5,2.5,1.5    c0.1,0.1,0.2,0.1,0.4,0.2c0.3-0.1,0.7-0.2,1.1-0.3c0.5,0.4,1,0.8,1.8,0.8c0.6,0,1.2,0.4,1.7,0.7c0.3,0.1,0.6,0.3,0.9,0.3    c1.6,0.4,1.6,0.4,3.1,1.7c0.1,0.1,0.4,0,0.6,0c0.1-0.1,0.2-0.2,0.4-0.4c0.7,0.4,1.6,0.7,2,1.3c0.4,0.5,0.7,0.5,1.2,0.3    c0.2-0.1,0.6-0.1,0.7,0c0.5,0.7,1.3,0.6,2.1,0.7c0.7,0.1,1.1,0.5,1.6,0.8c0.5,0.3,1.4,0.1,1.7,0.5c0.7,0.7,1.4,0.8,2.2,0.8    c0.6,0.1,1.1,0.1,1.5,0.7c0.2,0.3,0.8,0.4,1.2,0.4c0.9,0,1.9-0.1,2.6,0.9c0.7,0.1,1.4,0.1,2,0.4c0.6,0.3,1.2,0.9,2,1    c0.2,0,0.4,0,0.6,0.1c0.2,0,0.5,0,0.5,0.1c0.5,0.9,1.4,0.6,2.2,0.9c0.4,0.1,1,0.1,1.2,0.4c0.5,0.6,1,0.7,1.7,0.7    c1.7,0.1,3,1.3,4.6,1.4c0.1,0,0.1,0.1,0.2,0.1c0.3,0.6,0.9,0.6,1.4,0.7c0.4,0.1,1,0,1.3,0.3c0.7,0.8,1.7,0.7,2.6,0.9    c0.2,0,0.6,0.1,0.7,0.3c0.6,0.9,1.5,0.8,2.4,0.9c0.6,0,1.1,0.2,1.7,0.3c0.9,0.3,1.9,0.5,2.6,1.1c0.9,0.8,1.9,0.6,2.8,1    c0.2,0.1,0.3,0.2,0.5,0.3c1,0.7,2.2,1.1,3.3,1.5c0.3,0.1,0.6,0.3,0.7,0.5c0.1,0.5,0.5,0.6,0.8,0.5c0.5-0.1,0.9-0.3,1.3-0.5    c0.9,0.7,0.9,0.7,1.7,0.8c0.6,0.1,1.2,0,1.6,0.5c0.4,0.6,1,0.7,1.7,0.7c1.5,0,2.6,1.3,4.1,1.3c0,0,0.1,0.1,0.1,0.1    c0.4,0.6,1.1,0.7,1.7,0.7c0.9,0.1,1.9,0.1,2.5,1c0.1,0.1,0.3,0.2,0.5,0.2c0.7-0.1,1.2,0.4,1.8,0.7c0.6,0.3,1.3,0.2,2,0.4    c0.2,0,0.6,0,0.7,0.2c0.7,0.8,1.6,0.8,2.6,1c0.2,0,0.6,0.1,0.7,0.2c0.6,0.9,1.5,0.8,2.4,0.9c0.2,0,0.5,0,0.5,0.1    c0.6,0.9,1.5,0.8,2.4,0.9c0.2,0,0.6,0.1,0.7,0.3c0.5,0.7,1.2,0.7,1.8,0.8c0.4,0.1,0.9,0,1.2,0.4c0.4,0.6,0.9,0.6,1.5,0.6    c0.9,0,1.6,0.2,2,1c1,0.1,1.8,0.2,2.7,0.2c1,0.1,1.4,1.3,2.5,1.1c0.9,1,2.1,0.9,3.3,1.1c0.5,0.1,1,0.2,1.4,0.5    c0.6,0.6,1.4,0.4,2.1,0.6c0.7,0.2,1.1,1.1,1.9,1c1.8-0.2,3.1,1.2,4.8,1.3c0.1,0,0.3,0.1,0.3,0.2c0.4,0.8,1.2,0.7,2,0.8    c0.4,0.1,1,0.1,1.2,0.4c0.6,0.6,1.3,0.7,2.1,0.8c0.5,0.1,1.1,0.1,1.4,0.4c0.6,0.6,1.2,0.7,1.9,0.7c0.2,0,0.6,0,0.7,0.2    c0.6,0.8,1.5,0.8,2.4,0.9c0.2,0,0.6,0.1,0.7,0.3c0.4,0.7,1.2,0.6,1.8,0.7c0.5,0.1,1,0.2,1.5,0.3c0.2,0.4,0.4,0.7,0.6,1    c0.2,0,0.4,0.1,0.6,0c0.2,0,0.5-0.1,0.7-0.1c0.7,1.2,0.7,1.2,0.7,2.6c0,2.8,0,5.7,0,8.5c0,7-0.1,14-0.1,20.9    c0,3.4,0.1,6.8,0.1,10.2c0,2.6,0,5.2,0,7.7c0,42.4,0,84.8,0,127.2c0,1.1-0.2,2.2-0.1,3.2c0.2,1.4,0,2.7-0.9,4.1    c1.2,0.9,2.5,1.3,3.8,1.4c2.2,0.1,4.4,0,6.6,0.3c2.1,0.3,2.6-1.4,2.6-3c-0.5-1-0.3-2.1-0.3-3.2c0-47.3,0-94.6,0-141.9    c0-2.4-0.1-4.8-0.1-7.2c0-3,0.1-6,0.1-9.1c0-7.7,0-15.4,0-23.1c0-0.7-0.1-1.5,0.3-2.2c0.1-0.2,0.1-0.5,0-0.7    c-0.5-1-0.2-2.1-0.2-3.1c-0.3-0.5-0.7-0.9-1-1.4c-0.6-0.1-1.2-0.1-1.7-0.4c-0.9-0.7-2-0.7-3-0.8c-0.5,0-1-0.1-1.3-0.5    c-0.3-0.5-0.8-0.5-1.3-0.5c-0.8,0-1.5-0.1-2.1-0.7c-0.2-0.3-0.8-0.4-1.2-0.4c-1.4,0-2.5-0.6-3.2-1.8c-0.8,0.6-1,0.7-1.5,0.3    c-0.5-0.5-1-0.8-1.7-0.8c-0.7,0-1.4-0.1-1.8-0.7c-0.1-0.2-0.4-0.2-0.7-0.3c-1.1-0.1-2.1-0.3-3-1c-0.4-0.3-1.2-0.2-1.8-0.3    c-0.6-0.2-0.8-0.9-1.5-0.9c-0.9,0-1.7,0-2.4-0.9c-0.2-0.3-0.9-0.2-1.4-0.3c-0.4-0.1-0.9,0-1.1-0.2c-0.6-0.9-1.4-0.7-2.2-0.8    c-0.2,0-0.6,0-0.7-0.2c-0.7-0.9-1.6-0.8-2.5-0.9c-0.7,0-1.4-0.1-1.7-0.9c-0.1-0.2-0.4-0.3-0.6-0.3c-1.7,0.2-3-1.2-4.7-1.3    c-0.1,0-0.2-0.1-0.3-0.2c-0.4-0.6-1.1-0.6-1.7-0.7c-0.4-0.1-0.9-0.1-1-0.4c-0.5-0.7-1.2-0.7-1.9-0.7c-0.9,0-1.8-0.1-2.5-0.8    c-0.5-0.5-1.1-0.2-1.6-0.4c-0.6-0.2-1-0.7-1.6-0.9c-0.3-0.1-0.7-0.1-1.1-0.1c-0.3,0-0.7,0-0.9-0.2c-0.5-0.5-1-0.8-1.6-0.8    c-0.8,0-1.1-0.8-1.8-0.9c-0.7-0.1-1.4-0.2-2-0.3c-0.6,0-1.1-0.1-1.6-0.5c-1.3-1.2-2.9-1.7-4.6-1.7c-0.4,0-0.8-0.1-1.2-0.5    c-0.6-0.6-1.4-0.8-2.2-0.9c-0.6,0-1.1-0.1-1.5-0.5c-0.1-0.2-0.4-0.3-0.7-0.3c-1-0.1-2,0-2.7-0.9c-0.1-0.1-0.2-0.1-0.4-0.1    c-0.9-0.1-1.7-0.1-2.4-0.9c-0.2-0.2-0.6-0.2-0.9-0.2c-0.7-0.1-1.3-0.1-1.8-0.8c-0.2-0.2-0.7-0.3-1-0.3c-0.9-0.1-1.8,0-2.3-0.9    c-0.1-0.2-0.5-0.2-0.7-0.2c-1.7,0.3-2.9-1.1-4.4-1.4c-0.6-0.8-1.5-0.8-2.4-0.8c-0.7,0-1.4-0.1-1.8-0.7c-0.1-0.2-0.5-0.3-0.8-0.3    c-0.8-0.2-1.7-0.2-2.3-0.6c-0.7-0.4-1.3-0.6-2.1-0.6c-0.3,0-0.8-0.2-1-0.4c-0.3-0.4-1.1-0.5-1.1-1.2c0,0-0.6-0.1-0.6-0.1    c-0.5,0.8-0.8,0.6-1.4,0.1c-0.4-0.4-1.2-0.3-1.8-0.5c-0.4-0.1-0.8-0.1-1-0.3c-0.5-0.7-1.2-0.7-1.8-0.8c-0.8-0.1-1.4-0.3-2.1-0.7    c-0.8-0.5-1.6-1.4-2.7-0.8c-0.1,0-0.3,0-0.4-0.1c-0.5-0.6-1.2-0.6-1.9-0.7c-0.7,0-1-0.8-1.6-0.9c-0.7-0.2-1.4-0.2-2-0.4    c-0.3-0.1-0.9-0.4-0.6-1c0.3-0.6-0.2-0.7-0.5-0.6c-0.7,0.1-1.3,0.4-1.9,0.6c-0.5-0.4-1.1-0.6-1.5-1.1c-0.4-0.6-0.9-0.6-1.5-0.4    c-0.4,0.1-0.7,0.1-1-0.2c-0.3-0.2-0.8-0.2-1.2-0.4c-0.6-0.2-1.3-0.2-1.8-0.5c-0.4-0.3-0.8-0.5-1.4-0.5c-0.7-0.1-1.3-0.3-1.9-0.7    c-0.5-0.4-1.4-0.4-2.1-0.6c-0.1,0-0.2-0.1-0.3-0.2c-0.4-0.7-1-0.7-1.6-0.7c-0.8,0-1.6,0-2.2-0.8c-0.2-0.3-0.8-0.2-1.2-0.3    c-0.4-0.1-1-0.1-1.2-0.4c-0.5-0.6-1.2-0.7-1.9-0.7c-0.4,0-0.8,0-1-0.4c-0.4-0.6-1-0.7-1.7-0.7c-0.8,0-1.5,0-2-0.7    c-0.2-0.3-0.8-0.4-1.2-0.4c-1,0-1.9-0.1-2.6-0.8c-0.2-0.2-0.6-0.3-0.9-0.3c-0.7-0.1-1.3-0.2-1.8-0.8c-0.2-0.2-0.7-0.2-1-0.3    c-0.4-0.1-1,0-1.3-0.3c-0.6-0.8-1.4-0.7-2.2-0.9c-0.4-0.1-1-0.2-1.2-0.4c-0.5-0.6-1.2-0.7-1.9-0.7c-0.9,0-1.8-0.1-2.5-0.6    c-0.9-0.7-2.1-0.4-2.8-1.4c-0.6-0.1-1.3-0.1-1.8-0.3c-0.6-0.2-1.2-0.7-1.8-0.9c-0.8-0.3-2-0.9-3.1-1.7c-0.2-0.2-0.6-0.3-0.9-0.2    c-0.3,0.1-0.7,0.3-1,0.4c-0.8-0.6-0.8-0.6-1.8-0.8c-0.5-0.1-1.1-0.1-1.4-0.5c-0.5-0.6-1.1-0.6-1.7-0.6c-1.5,0-2.5-1.3-4-1.3    c0,0-0.1-0.1-0.1-0.1c-0.5-0.8-1.2-0.8-2-0.8c-0.9,0-1.6-0.3-2.3-0.9c-0.7-0.7-1.6-1.3-2.9-1.1c-0.6,0.1-1.2-0.1-1.9-0.2    c-0.2,0-0.6-0.1-0.7-0.3c-0.4-0.6-1-0.7-1.7-0.7c-0.7-0.1-1.4-0.1-1.8-0.8c-0.1-0.2-0.6-0.3-0.9-0.3c-0.5-0.1-1-0.1-1.6-0.1    c-0.3-0.8-1-1-1.8-1c-0.3,0-0.5,0-0.8,0c-0.6,0-1.1,0-1.7,0c-0.6,0-1.1,0.1-1.7,0.1c-0.6,0.1-1.2,0.2-1.6,0.8    c-0.3,0.4-1,0.3-1.5,0.7c-0.5,0.5-1.3,0.7-2.1,0.7c-0.4,0-1,0.1-1.2,0.3c-0.5,0.6-1.1,0.7-1.8,0.7c-0.5,0.1-0.9,0.4-1.4,0.6    c-0.2,0.1-0.4,0.4-0.6,0.4c-1-0.2-1.7,0.6-2.6,0.9c-0.5,0.2-1.1,0.2-1.6,0.3c-0.4,0.1-0.9,0.2-1.2,0.4c-0.5,0.5-1.2,0.7-1.9,0.7    c-0.4,0-1,0.1-1.2,0.3c-0.5,0.6-1.1,0.7-1.8,0.8c-0.8,0.1-1.4,0.4-2.1,0.8c-0.6,0.4-1.4,0.5-2.1,0.7c-0.1,0-0.1,0.1-0.1,0.1    c-0.5,0.2-1,0.4-1.6,0.6c-0.4,0.1-0.8,0-1.1,0.3c-1,0.8-2.2,0.9-3.4,1c-0.4,0-0.8,0.1-1,0.4c-0.4,0.5-1,0.6-1.5,0.7    c-0.5,0.1-0.9,0.2-1.3,0.6c-0.3,0.3-0.8,0.3-1.2,0.5c-0.4,0.1-0.8,0.1-1.1,0.3c-0.9,0.8-1.9,0.8-3,0.9c-0.4,0-0.8,0.1-1,0.4    c-0.4,0.5-0.8,0.5-1.3,0.6c-0.5,0.1-1,0.2-1.4,0.5c-0.5,0.5-1.1,0.5-1.7,0.6c-0.6,0.1-1.1,0.2-1.7,0.3c-0.5,1-1.4,0.7-2.2,0.8    c-0.3,0-0.7,0.1-0.9,0.3c-0.7,0.9-1.6,0.8-2.5,0.9c-0.3,0-0.7,0.2-0.8,0.4c-0.5,0.8-1.3,0.5-2,0.7c-0.8,0.2-1.2,1.1-2.1,1    c-0.8-0.1-1.5,0.3-2.2,0.8c-0.6,0.4-1.6,0.4-2.3,0.6c-0.3,0.1-0.4,0.4-0.7,0.6c-0.5,0.3-0.9,0.4-1.4-0.1c-1,0.9-2.1,1.5-3.5,1.5    c-0.2,0-0.6,0-0.7,0.2c-0.7,0.9-1.6,0.8-2.6,0.9c-0.5,0-0.9,0.2-1.3,0.6c-0.5,0.5-1.1,0.5-1.6-0.1c-0.3-0.4-0.7-0.2-0.9,0.2    c0.1,0.2,0.3,0.4,0.4,0.6c-0.9,0.6-1.7,1.1-2.8,1.1c-0.3,0-0.6,0.2-0.8,0.4c-0.4,0.2-0.9,0.4-1.4,0.6c-0.4,0.1-0.8,0.1-1.1,0.3    c-1,0.8-2.2,0.8-3.4,1c-0.4,0.1-0.9,0-1.1,0.3c-0.4,0.5-0.9,0.6-1.5,0.6c-0.2,0-0.6,0.1-0.7,0.3c-0.5,0.9-1.3,0.8-2.1,0.9    c-0.9,0.1-1.8,0-2.4,0.9c-0.1,0.2-0.6,0.3-0.9,0.3c-0.9,0.1-1.8,0.1-2.4,0.9c-0.1,0.2-0.6,0.1-0.9,0.2c-0.5,0.2-1.2,0.2-1.5,0.6    c-0.4,0.4-0.8,0.5-1.3,0.5c-0.7,0.1-1.5,0-2,0.8c-0.8,0.1-1.6,0.3-2.4,0.5c-0.2,0-0.3,0.2-0.4,0.4c-0.3,0.4-0.7,0.5-1.1,0.6    c-0.9,0.1-1.9,0-2.5,1c-0.1,0.2-0.5,0.2-0.7,0.2c-0.6,0.1-1.1,0.1-1.7,0.2c-1.1,0.2-2.2,0.5-3,1.4c-0.3,0.3-0.7,0.5-1.1,0.6    c-1,0.1-2,0.2-2.8,0.9c-0.2,0.2-0.7,0.2-1.1,0.3c-0.3,0.1-0.7,0.1-0.9,0.3c-0.5,0.5-1.2,0.6-1.9,0.7c-0.6,0.1-1.2,0-1.6,0.5    c-0.5,0.5-1.1,0.7-1.7,0.7c-0.8,0-1.3,0.3-1.7,0.9c-0.5-0.2-0.9-0.5-1.3-0.6c-0.7-0.2-0.7,0.5-1,0.9c-0.1,0.1-0.4,0.1-0.5,0.1    c-0.2,0.1-0.5,0.1-0.6,0.3c-0.4,0.6-1.2,0.4-1.7,0.7c-0.6,0.3-1.1,0.6-1.6,0.9c-0.1,0.1-0.2,0.1-0.4,0.1c-1.5-0.1-2.5,1-3.9,1.2    c-0.9,0.8-2,1-3.2,1c-0.8,0-1.6,0-2.2,0.8c-0.1,0.2-0.6,0.2-0.9,0.3c-0.5,0.1-1,0.2-1.5,0.3c-0.5,0.1-0.9,0.7-1.5,0.2    c-0.3,0.4-0.6,0.7-1.1,0.8c-0.4,0.1-0.8,0.8-1.2,0.8c-1.1,0-1.9,0.9-3,0.8c-0.9,0.7-2.3,0.2-3,1.3c-0.1,0.2-0.6,0.2-0.9,0.2    c-0.9,0.1-1.8-0.1-2.3,0.9c0,0-0.1,0.1-0.2,0.1c-1.4-0.1-2.4,0.9-3.7,1.2c-0.1,0-0.1,0-0.2,0c-0.7,0-1.4,0.1-1.8,0.7    c-0.1,0.2-0.5,0.3-0.7,0.3c-1.2,0-2.4,0.1-3.3,1.1c-1.3,0.1-2.4,0.5-3.5,1.1c-0.5,0.3-1.1,0.2-1.5,0.6c-0.2,0.2-0.6,0.4-0.9,0.3    c-1.3-0.2-2.4,1.1-3.8,0.7c-0.1,0-0.3,0.1-0.5,0.2c-0.6,0.4-1.2,0.8-1.8,1.2c-0.5,0-0.9-0.6-1.4,0c-0.2,0.2-0.7,0.1-1.1,0.2    c-0.4,0.1-0.9,0.2-1.2,0.4c-0.5,0.5-1.1,0.6-1.7,0.8c-0.4,0.1-0.9,0.2-1,0.4c-0.4,0.7-1.2,0.3-1.6,0.8c-0.5,0.5-1.1,0.6-1.7,0.2    c-0.1-0.1-0.4,0.1-0.5,0.2c-0.2,0.4-0.5,0.5-0.9,0.6c-1.2,0.4-2.2,1.2-3.5,1.2c-0.2,0-0.4,0.1-0.5,0.2c-0.5,0.6-1.3,0.7-2,0.8    c-0.5,0.1-1,0.3-1.4,0.5c-0.5,0.4-1,0.5-1.6,0.4c-0.4,0-0.7-0.1-1-0.1c-0.8,0.8-0.9,1.7-0.9,2.7c0.1,1.8,0.1,3.7,0.1,5.5    c0,60.2,0,120.4,0,180.6c0,0.6,0,1.1,0,1.7c0,0.4,0,0.8-0.2,1.1c-0.5,0.8-0.3,1.5,0,2.2C158.3,313.4,159.3,314,160.3,313.6z     M117.8,334.5c-0.3-0.2-0.6-0.4-0.9-0.5c-0.3,0.4-0.7,0.6-1.2,0.6c-1,0-2,0-3,0c-6.9,0-13.7,0-20.6,0c-4.5,0-8.9,0-13.4,0    c-6,0-12.1,0-18.1,0c-5.3,0-10.6,0-15.9,0c-5.4,0-10.7,0-16.1,0c-0.7,0-1.2-0.3-1.6-0.7c-0.4,0.2-0.8,0.5-1.1,0.6    c-0.5,0.1-1,0.1-1.6,0.1c-0.1,0.7-0.2,1.3-0.3,1.9c1,0.4,1.5,1,2,1.8c0.2,0.3,0.5,0.6,0.8,0.7c1,0.3,1.4,1.2,2,1.9    c0.9,1.1,1.7,2.3,2.5,3.5c0.3,0.5,0.7,1,1.1,1.2c0.9,0.4,1.2,1.2,1.6,2c0.2,0.6,0.5,1.3,1.3,1.5c0.7,0.2,1.1,0.7,1.2,1.3    c0.2,0.7,0.5,1.2,1,1.5c1,0.8,1.4,2.3,2.7,2.8c0.1,0,0.2,0.2,0.2,0.3c0.2,1.1,1.1,1.6,1.7,2.4c0.7,0.8,1.1,1.8,1.9,2.3    c1,0.6,1.2,1.5,1.8,2.3c0.1,0.1,0.3,0.2,0.4,0.4c0.4,0.5,1,0.9,1.5,1.4c0.5,0.5,1,1.1,1.4,1.6c1.1,1.4,2.3,2.8,3.5,4.2    c0.5,0.6,1,1.3,0.9,2.2c0.5,0.4,1.2,0.4,1.6,1c0.6,0.9,1.2,1.8,1.9,2.7c0.3,0.4,0.6,0.8,1,1.1c0.8,0.6,1.5,1.3,1.9,2.3    c0.2,0.5,0.6,0.9,1.1,1.3c0.8,0.6,1.5,1.4,2,2.2c0.8,1.2,1.7,2.3,2.6,3.3c0.8,0.8,1.7,1.6,2.1,2.6c0.4,0.9,1,1.6,1.8,1.9    c0.4,1.2,0.4,2.2-0.6,3.1c-1,0.9-1.8,2.1-2.6,3.2c-0.5,0.7-1.1,1.4-1.8,1.8c-0.7,0.5-1.2,1.1-1.7,1.7c0,0,0,0,0,0c0,0,0,0,0,0    c0,0,0,0,0,0c0,0,0,0,0,0l0,0c0.3,0.4,0.3,0.8-0.1,0.9c-0.6,0.2-0.9,0.7-1.2,1.1c-0.3,0.4-0.7,0.8-0.9,1.2    c-0.8,1.3-2.1,2.1-2.6,3.6c-0.1,0.1-0.3,0.2-0.4,0.3c-1,0.6-1.1,0.7-1.4,1.4c-0.5,1.3-1.9,2-2.2,3.4c0,0.1-0.2,0.2-0.3,0.3    c-1.2,0.3-1.7,1.5-2.4,2.3c-1.3,1.5-2.4,3.2-3.8,4.6c-0.8,0.8-1.8,1.6-2.1,2.8c-0.2,0.6-0.6,1-1.2,1.1c-0.6,0.1-0.9,0.5-1,1    c-0.1,0.7-0.5,1.1-1,1.5c-0.2,0.2-0.5,0.4-0.6,0.7c-0.9,1.4-2,2.7-3.1,4c-0.7,0.8-1.4,1.7-2,2.6c-0.6,0.9-1.4,1.7-2.1,2.6    c-0.9,1.1-1.9,2.2-2.8,3.3c-1.3,1.6-2.7,3.3-4,4.9c-0.2,0.3-0.5,0.5-0.9,0.7c-1.7,0.7-2.2,2.2-2.4,3.9c0.4,0.1,0.7,0.2,1,0.2    c1,0.1,2,0.1,3,0.1c28.7,0,57.3,0,86,0c0.5,0,1-0.1,1.5,0c0.5,0.1,1,0.5,1.5,0.7c0.4-0.4,0.9-0.7,1.4-1.1c0-0.7,0.1-1.4,0.1-2.1    c0-5.7-0.1-11.5-0.1-17.2c0-29.7,0-59.5,0-89.2c0-0.6,0-1.1,0-1.7c0-0.5,0.1-1,0.2-1.5C119,335.8,118.7,335,117.8,334.5z     M683.8,353c0-0.2,0.3-0.3,0.5-0.5c0.3-0.4,0.7-0.7,1-1.1c0.4-0.4,0.4-1.1,1-1.3c0.8-1.4,2.3-2.3,2.8-4.1c0.9-0.2,1.5-0.5,1.8-1.3    c0.4-1,1.6-1.6,1.8-2.8c0-0.2,0.2-0.4,0.4-0.4c0.8-0.3,1.2-1,1.7-1.7c0.1-0.2,0.3-0.5,0.5-0.5c0.7-0.2,0.9-0.8,1.2-1.3    c0.1-0.3,0.3-0.7,0.5-0.8c1.1-0.3,1.2-1.5,2.1-1.9c-0.6-0.6-1.2-0.9-1.9-0.7c-0.5,0.1-1.1,0.1-1.7,0.1c-2.4,0-4.8,0-7.2,0    c-5,0-9.9,0-14.9,0c-4.4,0-8.8,0-13.2,0c-5.5,0-11,0-16.4,0c-2.2,0-4.4,0-6.6,0c-5,0-9.9,0-14.9,0c-2.6,0-5.2,0-7.7,0    c-1.7,0-3.4,0-5.1,0c-1.7,0-3.4,0.1-5-0.2c-0.5,1-0.5,1-0.5,1.4c0,0.8,0.1,1.6,0.1,2.4c0,35.4,0,70.8,0,106.2    c0,0.8-0.1,1.5-0.1,2.3c0,0.7-0.1,1.4,0.4,2c0.8,0,1.5,0.1,2.3,0.1c1.8,0,3.7,0,5.5,0c28,0,55.9,0,83.9,0c0.6,0,1.1,0,1.7-0.1    c0.3,0,0.5-0.3,0.8-0.4c-0.5-1.3-1.1-2.4-2.2-3.3c-0.9-0.7-1.7-1.7-2.1-2.8c-0.1-0.4-0.5-0.8-0.8-1c-2-1.8-3.5-3.9-5.1-5.9    c-0.2-0.3-0.4-0.7-0.7-0.8c-0.7-0.3-0.9-0.8-1.1-1.4c-0.3-0.9-0.8-1.7-1.8-2c-0.2-0.1-0.4-0.3-0.5-0.5c-1-1.6-2.1-3.1-3.4-4.5    c-0.5-0.5-0.9-1-1.2-1.6c-0.2-0.3-0.4-0.7-0.7-0.9c-1-0.4-1.3-1.3-1.8-2.1c-0.3-0.5-0.6-1-1-1.3c-0.5-0.3-0.9-0.6-1.1-1.2    c-0.2-0.4-0.5-0.7-0.8-1c-0.7-0.8-1.5-1.5-2.2-2.3c-1.4-1.6-2.9-3.3-4.2-5c-0.6-0.7-1-1.5-0.9-2.5c-0.7-0.3-1.5-0.2-1.9-0.9    c-1-1.7-2.3-3.1-3.5-4.6c-0.9-1.1-1.8-2.2-2.7-3.3c-0.4-0.5-1-0.8-1.3-1.3c-0.6-1-1.4-1.9-2.3-2.8c-0.7-0.7-1.2-1.4-1.8-2.2    c-0.8-1-0.8-2.2,0.2-3c0.8-0.6,1.4-1.4,2.1-2.1c0.6-0.7,1.4-1.4,1.7-2.2c0.4-1.1,1.6-1.2,2.1-2c0.1-0.1,0.2-0.2,0.2-0.3    c0.3-0.6,0.4-1.2,0.7-1.7c0.3-0.5,1.1-0.6,1.4-1.2c0.5-0.8,1.1-1.5,1.7-2.2c1.1-1.2,2.1-2.5,2.9-3.9c0.1-0.2,0.5-0.5,0.7-0.5    c0.4,0,0.5-0.2,0.7-0.5c0.2-0.4,0.4-0.9,0.6-1.3c0.1-0.3,0.3-0.6,0.6-0.7c0.8-0.2,1.1-0.8,1.4-1.4c0.6-1.4,1.6-2.5,2.8-3.4    c0.6-0.5,1.4-0.9,1.5-1.8c0.1-1,0.8-1.5,1.7-1.5c0.6-1.1,0.6-2.4,2-3c0.1,0,0.1-0.2,0.2-0.3c1-2,2.9-3.2,4.2-5    C683.2,354.5,683.8,354,683.8,353z M564.1,472.4c-0.3-0.4-0.7-0.8-1.3-0.6c-0.9,0.3-1.8,0.3-2.8,0.1c-0.2-0.1-0.5,0.1-0.7,0.1    c-0.6,0-1.1,0.1-1.7,0.1c-1.2,0-2.4-0.1-3.5-0.1c-0.4,0-0.7,0.2-1.1,0.2c-0.1,0.2-0.2,0.4-0.2,0.6c0,1.8-0.1,3.5-0.1,5.3    c0,1.4,0,2.8,0,4.2c0,1.1,0,2.1,0,3.2c0,1,0.3,2-0.4,2.9c-0.1,0.2-0.1,0.5-0.1,0.7c0.2,1.2-0.1,2.5,0.4,3.7    c0.1,0.3,0.1,0.7,0.1,1.1c-0.2,1.7-0.3,3.5-0.6,5.2c-0.2,1.3-0.4,2.6-0.4,3.9c0,1.5-0.1,2.9-0.6,4.3c-0.4,1.3-0.6,2.6-0.7,3.9    c0,0.6-0.2,1.2-0.3,1.8c-0.1,0.4-0.2,0.8-0.4,1c-0.3,0.3-0.7,0.5-1.1,0.7c0,0.3,0,0.7,0.2,0.9c0.8,0.8,0.5,1.7,0.1,2.4    c-0.5,0.8-0.5,1.5-0.6,2.3c-0.1,1-0.2,2-1,2.8c-0.2,0.2-0.3,0.5-0.4,0.8c-0.3,0.8-0.6,1.7-0.8,2.5c-0.3,1-0.7,1.9-0.9,2.9    c-0.3,1.1-0.4,2.2-0.8,3.2c-0.5,1.1-0.8,2.4-1.3,3.5c-0.9,2.2-1.2,4.6-2.9,6.5c-0.1,0.1-0.2,0.3-0.2,0.5c-0.4,1.5-1.1,2.8-1.8,4.1    c-0.1,0.3-0.4,0.6-0.4,0.9c0,0.8-0.4,1.3-0.8,1.9c-0.2,0.3-0.3,0.6-0.4,0.9c-0.5,1.1-0.9,2.3-1.5,3.4c-1,1.8-1.8,3.7-2.9,5.4    c-0.1,0.2-0.2,0.4-0.3,0.6c-0.4,0.8-0.8,1.6-1.2,2.3c-0.4,0.7-0.8,1.4-1.3,2.1c-0.3,0.5-0.6,1.1-0.9,1.7c-0.3,0.7-0.9,0.9-1.5,1.4    c0,0-0.1,0.1-0.1,0.2c-0.5,1.3-1.5,2.2-1.9,3.6c-0.3,1-1.1,1.8-1.7,2.6c-0.8,0.2-1.1,0.8-1.2,1.5c-0.1,0.7-0.4,1.3-1,1.8    c-0.2,0.2-0.3,0.4-0.4,0.6c-1.3,2-2.6,4-4.2,5.8c-0.3,0.4-0.5,0.9-0.9,1.1c-0.4,0.3-0.9,0.4-1.3,0.6c0.2,1.2-0.6,1.9-1.2,2.7    c-0.7,0.9-1.5,1.7-2.2,2.5c-0.5,0.6-1,1.3-1.5,1.9c-0.5,0.7-1.1,1.2-1.6,1.7c-0.7,0.6-1.4,1.2-1.7,2.2c-0.1,0.2-0.3,0.5-0.5,0.5    c-0.8,0.1-1,0.9-1.4,1.4c-0.2,0.3-0.4,0.7-0.7,0.9c-1,0.8-1.8,1.8-2.7,2.8c-0.2,0.2-0.4,0.5-0.7,0.6c-1.2,0.4-1.9,1.5-2.6,2.4    c-0.5,0.7-1,1.3-1.5,1.8c-1.3,1.4-2.7,2.7-4.1,4.1c-0.2,0.2-0.5,0.5-0.7,0.5c-0.9,0.1-1.5,0.7-2,1.3c-1.2,1.3-2.5,2.5-4,3.6    c-1.4,1-2.6,2.5-4.1,3.4c-0.3,0.8-0.7-0.2-1.1,0.2c0,0.7-0.3,1.3-1,1.6c-0.5,0.2-0.8,0.3-1.1,0.8c-0.2,0.4-0.9,0.4-1.2,0.8    c-1.3,1.3-2.6,2.4-4.3,3.1c-0.4,0.8-1.3,0.8-2,1.2c-0.3,0.1-0.6,0.3-0.8,0.4c-0.2,0.1-0.4,0.3-0.5,0.5c-0.1,0.7-0.5,0.8-1,0.9    c-0.3,0.1-0.7,0.1-0.9,0.3c-0.4,0.7-1.3,0.8-1.9,1.2c-0.6,0.4-1.2,0.8-1.6,1.3c-0.3,0.4-0.6,0.5-1,0.7c-0.5,0.2-1,0.4-1.5,0.5    c0.1,0.8-0.9,0.5-1.1,1c-0.3,0.6-0.9,0.5-1.5,0.7c-0.2,0.1-0.4,0.2-0.5,0.3c-0.2,0.4-0.6,0.6-1,0.8c-0.7,0.3-1.3,0.9-2.1,1.1    c-0.5,0.2-0.9,0.7-1.5,1c-1,0.4-1.8,1.1-2.9,1.2c-0.1,0-0.3,0.1-0.3,0.2c-0.3,0.7-0.9,0.6-1.4,0.8c-0.9,0.3-1.6,1.1-2.6,1.2    c-0.1,0-0.2,0.2-0.3,0.3c-0.3,0.4-0.7,0.6-1.1,0.6c-0.5,0-0.9,0.3-1.3,0.6c-0.2,0.2-0.5,0.4-0.8,0.4c-0.9,0.1-1.8,0.1-2.3,1    c-0.1,0.1-0.3,0.2-0.5,0.2c-1.6,0.1-2.8,0.9-4,1.8c-0.2,0.2-0.5,0.4-0.8,0.4c-0.9,0.1-1.8,0-2.3,1c-1.3,0.1-2.3,0.9-3.5,1.3    c-0.9,0.3-1.9,0.4-2.8,0.6l0,0c0,0,0,0,0,0c0,0,0,0,0,0c-0.3,0.2-0.5,0.4-0.8,0.6c-0.3,0.1-0.7,0.1-0.9,0.2    c-0.5,0.7-1.3,0.6-2,0.7c-0.4,0-0.9,0-1.1,0.2c-0.8,1-1.8,1-2.9,1.1c-0.4,0-1,0.1-1.2,0.4c-0.5,0.6-1.1,0.5-1.7,0.6    c-1,0.1-2-0.1-2.8,0.9c-0.2,0.2-0.6,0.2-0.9,0.2c-0.6,0.1-1.3,0.1-1.9,0.2c-0.4,0.1-0.8,0.1-1,0.3c-0.6,0.6-1.2,0.5-1.9,0.6    c-1,0.1-2-0.1-2.8,0.8c-0.1,0.2-0.5,0.2-0.7,0.2c-0.6,0.1-1.1,0-1.7,0.1c-0.7,0.2-1-0.7-1.6-0.7c-0.2,0.6-0.5,1-1.1,1.2    c-0.7,0.3-1.4,0.5-2.2,0.5c-1.2,0-2.4,0-3.5,0.6c-0.4,0.2-1,0.1-1.5,0c-0.5-0.1-0.9-0.1-1.4,0.2c-0.3,0.2-0.7,0.2-1.1,0.2    c-0.8,0-1.6,0-2.5,0.1c-0.6,0.1-1.4,0-1.8,0.4c-0.8,0.6-1.8,0.6-2.7,0.6c-2.7,0.2-5.4-0.2-8.1,0.3c-1.3,0.2-2.6,0.6-3.8,0.7    c-2.1,0.1-4.2,0.2-6.2,0.1c-1.3-0.1-2.6-0.2-3.9-0.2c-1.8,0-3.6,0.1-5.5,0.2c-2.6,0.1-5.1-0.1-7.7-0.3c-0.2,0-0.5-0.1-0.7-0.3    c-0.5-0.6-1.1-0.5-1.8-0.5c-2,0-3.9,0-5.9-0.1c-0.6,0-1.2,0.1-1.7-0.5c-0.2-0.2-0.6-0.1-0.9-0.2c-1.9-0.4-3.9-0.4-5.8-0.4    c-0.8,0-1.6,0.1-2.3-0.7c-0.1-0.2-0.5-0.2-0.7-0.2c-0.8-0.1-1.6-0.2-2.4-0.2c-0.8-0.1-1.6,0.2-2.2-0.7c-0.1-0.2-0.5-0.2-0.7-0.2    c-0.8-0.1-1.6-0.1-2.4-0.2c-0.8-0.1-1.8,0-2.4-0.4c-1.2-0.7-2.4-0.8-3.6-0.8c-0.6,0-1.2-0.2-1.8-0.5c-0.6-0.4-1.3-0.7-2.1-0.6    c-0.7,0.1-1.3-0.1-2-0.5c-0.4-0.3-0.9-0.4-1.4-0.5c-0.7-0.1-1.4,0-1.8-0.7c-0.1-0.2-0.5-0.2-0.7-0.2c-0.7-0.1-1.4-0.2-2-0.4    c-0.7-0.2-1.4-0.5-2.1-0.7c-1.7-0.5-3.3-1.4-5.2-1.5c-0.3,0-0.6-0.1-0.9-0.3c-0.5-0.3-1.2-0.5-1.7-0.7c-0.9-0.4-1.8-1.1-2.9-1.1    c-0.1,0-0.3-0.1-0.3-0.2c-0.5-0.8-1.2-0.8-2-0.8c-1-0.1-2-0.5-2.7-1.2c-0.4-0.4-0.8-0.5-1.3-0.6c-0.8-0.2-1.6-0.5-2.2-0.9    c-0.4-0.3-0.8-0.5-1.3-0.6c-0.4-0.1-0.9-0.3-1.2-0.6c-0.4-0.3-0.7-0.5-1.2-0.5c-0.2,0-0.5-0.1-0.7-0.2c-0.6-0.4-1.1-0.9-2-1    c-0.8-0.1-1.3-0.9-2-1.3c-0.6-0.3-1.2-0.7-1.9-0.8c-0.4-0.1-0.8-0.2-1.1-0.6c-0.2-0.3-0.6-0.4-1-0.5c-0.3-0.1-0.6-0.1-0.9-0.2    c-1.3-0.8-2.4-1.7-3.8-2.3c-0.3-0.7-1.1-0.6-1.6-0.9c-0.5-0.3-0.8-1-1.5-1c-0.6,0-0.6-0.7-1.1-0.9c-0.5-0.2-1-0.2-1.4-0.4    c-0.2-0.1-0.4-0.3-0.5-0.5c-0.3-0.6-0.8-1-1.4-1.2c-0.3-0.1-0.6-0.3-0.8-0.5c-0.4-0.5-1-0.7-1.6-0.8c-0.6-0.1-1.1-0.3-1.3-0.9    c-0.3-0.9-1-1.2-1.9-1.3c-0.4-0.1-0.9-0.2-1.2-0.4c-1.6-1.2-3.1-2.4-4.7-3.6c-0.7-0.5-1.4-1-2-1.6c-1.6-1.2-3.2-2.4-4.8-3.7    c-1-0.8-1.9-1.8-2.9-2.6c-1-0.7-1.8-1.8-2.8-2.4c-1.1-0.7-1.7-1.9-3-2.4c-1.4-1.3-2.7-2.7-4.1-4c-0.7-0.6-1.2-1.4-1.9-2    c-0.3-0.3-0.2-0.9-0.5-1.1c-0.3-0.3-0.7-0.3-1-0.7c-0.3-0.4-1-0.5-1.4-1c-2.4-2.6-4.8-5.2-7.2-7.9c-0.2-0.2-0.2-0.6-0.3-0.8    c-0.1-0.3-0.1-0.6-0.2-0.9c-1.3,0-1.9-0.9-2.5-1.8c-0.3-0.5-0.6-1-0.9-1.4c-1-1.2-2.3-2.1-2.9-3.6c-0.6-0.3-0.7-0.7-0.8-1.3    c-0.1-0.4-0.6-0.8-0.9-1.1c-0.4-0.5-1-0.8-1.3-1.4c-0.7-1.3-1.6-2.4-2.4-3.5c-0.6-0.8-1.3-1.7-1.6-2.7c-0.1-0.3-0.3-0.7-0.5-0.8    c-0.7-0.3-0.9-1-1.3-1.5c-0.3-0.5-0.5-1.1-0.9-1.4c-0.7-0.6-1-1.3-1.2-2.1c-0.2-1.1-0.9-1.9-1.7-2.5c-0.8-0.6-0.9-1.3-0.7-2.1    c-1.4-0.7-1.6-0.6-1.2-2.1c-0.5-0.3-0.9-0.6-1.3-0.9c-0.1-0.1,0.1-0.4,0.1-0.6l0,0c0,0,0-0.1-0.1-0.1c0,0,0,0,0.1,0.1    c0-0.1,0-0.1,0-0.2c0,0-0.1,0.1-0.1,0.1c-0.2-0.3-0.4-0.7-0.6-0.9c-0.8-0.8-1.3-1.6-1.3-2.8c0-0.3-0.4-0.6-0.6-0.9    c-0.5-0.8-1.2-1.4-1.3-2.4c-0.1-0.5-0.3-1-0.6-1.3c-0.4-0.5-0.8-1-0.8-1.7c-0.1-0.8-0.8-1.1-1.1-1.7c0-0.1,0-0.3-0.1-0.4    c-0.2-0.5-0.4-1.1-0.6-1.6c-0.3-0.6-0.7-1.2-0.9-1.9c-0.3-1.4-1.5-2.5-1.7-3.9c0-0.1-0.1-0.2-0.2-0.3c-0.5-0.4-0.6-1.1-0.7-1.7    c-0.2-0.9-0.3-1.9-0.8-2.7c-0.7-1.1-1.1-2.2-1.2-3.5c0-0.5-0.2-0.9-0.6-1.1c-0.4-0.2-0.5-0.5-0.5-0.9c-0.1-0.7-0.2-1.4-0.4-2    c-0.5-1.4-1.1-2.7-1.5-4c-0.5-1.5-1-3-1.3-4.5c-0.2-0.9-0.3-1.9-0.7-2.7c-0.2-0.5-0.3-1,0-1.6c0.3-0.7,0.8-1.6-0.5-2    c-0.1,0-0.2-0.3-0.2-0.5c-0.1-0.7-0.3-1.4-0.3-2.1c0-1-0.3-1.9-0.7-2.7c-0.3-0.7-0.5-1.4-0.6-2.2c-0.2-1.9-0.4-3.7-0.6-5.6    c-0.1-0.8-0.4-1.6-0.5-2.4c-0.2-1.8-0.4-3.6-0.4-5.4c0-6.2,0-12.3,0-18.5c0-0.8,0.1-1.6-0.4-2.4c-0.5,0-1.1-0.1-1.7-0.1    c-2,0-3.9,0-5.9,0c-1.5,0-1.5,0-2.7-0.8c-0.7,0.9-0.8,1.9-0.8,3c0.1,4.3,0.1,8.7,0,13c0,2.6-0.1,5.3,0.2,7.9    c0,0.4,0.1,0.8-0.1,1.1c-0.8,1.1-0.3,2.2-0.1,3.2c0.1,0.4,0.4,0.7,0.4,1c0.3,1.9,0.5,3.7,0.7,5.6c0.2,1.4,0.2,2.8,0.6,4.1    c0.5,1.7,0.7,3.4,0.9,5.2c0.1,0.9,0.2,1.9,0.5,2.8c0.4,1.2,0.7,2.4,0.8,3.7c0,0.4,0.1,0.8,0.3,1c0.4,0.5,0.5,1,0.6,1.6    c0.1,0.5,0.2,1,0.3,1.5c0.5,1.7,1.1,3.5,1.6,5.2c0.5,1.6,0.7,3.2,1.4,4.7c0.5,1,0.8,2.1,1.2,3.2c0.2,0.6,0.5,1.2,0.3,1.8    c-0.1,0.7,0.1,1.4,0.6,1.7c1,0.6,1,1.5,1.2,2.4c0.2,0.7,0.3,1.5,0.7,2.1c0.2,0.4,0.5,0.8,0.6,1.3c0.1,0.4,0.3,0.8,0.5,1.2    c1,1.7,1.8,3.4,2.6,5.2c1,2,1.9,3.9,2.4,6.1c0.1,0.4,0.3,0.9,0.7,1c0.9,0.3,1.1,1,1.2,1.8c0.2,1.3,1,2.5,1.8,3.5    c0.4,0.5,0.8,0.9,0.9,1.6c0,0.3,0.2,0.6,0.5,0.8c0.7,0.4,1,1.1,1.4,1.7c0.4,0.8,0.8,1.6,1.3,2.3c1.6,2.2,3.3,4.4,4.5,6.9    c1.2,1.2,1.6,3,2.9,4.1c0.1,0.1-0.1,0.3-0.1,0.5l0.1,0c0.2,0.1,0.4,0.1,0.5,0.2c0.3,0.5,0.5,1.1,0.9,1.6c0.4,0.5,1.1,0.6,1.2,1.3    c0,0.1,0.1,0.1,0.1,0.2c0.6,1.5,1.7,2.5,2.6,3.8c0.4,0.5,0.7,1.1,1.2,1.5c0.6,0.5,1.3,0.8,1.3,1.7c0,0.2,0.2,0.5,0.4,0.6    c0.7,0.3,1,0.9,1.3,1.5c0.2,0.3,0.4,0.8,0.7,0.9c0.9,0.3,1.1,1.1,1.7,1.7c1,1,1.7,2.4,2.9,3.3c1.5,1.1,2.7,2.7,4,4.1    c0.4,0.4,0.7,0.8,1.1,1.2c0.5,0.3,0.6,1,1.3,1.3c0.3,0.1,0.6,0.5,0.6,0.7c-0.1,0.7,0.4,0.7,0.7,0.9c0.4,0.3,1,0.5,1.2,0.8    c0.5,1.2,1.9,1.6,2.5,2.7c2.1,1.3,3.3,3.5,5.1,5.1c0.2,0.2,0.4,0.6,0.5,0.9c0.2-0.1,0.4-0.2,0.7-0.3c0.2,0.3,0.4,0.7,0.7,0.8    c1.2,0.7,2.1,1.7,3.1,2.5c0.5,0.4,1.1,0.7,1.4,1.2c0.4,0.7,0.8,1,1.6,1.2c0.2,0,0.3,0.4,0.5,0.5c0.3,0.4,0.6,0.8,1,1.1    c1,0.8,2.1,1.5,3.2,2.3c1,0.7,2.1,1.2,2.9,2.2c0.2,0.2,0.5,0.4,0.8,0.4c0.8,0.1,0.7,0.7,1,1.2c0.3-0.4,0.7-0.3,1,0    c2,1.7,4.2,3,6.4,4.3c0.3,0.2,0.7,0.3,0.9,0.6c0.5,0.7,1.1,1.3,2,1.4c0.4,0.1,0.6,0.7,0.9,0.8c1.3,0.5,2.4,1.2,3.4,2.2    c1,0.2,1.4,1.4,2.6,1.4c0.1,0,0.2,0.1,0.3,0.2c0.4,0.5,0.9,0.6,1.5,0.7c0.2,0,0.6,0.1,0.7,0.3c0.4,0.6,1,0.8,1.6,0.8    c0.7,0.1,1.2,0.3,1.6,0.9c0.5,1,1.4,1.3,2.5,1.3c0.4,0,0.8,0.1,1,0.3c0.4,0.5,1,0.7,1.6,0.8c0.4,0.1,0.8,0.7,1.2,0.8    c1,0.2,1.8,0.8,2.7,1.3c0.5,0.3,0.8,0.7,1.3,0.9c0.5,0.2,1.1,0.1,1.7,0.4c0.8,0.4,1.7,0.8,2.4,1.4c0.5,0.5,1.1,0.6,1.7,0.7    c0.9,0,1.7,0.3,2.3,1.1c0.7,0.9,1.6,1.1,2.7,1.2c1.7,0.1,3,1.1,4.6,1.5c0.1,0,0.1,0.1,0.2,0.1c0.4,0.5,0.9,0.6,1.5,0.6    c1.1,0.1,1.4,0.4,2.4,1.7c0.1,0.1,0.3,0.1,0.5,0.2c0,0,0.1,0,0.2-0.1c0.4-0.8,1-0.6,1.5-0.2c0.5,0.4,0.9,0.6,1.5,0.6    c0.8,0,1.6,0.2,2.3,0.8c0.3,0.3,0.9,0.3,1.4,0.4c0.8,0.1,1.5,0.2,2.1,0.7c0.5,0.4,1,0.5,1.6,0.5c0.8,0,1.6,0.2,2.3,0.7    c0.7,0.5,1.6,0.9,2.5,1.2c0.7,0.2,1.5,0.1,2.2,0.3c0.8,0.2,1.5,0.5,2.3,0.2c0.2-0.1,0.7,0,0.9,0.2c0.7,0.6,1.5,0.8,2.4,0.8    c0.4,0,0.7,0.2,1.1,0.3c0.5,0.2,1.1,0.3,1.6,0.5c1.2,0.3,2.5,0.5,3.7,0.4c0.4,0,0.9,0,1.1,0.2c1.1,0.9,2.3,0.7,3.6,0.8    c1.2,0.1,2.5,0,3.6,0.4c1.1,0.4,2.2,0.7,3.4,0.8c0.1,0,0.2,0.2,0.3,0.2c0.3,0.1,0.7,0.3,1,0.3c1.4,0.1,2.7,0.3,4.1,0.3    c3.1,0.1,6.3,0.1,9.4,0.1c0.8,0,1.6,0,2.5,0c3.3,0.1,6.7,0.2,10,0.2c4.7,0,9.4-0.2,14.2-0.3c1.7,0,3.4,0,5.1-0.1    c0.4,0,0.8,0,1.1-0.3c0.5-0.5,1.1-0.5,1.7-0.6c1.9-0.1,3.9-0.2,5.8-0.3c0.4,0,1,0,1.2-0.3c0.4-0.5,1-0.5,1.5-0.6    c0.8,0,1.6-0.1,2.5-0.1c0.8,0,1.5-0.1,2.2-0.5c0.6-0.4,1.3-0.5,2-0.3c1.5,0.5,2.8-0.5,4.1-0.7c0.6-0.8,1.4-0.6,2.2-0.7    c0.8-0.1,1.5-0.1,2.3-0.2c0.2,0,0.6,0,0.7-0.2c0.6-0.9,1.5-0.7,2.4-0.8c0.8-0.1,1.5-0.1,2.3-0.2c0.2,0,0.6-0.1,0.7-0.2    c0.4-0.8,1.2-0.6,1.8-0.7c0.5-0.1,1.3-0.1,1.6-0.4c0.6-0.7,1.2-0.6,1.9-0.6c0.7,0,1.5,0,2-0.5c0.5-0.5,1.1-0.6,1.7-0.6    c0.5-0.1,1.1-0.1,1.4-0.4c0.6-0.5,1.1-0.7,1.8-0.7c0.3,0,0.6-0.2,0.8-0.4c0.4-0.2,0.8-0.4,1.2-0.6c0.9-0.3,1.8-0.4,2.7-0.7    c1-0.3,2-0.6,2.8-1.2c0.2-0.2,0.6-0.3,0.9-0.3c1.1-0.1,2.2-0.1,3.1-1c0.1-0.2,0.5-0.1,0.7-0.2c0.2-0.1,0.6-0.1,0.7-0.2    c0.5-0.8,1.4-0.8,2.2-1c0.2,0,0.5-0.1,0.7-0.3c0.6-0.9,1.2-0.5,1.8-0.1c0.5-0.4,0.9-0.8,1.3-1.1c0.5-0.3,1-0.4,1.5-0.7    c0.5-0.3,0.9-0.9,1.6-0.7c1-0.7,2-1.4,3.3-1.7c0.4-0.6,1.1-0.6,1.6-0.9c0.9-0.5,1.7-1.1,2.7-1.1c0.1,0,0.2-0.1,0.3-0.2    c0.4-0.4,0.7-0.9,1.4-0.9c0.7,0,0.9-0.9,1.5-1c0.8-0.1,1.1-0.8,1.7-1c0.6-0.3,1.3-0.4,2-0.6c0.2-0.1,0.4-0.3,0.6-0.4    c0.6-0.4,1.3-0.7,1.7-1.3c0.9,0.1,1.2-1,1.9-1.1c0.8-0.1,1.3-0.7,1.9-1.1c0.6-0.4,1.2-0.8,1.9-1.1c0.9-0.4,1.6-1.1,2.6-1.3    c0.3-0.1,0.7-0.5,0.9-0.9c0.6-0.7,1.2-1.2,2.2-1.3c0.3,0,0.7-0.1,0.9-0.3c0.4-0.7,1.1-0.8,1.7-1.2c0.5-0.3,0.9-0.7,1.2-1.2    c0.2-0.3,0.4-0.6,0.8-0.6c0.4,0,0.7-0.2,0.9-0.5c0.2-0.2,0.4-0.4,0.7-0.5c0.8-0.3,1.3-0.9,1.9-1.5c0.2-0.2,0.3-0.5,0.4-0.6    c1-0.2,1.6-1,2.2-1.6c0.5-0.5,0.9,0.1,1.2-0.1c0.4-0.6,0.6-1.3,1-1.5c0.7-0.3,1-0.9,1.5-1.2c1-0.6,1.8-1.3,2.5-2.2    c0.4-0.5,1-1,1.6-1.2c0.8-0.3,1.3-0.9,1.8-1.5c0.5-0.6,1.1-1.3,1.7-1.7c0.5-0.3,0.9-0.8,1.4-1.1c1.3-1,2.4-2.3,3.7-3.4    c1.3-1.1,2.6-2.3,3.6-3.7c0.3-0.3,0.7-0.5,1-0.8c0.7-0.6,1.4-1.1,2.1-1.8c1.3-1.3,2.5-2.6,3.7-4c0.5-0.5,1.1-0.9,1.4-1.5    c0.3-0.7,0.9-1.2,1.4-1.7c0.7-0.8,1.7-1.3,2-2.4c1.4-1.5,2.4-3.4,4.2-4.5c0.2-0.2,0.6-0.5,0.6-0.7c0-1,1.1-1.4,1.3-2.2    c1.4-1.3,2.6-2.8,3.6-4.5c0.8-1.3,1.8-2.5,3-3.6c0.8-0.8,1.3-2,1.9-3c0.3-0.6,0.4-1.2,1.2-1.3c0.2,0,0.5-0.4,0.6-0.6    c0.3-0.7,0.6-1.4,0.9-2.1c0.2-0.5,0.3-1,0.6-1.3c0.6-0.5,0.8-1.2,1.3-1.8c0.8-1,1.3-2.1,1.9-3.2c0.2-0.3,0.4-0.6,0.7-0.9    c0.7-0.5,1.1-1.2,1.2-2c0.1-0.9,0.6-1.6,1.1-2.4c0.2-0.2,0.5-0.5,0.6-0.7c0.6-1.9,1.9-3.3,2.8-5.1c0.8-1.7,1.7-3.5,2.6-5.2    c0.7-1.1,1.2-2.4,1.7-3.6c0.1-0.2,0.2-0.4,0.2-0.5c0-1,0.5-1.8,1-2.6c0.3-0.5,0.5-1.1,0.7-1.7c0.4-1,0.8-2,1.2-3    c0.1-0.3,0.4-0.7,0.4-1c0.2-0.9,0.2-1.8,1-2.3c0.2-0.1,0.1-0.5,0.2-0.7c0.1-0.4,0.1-0.9,0.2-1.3c0.1-0.8,0.9-1.4,1.1-2.1    c0.2-0.8,0.1-1.6,0.5-2.4c0.5-1.3,0.9-2.6,1.3-3.9c0.3-1.1,0.7-2.2,1-3.2c0.2-0.7,0.3-1.3,0.4-2c0.1-0.7,0.1-1.5,0.8-2    c0.2-0.1,0.3-0.4,0.3-0.6c0.4-1.7,0.9-3.4,1-5.2c0.2-3,1-5.9,1.3-8.9c0.1-1.1,0.2-2.3,0.9-3.2c0.1-0.1,0.1-0.4,0.1-0.5    c0-1,0-2,0.1-3c0-1.8,0-3.5,0.1-5.3c0.2-4.1,0.4-8.3,0.5-12.4c0.1-3.1,0-6.2,0-9.3C564.5,473.6,564.5,472.9,564.1,472.4z     M540.3,183.3c0,0.4-0.1,0.8,0.5,1c0.1-0.1,0.4-0.2,0.5-0.4c1.2-1.3,2.4-2.5,3.8-3.6c0.2-0.2,0.4-0.5,0.5-0.7    c0.1-0.4,0.1-0.7,0.1-1.1c0-3.7,0-7.3,0-11c0-8.2,0-16.4,0-24.6c0-2.2,0-4.4,0-6.6c0-0.8-0.3-1.2-1.1-1.5c-1.4-0.4-2.7-1-4.1-1.5    c-2.1-0.8-4.2-1.6-6.4-2.3c-0.8-0.3-1.5-0.6-2-1.2c-1.4,0.2-2.5-0.3-3.7-0.7c-3.5-1.2-7-2.5-10.5-3.7c-1.1-0.4-2.2-0.7-3.3-1.2    c-2.2-1-4.5-1.6-6.7-2.4c-1.1-0.4-2.2-0.8-3.4-1.2c-1.2-0.4-2.4-0.7-3.6-1.2c-2.1-0.8-4.2-1.7-6.4-2.2c-0.2,0-0.4-0.1-0.5-0.2    c-0.6-0.3-1.2-0.4-1.7-0.9c-0.6-0.6-1.3-0.3-1.9-0.6c-3.1-1.2-6.2-2.2-9.2-3.3c-2.2-0.8-4.5-1.5-6.7-2.4c-2.1-0.9-4.3-1.5-6.4-2.2    c-1.8-0.6-3.6-1.2-5.3-1.8c-1.4-0.5-2.8-1.1-4.2-1.6c-1.7-0.6-3.5-1.1-5.2-1.8c-1.7-0.7-3.5-1.2-5.2-2.1c-1.5-0.8-3.3-1.1-5-1.7    c-5.5-1.9-11-3.8-16.5-5.8c-2.5-0.9-5.1-1.9-7.6-2.8c-1.6-0.6-3.2-1.1-4.8-1.7c-1.6-0.6-3.2-1.3-4.9-1.8c-2.9-0.9-5.8-1.8-8.5-3    c-1.8-0.7-3.8-0.9-5.3-2.3c-0.1-0.1-0.3-0.1-0.5-0.1c-1.4-0.2-2.8-0.5-4.1-1.1c-0.8-0.4-1.7-0.9-2.7-0.7c-0.1,0-0.3,0-0.3-0.1    c-0.6-1-1.7-0.9-2.6-1.3c-3.5-1.3-7-2.5-10.5-3.8c-3.8-1.4-7.7-2.7-11.5-4.1c-1.3-0.5-2.5-0.6-3.8,0c-1.2,0.5-2.3,0.9-3.5,1.4    c-2,0.7-3.9,1.3-5.9,2c-3.4,1.2-6.9,2.5-10.3,3.7c-1.1,0.4-2.1,0.9-3.2,0.9c-0.1,0-0.3,0-0.4,0.1c-1.4,1-3.1,1.3-4.6,2    c-1,0.4-2,0.7-2.9,1.2c-1,0.5-2.2,0.6-3.2,1c-2.9,1-5.7,2.2-8.6,3.1c-1.6,0.5-3.1,1.1-4.6,1.6c-2.6,0.9-5.2,1.9-7.8,2.8    c-0.8,0.3-1.5,0.6-2.3,0.8c-0.9,0.3-1.8,0.6-2.7,0.7c-1,0.1-1.6,0.8-2.5,1.2c-0.1,0.1-0.2,0.1-0.4,0.1c-1.9,0.3-3.5,1.3-5.4,1.7    c-1.5,0.3-2.9,1.1-4.4,1.6c-1.5,0.5-2.9,1.3-4.4,1.5c-0.1,0-0.2,0.1-0.4,0.1c-2.1,0.7-4.1,1.7-6.2,2.2c-0.6,0.1-1.2,0.2-1.8,0.3    c-0.3,0.7-1.2,0.7-1.7,1.1c-0.1,0.1-0.3,0.2-0.5,0.2c-1.5,0.5-3.1,1-4.6,1.5c-1.9,0.7-3.9,1.4-5.8,2.1c-2.4,0.9-4.9,1.7-7.3,2.5    c-0.8,0.3-1.6,0.6-2.5,0.9c-1.4,0.5-2.7,0.9-4.1,1.4c-2.8,1-5.5,2-8.3,3c-1.4,0.5-2.8,1-4.3,1.5c-2.3,0.8-4.5,2-7,2.2    c-0.2,0-0.4,0.2-0.7,0.3c-0.4,0.2-0.7,0.4-1.1,0.6c-2.5,0.9-4.9,1.9-7.4,2.8c-1.5,0.6-3.1,1-4.6,1.6c-0.8,0.3-1.7,0.5-2.5,0.8    c-2.4,0.8-4.8,1.8-7.2,2.7c-3.3,1.2-6.6,2.4-9.9,3.6c0.2,0.3,0.4,0.4,0.9,1c-1.3-0.8-2.2-0.6-3.2-0.2c-1.9,0.7-3.9,1.4-5.9,2.1    c-3,1.1-6,2.2-9.1,3.3c-0.2,1.7-0.3,41.1,0,42.7c0.4,0.3,0.8,0.5,1.2,0.9c0.9,0.9,1.8,1.7,2.7,2.6c0.4,0.3,0.4,0.5,0.6,1.7    c-0.2-0.1-0.4-0.1-0.5-0.2c-0.9-0.8-1.8-1.6-2.7-2.4c-0.4-0.4-0.7-1-1-1.5c-0.1,0.1-0.2,0.1-0.2,0.1c-0.1,0.1-0.1,0.2-0.2,0.3    c0,0.2-0.1,0.4-0.1,0.6c0,44.8,0,89.7,0,134.5c0,0.1,0,0.1,0.1,0.2c0,0.1,0.1,0.1,0.1,0.2c1.5,0.4,3.6,0.4,5.2-0.1    c0.3-0.7,0.2-1.5,0.2-2.2c0-7.3,0-14.6,0-21.9c0-7.4,0-14.7,0-22.1c0-7.3,0-14.6,0-21.9c0-7.4,0-14.7,0-22.1c0-7.3,0-14.6,0-21.9    c0-7.4,0-14.7,0-22.1c0-7.8,0-15.6,0-23.4c0-5.4,0-10.7,0-16.1c0-0.7-0.1-1.4,0.5-2.1c1.6-0.6,3.3-1.1,5.1-1.7    c4.2-1.5,8.4-3,12.6-4.5c3.7-1.3,7.5-2.6,11.2-4c1.7-0.6,3.3-1.2,5-1.8c1.3-0.5,2.6-0.9,3.9-1.3c1.6-0.6,3.2-1.2,4.7-1.8    c6.3-2.2,12.6-4.4,18.9-6.6c1.9-0.7,3.9-1.5,5.8-2.2c2.4-0.9,4.9-1.7,7.3-2.5c0.6-0.2,1.3-0.6,1.9-0.8c1.9-0.7,3.8-1.3,5.7-1.9    c2.5-0.9,5-1.8,7.4-2.7c4.4-1.5,8.8-3,13.2-4.6c4.3-1.6,8.6-3.1,13-4.6c2.3-0.8,4.6-1.6,6.9-2.4c3.8-1.4,7.6-2.7,11.4-4.1    c2.5-0.9,5.1-1.8,7.6-2.7c4.7-1.7,9.5-3.4,14.2-5.1c4.6-1.6,9.1-3.2,13.7-4.8c2.5-0.9,5-1.7,7.4-2.7c1.1-0.4,2.1-0.5,3.1,0    c0.6,0.3,1.2,0.5,1.7,0.7c1.6,0.6,3.3,1,4.8,1.7c1.5,0.7,3.2,1,4.7,1.7c2.9,1.2,5.9,2.1,8.8,3.2c3.3,1.3,6.8,2.4,10.1,3.6    c1.5,0.5,3.1,1,4.6,1.6c1.5,0.6,3.1,0.9,4.5,1.6c1.3,0.6,2.7,1,4.1,1.4c1.4,0.4,2.7,1.1,4,1.5c4.6,1.5,9.1,3.2,13.7,4.8    c3.1,1.1,6.3,2.2,9.4,3.3c3.4,1.2,6.8,2.4,10.1,3.6c5,1.8,9.9,3.5,14.9,5.3c1.6,0.6,3.2,1.1,4.8,1.8c1.6,0.6,3.3,1,4.9,1.7    c1.9,0.8,3.9,1.4,5.8,2.1c5,1.8,10,3.4,14.9,5.3c3.3,1.3,6.8,2.3,10.1,3.5c2.6,0.9,5.1,1.8,7.6,2.7c3.7,1.3,7.5,2.6,11.2,4    c1.8,0.6,3.6,1.3,5.3,1.9c2.3,0.8,4.6,1.7,6.9,2.5c3,1.1,6,2.2,9.1,3.2c0.8,0.3,1.1,0.7,1.1,1.5c0,0.3,0,0.6,0,0.9    c0,9.6,0,19.1,0,28.7C540.4,174.3,540.3,178.8,540.3,183.3z M259.5,109.3c-0.1,0-0.2,0.1-0.3,0.1    C259.3,109.4,259.4,109.3,259.5,109.3c0,0.1,0.1,0.1,0.1,0.2C259.6,109.4,259.5,109.4,259.5,109.3z M320,88.5    c0-0.1-0.1-0.2-0.1-0.3C319.9,88.3,319.9,88.4,320,88.5C320,88.5,320,88.5,320,88.5z M355.1,72.8    C355.1,72.8,355.1,72.8,355.1,72.8c0,0.1,0,0.1,0,0.2C355.1,72.9,355.1,72.8,355.1,72.8z M355.1,73C355.1,73,355.1,73,355.1,73    C355.1,73,355.1,73,355.1,73C355.1,73,355.1,73,355.1,73z M375.8,79.2c-0.1,0-0.2,0-0.3,0C375.6,79.2,375.7,79.2,375.8,79.2    C375.8,79.2,375.8,79.2,375.8,79.2z M277.3,630.8c-2.2-1.2-4.4-2.4-6.6-3.6c-1.1-0.6-2.2-1.2-3.3-1.9c-1.1-0.6-1.8-1.8-3.1-2    c-0.2,0-0.4-0.3-0.6-0.5c-0.5-0.6-1.1-1-1.8-1.2c-0.4-0.1-0.8-0.4-1.1-0.7c-0.8-0.9-1.9-1.4-2.9-2c-1-0.7-2-1.3-2.8-2.2    c-0.3-0.3-0.7-0.5-1.1-0.7c-0.6-0.4-1.2-0.7-1.7-1.2c-0.5-0.4-0.9-1-1.5-1.4c-0.5-0.4-1.2-0.7-1.8-1c-0.2-0.1-0.4-0.3-0.6-0.5    c-1.1-0.9-2.1-1.8-3.2-2.7c-1.9-1.6-3.7-3.2-5.6-4.8c-0.9-0.8-1.7-1.7-2.6-2.5c-1.8-1.7-3.7-3.4-5.5-5.2c-0.9-0.9-1.8-1.9-2.7-2.9    c-0.5-0.6-1-1.1-1.5-1.7c-1-1-2.1-2-3-3.1c-2.7-3.2-5.6-6.3-8.1-9.7c-0.8-1.1-1.7-2.1-2.4-3.1c-0.4-0.6-0.8-1.2-1-1.8    c-0.3-0.8-1.1-0.9-1.5-1.6c-0.5-0.9-1.1-1.7-1.7-2.5c-0.7-1-1.4-1.9-2.1-2.9c-2.5-4.1-5-8.2-7.3-12.3c-2.4-4.2-4.5-8.6-6.5-13    c-0.9-2.1-1.8-4.3-2.7-6.5c-0.2-0.4-0.3-0.9-0.8-1c-1.2,1.3-2.4,2.5-3.8,3.9c0.2,0.7,0.3,1.3,0.6,1.9c0.8,1.8,1.7,3.5,2.4,5.3    c1.2,3,2.7,6,4.2,8.8c0.5,0.9,1,1.8,1.4,2.7c0.3,0.6,0.4,1.2,0.7,1.7c0.3,0.5,0.8,1,1.1,1.5c1.3,2.2,2.6,4.3,3.9,6.5    c0.3,0.5,0.6,0.9,0.6,1.6c0,0.2,0.2,0.6,0.5,0.8c1.4,1.2,2.5,2.6,3.1,4.3c0.1,0.2,0.1,0.4,0.3,0.5c1,0.6,1.4,1.6,2,2.4    c1.4,1.7,2.7,3.4,3.7,5.4c0.1,0.3,0.4,0.5,0.6,0.7c0.8,0.5,1.3,1.2,1.8,1.9c0.8,1.2,1.8,2.3,2.7,3.4c1.8,2.2,3.9,4.2,5.6,6.6    c0.4,0.6,1,1.1,1.5,1.6c1.2,1.2,2.4,2.4,3.6,3.6c0.4,0.4,0.7,0.7,1,1.1c2,1.9,4,3.8,6,5.7c0.8,0.7,1.4,1.7,2.3,2.2    c2.1,1.4,3.8,3.2,5.8,4.8c1.8,1.4,3.6,3,5.4,4.4c2,1.5,4,3,6.1,4.4c4.2,2.9,8.3,5.8,12.8,8.4c4.6,2.7,9.2,5.3,13.9,7.6    c0.8,0.4,1.7,1,2.6,1.2c1,0.3,1.7,0.8,2.1,1.4c0.8,0.2,1.4,0.3,1.9,0.6c5.1,2.3,10.3,4.3,15.6,6.2c1.2,0.4,2.5,0.7,3.8,1.2    c1.2,0.4,2.3,0.9,3.6,1c0.3,0,0.6,0.2,0.8,0.4c0.9,0.6,1.7,1.3,2.9,0.8c0.1,0,0.2,0,0.4,0.1c0.9,0.2,1.8,0.5,2.7,0.7    c1.9,0.5,3.9,1.1,5.9,1.2c0.2,0,0.5,0.1,0.7,0.2c0.5,0.1,0.9,0.4,1.4,0.4c1.1,0.2,2.2,0.3,3.3,0.5c0.2,0,0.5,0.2,0.7,0.3    c0.3,0.1,0.6,0.3,0.9,0.3c2.8,0.4,5.6,0.9,8.4,1.3c3.6,0.4,7.1,0.7,10.7,1c2.6,0.2,5.2,0.1,7.7,0.3c4.5,0.3,8.9,0,13.4-0.1    c3.6-0.1,7.2-0.4,10.7-0.8c2.1-0.3,4.3-0.1,6.3-1c0.2-0.1,0.5,0,0.7-0.1c0.9-0.1,1.7-0.3,2.6-0.3c1.4-0.1,2.8-0.4,4.2-0.7    c1.5-0.3,3-0.6,4.4-0.9c1.8-0.4,3.5-1,5.3-1.3c1.7-0.3,3.4-0.8,5.1-1.3c1-0.3,2-0.7,3-1c1.5-0.4,3.1-0.7,4.5-1.3    c1.5-0.5,3.1-0.8,4.6-1.5c1.8-0.9,3.7-1.5,5.6-2.2c2.3-0.8,4.5-2,6.8-2.7c1.4-0.5,2.7-1.3,4.1-1.9c5.7-2.8,11.3-5.6,16.7-8.9    c2.5-1.5,5.1-3,7.5-4.7c1.6-1.1,3.3-2.2,4.8-3.3c1.6-1.1,3.3-2,4.7-3.4c0.7-0.6,1.5-1.1,2.2-1.7c2.1-1.8,4.4-3.4,6.4-5.2    c1.4-1.3,3-2.3,4.4-3.6c2.4-2.2,4.8-4.4,7.1-6.7c3.5-3.6,7.1-7.1,10.4-11c1.9-2.2,3.8-4.4,5.6-6.6c1.9-2.4,3.7-4.8,5.5-7.2    c0.4-0.5,0.9-0.9,1.2-1.4c0.7-1,1.3-2,1.9-3c0.5-0.8,1.1-1.6,1.6-2.3c0.5-0.8,1-1.6,1.5-2.4c0.5-0.7,1-1.5,1.5-2.2    c0.5-0.8,0.9-1.8,1.6-2.3c0.9-0.7,0.6-1.8,1.3-2.4c0.1-0.1,0.1-0.2,0.2-0.3c0.6-0.9,1.2-1.8,1.6-2.7c1.5-3,3-5.9,4.5-8.9    c0.4-0.8,0.9-1.6,1.5-2.4c0.6-0.7,0.6-1.9,1-2.8c1.1-2.3,1.8-4.7,2.8-7c0.1-0.3,0.2-0.7,0.3-1.1c-0.1,0.1-0.2,0.2-0.4,0.3    c-0.4-0.6-0.8-1.4-1.4-1.8c-0.9-0.6-1.5-1.3-2-2.2c0-0.1-0.2,0-0.4-0.1c-0.1,0.3-0.3,0.6-0.4,1c-0.2,0.6-0.4,1.2-0.7,1.7    c-1,2.3-1.5,4.8-3.1,6.8c-0.1,0.1,0,0.2,0,0.4c-0.2,0.6-0.4,1.2-0.6,1.8c-1.4,2.8-2.8,5.6-4.2,8.4c-0.5,1-0.9,2-1.6,2.8    c-0.8,0.9-1,2-1.6,3c-0.5,0.8-0.9,1.6-1.5,2.4c-0.8,1-1,2.5-2.3,3.2c-0.2,0.1-0.2,0.5-0.3,0.7c-0.2,0.4-0.3,0.8-0.5,1.2    c-0.5,1-0.5,1-0.3,2.1c-0.3,0-0.6-0.1-0.9-0.1c-0.1,0.1-0.1,0.1-0.2,0.1c-1.6,2.3-3.2,4.6-4.9,6.9c-0.5,0.7-0.9,1.5-1.7,2    c-0.2,0.1-0.4,0.4-0.5,0.7c-0.3,0.8-0.8,1.4-1.4,1.9c-0.3,0.2-0.4,0.6-0.7,0.9c-1,1.3-1.8,2.7-3.1,3.7c-0.2,0.2-0.5,0.4-0.6,0.7    c-0.6,1.1-1.4,1.9-2.2,2.8c-0.6,0.7-1.1,1.4-1.7,2c-0.6,0.6-1.5,1.1-1.8,2.1c-1.8,1.8-3.5,3.6-5.3,5.4c-1.1,1.1-2.3,2-3.3,3.1    c-2,2.3-4.4,4.1-6.6,6.2c-0.2,0.2-0.5,0.4-0.8,0.5c-0.4,0.1-0.6,0.4-0.8,0.7c-2.1,1.8-4,3.9-6.5,5.1c-0.2,0.1-0.4,0.3-0.5,0.5    c-0.3,0.3-0.5,0.6-0.8,0.8c-1.5,1.2-3.1,2.2-4.5,3.4c-0.7,0.6-1.5,1.2-2.4,1.5c-1,0.3-1.5,1.3-2.3,1.9c-0.1,0.1-0.2,0.2-0.3,0.2    c-1.9,0.8-3.4,2.4-5.4,3c-0.2,0.1-0.5,0.2-0.6,0.4c-1,1.1-2.2,1.6-3.4,2.3c-0.5,0.3-1.1,0.6-1.6,0.9c-2.3,1.3-4.6,2.6-6.9,3.8    c-3.9,2.1-7.9,3.9-11.9,5.7c-1,0.4-1.9,1-2.9,1.3c-2,0.6-4,1.4-6,2.3c-1.3,0.6-2.6,0.8-3.9,1.3c-2.2,0.9-4.5,1.5-6.8,2.3    c-0.5,0.2-1,0.2-1.5,0.4c-2,0.6-4,1.4-6.1,1.7c-0.2,0-0.4,0.1-0.5,0.2c-0.8,0.1-1.4,0.5-2.1,0.8c-0.7,0.3-1.6,0.3-2.4,0.4    c-0.6,0.1-1.3,0.1-1.9,0.3c-1.5,0.6-3,0.7-4.6,0.9c-0.7,0.1-1.3,0.3-1.8,0.9c-1.1-0.3-2-0.3-3,0c-0.7,0.2-1.4,0.2-2.1,0.2    c-0.4,0-0.8,0-1.1,0.1c-1.1,0.6-2.3,0.4-3.5,0.5c-2.4,0.2-4.9,0.4-7.3,0.6c-0.2,0-0.4,0.1-0.5,0.1c-0.5,0.2-1,0.5-1.6,0.5    c-0.6,0.1-1.3-0.1-1.9-0.1c-1.1,0-2.1-0.1-3.2-0.1c-5.1,0-10.2,0.1-15.3,0.1c-0.4,0-0.9-0.1-1.3-0.2c-0.5-0.1-1-0.2-1.5-0.3    c-2.2-0.4-4.4-0.2-6.5-0.8c-0.2-0.1-0.5,0-0.7,0c-1.1,0.1-2.2,0.4-3.2-0.5c-0.2-0.2-0.6-0.1-0.9-0.1c-1.6-0.2-3.3-0.3-4.9-0.7    c-1.8-0.5-3.6-0.7-5.4-0.9c-0.2,0-0.6,0-0.7-0.1c-0.7-0.6-1.5-0.5-2.3-0.6c-0.8-0.1-1.6-0.2-2.4-0.3c-0.2,0-0.5,0-0.5-0.1    c-0.5-0.7-1.3-0.7-2-0.9c-1.5-0.3-2.9-0.7-4.3-1.2c-0.4-0.1-0.7-0.1-1.1-0.2c-0.2,0-0.5,0-0.7-0.2c-1.4-0.8-3.1-1-4.6-1.6    c-2-0.8-4-1.3-6-2.1c-3.2-1.2-6.3-2.4-9.4-3.7c-2.8-1.3-5.6-2.5-8.4-3.9C281.4,633,279.4,631.9,277.3,630.8z M209.7,577.7    L209.7,577.7C209.7,577.7,209.7,577.7,209.7,577.7C209.7,577.7,209.7,577.7,209.7,577.7z M266.7,629.8L266.7,629.8    C266.8,629.8,266.8,629.8,266.7,629.8C266.8,629.8,266.8,629.8,266.7,629.8z M498,591.6C498,591.6,498,591.6,498,591.6    c0-0.1-0.1-0.2-0.1-0.3C497.9,591.4,497.9,591.5,498,591.6z M493.4,596.2C493.4,596.2,493.4,596.2,493.4,596.2c0,0.1,0,0.2,0,0.3    C493.4,596.4,493.4,596.3,493.4,596.2z M488.7,604.5L488.7,604.5c0-0.1,0-0.1,0-0.2C488.6,604.3,488.6,604.4,488.7,604.5z     M453,630.8C453,630.8,453,630.8,453,630.8c-0.1,0.1-0.1,0.2-0.2,0.2C452.9,631,453,630.9,453,630.8z M367.6,541.4    c-1.7-3.4-3.4-6.8-5.1-10.1c-0.4-0.7-0.7-1.5-1.4-2.3c-0.3,0.5-0.4,0.7-0.5,0.9c-1.1,2.1-2.1,4.3-3.2,6.4c-0.8,1.5-1.5,3-2.2,4.5    c-0.3,0.8-0.6,1.7-1.6,2c-0.1,0-0.3,0.3-0.2,0.4c0.1,0.7-0.4,0.9-0.9,0.9c-2.3,0.2-4.6,0.2-6.9,0.9c-0.2,0.1-0.4,0-0.6,0    c-1.9,0.2-3.9,0.5-5.8,0.7c-0.6,0.1-1.2,0.2-1.7,0.8c3.9,3.8,7.7,7.6,11.6,11.4c-0.4,2.4-0.6,4.7-1.1,6.9    c-0.6,2.8-0.9,5.6-1.4,8.4c0,0.2,0.1,0.4,0.1,0.6c0.2,0,0.4,0.1,0.5,0c0.7-0.3,1.5-0.7,2.2-1.1c3.6-1.9,7.2-3.8,10.8-5.7    c0.6-0.3,1.1-0.4,1.8,0c1.4,0.8,2.8,1.4,4.2,2.2c2.5,1.3,4.9,2.8,7.5,4c0.6,0.3,1.3,0.8,2.1,0.6c0-0.2,0.1-0.4,0.1-0.6    c-0.2-1.3-0.6-2.6-0.8-3.9c-0.3-2.4-0.7-4.7-1.2-7.1c-0.2-1.1-0.4-2.2-0.6-3.3c-0.2-0.9,0.1-1.5,0.8-2.1c2.6-2.3,4.8-4.9,7.5-7.1    c1-0.8,1.8-1.9,2.6-2.9c0.1-0.2,0.2-0.4,0.4-0.7c-0.9-0.3-1.7-0.5-2.5-0.5c-0.6-0.1-1.3-0.1-1.8-0.5c-0.5-0.4-1.1-0.4-1.6-0.2    c-0.9,0.2-1.7,0.2-2.6-0.1c-0.6-0.2-1.4-0.3-2-0.3c-1.3-0.1-2.6-0.2-3.9-0.4c-0.5-0.1-1.1-0.3-1.6-0.5c-0.1,0-0.1-0.2-0.1-0.3    c0.1-0.1,0.3-0.2,0.4-0.3C368.1,542.5,368.1,542.5,367.6,541.4z M346.4,553.1c0,0-0.1-0.1-0.1-0.1    C346.3,553,346.3,553.1,346.4,553.1C346.4,553.1,346.4,553.1,346.4,553.1z M383,547.1C383,547.1,383,547.1,383,547.1    C383,547.1,383,547.1,383,547.1C383,547.1,383,547.1,383,547.1z M371.7,155c1.1-0.9,2-2.1,2.9-3.2c0.1-0.1,0.1-0.3,0.1-0.6    c-0.9-0.1-1.8-0.2-2.6-0.4c-0.5-0.1-1-0.1-1.4-0.4c-0.6-0.4-1.2-0.4-1.8-0.2c-0.9,0.2-1.7,0.2-2.6-0.2c-0.6-0.2-1.2-0.2-1.9-0.3    c-1.4-0.1-2.8-0.2-4.1-0.3c-0.6,0-1.1-0.1-1.5-0.7c0.1-0.3,0.4-0.6-0.1-0.8c-0.5-0.1-0.7-0.4-0.9-0.9c-0.3-0.6-0.6-1.2-0.9-1.8    c-1.7-3.4-3.4-6.9-5.2-10.3c-0.1-0.3-0.2-0.6-0.6-0.6c-0.1,0.1-0.3,0.1-0.3,0.2c-0.9,1.8-1.7,3.6-2.6,5.4c-0.9,1.8-2,3.5-2.7,5.4    c-0.1,0.2-0.2,0.5-0.3,0.7c-0.4,0.8-0.7,1.6-1.6,2c-0.1,0-0.2,0.3-0.2,0.5c0.2,0.8-0.4,0.8-0.8,0.9c-2.3,0.2-4.6,0.3-6.9,0.9    c-0.2,0.1-0.5,0-0.8,0.1c-1.9,0.2-3.9,0.5-5.8,0.8c-0.5,0.1-1.1,0.2-1.5,0.7c0.2,0.3,0.4,0.5,0.6,0.7c3.2,3.2,6.4,6.4,9.7,9.5    c0.8,0.8,1.2,1.5,1,2.6c-0.1,0.4-0.1,0.9-0.2,1.3c-0.3,1.5-0.4,3.1-0.8,4.6c-0.5,2.1-0.8,4.2-1.1,6.3c-0.1,0.7-0.3,1.5,0,2.3    c0.9-0.1,1.7-0.6,2.4-1c3.3-1.7,6.6-3.5,9.8-5.2c0.7-0.3,1.3-0.8,2-1c0.9-0.2,1.5,0.6,2.2,1c3.4,1.8,6.9,3.7,10.3,5.5    c0.6,0.3,1.4,0.5,2.1,0.8c0.1-0.3,0.2-0.5,0.2-0.6c-0.3-1.8-0.6-3.6-0.9-5.4c-0.3-1.7-0.7-3.4-1-5.2c-0.2-1.4-0.4-2.7-0.7-4.1    c-0.1-0.7,0.1-1.2,0.6-1.7c1.3-1.2,2.6-2.5,4-3.8C369.2,157.3,370.3,156.1,371.7,155z M372.7,152C372.7,152,372.7,152,372.7,152    c0,0.1-0.1,0.2-0.1,0.3C372.6,152.2,372.7,152.1,372.7,152z M540.4,314.8c1.7,0.4,3.7,0.4,5.2,0c0-0.5,0.1-1.1,0.1-1.6    c0-2.7,0-5.4,0-8.1c0-38.8,0-77.7,0-116.5c0-2,0-4,0-6c0-0.4,0.1-0.9-0.5-1.2c-0.4,0.5-0.8,1-1.2,1.5c-0.6,0.6-1.2,1.3-1.9,1.8    c-1.4,1.1-1.7,2.4-1.7,4.1c0,41.4,0,82.8,0,124.3C540.4,313.6,540.4,314.2,540.4,314.8z M288.9,158.5c-0.4,2-0.7,4.1-1,6.1    c-0.1,0.3-0.1,0.6,0.4,0.9c1.6-0.6,3.2-1.6,4.8-2.4c1.6-0.8,3.2-1.7,4.9-2.5c1.9,1.1,4.1,1.8,6,3.1c1.1,0.7,2.4,1.1,3.6,1.6    c0.1,0,0.2-0.1,0.4-0.1c0.2-0.7,0-1.5-0.1-2.2c-0.4-2.5-0.9-4.9-1.4-7.4c-0.2-0.8,0-1.5,0.7-2c0.6-0.5,1.2-1.1,1.8-1.6    c0.3-0.2,0.5-0.5,0.8-0.8c0.5-0.5,0.9-1.1,1.3-1.6c0.9-0.9,1.8-1.8,2.7-2.7c0.2-0.2,0.5-0.4,0.2-0.9c-1.7-0.3-3.5-0.6-5.3-0.8    c-1.9-0.2-3.7-0.3-5.6-0.8c-0.3-0.5-0.5-0.9-0.7-1.4c-1.3-2.7-2.7-5.4-4-8.1c-0.1-0.3-0.3-0.6-0.8-0.4c-1.1,2.1-2.1,4.3-3.2,6.5    c-0.3,0.5-0.5,1-0.9,1.4c-0.9,0.9-0.9,0.9-0.9,2c-1.8,0.2-3.6,0.3-5.4,0.8c-1.8,0.5-3.7,0.3-5.5,0.9c0,0.1-0.1,0.2,0,0.3    c0.6,1,1.7,1.5,2,2.7c0,0.2,0.4,0.3,0.6,0.4c0.3,0.2,0.6,0.3,0.8,0.5c1.4,1.3,2.8,2.7,4.2,4c0.3,0.3,0.5,0.7,0.3,1    C289.1,156.2,289.1,157.4,288.9,158.5z M298.3,139.9c0,0,0.1,0.1,0.1,0.1c-0.1,0-0.2,0.1-0.3,0.1c0.1,0,0.2-0.1,0.3-0.1    C298.4,140,298.3,140,298.3,139.9z M291.8,541.3c0,0.3,0,0.3,0,0.4c1.3,1.1,1.8,2.9,3.4,3.6c0.1,0,0.2,0.2,0.3,0.3    c1.1,1.1,2.3,2.2,3.4,3.2c0.6,0.6,0.9,1.1,0.6,2c-0.2,0.3-0.2,0.7-0.3,1.1c-0.4,2-0.7,4.1-1.1,6.1c-0.1,0.8-0.2,1.6-0.2,2.3    c0.2,0.1,0.2,0.2,0.3,0.2c3.4-1.2,6.4-3.3,9.8-4.8c1.5,0.7,3.1,1.2,4.4,2.1c1.5,1.1,3.2,1.7,4.8,2.5c0.2,0.1,0.4,0.1,0.7,0.1    c0-0.3,0.1-0.5,0.1-0.6c-0.5-2.9-0.9-5.8-1.5-8.7c-0.2-1-0.1-1.7,0.7-2.3c0.5-0.4,0.9-0.8,1.4-1.2c0.5-0.4,1.1-0.8,1.4-1.5    c0.2-0.4,0.7-0.7,1-1.1c0.9-0.9,1.9-1.9,2.8-2.8c0.2-0.2,0.3-0.4,0.4-0.7c-3.7-0.9-7.4-0.9-11.1-1.7c-0.3-0.4-0.5-0.9-0.7-1.3    c-1.4-2.7-2.7-5.4-4.1-8.1c-0.1-0.2-0.4-0.4-0.6-0.7c-0.2,0.3-0.3,0.6-0.4,0.8c-1,2-2,4.1-3,6.1c-0.2,0.4-0.5,0.9-0.8,1.3    c-0.3,0.3-0.7,0.5-0.9,0.9c-0.1,0.3,0,0.8,0,1.2c-1.9,0.3-3.8,0.3-5.5,0.8C295.5,540.9,293.6,540.7,291.8,541.3z M416,151.4    c0.4-1,1.2-1.6,1.9-2.3c0.8-0.8,1.7-1.7,2.5-2.5c0.1-0.1,0.1-0.4,0.3-0.8c-2.7-0.4-5.3-0.8-7.9-1c-1.1-0.1-2.2-0.3-3.1-0.9    c0,0,0,0,0,0c0,0,0,0,0,0c-0.7-1.3-1.3-2.5-2-3.8c-0.9-1.8-1.8-3.6-2.7-5.4c-0.1-0.3-0.3-0.6-0.8-0.4c-1.4,2.9-3,5.7-4.3,8.7    c-0.6,1.3-1.5,1.7-2.7,1.9c-0.3,0-0.6,0-0.9,0c-1.6,0.2-3.3,0.2-4.9,0.5c-0.9,0.2-1.7,0.4-2.6,0.4c-0.2,0-0.4,0.2-0.8,0.3    c0.4,0.4,0.7,0.8,1,1c1,0.6,1.1,1.9,2.2,2.5c1,0.5,1.8,1.6,2.7,2.4c0.7,0.6,1.4,1.3,2.1,1.9c0.1,1.1,0.2,2.2-0.3,3.3    c-0.2,0.4-0.2,0.9-0.3,1.3c-0.4,2-0.5,4.1-1,6.1c0,0.1,0.1,0.3,0.2,0.6c1.3-0.5,2.7-0.9,3.8-1.6c1.9-1.2,3.9-2.1,5.8-3.2    c0.4,0.2,0.7,0.4,1,0.5c0.7,0.2,1.5,0.3,2.1,0.7c1.2,0.6,2.3,1.4,3.5,2.2c0.2,0.1,0.3,0.2,0.5,0.2c0.9,0.4,1.7,0.7,2.6,1.1    c0.3,0.1,0.6,0.3,0.9-0.1c-0.6-3.6-1.2-7.2-1.8-10.9c0.8-0.7,1.7-1.3,2.5-1.9C415.6,151.9,415.9,151.7,416,151.4z M181.6,473.9    c-0.3,0-0.6-0.1-0.9-0.1c-1.1,0-2.3,0-3.4,0c-0.3,0-0.7,0.2-1,0.3c0,5.3-0.1,10.6,0,15.8c0,3,0.2,6,0.5,9c0.3,2.9,0.7,5.9,1.1,8.8    c0.3,1.8,0.6,3.6,1,5.4c0.2,0.9,0.5,1.8,0.7,2.7c0.1,0.9,0.2,1.7,0.5,2.6c0.6,2.1,1.2,4.2,1.7,6.3c0.2,0.8,0.4,1.6,0.6,2.4    c0.2,0.8,0.5,1.6,0.7,2.3c0.3,0.8,0.6,1.7,0.7,2.5c0.1,0.9,0.9,1.3,1,2.1c0.2,0.9,0.5,1.7,0.8,2.5c0.1,0.3,0.3,0.5,0.4,0.7    c1.4-1.3,2.7-2.5,4.1-3.7c-0.4-1.4-0.9-2.8-1.3-4.3c-0.6-2-1.3-3.9-1.9-5.9c-0.5-1.7-0.9-3.4-1.3-5.1c-0.1-0.5-0.5-0.4-0.8-0.5    c0.5-0.5,0.4-1.1,0.3-1.8c-0.5-2.2-1-4.4-1.4-6.6c-0.3-1.2-0.5-2.5-0.7-3.7c-0.2-1.8-0.4-3.6-0.5-5.4c-0.1-0.6-0.2-1.1-0.3-1.7    c-0.1-0.8-0.3-1.6-0.3-2.4c-0.1-1.9,0-3.8,0-5.7c0-4.8,0-9.7,0-14.5C181.8,475.3,181.9,474.6,181.6,473.9z M187.6,532.3    c-0.1,0.1-0.2,0.1-0.2,0.2l0,0C187.5,532.5,187.6,532.4,187.6,532.3z M539.6,497.5c0,0.6-0.1,1.2-0.2,1.9    c-0.1,0.8-0.3,1.6-0.4,2.4c-0.2,1.7-0.2,3.4-0.6,5.1c-0.7,2.5-0.8,5.2-1.6,7.7c-0.7,2.3-1,4.8-1.7,7.1c-0.6,1.9-1.2,3.8-1.8,5.7    c-0.3,1.1-0.8,2.1-1.1,3.2c-0.1,0.5-0.2,1-0.3,1.3c0.8,0.8,1.3,1.5,2.1,2c0.8,0.5,0.9,1.6,1.7,2.2c0.5-0.6,0.8-1.2,1-1.9    c1-3.3,2.1-6.6,3.1-9.9c1.1-3.6,2-7.3,2.7-10.9c0.4-2,0.6-4,1-5.9c0.6-3.1,1-6.2,1.1-9.3c0-0.2,0-0.4,0.1-0.6    c0.1-1.6,0.3-3.3,0.3-4.9c0.1-4.5,0.1-8.9,0.1-13.4c0-1.5,0-3-0.1-4.5c0-0.3-0.1-0.6-0.2-0.8h-5c0,1.4,0,2.5,0,3.6    C539.8,484.1,539.7,490.8,539.6,497.5z M538,524.4c0.1-0.1,0.1-0.2,0.2-0.3c-0.1-0.1-0.1-0.2-0.2-0.3c0.1,0.1,0.1,0.2,0.2,0.3    C538.1,524.2,538.1,524.3,538,524.4z M336.9,262.3c0-0.5,0.1-0.8,0.1-1.2c0-3,0-5.9-0.1-8.9c0-0.1-0.1-0.2-0.2-0.4    c-0.2,0-0.4-0.1-0.7-0.1c-5.7,0-11.3,0-17,0c-0.2,0-0.5,0.1-0.7,0.2c-0.3,2.1-0.2,9.1,0.1,10.5c0.8,0.1,1.6,0.1,2.5,0.2    c0.2,1.4,0.3,7.7,0.2,9.8c0,0.1-0.2,0.1-0.4,0.3c-4.2-7-8.3-13.9-12.5-20.8c-0.3,0-0.6-0.1-0.8-0.1c-4.7,0-9.4,0-14.2,0.1    c-0.1,0-0.1,0-0.2,0.1c0,0-0.1,0.1-0.1,0.1c-0.3,1.7-0.3,8.9,0,10.3c0.8,0.4,1.8-0.1,2.6,0.6v3.1c0,6.8,0,13.6,0,20.4    c0,0.7,0.2,1.4-0.3,2c-0.8,0.1-1.6,0.1-2.4,0.2c-0.1,0.3-0.2,0.5-0.2,0.7c0,3,0,6,0,9.1c0,0.2,0.1,0.5,0.2,0.6    c1.5,0.2,14.1,0.3,17.4,0.2c0.3,0,0.6-0.1,1-0.2c0.1-1.8,0.1-3.4,0.1-5.1c0-1.7,0.2-3.5-0.2-5.3c-0.9-0.1-1.7-0.1-2.5-0.2    c-0.1-0.3-0.2-0.5-0.2-0.8c0-2.8,0-5.5,0-8.3c0-0.1,0.1-0.2,0.3-0.4c0.3,0.4,0.6,0.8,0.8,1.2c3.5,5.8,7,11.5,10.5,17.3    c0.4,0.6,0.7,1.2,1,1.7c2.6,0.2,14.3,0.2,15.6-0.1c0.1-0.2,0.2-0.3,0.2-0.5c0-3.1,0-6.2,0-9.3c0-0.2-0.1-0.3-0.2-0.5    c-0.8-0.4-1.8,0.1-2.5-0.4c-0.2-2.2-0.2-24.1,0.1-25.6C335.1,262.5,336,262.4,336.9,262.3z M333,289.3c0.8,0.5,1.6,0.1,2.5,0.4    c0.5,1.3,0.2,2.7,0.2,4c0.1,1.3,0,2.6,0,4c-0.3,0.1-0.5,0.2-0.8,0.2c-4.2,0-8.3,0-12.5,0c-0.2,0-0.4-0.1-0.7-0.1    c-4.6-7.8-9.3-15.6-14-23.3c-0.5,0-0.5,0.3-0.5,0.5c0,4.5,0,9.1,0,13.6c0,0.2,0.1,0.5,0.1,0.8c0.9,0.1,1.7,0.2,2.5,0.3    c0.3,1.5,0.3,6,0.1,8.1c-0.2,0.1-0.5,0.2-0.8,0.2c-4.8,0-9.7,0-14.5,0c-0.1,0-0.2,0-0.4-0.1c-0.1-0.1-0.2-0.2-0.2-0.3    c-0.2-2.6-0.1-5.1-0.1-7.7c0.8-0.6,1.7-0.1,2.6-0.6c0-0.3,0.2-0.7,0.2-1c0-8.6,0-17.3,0-25.9c0-0.3,0-0.6-0.1-1    c-0.7-0.6-1.6-0.1-2.5-0.5c-0.4-1.3-0.1-2.7-0.2-4c0-1.3-0.1-2.6,0.1-3.9c1.5-0.3,10.3-0.4,13.4-0.1c1.6,2.6,3.2,5.3,4.8,8    c1.6,2.6,3.2,5.3,4.8,7.9c1.6,2.7,3.2,5.4,4.8,8c0.5,0,0.5-0.3,0.5-0.5c0-4.7,0-9.4,0-14.2c0-0.2-0.1-0.5-0.1-0.7    c-0.8-0.6-1.8,0-2.6-0.5c-0.3-1.4-0.3-6.1,0-8c0.3,0,0.7-0.1,1-0.1c4.6,0,9.2,0,13.8,0c0.3,0,0.6,0,1,0.1c0.5,0.9,0.2,1.8,0.3,2.6    c0,0.9,0,1.9,0,2.8c0,0.9,0.1,1.7-0.1,2.7c-0.9,0.1-1.7,0.1-2.3,0.1c-0.2,0.2-0.2,0.2-0.2,0.2c0,0.1-0.1,0.1-0.1,0.2    c0,8.9,0,17.8-0.1,26.6C332.9,288.6,333,288.9,333,289.3z M283.8,251.7c-0.7,0-1.3,0-1.9,0c-3.5,0-6.9,0-10.4,0    c-6.7,0-13.5,0-20.2,0c-0.7,0-1.4-0.1-2.1,0.2c0,1.1,0,2.3,0,3.4c0,1.2,0,2.4,0,3.6c0,1.1-0.2,2.2,0.2,3.3    c0.9,0.5,1.9-0.1,2.7,0.6c0,8.2,0,16.4,0,24.7c0,0.2-0.1,0.5-0.1,0.8c-0.9,0.1-1.7,0.2-2.6,0.3c0,0.4-0.1,0.7-0.1,1    c0,2.8,0,5.5,0,8.3c0,0.3,0.1,0.7,0.2,1c1.9,0.2,26.1,0.3,33.4,0.2c0.4,0,0.7-0.1,1.1-0.1c0.1-0.3,0.2-0.5,0.2-0.8    c0-3.7,0-7.3,0-11c0-0.2-0.1-0.4-0.2-0.6c-2.5-0.3-9.1-0.2-10.5,0.1c-0.1,0.5-0.1,0.9-0.2,1.5c-2.5,0.3-6.8,0.2-8-0.1    c-0.2-1.7-0.2-5.6,0-7.2c0.5-0.1,1-0.3,1.5,0.1c0.2,0.5-0.1,1.1,0.5,1.6c1.7,0.1,3.4,0.1,5.2,0c1.7,0,3.5,0.2,5.2-0.2    c0.1-0.3,0.1-0.5,0.1-0.6c0-4.3,0-8.6,0-12.8c0-0.2-0.1-0.5-0.3-0.8c-0.7,0-1.3,0-1.9,0c-2.6,0-5.3,0-7.9,0    c-0.2,0-0.5,0.1-0.6,0.2c-0.1,0.5-0.2,0.9-0.3,1.4c-0.4,0-0.7,0.1-1,0.1c-0.2,0-0.3-0.1-0.5-0.2c-0.3-1.8-0.3-5.7,0.1-7.1    c1.2-0.3,5.1-0.4,7.5-0.2c0.1,0,0.2,0.1,0.4,0.2c0.1,0.5,0.2,0.9,0.3,1.5c1.2,0.2,2.4,0.1,3.6,0.1c1.1,0,2.3,0,3.4,0    c1.2,0,2.4,0.1,3.6-0.2c0.1-1.5,0.1-2.9,0.1-4.2c0-1.3,0-2.6,0-4C284,254.6,284.3,253.2,283.8,251.7z M282.6,262.9    c-1.4,0.3-6,0.3-8,0.1c-0.1-0.5-0.2-1-0.3-1.5c-1.5-0.2-8.5-0.2-10.3,0c-0.4,1.6-0.1,3.2-0.2,4.8c0,1.6-0.1,3.3,0,5    c1.4,0.4,2.7,0.2,4,0.1c0.1-0.6,0.2-1.1,0.3-1.6c1.8-0.3,6.5-0.2,8,0c0,0.2,0.1,0.3,0.1,0.5c0,3.5,0,6.9,0,10.4    c0,0.2-0.1,0.3-0.1,0.5c-1.4,0.3-6.1,0.3-8,0.1c-0.1-0.5-0.2-1-0.4-1.6c-1.3-0.2-2.5-0.2-3.9,0c-0.3,1.1-0.1,2.1-0.2,3.2    c0,1.1,0,2.3,0,3.4c0,1.1-0.1,2.1,0.1,3.3c2.3,0.2,9,0.2,10.4,0c0.1-0.5,0.3-1.1,0.4-1.6h7.8c0.1,0.3,0.2,0.5,0.2,0.7    c0,2.9,0,5.8,0,8.7c0,0.2-0.1,0.3-0.2,0.6c-0.2,0-0.5,0.1-0.7,0.1c-10.4,0-20.8,0-31.2,0c-0.5-0.9-0.2-1.8-0.3-2.7    c0-0.9,0-1.9,0-2.8c0-0.9-0.1-1.7,0.2-2.7c0.8-0.1,1.5-0.1,2.2-0.2c0.5-0.6,0.3-1.4,0.3-2c0-6.7,0-13.5,0-20.2c0-1.5,0-3,0-4.5    c0-0.4-0.1-0.9-0.1-1.4c-0.8-0.1-1.6-0.1-2.4-0.2c-0.1-0.2-0.2-0.4-0.2-0.7c0-2.3,0-4.5,0-6.8c0-0.2,0.1-0.4,0.2-0.6    c0.3,0,0.7-0.1,1.1-0.1c10,0,19.9,0,29.9,0c0.3,0,0.6,0,1,0.1c0.1,0.3,0.2,0.5,0.2,0.7c0,2.9,0,5.8,0,8.7    C282.8,262.5,282.7,262.7,282.6,262.9z M487.2,283.6c0-0.4-0.1-0.7-0.2-1.2c-1.5,0-2.9,0-4.2,0c-1.4,0-2.9,0-4.3,0    c-1.4,0-2.7-0.1-4.1,0.1c-0.2,1.6-0.3,7.3,0,9.4c1.2,1.1,2.4,2.3,3.7,3.6c1,1,2.1,2,3.1,3.1c0.4,0.4,0.8,0.6,1.3,0.6    c0.3,0,0.6,0,0.9,0c5.9,0,11.8,0,17.8,0h1.7c2.1-2.1,4.2-4.2,6.2-6.2c0.4-0.4,0.8-0.8,1.1-1.2c0-0.3,0.1-0.4,0.1-0.6    c0-4.2,0-8.3,0-12.5c0-0.7-0.3-1.2-0.7-1.6c-1.9-1.9-3.8-3.8-5.7-5.7c-0.4-0.3-0.7-0.7-1.1-1H489c-1.5-0.9-2-2-1.8-3.6    c0.1-0.6,0-1.3,0-1.9c0.1-1.2,1.1-2.3,2.3-2.3c1.8,0,3.5,0,5.3,0c0.3,0,0.7,0,0.9,0.2c0.9,0.6,1.7,1.3,1.5,2.6    c-0.1,0.7,0,1.5,0,2.3c0,0.4,0.1,0.7,0.2,1c0.3,0.1,0.5,0.1,0.7,0.1c3.9,0,7.8,0,11.7,0c0.1,0,0.1,0,0.2-0.1    c0.1,0,0.1-0.1,0.1-0.1c0.1-0.1,0.1-0.2,0.1-0.3c0-2.8,0-5.5,0-8.3c0-0.5-0.2-0.8-0.6-1.1c-2.3-2.3-4.6-4.6-6.9-6.9    c-0.3,0-0.5-0.1-0.7-0.1c-6.5,0-13,0-19.5,0c-0.8,0-1.3,0.3-1.8,0.8c-1.9,2-3.9,3.9-5.9,5.9c-0.6,0.6-0.8,1.2-0.8,2    c0,4,0,8.1,0,12.1c0,0.3,0,0.6,0.1,1c1.9,1.9,3.8,3.6,5.6,5.6c1.3,1.4,2.7,2,4.6,1.9c3.3-0.2,6.7-0.1,10,0c1.8,0,2.7,1,2.7,2.8    c0,0.8,0,1.5,0,2.3c-0.1,1.3-1.1,2.4-2.4,2.4c-1.7,0-3.4,0-5.1,0c-0.5,0-0.9-0.2-1.4-0.5c-0.8-0.6-1.2-1.4-1.1-2.4    C487.3,284.8,487.3,284.2,487.2,283.6z M488.5,289.5h7.7c0.7-0.8,1.4-1.6,2.2-2.5v-5.1c-0.7-0.6-1.5-1.4-2.3-2.2    c-0.5,0-1-0.1-1.6-0.1c-3.5,0-7.1-0.1-10.6,0c-1.3,0-2.1-0.4-3-1.3c-1.5-1.7-3.2-3.2-4.8-4.8c-0.5-0.5-0.7-1-0.7-1.7    c0-3.8,0-7.7,0-11.5c0-0.7,0.3-1.2,0.7-1.6c1.8-1.7,3.5-3.4,5.2-5.2c0.5-0.5,1.1-0.8,1.8-0.8c6,0,12.1,0,18.1,0    c0.7,0,1.2,0.2,1.7,0.7c1.8,1.8,3.6,3.7,5.5,5.5c0.3,0.3,0.6,0.6,0.6,1.1c0,2.3,0,4.6,0,7.1c-1.6,0.3-8.5,0.3-10.4,0.1    c-0.4-0.5-0.2-1.2-0.2-1.8c0-0.6,0-1.3,0-1.8c-0.9-0.9-1.6-1.7-2.4-2.4h-7.5c-0.1,0.1-0.3,0.2-0.4,0.3c-2,1.9-2,1.9-2,4.7    c0,2.9,0,2.9,2.4,5c0.3,0.3,1.1,0.1,1.7,0.1c3.7,0,7.3,0,11,0c0.9,0,1.5,0.2,2.2,0.9c1.9,1.9,3.8,3.8,5.7,5.8v13    c-2.3,2.3-4.5,4.5-6.8,6.8c-0.3,0-0.7,0-1.1,0c-5.8,0-11.6,0-17.4,0c-1,0-1.8-0.2-2.5-1c-1.7-1.7-3.4-3.4-5.1-5.1    c-0.4-0.4-0.6-0.7-0.6-1.3c0-2.2,0-4.4,0-6.7c0.4-0.1,0.6-0.3,0.9-0.3c3,0,6,0,9.1,0c0.1,0,0.2,0.1,0.5,0.2    c0.4,0.6,0.2,1.3,0.2,1.9c-0.1,1.1,0.3,1.9,1.1,2.6C487.7,288.7,488.1,289.1,488.5,289.5z M217,283.5c0-0.4-0.1-0.7-0.2-1.1    c-0.4,0-0.7-0.1-1-0.1c-3.5,0-7.1,0-10.6,0c-0.4,0-0.7,0.1-1,0.2c-0.1,0.3-0.1,0.5-0.1,0.6c0,2.5,0,5,0,7.6c0,0.7,0.3,1.2,0.8,1.6    c2,1.9,3.9,3.9,5.9,5.9c0.6,0.6,1.2,0.8,2,0.8c6.3,0,12.6,0,18.9,0c0.7,0,1.3-0.2,1.8-0.8c1.9-2,3.9-3.9,5.9-5.9    c0.6-0.6,0.8-1.2,0.8-2c0-2.9,0-5.8,0-8.7c0-1.1,0-2.1,0-3.2c0-0.6-0.2-1.1-0.6-1.5c-2.3-2.3-4.5-4.5-6.9-6.8h-14.2    c-0.3-0.4-0.7-0.8-1-1.3c-0.2-0.2-0.3-0.6-0.4-0.8c0-1.2-0.1-2.4,0-3.6c0-1,1.1-2.1,2.1-2.1c1.9,0,3.8,0,5.7,0    c0.3,0,0.6,0.1,0.9,0.3c0.8,0.6,1.5,1.3,1.3,2.5c-0.1,0.7,0,1.5,0,2.3c0,0.4,0.1,0.7,0.2,1.1h4.2c1.4,0,2.9,0,4.3,0    c1.4,0,2.7,0.2,4.1-0.2c0-0.4,0.1-0.8,0.1-1.2c0-1.1,0-2.1,0-3.2c0-1.6-0.1-3.3-0.1-4.9c-1.1-1.1-2.2-2.3-3.3-3.4    c-1.4-1.4-2.8-2.8-4.1-4.1h-20.8c-2.6,2.6-5.1,5.1-7.7,7.7v14.1c2.3,2.3,4.6,4.5,6.8,6.8c0.5,0.5,1,0.7,1.7,0.7c0.6,0,1.3,0,1.9,0    c3.3,0,6.5,0,9.8,0c0.7,0,1.3,0.1,1.9,0.7c0.6,0.6,0.9,1.2,0.8,2c-0.1,0.6-0.1,1.3,0,1.9c0.1,1-0.2,1.7-1,2.3    c-0.2,0.2-0.5,0.4-0.7,0.6c-2,0-3.9,0-5.9,0c-0.5,0-0.8-0.1-1.2-0.4c-0.8-0.7-1.4-1.4-1.2-2.6C217.1,284.8,217,284.2,217,283.5z     M217,288.3c0.4,0.4,0.8,0.8,1.2,1.2h7.7c0.7-0.8,1.4-1.6,2.2-2.5v-5c-0.7-0.7-1.5-1.5-2.2-2.2c-3.9,0-7.6-0.1-11.3,0    c-1.9,0.1-3.3-0.5-4.6-1.9c-1.3-1.5-2.7-2.8-4.1-4.2c-0.5-0.5-0.7-1-0.7-1.7c0-3.8,0-7.7,0-11.5c0-0.6,0.1-1.1,0.6-1.5    c1.8-1.8,3.7-3.6,5.5-5.5c0.5-0.5,1-0.6,1.7-0.6c2.4,0,4.8,0,7.2,0c3.6,0,7.2,0,10.8,0c0.8,0,1.4,0.2,2,0.8    c1.7,1.8,3.5,3.5,5.2,5.2c0.4,0.4,0.8,0.8,0.7,1.4c0,2.1,0,4.3,0,6.4c0,0.2-0.1,0.3-0.2,0.6c-0.2,0-0.5,0.1-0.7,0.1    c-3,0-6,0-9.1,0c-0.2,0-0.3-0.1-0.6-0.2v-3.5c-0.9-0.8-1.7-1.6-2.5-2.4h-7.3c-0.1,0.1-0.3,0.1-0.3,0.2c-0.7,0.7-1.6,1.3-2,2.2    c-0.4,0.8-0.2,1.9-0.2,2.8c0,2.8,0,2.8,2.1,4.7c0.1,0.1,0.2,0.1,0.4,0.3h13.7c1.2,1,2.3,2.2,3.4,3.3c1.1,1.1,2.2,2.2,3.3,3.3v13    c-2.3,2.3-4.5,4.5-6.8,6.8c-0.3,0-0.7,0.1-1.1,0.1c-5.8,0-11.6,0-17.4,0c-1,0-1.8-0.2-2.5-1c-1.8-1.9-3.7-3.8-5.6-5.7    c-0.2-1.8-0.2-6,0.1-7.4c1.3-0.3,7.9-0.4,10.2-0.1c0.4,0.6,0.3,1.3,0.2,1.9C215.8,286.8,216.1,287.6,217,288.3z M444.7,280    c1.1,0,2,1.1,2.1,2.3c0,0.4,0,0.9,0,1.3c0,4.5,0,8.9,0,13.4c0,0.6,0,1.2,0.1,1.9c1.8,0.4,3.6,0.1,5.3,0.2c1.7,0,3.4,0,5.1,0    c1.7,0,3.5,0.2,5.2-0.2c0.1-0.2,0.2-0.3,0.2-0.5c0-3.1,0-6.2,0-9.3c0-0.2-0.1-0.5-0.2-0.6c-0.8-0.4-1.7,0.1-2.6-0.5v-10.4    c-1.1-1.1-2-2.1-3.1-3.1c1-1.1,2-2,3-3v-12.3c-1-1-2-2-2.9-3c-1.3-1.3-2.6-2.6-3.9-3.9c-0.5-0.5-1-0.8-1.7-0.7c-0.2,0-0.5,0-0.8,0    c-8.6,0-17.1,0-25.7,0h-1.8c-0.3,2-0.3,9.1,0,10.5c0.8,0.4,1.8-0.1,2.6,0.5c0,0.5,0.1,1.1,0.1,1.7c0,2.2,0,4.4,0,6.6    c0,5.2,0,10.3,0,15.5c0,0.6,0.2,1.3-0.3,1.8c-0.8,0.1-1.6,0.1-2.4,0.2c-0.2,1.2-0.1,2.4-0.1,3.5c0,1.2,0,2.4,0,3.6    c0,1.1-0.2,2.2,0.2,3.3c1.7,0.2,11.6,0.3,17.2,0.2c0.4,0,0.7-0.1,1.1-0.1c0.1-0.2,0.2-0.4,0.2-0.6c0-3.1,0-6.2,0-9.3    c0-0.2-0.1-0.3-0.2-0.5c-0.8-0.4-1.8,0.1-2.7-0.5c0-1.3,0-2.6,0-3.9c0.1-1.4-0.2-2.7,0.2-4.2C441,280,442.8,279.9,444.7,280z     M437.7,289.3c0.7,0.5,1.6,0.1,2.4,0.4c0.1,0.2,0.2,0.4,0.2,0.6c0,2.3,0,4.7,0,7c0,0.1-0.1,0.2-0.2,0.4c-1.7,0.3-3.4,0.1-5.2,0.1    c-1.8,0-3.5,0-5.3,0h-5.3c-0.5-1.5-0.2-2.8-0.3-4.2c0-1.3-0.1-2.6,0.1-4c0.9-0.1,1.7-0.2,2.5-0.3c0.1-0.4,0.1-0.8,0.1-1.2    c0.2-7.1,0.1-25.1-0.2-26.9c-0.7-0.4-1.6,0-2.4-0.4c-0.4-1.3-0.2-2.7-0.2-4c0-1.3-0.1-2.6,0.1-4c0.5,0,0.9-0.1,1.4-0.1    c8.2,0,16.5,0,24.7,0c1,0,1.7,0.3,2.3,1c1.7,1.7,3.4,3.4,5.1,5.1c0.6,0.6,1,1.2,0.9,2.1c0,2.8,0,5.7,0,8.5c0,0.7-0.2,1.3-0.7,1.9    c-0.9,0.9-1.8,1.9-2.9,3c0.9,1,1.7,1.9,2.6,2.7c0.8,0.7,1.1,1.4,1,2.5c-0.1,2.6,0,5.3,0,7.9v1.6c0.8,0.6,1.7,0.1,2.6,0.5    c0.4,1.2,0.1,2.5,0.2,3.8c0,1.3,0,2.6,0,4c-0.4,0.1-0.8,0.2-1.1,0.2c-3.7,0-7.4,0-11.1,0c-0.2,0-0.5,0-0.7-0.1    c-0.5-0.6-0.3-1.2-0.3-1.8c0-4.3-0.1-8.7,0-13c0.1-1.8-0.6-2.9-1.9-3.8c-0.2-0.2-0.6-0.4-0.8-0.4c-2.5,0-5,0.1-7.5,0.1    c-0.1,0-0.1,0.1-0.2,0.1C437.6,280.3,437.5,287,437.7,289.3z M412.3,258.7c-2.3-2.3-4.6-4.6-6.9-6.9c-0.3,0-0.5-0.1-0.7-0.1    c-6.5,0-13,0-19.4,0c-0.8,0-1.3,0.3-1.8,0.8c-1.9,2-3.9,3.9-5.9,5.9c-0.6,0.6-0.9,1.2-0.8,2c0,0.4,0,0.9,0,1.3c0,8.7,0,17.4,0,26    c0,1.3,0,2.5,0.1,3.8c0.9,1,1.8,1.9,2.7,2.9c1.3,1.3,2.7,2.7,4,4c0.5,0.5,1,0.8,1.7,0.7c0.2,0,0.5,0,0.8,0c5.9,0,11.8,0,17.7,0    c0.3,0,0.6,0,0.9,0c0.5,0,1-0.2,1.3-0.6c2.1-2.1,4.2-4.2,6.3-6.3c0.5-0.5,0.7-1,0.7-1.7c0-0.3,0-0.6,0-0.9c0-9.4,0-18.9,0-28.3    c0-0.4,0-0.8,0-1.1C413,259.6,412.7,259.1,412.3,258.7z M411.7,261.9c0,9.1,0,18.1,0,27.2c0,0.4,0,0.9,0,1.3    c0,0.5-0.2,0.8-0.5,1.2c-2.1,2.1-4.2,4.2-6.3,6.3h-20c-0.9-0.9-1.8-1.8-2.7-2.7c-1.1-1.1-2.1-2.2-3.2-3.2    c-0.6-0.5-0.8-1.1-0.8-1.8c0-0.2,0-0.5,0-0.8c0-9.3,0-18.5,0-27.8c0-2.3-0.2-1.7,1.4-3.3c1.8-1.8,3.5-3.6,5.3-5.3    c0.5,0,1-0.1,1.4-0.1c5.7,0,11.3,0,17,0c1,0,1.8,0.2,2.5,1c1.9,2,3.9,3.9,5.9,5.9V261.9z M348.8,298.9c0.3,0,0.6,0.1,1,0.1    c5.5,0,10.9,0,16.4,0c0.3,0,0.7-0.1,1-0.2c0.3-2.5,0.2-8.9-0.1-10.3c-0.8-0.1-1.7-0.2-2.6-0.3c0-0.6-0.1-1.1-0.1-1.6    c0-1.8,0-3.6,0-5.5c0-5.5,0-11.1,0-16.6c0-0.7-0.2-1.4,0.3-2c0.8-0.1,1.6-0.1,2.3-0.2c0.3-1.6,0.3-8.8,0-10.5    c-2-0.2-4.1-0.1-6.1-0.1c-2,0-4,0-6,0c-2.1,0-4.1-0.2-6.1,0.1c-0.3,1.9-0.3,9.1,0,10.4c0.8,0.5,1.8-0.1,2.5,0.5    c0,0.2,0.1,0.4,0.1,0.6c0,8.1,0,16.1,0,24.2c0,0.3-0.1,0.6-0.2,0.9c-0.9,0.1-1.7,0.1-2.5,0.2c-0.3,1.2-0.1,2.3-0.1,3.5    c0,1.2,0,2.4,0,3.6C348.6,296.7,348.3,297.8,348.8,298.9z M350.1,289.7c0.8-0.1,1.5-0.1,2.3-0.2c0.3-1.7,0.4-15.7,0.2-26.9    c0-0.4-0.1-0.8-0.1-1.4c-0.8-0.1-1.6-0.1-2.4-0.2c-0.1-0.3-0.2-0.5-0.2-0.8c0-2.2,0-4.4,0-6.6c0-0.2,0.1-0.4,0.1-0.6    c0.2-0.1,0.4-0.2,0.7-0.2c4.8,0,9.7,0,14.5,0c0.2,0,0.4,0.1,0.6,0.1c0.5,1.3,0.2,2.7,0.2,4.1c0,1.3,0.1,2.6-0.1,4    c-0.9,0.1-1.7,0.1-2.5,0.2c-0.5,0.4-0.4,0.9-0.4,1.4c0,3.5,0,6.9,0,10.4c0,4.8,0,9.7,0,14.5c0,0.6,0,1.2,0.1,1.9    c0.9,0.1,1.7,0.1,2.6,0.2c0.3,1.6,0.3,6,0.1,7.9c-0.2,0.1-0.4,0.2-0.6,0.2c-4.8,0-9.7,0-14.5,0c-0.2,0-0.5-0.1-0.7-0.1    C349.7,296,349.8,291.2,350.1,289.7z M434.8,659.8c0.5,0,0.8,0,1.3,0.1C435.6,659.3,435.3,659.3,434.8,659.8z M682.8,355.3    c0.1,0,0.3-0.1,0.3-0.2c0,0-0.1-0.2-0.1-0.3c-0.1,0.1-0.3,0.1-0.4,0.2C682.6,355.2,682.7,355.3,682.8,355.3z M419.8,538.9    c-0.3-0.6-0.7-1.1-1-1.7c-1.3-2.5-2.5-4.9-3.8-7.4c-0.1-0.2-0.4-0.4-0.6-0.7c-0.2,0.4-0.4,0.7-0.5,0.9c-1.1,2.1-2.1,4.3-3.2,6.4    c-0.4,0.8-0.6,1.6-1.5,2c-0.1,0.1-0.1,0.6-0.1,0.8c-0.7,0.5-1.4,0.6-2.2,0.7c-1.8,0.1-3.7,0.2-5.4,0.5c-0.9,0.2-1.7,0.4-2.6,0.4    c-0.2,0-0.3,0.1-0.4,0.2c0,0.2-0.1,0.3,0,0.4c0.7,0.9,1.8,1.4,2,2.6c0,0.1,0.3,0.3,0.4,0.3c0.8,0.1,1.2,0.7,1.7,1.2    c1.2,1.1,2.3,2.3,3.6,3.5c0.1,0.9,0.1,2-0.3,3c-0.2,0.5-0.2,1-0.3,1.5c-0.4,1.9-0.5,3.9-1,5.7c-0.1,0.3,0,0.6,0.1,1    c1.6-0.8,3.1-1.3,4.5-2.2c1.6-1.1,3.4-1.9,5.2-2.8c0.2,0.2,0.4,0.4,0.6,0.4c1.5,0,2.6,0.8,3.8,1.5c0.7,0.4,1.4,0.9,2.1,1.3    c0.2,0.1,0.4,0.2,0.6,0.3c0.8,0.3,1.6,0.7,2.4,1c0.3,0.1,0.6,0.2,1,0.3c-0.6-3.9-1.2-7.5-1.8-11.3c0.9-0.7,1.7-1.3,2.6-2    c0.2-0.1,0.4-0.3,0.5-0.5c0.5-1.1,1.5-1.9,2.3-2.7c0.7-0.7,1.4-1.4,2.1-2.2c0.2-0.2,0.2-0.4,0.4-0.7c-2.8-0.8-5.6-0.9-8.3-1.2    C421.6,539.7,420.7,539.5,419.8,538.9C419.9,538.9,419.9,538.9,419.8,538.9C419.9,538.9,419.8,538.9,419.8,538.9z M420.1,538.4    c-0.1,0.2-0.1,0.3-0.2,0.5c0.2,0,0.4,0,0.6-0.1C420.3,538.6,420.2,538.5,420.1,538.4z M409.9,143.3c-0.1,0.3-0.2,0.5-0.2,0.7    c0.2,0,0.4,0,0.8-0.1C410.2,143.6,410.1,143.5,409.9,143.3z M395.4,154.3l0.1,0l-0.1-0.2L395.4,154.3z M191,560.7    C191,560.7,191,560.7,191,560.7C191,560.7,191,560.7,191,560.7C191,560.7,191,560.7,191,560.7z M62.8,399.8c0,0.1,0.1,0.1,0.1,0.2    c0.1-0.1,0.1-0.1,0.2-0.2C63,399.9,62.9,399.8,62.8,399.8z M191.5,585.2c0,0,0.1-0.1,0.2-0.1c-0.1,0-0.2-0.1-0.3-0.1    C191.2,585.1,191.4,585.2,191.5,585.2z M191.4,585C191.4,585,191.4,585,191.4,585C191.4,585,191.4,585,191.4,585    C191.4,585,191.4,585,191.4,585z M248.5,100.2c0,0-0.1,0.1-0.1,0.1c0,0,0.1,0.1,0.1,0.1c0,0,0.1-0.1,0.1-0.1    C248.6,100.3,248.6,100.2,248.5,100.2z M425.9,649.9c0.1,0.1,0.2,0.2,0.2,0.2c0.1-0.1,0.2-0.2,0.4-0.2    C426.3,649.8,426.2,649.8,425.9,649.9C426,649.8,425.9,649.9,425.9,649.9z M498,603.5c0,0,0.1,0,0.1-0.1c0,0,0-0.1,0-0.1    c-0.1,0-0.1,0.1-0.2,0.1C497.9,603.4,497.9,603.5,498,603.5z M317.1,423.2c0-0.1-0.1-0.1-0.3-0.3c-0.3,0-0.7-0.1-1.1-0.1    c-1.3,0-2.5,0-3.8,0c-0.8,0-1.5-0.1-2-0.8c-0.2-0.2-0.4-0.4-0.5-0.5c-9.6-9.6-19.2-19.3-28.8-28.9c-0.3-0.3-0.5-0.5-0.8-0.8    c-0.1-0.1-0.2-0.3-0.3-0.5c0.4-0.4,0.9-0.9,1.3-1.3c3.9-3.9,7.8-7.7,11.7-11.6c5.8-5.8,11.6-11.5,17.4-17.3    c0.2-0.2,0.4-0.3,0.5-0.5c0.4-0.5,0.9-0.6,1.5-0.6c1.4,0,2.8,0,4.2,0c0.4,0,0.7-0.1,1-0.2c0.1-0.2,0.1-0.4,0.1-0.5    c0-5.7,0-11.3,0-17c0-0.3-0.2-0.6-0.3-0.9h-2.1c-10.1,0-20.2,0-30.2,0c-3.1,0-6.2,0-9.3,0c-0.4,0-0.8,0.1-1.3,0.2    c-0.1,0.3-0.1,0.6-0.1,0.8c0,5.5,0,11.1,0,16.6c0,0.3,0.1,0.6,0.2,0.8c1.2,0.3,2.3,0,3.6,0.3c-0.3,0.4-0.5,0.7-0.8,1    c-4.4,4.4-8.7,8.7-13.1,13.1c-0.3,0.3-0.6,0.4-0.9,0.7c-4.8-4.7-9.5-9.4-14.2-14c-0.2-0.2-0.3-0.4-0.5-0.7c1.1-0.6,2.3,0,3.3-0.4    c0.1-0.2,0.2-0.3,0.2-0.4c0-0.4,0.1-0.8,0.1-1.1c0-5.5,0-11-0.1-16.4c0-0.1,0-0.1-0.1-0.2c0-0.1-0.1-0.1-0.2-0.3    c-0.6,0-1.4-0.1-2.1-0.1c-13.2,0-26.5,0-39.7,0c-0.4,0-0.9,0-1.3,0c-0.4,0-0.7,0.1-1,0.2c-0.3,2-0.2,16.8,0.1,18.3    c0.5,0,0.9,0.1,1.4,0.1c1.6,0,3.2,0.1,4.7,0c1-0.1,1.8,0.2,2.5,1.1c0.1,0.1,0.3,0.3,0.4,0.4c9.5,9.5,19.1,19.1,28.6,28.6    c0.4,0.4,0.9,0.9,1.4,1.4c-0.4,0.4-0.7,0.8-1,1.2c-3.4,3.4-6.8,6.9-10.2,10.3c-5.2,5.3-10.5,10.5-15.8,15.8    c-1.1,1.1-2.2,2.2-3.3,3.4c-0.6,0.7-1.3,0.9-2.2,0.9c-1.8,0-3.7,0-5.5,0c-0.4,0-0.7,0.1-1,0.1c-0.1,0.2-0.2,0.4-0.2,0.5    c0,0.5,0,1,0,1.5c0,5.3,0,10.6,0.1,15.9c0,0.1,0,0.1,0,0.2c0,0.1,0.1,0.1,0.3,0.3c0.5,0,1.2,0.1,1.8,0.1c9.4,0,18.9,0,28.3,0    c4.1,0,8.2,0,12.3,0c0.5,0,1.1,0.1,1.7-0.3c0-0.2,0.1-0.5,0.1-0.7c0-5.5,0-11.1,0-16.6c0-0.3-0.1-0.6-0.2-0.9c-0.7,0-1.3,0-2,0    c-0.3,0-0.6,0.1-0.8-0.5c1.5-1.6,3.1-3.2,4.7-4.8c1.6-1.6,3.2-3.3,4.8-4.8c1.6-1.6,3-3.4,4.9-4.8c4.8,4.8,9.6,9.5,14.3,14.4    c0.1,0.1,0,0.2,0,0.5c-1.1,0-2.2,0.1-3.4,0.1c-0.3,1.8-0.3,11.8-0.2,17.2c0,0.4,0.1,0.7,0.1,1.1c0.7,0.2,1.4,0.2,2.1,0.2    c11.8,0,23.6,0,35.3,0c1.5,0,3,0,4.5,0c0.4,0,0.7-0.1,1-0.2c0.1-0.3,0.1-0.5,0.1-0.6c0-5.4,0-10.8,0-16.3c0-0.3,0-0.6-0.1-0.9    C317.1,423.3,317.1,423.3,317.1,423.2z M313.9,437.9c-1.7,0.3-24.3,0.5-35.5,0.2c-0.4,0-0.8-0.1-1.3-0.1c-0.1-0.3-0.1-0.6-0.1-0.8    c0-3.5,0-6.9,0-10.4c0-0.2,0.1-0.3,0.2-0.6c2.7-0.3,5.5,0,8.2-0.2c0.3-0.4-0.1-0.6-0.2-0.8c-0.2-0.2-0.4-0.4-0.5-0.5    c-6.8-6.9-13.7-13.8-20.5-20.6c-0.4-0.4-0.8-0.8-1.3-1.2c-0.3,0.2-0.5,0.3-0.6,0.5c-7.4,7.4-14.8,14.9-22.2,22.3    c0.1,0.5,0.5,0.5,0.8,0.5c1.9,0,3.8,0,5.7,0c0.6,0,1.2,0,2,0.1c0.4,2,0.1,3.9,0.2,5.9c0,1.9,0,3.9,0,5.9c-0.5,0.1-0.8,0.2-1.2,0.2    c-0.4,0-0.9,0-1.3,0c-11.1,0-22.2,0-33.3,0c-0.7,0-1.5,0-2.3,0c-0.4-2-0.1-4-0.2-5.9c0-1.9-0.1-3.9,0.1-5.9    c0.4-0.1,0.7-0.2,1.1-0.2c1.4,0,2.9,0,4.3,0c0.7,0,1.2-0.2,1.7-0.7c0.2-0.2,0.4-0.4,0.7-0.7c10.6-10.6,21.1-21.1,31.7-31.7    c0.5-0.5,1-1,1.4-1.4c0-0.2,0-0.3,0-0.3c0-0.1,0-0.1-0.1-0.2c-0.2-0.2-0.3-0.4-0.5-0.6c-1.9-1.9-3.8-3.8-5.8-5.7    c-9.4-9.3-18.8-18.6-28.2-28.1h-6c-0.1-0.4-0.2-0.8-0.2-1.1c0-3.3,0-6.6,0-9.8c0-0.3,0.1-0.6,0.1-0.8c0.1-0.1,0.2-0.2,0.2-0.2    c0.1,0,0.1-0.1,0.2-0.1c12.2,0,24.3,0,36.5,0c0.3,0,0.6,0.1,0.9,0.1c0.1,0,0.1,0.1,0.1,0.1c0.1,0.1,0.2,0.2,0.2,0.3    c0,3.5,0,7.1,0,10.6c0,0.2-0.1,0.5-0.1,0.8c-0.9,0.3-1.9,0.1-2.8,0.2c-0.9,0-1.8,0-2.6,0h-2.7c-0.3,0.5,0,0.7,0.2,0.9    c0.4,0.5,0.9,0.9,1.3,1.3c6.5,6.5,12.9,12.9,19.4,19.4c0.5,0.5,1,1,1.5,1.5c0.8-0.2,1.1-0.8,1.6-1.3c6.7-6.7,13.5-13.4,20.2-20.2    c0.3-0.3,0.6-0.6,0.9-0.9c0.1-0.1,0.2-0.3,0.3-0.6c-1-0.2-1.9-0.1-2.9-0.1c-0.9,0-1.9,0-2.8,0c-0.9,0-1.9,0.1-2.9-0.2    c-0.2-1.3-0.1-2.7-0.1-4c0-1.3,0-2.5,0-3.8c0-1.3,0-2.6,0-3.9c0.7-0.4,1.3-0.3,1.9-0.3c5.3,0,10.6,0,15.9,0c5.7,0,11.3,0,17,0    c0.7,0,1.4,0,2.2,0.1c0.2,1.4,0.1,2.7,0.1,4c0,1.3,0,2.5,0,3.8c0,1.3,0,2.6,0,4c-1.8,0.4-3.5,0-5.3,0.3    c-11.4,11.4-22.8,22.9-34.4,34.5c0.3,0.4,0.6,0.7,0.9,1c2.9,2.9,5.7,5.8,8.6,8.7c6,6,12,12.1,18,18.1c2,2,4,4,6,6.1    c0.6,0.6,1.2,0.9,2,0.8c1,0,2,0,3,0c0.4,0,0.7,0.1,1.1,0.2C314.2,427.9,314.2,436.4,313.9,437.9z M516.5,422.9c-1.5,0-2.8,0-4.2,0    c-2.5,0-1.8,0.3-3.6-1.5c-9.6-9.6-19.1-19.2-28.7-28.8c-0.1-0.1-0.2-0.2-0.3-0.3c-0.3-0.3-0.5-0.7-0.8-1c0.5-0.5,0.9-1,1.4-1.4    c3.1-3.1,6.3-6.2,9.4-9.3c4.6-4.5,9.1-9.1,13.6-13.6c2.1-2.1,4.2-4.1,6.3-6.2c0.6-0.6,1.2-0.9,2-0.8c1.2,0.1,2.4,0,3.6,0    c0.4,0,0.8-0.1,1.5-0.1c0-2.1,0-4.1,0-6.1c0-2.1,0-4.2,0-6.2c0-2,0.2-4-0.1-6c-0.3-0.1-0.5-0.2-0.6-0.2c-13.9,0-27.8,0-41.8,0    c-0.2,0-0.4,0.1-0.5,0.1c-0.1,0.2-0.2,0.4-0.2,0.5c0,5.7,0,11.3,0,17c0,0.2,0.1,0.5,0.1,0.8c1.2,0.4,2.4-0.1,3.7,0.4    c-0.3,0.4-0.4,0.6-0.7,0.8c-4.9,5.2-12.6,12.8-14.1,13.8c-4.9-4.5-9.4-9.4-14.2-14c-0.2-0.2-0.2-0.4-0.4-0.7    c1.2-0.4,2.4,0,3.4-0.4c0-0.3,0.1-0.6,0.1-0.8c0-5.5,0-11.1,0-16.6c0-0.3-0.1-0.6-0.2-0.9c-0.8,0-1.6,0-2.3,0    c-13.2,0-26.3,0-39.5,0c-0.5,0-1,0-1.5,0c-0.4,0-0.7,0.1-1.1,0.2c0,0.5-0.1,1-0.1,1.4c0,5.5,0,11,0.1,16.4c0,0.1,0,0.1,0.1,0.2    c0,0.1,0.1,0.1,0.2,0.2c0.4,0,0.9,0.1,1.4,0.1c1.5,0,3,0.1,4.5,0c1.1-0.1,1.9,0.3,2.7,1.1c9.7,9.8,19.5,19.5,29.2,29.3    c0.3,0.3,0.7,0.7,1,1.1c-0.4,0.4-0.7,0.8-1.1,1.2c-5.2,5.3-10.5,10.5-15.7,15.8c-3.5,3.5-7,6.9-10.4,10.4    c-1.1,1.1-2.2,2.2-3.3,3.4c-0.5,0.5-1,0.7-1.7,0.7c-1.9,0-3.8,0-5.7,0c-0.4,0-0.8,0.1-1.2,0.2c-0.1,0.3-0.1,0.5-0.1,0.7    c0,5.6,0,11.2,0,16.8c0,0.2,0.1,0.5,0.2,0.8c0.8,0,1.5,0,2.3,0c13.2,0,26.5,0,39.7,0c0.4,0,0.9,0,1.3,0c0.4,0,0.7-0.1,1.2-0.2    v-6.1c0-2,0-4,0-6c0-2,0.2-4-0.1-6c-1-0.2-1.9,0-3-0.3c0.3-0.4,0.5-0.7,0.8-1c2.2-2.3,4.4-4.5,6.6-6.8c2-2.1,4.1-4.1,6.1-6.2    c0.3-0.3,0.7-0.5,1-0.7c0.2,0.1,0.3,0.2,0.4,0.3c4.6,4.6,9.2,9.2,13.8,13.8c0.1,0.1,0.2,0.4,0.3,0.7c-1.3,0.3-2.5-0.1-3.6,0.4    c0,0.4-0.1,0.7-0.1,1c0,5.4,0,10.7,0,16.1c0,0.4,0.1,0.7,0.1,1c2,0.3,27.7,0.4,41.7,0.2c0.4,0,0.9-0.1,1.3-0.1    c0.1-0.4,0.1-0.7,0.1-1c0-5.5,0-11,0-16.4C516.7,423.6,516.6,423.3,516.5,422.9z M513.5,437.9c-1.7,0.3-24.3,0.5-35.5,0.2    c-0.4,0-0.8-0.1-1.3-0.1c-0.1-0.3-0.1-0.6-0.1-0.8c0-3.5,0-6.9,0-10.4c0-0.2,0.1-0.3,0.2-0.6c2.7-0.3,5.5,0,8.2-0.2    c0.3-0.4-0.1-0.6-0.2-0.8c-0.2-0.2-0.4-0.4-0.5-0.5c-6.8-6.9-13.7-13.8-20.5-20.6c-0.4-0.4-0.8-0.8-1.3-1.2    c-0.3,0.2-0.5,0.3-0.6,0.5c-7.4,7.4-14.8,14.9-22.2,22.3c0.1,0.5,0.5,0.5,0.8,0.5c1.9,0,3.8,0,5.7,0c0.6,0,1.2,0,2,0.1    c0.4,2,0.1,3.9,0.2,5.9c0,1.9,0,3.9,0,5.9c-0.5,0.1-0.8,0.2-1.2,0.2c-0.4,0-0.9,0-1.3,0c-11.1,0-22.2,0-33.3,0c-0.7,0-1.5,0-2.3,0    c-0.4-2-0.1-4-0.2-5.9c0-1.9-0.1-3.9,0.1-5.9c0.4-0.1,0.7-0.2,1.1-0.2c1.4,0,2.9,0,4.3,0c0.7,0,1.2-0.2,1.7-0.7    c0.2-0.2,0.4-0.4,0.7-0.7c10.6-10.6,21.1-21.1,31.7-31.7c0.5-0.5,0.9-1,1.4-1.4c0-0.2,0-0.3,0-0.3c0-0.1,0-0.1-0.1-0.2    c-0.2-0.2-0.3-0.4-0.5-0.6c-1.9-1.9-3.8-3.8-5.8-5.7c-9.4-9.3-18.8-18.6-28.2-28.1h-6c-0.1-0.4-0.2-0.8-0.2-1.1c0-3.3,0-6.6,0-9.8    c0-0.3,0.1-0.6,0.1-0.8c0.1-0.1,0.2-0.2,0.2-0.2c0.1,0,0.1-0.1,0.2-0.1c12.2,0,24.3,0,36.5,0c0.3,0,0.6,0.1,0.9,0.1    c0.1,0,0.1,0.1,0.1,0.1c0.1,0.1,0.2,0.2,0.2,0.3c0,3.5,0,7.1,0,10.6c0,0.2-0.1,0.5-0.1,0.8c-0.9,0.3-1.9,0.1-2.8,0.2    c-0.9,0-1.8,0-2.6,0h-2.7c-0.3,0.5,0,0.7,0.2,0.9c0.4,0.5,0.9,0.9,1.3,1.3c6.5,6.5,12.9,12.9,19.4,19.4c0.5,0.5,1,1,1.5,1.5    c0.8-0.2,1.1-0.8,1.6-1.3c6.7-6.7,13.5-13.4,20.2-20.2c0.3-0.3,0.6-0.6,0.9-0.9c0.1-0.1,0.2-0.3,0.3-0.6c-1-0.2-1.9-0.1-2.9-0.1    c-0.9,0-1.9,0-2.8,0c-0.9,0-1.9,0.1-2.9-0.2c-0.2-1.3-0.1-2.7-0.1-4c0-1.3,0-2.5,0-3.8c0-1.3,0-2.6,0-3.9c0.7-0.4,1.3-0.3,1.9-0.3    c5.3,0,10.6,0,15.9,0c5.7,0,11.3,0,17,0c0.7,0,1.4,0,2.2,0.1c0.2,1.4,0.1,2.7,0.1,4c0,1.3,0,2.5,0,3.8c0,1.3,0,2.6,0,4    c-1.8,0.5-3.5,0.1-5.3,0.3c-11.4,11.4-22.8,22.9-34.4,34.5c0.3,0.4,0.6,0.7,0.9,1c2.9,2.9,5.7,5.8,8.6,8.7c6,6,12,12.1,18,18.1    c2,2,4,4,6,6.1c0.6,0.6,1.2,0.9,2,0.8c1,0,2,0,3,0c0.4,0,0.7,0.1,1.1,0.2C513.8,428,513.8,436.4,513.5,437.9z M377.7,423.1    c-1.1,0-2.1,0-3.1,0c-1,0-2,0.1-2.9-0.2c-0.3-2.1-0.5-46-0.2-61.5c0-0.4,0.1-0.9,0.1-1.4c0.5-0.1,0.9-0.1,1.3-0.1    c1.3,0,2.5,0,3.8,0c0.4,0,0.7-0.1,1-0.2c0.1-0.3,0.1-0.5,0.1-0.7c0-5.6,0-11.2,0-16.8c0-0.3-0.1-0.6-0.2-1h-1.9c-4,0-8.1,0-12.1,0    c-6.6,0-13.2,0-19.8,0c-0.7,0-1.4-0.1-2.1,0.2c0,0.4-0.1,0.8-0.1,1.1c0,5.4,0,10.7,0,16.1c0,0.4,0.1,0.7,0.2,1.1    c2,0,3.9,0.1,6.2,0.1v39.3c0,7.2,0,14.4,0,21.5c0,0.7,0.2,1.4-0.2,2.1c-2,0.4-4-0.1-6,0.3c-0.1,0.3-0.1,0.5-0.1,0.8    c0,5.5,0,11,0,16.4c0,0.3,0.1,0.6,0.2,0.9c0.6,0,1.1,0.1,1.6,0.1c2.1,0,4.2,0,6.2,0c8.7,0,17.4,0,26.1,0c0.7,0,1.4,0.1,2.1-0.2    c0-0.3,0.1-0.5,0.1-0.8c0-5.5,0-11,0-16.4C377.9,423.7,377.8,423.5,377.7,423.1z M374.7,438c-0.3,0-0.7,0.1-1,0.1    c-7.5,0.2-26.7,0.1-28.6-0.2c-0.3-1.9-0.1-3.8-0.1-5.8c0-1.9-0.1-3.9,0-5.9c2-0.5,3.9,0,5.9-0.4c0.1-0.4,0.1-0.9,0.1-1.3    c0-1.8,0-3.7,0-5.5c0-20,0-39.9,0-59.9c0-0.7,0-1.5,0-2.4c-2.1-0.3-4,0-5.8-0.2c-0.1-0.2-0.2-0.3-0.2-0.4c0-3.2-0.1-6.4-0.1-9.6    c0-0.6,0-1.1,0.1-1.7c0.7-0.5,1.4-0.3,2.1-0.3c8.5,0,17,0,25.5,0h2.1c0.1,0.3,0.2,0.6,0.2,0.8c0,3.5,0,6.9,0,10.4    c0,0.2-0.1,0.5-0.1,0.8c-1,0.2-2,0.1-3,0.1c-1,0-2-0.1-3,0.1c-0.1,0.3-0.2,0.4-0.2,0.6c0,22.6,0,45.2,0,67.8    c0,0.2,0.1,0.3,0.2,0.6c2,0.4,4-0.1,5.9,0.3C375,427.9,375,436.3,374.7,438z M331.6,260.1c0-0.1,0.1-0.1,0.2-0.2    c0.7-0.1,1.6-0.2,2.4-0.2c0.3-1.7,0.3-3.6,0-5.2c-0.2,0-0.4-0.1-0.7-0.1c-4,0-7.9,0-11.9,0c-0.2,0-0.5,0.1-0.8,0.2    c0,0.9,0,1.7,0,2.5c0,0.9-0.2,1.8,0.2,2.6c0.8,0.1,1.6,0.2,2.4,0.2c0.1,0.4,0.1,0.7,0.1,1c0,6.9,0,13.7,0,20.6    c0,0.3,0.1,0.6-0.4,0.8c-2-3-3.8-6.2-5.6-9.3c-1.9-3.1-3.7-6.1-5.6-9.2c-1.9-3.1-3.8-6.3-5.7-9.5c-3.6,0-7,0-10.4,0    c-0.2,0-0.4,0.2-0.7,0.3c0,1.7-0.1,3.3,0.1,5c0.9,0.1,1.7,0.2,2.6,0.3c0.2,0.8,0.2,1.5,0.2,2.2c0,7.8,0,15.6,0,23.4    c0,1.4,0,2.9,0,4.3c0,0.3-0.1,0.7-0.2,1c-0.9,0.1-1.7,0.1-2.4,0.2c-0.3,2-0.3,4,0.1,5.4c0.3,0,0.6,0.1,0.9,0.1c3.9,0,7.8,0,11.7,0    c0.2,0,0.3-0.1,0.6-0.2c0.2-1.7,0.2-3.4,0-5.3c-0.9-0.1-1.7-0.1-2.6-0.2c0-0.7-0.1-1.3-0.1-1.9c0-3.7,0-7.4,0-11.1    c0-2.7,0-5.4,0-8.1c0-0.3-0.1-0.6,0.5-0.7c0.3,0.5,0.7,1,1,1.6c2.5,4.1,4.9,8.2,7.4,12.3c2.5,4.2,5.1,8.4,7.6,12.6    c0.4,0.7,0.9,1.1,1.8,1.1c3-0.1,6,0,9.1,0c0.4,0,0.7-0.1,1-0.2c0.3-2.4,0.2-4.1-0.2-5.3c-0.8-0.3-1.8,0.1-2.6-0.4    c0-0.3-0.1-0.5-0.1-0.8c0-9.9,0-19.8,0-29.6C331.5,260.2,331.5,260.2,331.6,260.1z M281.2,254.3c-9.5,0-19,0-28.5,0    c-0.2,0-0.5,0.1-0.7,0.1c-0.3,1.5-0.3,3.5,0,5.1c0.8,0.5,1.8-0.1,2.6,0.7c0,9.9,0,19.9,0,29.9c0,0.2-0.1,0.5-0.2,0.7    c-0.8,0.1-1.6,0.2-2.5,0.2c-0.2,1-0.1,1.9-0.1,2.7c0,0.9-0.2,1.8,0.2,2.5c1.8,0.3,20.7,0.4,28.2,0.2c0.4,0,0.7-0.1,1.1-0.1    c0.3-1.6,0.3-5.7,0-7.3c-1.7-0.2-3.4-0.2-5.2,0c-0.1,0.6-0.2,1.1-0.3,1.7c-0.4,0-0.7,0.1-1,0.1c-3.7,0-7.3,0-11,0    c-0.4,0-0.7-0.1-1.1-0.2c0-0.5-0.1-0.9-0.1-1.4c0-3.6,0-7.2,0.1-10.8c0-0.1,0.1-0.2,0.2-0.3c1.6-0.3,4.9-0.3,6.6,0    c0.1,0.5,0.2,1,0.3,1.7c1,0,1.8,0.1,2.7,0c0.9,0,1.7,0.2,2.5-0.2c0.3-1.9,0.2-7.5-0.1-9c-1.7-0.2-3.4-0.2-5.2,0    c-0.1,0.6-0.2,1.1-0.3,1.6c-2.5,0.3-5.4,0.2-6.6-0.1c-0.2-1.3-0.3-8.7-0.1-11.5c0-0.3,0.1-0.6,0.1-0.9c1.6-0.3,11.6-0.3,13.1,0    c0.1,0.5,0.2,1,0.4,1.7c1.8-0.1,3.5,0.2,5.4-0.2c0-1.2,0-2.3,0-3.5C281.5,256.8,281.7,255.6,281.2,254.3z M484.8,287.2    c0-0.7,0.1-1.4-0.1-2c-1.7-0.3-6.1-0.3-7.6,0c-0.1,1.7-0.1,3.5,0,5.3c1.8,1.8,3.7,3.6,5.5,5.4c0.5,0.5,1,0.7,1.7,0.7    c0.7,0,1.4,0,2.1,0c4.7,0,9.3,0,14,0c0.9,0,1.5-0.2,2.2-0.9c1.5-1.6,3.1-3.1,4.7-4.7c0.6-0.6,0.8-1.2,0.8-2c0-2.9,0-5.8,0-8.7    c0-0.9-0.3-1.5-0.9-2.1c-1.5-1.5-2.9-2.9-4.4-4.5c-0.6-0.7-1.3-1-2.3-1c-3.1,0.1-6.3,0-9.4,0c-3.2,0-3.2,0-5.4-2.3    c-0.5-0.5-0.7-1-0.7-1.7c0-0.9,0-1.9,0-2.8c0-1.1,0.1-2.3,0.1-3.4c0.9-0.9,1.8-1.8,2.7-2.7c0,0,0.1-0.1,0.2-0.1    c0.1,0,0.2-0.1,0.4-0.1c1.9,0,3.8,0,5.7,0c3.1,0,3.1,0,5.2,2.2c0.5,0.5,0.8,1.1,0.8,1.8c0,0.7-0.2,1.5,0.3,2.3c0.8,0,1.7,0,2.6,0    c0.8,0,1.6,0,2.5,0c0.9,0,1.7,0.2,2.7-0.3c0-1.4,0-2.7,0-4c0-0.8-0.3-1.4-0.8-2c-1.5-1.5-3-3-4.5-4.6c-0.7-0.7-1.3-1-2.3-1    c-5.4,0-10.7,0-16.1,0c-0.4,0-0.7,0-1.3,0.1c-1.6,1.6-3.2,3.3-4.9,4.9c-0.9,0.8-1.2,1.7-1.1,2.8c0.1,1.4,0,2.8,0,4.2v5.7    c1.8,1.8,3.6,3.6,5.3,5.4c0.6,0.6,1.3,0.9,2.2,0.9c3.1,0,6.3,0,9.4,0c1,0,2.1-0.2,3,0.2c0.8,0.3,1.4,1.3,2.1,1.9    c0.6,0.5,0.9,1.1,0.9,2c-0.1,0.9,0,1.9,0,2.8c0,3.1,0,3.1-2.3,5.2c0,0-0.1,0.1-0.1,0.1c-0.3,0.3-0.7,0.5-1.2,0.5    c-2.8,0-5.7,0-8.5,0c-0.8-0.8-1.5-1.5-2.2-2.2C485,288.4,484.7,287.9,484.8,287.2z M214.5,287.2c0-0.7,0.1-1.4-0.1-2    c-1.6-0.3-6-0.3-7.6,0c-0.1,1.7-0.1,3.5,0,5.3c1.8,1.8,3.7,3.6,5.5,5.4c0.5,0.5,1,0.7,1.7,0.7c0.6,0,1.1,0,1.7,0    c4.8,0,9.6,0,14.4,0c0.9,0,1.6-0.2,2.2-0.9c1.5-1.6,3.1-3.1,4.7-4.7c0.6-0.6,0.8-1.2,0.8-2c0-2.9,0-5.8,0-8.7    c0-0.9-0.3-1.5-0.9-2.1c-1.5-1.5-2.9-2.9-4.4-4.5c-0.6-0.7-1.3-1-2.3-1c-3.1,0.1-6.3,0-9.4,0c-3.3,0-3.3,0-5.5-2.4    c-0.4-0.4-0.5-0.8-0.5-1.4c0-1.1,0-2.3,0-3.4c0-3.1,0-3.1,2.2-5.2c0.5-0.5,1-0.6,1.7-0.6c1.7,0,3.4,0,5.1,0c3.1,0,3.1,0,5.2,2.2    c0.5,0.5,0.8,1.1,0.8,1.8c0,0.7-0.2,1.5,0.3,2.2h7.8c0-1.5,0-2.9,0-4.2c0-0.8-0.3-1.4-0.8-2c-1.5-1.5-3-3-4.5-4.6    c-0.7-0.7-1.3-1-2.3-1c-5.4,0-10.7,0-16.1,0c-0.4,0-0.7,0-1.2,0.1c-1.6,1.6-3.1,3.2-4.7,4.8c-1.5,1.5-1.2,1-1.3,3.1    c0,1.2,0,2.4,0,3.6v6.1c1.8,1.8,3.6,3.6,5.3,5.4c0.6,0.6,1.3,0.9,2.2,0.9c3.1,0,6.3,0,9.4,0c3.3,0,3.3,0,5.4,2.5    c0.3,0.4,0.5,0.7,0.5,1.2c0,1.8,0,3.7,0,5.5c0,0.5-0.2,0.8-0.5,1.2c-0.8,0.8-1.6,1.6-2.4,2.3c-2.8,0-5.5,0-8.2,0    c-0.3,0-0.6,0-1-0.1c-0.7-0.7-1.4-1.4-2.1-2.1C214.7,288.4,214.5,287.9,214.5,287.2z M436.5,277.5c0.5,0,1-0.1,1.5-0.1    c1.9,0,3.8,0,5.7,0c3.1,0,3.1,0,5.2,2.2c0,0,0.1,0.1,0.1,0.1c0.3,0.3,0.5,0.7,0.5,1.2c0,0.4,0,0.9,0,1.3c0,4.1,0,8.2,0,12.3    c0,0.6,0.1,1.2,0.1,1.9c1.2,0.2,2.4,0.1,3.5,0.1c1.2,0,2.4,0,3.6,0c1.1,0,2.3,0.2,3.5-0.3c0-1.7,0.2-3.5-0.1-5.2    c-0.9-0.1-1.7-0.2-2.5-0.2c-0.2-2.1-0.1-4.1-0.1-6.1c0-2,0-4,0-5.9c-1.4-1.6-2.9-2.9-4.1-4.4c0.3-0.3,0.5-0.6,0.7-0.8    c0.8-0.8,1.6-1.6,2.4-2.4c0.7-0.7,1.1-1.4,1-2.5c-0.1-1.7,0-3.4,0-5.1c0-1.1,0-2.1,0-3.1c-1.8-1.8-3.5-3.5-5.1-5.2    c-0.7-0.7-1.3-1-2.3-1c-7.6,0-15.2,0-22.9,0c-0.4,0-0.8,0.1-1.3,0.1c-0.2,1-0.2,1.8-0.1,2.7c0,0.8-0.3,1.7,0.2,2.5    c0.8,0.3,1.7-0.1,2.5,0.5c0,0.4,0.1,0.9,0.1,1.3c0,9.3,0,18.6,0,28c0,0.2,0,0.4,0,0.6c-0.1,0.3-0.2,0.7-0.3,1    c-0.8,0.1-1.6,0.1-2.4,0.2c-0.1,1.8-0.2,3.6,0.1,5.3c0.3,0.1,0.6,0.1,0.8,0.1c3.9,0,7.8,0,11.7,0c0.3,0,0.6-0.1,0.9-0.2    c0-1.7,0.1-3.4-0.1-5.2c-0.9-0.1-1.8-0.2-2.7-0.3c0-0.4-0.1-0.7-0.1-1c0-3.9,0-7.8,0-11.7C436.3,277.9,436.4,277.8,436.5,277.5z     M436.4,259.9c0.4-0.1,0.7-0.2,1.1-0.2c2.6,0,5.1,0,7.7,0c0.8,0,1.5,0.2,2,0.8c0.1,0.1,0.2,0.2,0.3,0.2c1.9,1.7,1.9,1.7,1.9,4.2    c0,1.3,0,2.5,0,3.8c-0.5,0.5-1,1-1.4,1.5c-0.5,0.5-1,1-1.4,1.4c-2.3,0.2-8.6,0.2-10.1-0.1c-0.1-0.2-0.2-0.3-0.2-0.5    c0-3.5,0-6.9,0-10.4C436.2,260.5,436.3,260.3,436.4,259.9z M403.5,254.3c-5.6,0-11.2,0-16.8,0c-0.1,0-0.3,0-0.4,0    c-0.5,0-0.8,0.2-1.2,0.5c-1.9,1.9-3.8,3.7-5.7,5.6V288c0,0.4,0,0.8,0,1.1c-0.1,0.8,0.2,1.4,0.8,2c1.6,1.5,3.1,3.1,4.7,4.7    c0.5,0.5,1.1,0.8,1.8,0.8c5.4,0,10.8,0,16.2,0c0.8,0,1.3-0.2,1.8-0.8c1.5-1.5,3-3.1,4.5-4.5c0.7-0.7,1-1.4,1-2.5c0-9,0-18,0-27    c0-0.4-0.1-0.9-0.1-1c-2.2-2.2-4.2-4.3-6.3-6.4C403.9,254.4,403.7,254.3,403.5,254.3z M402.3,287.4c-0.1,0.4-0.3,0.7-0.4,1    c0,0.1-0.1,0.1-0.1,0.1c-2.1,2.4-2.1,2.4-5.3,2.4c-2.1,0-4.2,0-6.3,0c-1-1-1.9-1.9-2.8-2.8c0-0.5-0.1-1-0.1-1.5c0-7.5,0-15,0-22.5    c0-1.1,0.3-1.9,1.1-2.6c2.3-2.1,1.3-1.8,4.4-1.8c1.8,0,3.7,0,5.5,0c0.7,0,1.2,0.1,1.7,0.7c0.7,0.8,1.5,1.7,2.3,2.5    c0,1,0.1,2,0.1,3c0,6.7,0,13.3,0,20C402.4,286.4,402.4,287,402.3,287.4z M355.8,296.6c1.5,0,3,0,4.5,0c1.4,0,2.9,0.2,4.4-0.2    c0-0.9,0-1.8,0-2.7c0-0.9,0.2-1.8-0.2-2.6c-0.8,0-1.5-0.1-2.4-0.2c-0.3-2-0.4-19.2-0.2-29.6c0-0.4,0.1-0.9,0.1-1.4    c0.4-0.1,0.8-0.1,1.1-0.2c0.4,0,0.9-0.1,1.3-0.1c0.4-1.6,0.3-4,0-5.2c-0.1,0-0.2-0.1-0.4-0.1c-4,0-8.1,0-12.1,0    c-0.2,0-0.4,0.1-0.7,0.2c0,1.7-0.2,3.4,0.1,5c0.9,0.4,1.8-0.1,2.5,0.5c0.2,1.5,0.3,25.8,0.2,29.9c0,0.3-0.1,0.6-0.2,1    c-0.9,0.1-1.6,0.2-2.6,0.3c0,1.8-0.2,3.5,0.1,5.4C352.9,296.7,354.3,296.6,355.8,296.6z M439.1,270.5c1.3,0,2.6,0,4,0    c2.6,0,2.6,0,4.4-1.8c0.4-0.4,0.7-0.9,0.6-1.5c0-0.3,0-0.6,0-0.9c0-2.6,0-2.6-1.9-4.4c-0.5-0.5-1-0.7-1.7-0.7c-1.9,0-3.9,0-5.8,0    c-0.3,0-0.6,0.1-0.9,0.1c-0.3,1.5-0.4,6.7-0.1,9.1C438.3,270.4,438.7,270.5,439.1,270.5z M438.8,262.6c0.5-0.1,0.8-0.2,1.2-0.2    c1.4,0,2.9,0,4.3,0c1.2,0,2.4,1.2,2.5,2.4c0,0.5,0,1,0,1.5c0.1,1.1-0.3,1.8-1.1,2.4c-0.2,0.2-0.5,0.4-0.8,0.4    c-1.9,0.1-3.9,0.1-6,0C438.7,266.8,438.8,264.7,438.8,262.6z M400,262.5c-0.1-0.1-0.2-0.2-0.3-0.3c-0.6-0.8-1.4-1.1-2.5-1.1    c-1.3,0.1-2.6,0-4,0c-2.5,0-2.8,0.1-4.3,2c-0.2,0.3-0.4,0.7-0.4,1c-0.1,0.4,0,0.9,0,1.3c0,6.6,0,13.2,0,19.8    c0,2.3-0.3,1.7,1.5,3.6c0.5,0.5,1.1,0.8,1.8,0.8c1.3,0,2.6,0,4,0c2.9,0,2.9,0,5-2.3c0-0.3,0-0.6,0-0.8c0-7.2,0-14.5,0-21.7    C401,263.8,400.8,263,400,262.5z M399,287.7c-0.5,0.5-1.1,0.8-1.8,0.8c-1.6,0-3.3,0-4.9,0c-1.3,0-2.3-1.1-2.4-2.4    c0-0.4,0-0.9,0-1.3c0-6.2,0-12.4,0-18.7c0-0.4,0-0.8,0-1.1c0.1-1.4,1.1-2.5,2.5-2.5c1.5,0,3,0,4.5,0c0.9,0,1.6,0.2,2.2,0.9    c0.2,0.2,0.4,0.5,0.7,0.8v2.9c0,6.2,0,12.3,0,18.5C399.8,286.3,399.7,287,399,287.7z"/></g></g></svg>