<svg xmlns="http://www.w3.org/2000/svg" xmlns:xlink="http://www.w3.org/1999/xlink" class="badge__color__2" fill="currentColor" version="1.1" id="Shape_1_1_" x="0px" y="0px" viewBox="0 0 720 720" enable-background="new 0 0 720 720" xml:space="preserve"><g id="Shape_1"><g><path d="M544.2,552.5c-0.8-0.2-1.4,0.2-2,1.1c-0.1,0.2-0.2,0.3-0.3,0.5c-0.5,1-1,2-1.5,3c-2.4,4.5-5.3,8.6-9,12.1    c-2.5,2.4-5.3,4.4-8.5,5.9c-0.2,0.1-0.4,0.4-0.7,0c0.7-0.9,1.5-1.7,2.1-2.7c1.5-2.2,2.3-4.6,2.7-7.2c0.5-2.6,0.8-5.2,0.7-7.9    c0-2.1,0-4.1-0.2-6.2c-0.4-4-0.7-8-1-12c-0.2-3.6-0.5-7.3-0.6-10.9c-0.1-2.2,0.2-4.4,0.2-6.6c0-1.1,0.3-2.1,0.9-3    c0.7-1.2,1.4-2.4,2.1-3.6c0.5-1,1-2,1-3.2c0-1.8-1-2.9-2.7-2.9c-1.4-0.1-2.6,0.2-3.8,0.9c-3.7,2.1-6.5,5-7.9,9    c-0.5,1.4-0.8,2.8-1,4.2c-0.2,1.3-0.7,2.4-1.3,3.5c-5.1,8.6-10.9,16.8-16.7,24.9c-0.2,0.2-0.4,0.4-0.8,0.9c-0.2-1.7-0.3-3-0.5-4.3    c-0.3-1.6-1.3-2.1-2.7-1.2c-0.4,0.2-0.7,0.5-1.1,0.8c-0.9,0.9-1.7,1.8-2.3,3c-1.3,2.5-1.9,5.2-2,8c-0.1,2.1,0.1,4.2,0.6,6.2    c0.2,0.8,0.1,1.5-0.4,2.1c-1.3,1.6-2.5,3.3-3.8,4.9c-1.4,1.7-3,3.2-4.9,4.4c-1,0.6-2,1.2-3.1,1.4c-2.9,0.7-5.6,0-6.9-3.3    c-0.3-0.8-0.5-1.6-0.6-2.4c-0.3-1.8-0.1-3.6,0.2-5.4c0.6-3.1,1.7-6,3.1-8.9c2.9-5.9,6.6-11.3,10.6-16.5c1.9-2.4,3.9-4.8,5.9-7.1    c1.1-1.4,2-2.9,2.2-4.7c0.5-4.9-1.4-8.9-4.4-12.4c-0.7-0.8-1.7-1.1-2.7-0.7c-0.8,0.3-1.5,0.7-2.2,1.1c-1.4,0.8-2.8,1.8-4.2,2.6    c-3.5,2.1-7.2,3.8-11.3,4.7c-0.5,0.1-1.1,0.2-1.8,0.3c0.2-0.7,0.2-1.1,0.4-1.6c0.7-2.4,1.5-4.7,2.1-7.1c0.6-2.4,1-4.9,0.9-7.5    c0-0.9-0.2-1.8-0.6-2.6c-0.5-1-1.2-1.5-2.4-1.6c-1,0-2,0.2-2.9,0.7c-0.9,0.5-1.7,1.1-2.5,1.7c-3.3,2.8-5.9,6.2-7.8,10.1    c-1.1,2.1-1.9,4.3-2.1,6.6c-0.3,3.1,0.5,5.7,3.3,7.5c0.3,0.2,0.6,0.4,0.9,0.7c-0.6,0.9-1.1,1.8-1.7,2.6c-2.2,3-5,5.3-8.5,6.6    c-0.6,0.2-1.3,0.5-2,0.4c0-0.3-0.1-0.5-0.1-0.6c0.4-1.8,0.3-3.6,0.3-5.5c0-4-1.4-7.5-4.3-10.3c-1.5-1.5-3-3.1-4.3-4.7    c-0.8-1-1.7-1.9-2.6-2.7c-2.1-1.8-4.7-2.3-7.4-2.1c-3.5,0.3-6.6,1.4-9.6,3.1c-3.7,2.2-7,4.9-9.9,8.1c-6.6,7.4-10.9,16-13.1,25.6    c-0.6,2.8-0.8,5.6-0.7,8.4c0,0.9-0.2,1.6-0.7,2.3c-1.6,2.4-3.3,4.7-5.2,6.9c-1.8,2.1-3.9,3.9-6.3,5.4c-1.8,1.1-3.7,1.9-5.9,1.8    c-1.6,0-2.6-0.8-3.2-2.2c-0.4-1.1-0.6-2.3-0.5-3.5c0.3-3.4,1.3-6.5,2.6-9.6c2.2-5.3,5-10.3,7.8-15.3c1.9-3.5,3.9-7.1,5.7-10.7    c1.9-3.7,3-7.6,2.8-11.8c-0.1-1.6-0.3-3.3-1-4.8c-0.3-0.7-0.8-1.5-1.3-2.1c-1-1.2-2-1.2-3.1-0.2c-0.5,0.5-1,1-1.3,1.6    c-1.8,2.7-3.6,5.3-5.2,8.1c-2.2,3.8-4.4,7.7-6.5,11.5c-3,5.4-5.6,11-7.9,16.7c-1.1,2.9-2.2,5.8-2.6,8.8c-0.2,1.2-0.6,2.2-1.3,3.1    c-1.4,1.7-2.7,3.5-4.2,5.1c-1.5,1.6-3.2,3-5.1,4.1c-1.3,0.7-2.6,1.2-4.1,1.2c-2.4,0.1-3.9-1.5-4.5-3.3c-0.5-1.7-0.5-3.5-0.3-5.2    c0.3-2.1,0.9-4.2,1.6-6.2c1.1-2.8,2.5-5.5,3.9-8.2c2.7-4.8,5.5-9.6,8.2-14.4c1.2-2.1,2.4-4.3,3.5-6.5c1.7-3.3,2.4-6.8,1.4-10.4    c-0.7-2.6-2-4.9-4.3-6.5c-1.9-1.4-4-1.8-6.2-1.1c-0.9,0.3-1.8,0.6-2.6,1c-2.9,1.4-5.5,3.2-8.1,5.2c-2.9,2.3-5.6,4.7-8.2,7.3    c-0.4,0.4-0.8,1-1.5,1.2c0.2-1.8,0.5-3.6,0.7-5.4c0.4-2.8-0.1-5.4-1.1-7.9c-0.3-0.6-0.6-1.2-1-1.8c-0.7-0.9-1.8-0.9-2.6-0.1    c-0.4,0.4-0.7,0.9-1,1.4c-2.1,3.3-4.2,6.6-6.3,9.9c-6,9.6-11.5,19.5-16.3,29.8c-1.6,3.4-3,6.8-3.9,10.4c-0.2,0.8-0.7,1.3-1.2,1.8    c-1.9,1.7-3.9,3.3-6.1,4.7c-4.3,2.6-8.9,4.4-14.1,4.2c-3.7-0.1-6.4-1.7-8.1-4.9c-1.3-2.3-1.8-4.8-1.9-7.4c-0.2-4.2,0.7-8.3,2-12.2    c0.1-0.3,0.3-0.5,0.5-0.7c1.2,0.8,2.2,1.5,3.3,2.1c6.5,3.7,12.9,3.7,19.3-0.2c4.7-2.9,8.3-6.9,11-11.7c2.2-3.9,3.5-8,3.5-12.6    c0-2.4-0.7-4.4-2.2-6.2c-2.4-3-5.3-5.3-8.6-7.3c-1.3-0.7-2.6-1.2-4.1-1.3c-3.1-0.3-6.1,0.4-9,1.7c-5.1,2.3-9.3,5.7-13,9.8    c-4.2,4.6-7.5,9.8-10.2,15.3c-2.9,6-4.6,12.2-4.5,18.9c0.1,2.9,0.5,5.8,1.5,8.5c2.6,7,7.6,11.3,14.9,12.7    c4.2,0.8,8.5,0.7,12.7-0.2c4.4-0.9,8.5-2.6,12.4-4.9c0.5-0.3,0.9-0.8,1.5-0.6c0.6,1.2,1,2.4,1.6,3.4c0.4,0.7,1.1,1.4,1.7,2    c1,0.8,1.8,0.7,2.5-0.4c0.2-0.4,0.4-0.8,0.6-1.2c1.1-2.3,2.2-4.7,3.2-7c3-6.5,6.2-13,9.8-19.2c4.3-7.4,9.3-14.2,15.7-19.9    c2.6-2.4,5.3-4.6,8.3-6.6c1.8-1.2,3.7-2.4,5.8-3.2c0.6-0.2,1.2-0.4,1.8-0.5c0.5-0.1,1,0.4,0.9,0.9c-0.2,0.8-0.5,1.6-0.8,2.3    c-1.7,3-3.4,6.1-5.1,9c-3.3,5.5-6.5,11.1-9.1,16.9c-1.8,4.1-3.3,8.3-3.9,12.8c-0.4,2.9-0.4,5.8,0.4,8.6c1.1,3.9,3.6,6.4,7.4,7.6    c3.7,1.2,7.6,1.2,11.4,0.2c4-1,7.4-3.1,10.6-5.7c0.5-0.4,1-0.7,1.5-1.2c0.3,0.5,0.5,0.9,0.7,1.2c1.1,2.1,2.8,3.6,4.9,4.5    c2.8,1.3,5.9,1.4,8.9,1.1c3.7-0.4,7.2-1.8,10.4-3.8c2.8-1.8,5.3-4,7.5-6.5c0.3-0.3,0.5-0.8,0.9-0.9c1.2,1.6,2.2,3.2,3.4,4.7    c2.8,3.3,6.4,5.5,10.7,6.2c3.2,0.5,6.4,0.2,9.5-0.9c1.7-0.6,3.3-1.5,4.9-2.5c3.5-2.3,6.4-5.3,8.9-8.6c5.1-6.7,8.7-14.1,10.9-22.2    c0.1-0.4,0.3-0.8,0.5-1.2c0.8-0.1,1.6-0.2,2.3-0.3c2.7-0.4,5.2-1.3,7.6-2.7c3.7-2.2,6.6-5.2,9.1-8.6c0.4-0.5,0.7-1,1.1-1.6    c0.8-0.1,1.6-0.2,2.4-0.3c1.4-0.2,2.8-0.3,4.1-0.6c3.6-0.8,7.1-2.1,10.4-3.9c0.3-0.2,0.7-0.6,1.2-0.2c-0.1,0.2-0.2,0.4-0.4,0.6    c-1.5,1.8-3,3.6-4.5,5.4c-4,5-7.8,10.1-10.8,15.7c-3,5.6-4.9,11.4-4.6,17.9c0.1,2.7,0.7,5.4,2,7.8c3.1,5.5,8.2,7.4,14.1,7.5    c3.3,0,6.4-1.1,9.3-2.7c2.6-1.5,4.9-3.3,6.9-5.5c0.4-0.5,1-1,1.4-1.4c0.2,0.1,0.2,0.1,0.3,0.1c0.3,0.3,0.6,0.6,0.9,1    c3,3.7,6.8,6.1,11.4,7.2c4.5,1.2,9.1,1.4,13.7,0.7c10.2-1.5,18.2-6.6,24-15.2c1.8-2.6,3.2-5.4,3.8-8.6c0.3-1.4,0.3-2.7,0.2-4.1    C545.7,553.5,545,552.7,544.2,552.5z M270.5,540.5c2.5-4,5.4-7.6,8.7-10.9c2.3-2.2,4.7-4.2,7.5-5.7c0.9-0.5,1.8-0.8,2.8-1.1    c0.5-0.2,1.1-0.2,1.7-0.2c1,0.1,1.6,0.7,1.7,1.7c0.1,0.7,0,1.5-0.2,2.2c-0.5,2.4-1.5,4.7-2.7,6.8c-2.5,4.5-5.4,8.6-9.1,12.2    c-1.5,1.4-3.1,2.6-4.9,3.5c-3.2,1.5-6.2,1.3-9.2-0.5c-0.1-0.1-0.2-0.2-0.3-0.4C267.7,545.5,269,542.9,270.5,540.5z M427.8,546.8    c-2.8,7.3-6.3,14.1-11.2,20.2c-1.6,2-3.4,3.9-5.5,5.4c-1.3,0.9-2.6,1.7-4,2.4c-1.1,0.6-2.3,0.8-3.6,0.8c-1.8,0-3-0.8-3.8-2.3    c-0.4-0.8-0.7-1.7-0.9-2.7c-0.3-1.8-0.4-3.6-0.2-5.4c0.5-5.6,2.1-11,4.4-16.1c2.5-5.7,5.8-10.8,9.9-15.5c1.2-1.3,2.4-2.6,3.6-3.8    c0.4-0.4,0.8-0.8,1.4-0.9c0.4,2.1,0.9,4.2,1.8,6.1c1,2,2.2,3.8,3.8,5.4c1.5,1.5,3.3,2.7,5,4.2C428.3,545.2,428.1,546,427.8,546.8z     M431,533.5c-0.2,1.5-0.4,3.1-0.6,4.7c0,0.2-0.1,0.4-0.3,1c-0.6-0.6-1.1-0.9-1.4-1.4c-2-2.8-3-5.9-2.4-9.4    c0.2-0.8,0.6-1.7,0.9-2.4c0.1-0.3,0.4-0.6,0.7-0.9c0.7-0.5,1.2-0.5,1.8,0.1c0.6,0.5,0.9,1.2,1,2    C431.1,529.2,431.3,531.3,431,533.5z M515.1,558.9c0,3.8-0.3,7.7-1.2,11.4c-0.3,1.1-0.7,2.2-1.1,3.2c-0.4,0.9-1,1.6-1.7,2.2    c-1.4,1.1-3,1.2-4.6,0.6c-1.5-0.6-2.8-1.7-3.8-3c-1.1-1.4-2.1-3-2.8-4.7c-0.8-1.8-1.4-3.7-2-5.5c-0.3-0.8-0.2-1.4,0.3-2.1    c1.3-1.8,2.6-3.7,3.9-5.6c4.1-5.9,8-12.1,11.6-18.3c0.1-0.2,0.3-0.4,0.7-1c0.1,1,0.2,1.6,0.2,2.1c0.1,2.6,0.2,5.3,0.4,7.9    C515.2,550.3,515.2,554.6,515.1,558.9z M250.7,531.1c0.5-0.5,0.8-1.1,1.2-1.7c3.4-6.1,7-12.1,11.1-17.7c1.5-2,2.7-4.1,3.6-6.4    c1.5-3.9,1.8-7.8,0.3-11.8c-1.4-3.6-3.3-6.9-5.8-9.9c-2.9-3.4-6.4-5.1-11.2-5c-1.4-0.1-3.1,0.2-4.8,0.6c-4.6,1-8.8,2.9-12.9,5.2    c-6,3.3-11.4,7.3-16.5,11.9c-3.6,3.3-7,6.9-9.8,10.9c-3.2,4.6-5.8,9.4-7,14.9c-0.6,2.6-1,5.3-0.9,8c0.2,3.7,1.6,7,3.6,10    c2,2.8,4.4,5.2,7,7.4c3.3,2.7,6.9,5.1,10.5,7.4c3.4,2.2,6.9,4.3,10.4,6.6c1.1,0.7,2.2,1.5,3.2,2.4c1.4,1.3,2.3,2.9,1.9,4.9    c-0.3,1.8-1.2,3.3-2.9,4.2c-1.3,0.8-2.7,1.3-4.2,1.6c-3.3,0.6-6.6,0.6-9.9-0.2c-4-0.9-7.6-2.7-11.1-4.7c-4-2.3-7.8-5.1-11.4-8    c-3.9-3.2-8.3-4.6-13.3-4.4c-1.2,0-2.5,0.3-3.7,0.6c-1.7,0.5-2.1,1.6-1.1,3.2c0.3,0.4,0.6,0.8,0.9,1.2c3.8,4.5,8,8.5,12.8,11.9    c5,3.5,10.5,6.3,16.4,7.9c3.4,0.9,6.9,1.4,10.4,1.5c2.9,0.1,5.8-0.3,8.6-1c2.4-0.6,4.7-1.4,6.9-2.5c3.7-1.9,6.5-4.7,8.7-8.1    c1.5-2.3,2.8-4.8,3.2-7.6c0.6-3.7-0.6-6.7-3.5-9c-0.8-0.7-1.7-1.3-2.6-1.8c-4-2.4-8-4.8-12-7.2c-3-1.8-6-3.8-8.7-6    c-1.9-1.6-3.8-3.3-5.1-5.5c-1.5-2.3-2.1-4.8-1.6-7.5c0.5-2.6,1.3-5.1,2.6-7.5c2.2-4.1,5.1-7.8,8.3-11.2c3.9-4.1,8.2-7.6,12.8-10.8    c4.3-3,8.9-5.7,13.8-7.7c1.6-0.7,3.3-1.1,5.1-1.4c1-0.2,1.9-0.1,2.8,0.2c0.9,0.3,1.5,1,1.6,1.9c0.1,0.9,0.1,1.8-0.3,2.6    c-0.6,1.3-1,2.7-1.7,4c-1.3,2.3-2.7,4.5-4.1,6.8c-1.8,2.9-3.7,5.7-5.4,8.7c-1.8,3.1-2.9,6.4-2.8,10.1c0.1,3.1,1.3,5.7,3.4,7.9    c0.3,0.3,0.7,0.6,1.1,0.8C249.5,531.9,250.1,531.8,250.7,531.1z M309.3,98.5c1.3,0.3,2.4,1.4,3.8,1.5c1.9,0.9,3.8,1.6,5.7,2.4    c2.7,1.2,5.5,2.1,8,3.7c0.3,0.2,0.6,0.2,0.9,0.3c0.4,0.1,0.8,0.1,1.1,0.3c1.2,0.9,2.7,1,3.9,1.8c0.9,0.5,1.8,0.8,2.8,1.2    c1.3,0.5,2.7,1.1,4,1.6c0.8,0.3,1.6,0.7,2.4,1.1c1.3,0.6,2.6,1.2,3.9,1.8c0.3,0.2,0.7,0.3,1,0.5c0.4,0.4,0.8,0.5,1.3,0.6    c0.5,0.1,1.1,0.3,1.6,0.5c0.5,0.2,0.9,0.4,1.4,0.6c1.4,0.6,2.8,1.1,4.2,1.7c1.4,0.6,2.6,1.6,4.1,1.8c0.2,0,0.4,0.1,0.5,0.3    c0.7,0.7,1.4,0.4,2.3,0.1c1.1-0.5,2.3-1,3.4-1.5c2.1-0.9,4.2-1.7,6.2-2.6c0.9-0.4,1.7-0.9,2.6-1c0.3,0,0.6-0.3,0.8-0.4    c0.3-0.2,0.5-0.4,0.8-0.5c1.4-0.6,2.7-1.2,4.1-1.8c1.9-0.8,3.8-1.6,5.7-2.4c1-0.4,2-0.7,2.9-1.2c0.3-0.2,0.6-0.1,0.9-0.3    c0.4-0.2,0.8-0.4,1.2-0.5c1.4-0.5,2.6-1.5,4.2-1.7c0.4,0,0.8-0.2,1-0.4c1.7-1.3,3.8-1.8,5.7-2.8c1.3-0.6,2.7-1,4-1.6    c0.6-0.3,1.2-0.7,1.9-0.8c0.3,0,0.6-0.2,0.8-0.4c0.5-0.4,1.1-0.6,1.7-0.7c0.4-0.1,0.8-0.1,1.1-0.3c0.9-0.7,2-1.1,2.9-1.7    c0.1-0.1,0.2-0.3,0.4-0.5c-0.2-0.2-0.4-0.3-0.6-0.4c-0.5-0.2-1.1-0.2-1.6-0.5c-1.5-0.9-3.2-1.3-4.8-2.1c-1.1-0.5-2.3-1-3.5-1.5    c-2.2-1-4.3-2.2-6.7-2.9c-0.1,0-0.3-0.1-0.3-0.2c-0.5-0.7-1.4-0.8-2.2-0.9c-0.3,0-0.6-0.2-0.9-0.3c-1.6-0.7-3-1.8-4.8-2    c-0.1,0-0.1,0-0.2-0.1c-2.1-1.2-4.5-2-6.7-2.9c-0.9-0.4-1.7-0.8-2.6-1.2c-1.4-0.6-2.9-1.1-4.2-2c-0.2-0.1-0.5-0.2-0.7-0.3    c-1.5-0.2-2.6-1.1-4-1.6c-1.4-0.4-2.6-1.3-3.9-1.7c-1.5-0.5-2.9-1.2-4.3-1.9c-1-0.5-2-0.6-3,0c-0.3,0.2-0.6,0.4-1,0.5    c-2.3,0.7-4.3,2-6.6,2.6c-0.1,0-0.2,0.1-0.3,0.2c-1.4,0.7-2.7,1.6-4.3,1.8c-0.2,0-0.4,0.2-0.7,0.3c-1.3,0.6-2.6,1.3-3.9,1.8    c-1.3,0.4-2.4,1.3-3.8,1.5c-1.4,0.9-3,1.2-4.4,2c-1,0.5-2.1,0.8-3.1,1.4c-2.2,1.1-4.6,1.7-6.7,2.9c-1.4,0.2-2.5,1.1-3.8,1.5    c-1.8,0.5-3.4,1.5-5.1,2.3c-1.7,0.8-3.4,1.7-5.3,2c-0.2,0-0.5,0.1-0.6,0.3c-0.4,0.6-1,0.7-1.6,0.9c-0.2,0.1-0.4,0.3-0.6,0.4    C308.5,98.1,308.6,98.3,309.3,98.5z M475.9,414.5c0.4,0.4,0.8,0.8,1.6,0.8c0.2-0.3,0.4-0.7,0.6-1.1c0.3-0.9,0.6-1.8,0.9-2.7    c1.3-4.7,2.5-9.3,3.8-14c0.7-2.5,0.5-2-0.7-3.6c-1.2-1.6-2.6-3.1-3.4-5c-1-2.1-1.9-4.1-2.7-6.2c-2.9-7.7-4.2-15.7-4.4-23.8    c-0.1-4.1-0.3-8.2-0.9-12.2c-0.5-3.8-1.1-7.5-2.3-11.1c-0.7-2.3-1.7-4.6-3-6.7c-1-1.5-2.1-2.8-3.6-3.9c-3.4-2.3-7-2.7-10.7-0.6    c-1.1,0.6-2.2,1.4-3.2,2.3c-1.4,1.3-2.7,2.7-3.9,4.1c-2.9,3.6-5.4,7.5-7.4,11.6c-2.3,4.6-4,9.4-4.4,14.5c-0.2,2,0,4,0.4,6    c0.3,1.6,1.3,2.8,2.4,4c3.5,3.7,7.8,6.1,12.8,7.1c3.5,0.7,6.9,1.2,10.5,1.3c1.1,0,2.2,0.1,3.4,0.4c0.1,0.4,0.2,0.8,0.2,1.1    c1.2,6.8,2.6,13.6,4.9,20.2c1.7,5.1,3.9,10,6.8,14.5C474.2,412.6,475.1,413.5,475.9,414.5z M459.8,355.5c-1.2,0.5-2.2,0.2-3.2,0    c-1-0.2-2.1-0.6-3.1-1c-2.4-0.9-4.8-1.9-7-3.3c-1.9-1.2-2-1.8-1-3.7c1-1.9,2.3-3.5,3.8-4.9c1.4-1.3,2.6-1.4,4.3-0.4    c0.7,0.4,1.3,1,1.8,1.6c0.6,0.7,1.1,1.5,1.5,2.4c1.3,2.6,2.2,5.3,2.8,8.2C459.9,354.7,459.8,355,459.8,355.5z M393.4,111.1    c-0.3,0.1-0.6,0.4-1,0.6c-2.1,0.9-4.1,1.9-6.2,2.7c-1.1,0.4-2.1,1-3.3,1.2c-0.2,0-0.4,0.3-0.6,0.5c-0.3,0.2-0.5,0.4-0.8,0.5    c-1.1,0.3-2,0.9-3.1,1.4c-1.6,0.7-3.2,1.4-4.7,2.2c-1.9,1-4,1.8-5.9,2.7c-1.5,0.8-3.1,1.4-4.6,2.1c-1.3,0.6-2.7,0.8-4,0    c-1.4-0.8-2.9-1.1-4.3-1.9c-0.7-0.4-1.5-0.7-2.2-1c-1.3-0.6-2.5-1.1-3.8-1.6c-0.7-0.3-1.6-0.5-2.2-1c-1.1-0.8-2.4-1-3.5-1.7    c-1.1-0.6-2.4-0.9-3.4-1.5c-0.7-0.4-1.5-0.6-2.2-1c-0.8-0.4-1.5-0.9-2.4-1.1c-0.2,0-0.4-0.1-0.5-0.2c-1.3-0.9-2.8-1.3-4.2-2    c-0.3-0.2-0.7-0.2-1-0.5c-0.8-0.7-1.8-0.8-2.9-1.3c-0.5,1.3-0.5,2.4-0.4,3.6c0.1,0.7,0.2,1.4,0.2,2.1c0,6,0,12-0.1,17.9    c0,1.1,0.4,1.8,1.4,2.2c1.6,0.8,3.3,1.4,4.9,2.3c1,0.5,2.1,0.8,3,1.4c1,0.7,2.2,0.8,3.1,1.7c0.1,0.2,0.5,0.2,0.7,0.2    c1.6,0.1,2.8,0.9,4.2,1.7c0.3,0.2,0.6,0.4,1,0.5c0.9,0.2,1.6,0.6,2.4,1c0.8,0.5,1.6,1,2.5,1.2c2.2,0.6,4,2,6.1,2.8    c1,0.4,2,1.1,3,1.5c0.9,0.4,1.8,0.8,2.7,0.7c1,0,2-0.3,2.8-0.9c1.1-0.7,2.2-1.1,3.3-1.7c1.3-0.6,2.7-1.3,4-1.9    c1.1-0.5,2.3-1,3.4-1.5c1.2-0.5,2.5-0.8,3.6-1.5c2.5-1.7,5.4-2.5,8.1-3.9c0.8-0.4,1.5-0.9,2.4-1.1c1-0.3,1.8-1,2.7-1.2    c1.1-0.2,1.9-1,2.9-1.3c1.1-0.4,1.7-1.2,1.7-2.4c0-4.2,0-8.3,0.1-12.5c0-1.9,0-3.8,0-5.7c0-1.1-0.1-2.1,0.1-3.2    c0.2-0.7,0.1-1.5-0.5-2.1C394.9,110.6,394.2,110.9,393.4,111.1z M271.4,363c4-0.7,7.5-2.5,10.6-5.1c1.3-1.1,2.3-2.3,3.2-3.7    c1.3-2.3,2.1-4.7,2.8-7.2c0.9-3.4,1.4-6.8,1.7-10.2c0.2-2.4,0.4-4.9,0.2-7.3c-0.1-0.7-0.2-1.4-0.4-2c-0.1-0.4-0.3-0.7-0.9-0.7    c-0.3,0.4-0.7,0.9-1.1,1.4c-1.6,2.1-3.3,4-5.1,5.8c-2,1.9-4.1,3.5-6.6,4.7c-2.9,1.4-5.9,1.9-9.2,1.4c-3.3-0.5-6.2-1.9-8.8-4.1    c-2.6-2.2-4.6-5-6.3-7.9c-0.3-0.5-0.6-1.1-1-1.8c-1.1,1.5-7.9,13.4-8.5,14.9c0.3,0.4,0.5,0.8,0.8,1.2c1.2,1.8,2.5,3.6,3.7,5.5    c7.8,11.9,13.8,24.6,18.1,38.1c2.9,8.9,5,18,6.5,27.3c0.1,0.5,0.1,1.1,0.5,1.7c0.3-0.4,0.5-0.7,0.7-1c2.1-3.5,3.2-7.2,3.6-11.2    c0.3-3.3,0.1-6.7,0-10c-0.2-5-0.9-10-1.6-15c-0.7-4.7-1.7-9.4-3.3-13.9c0-0.1,0-0.2,0-0.4C271.1,363.1,271.2,363,271.4,363z     M501.2,342.8c-0.4-0.3-0.9-0.5-1.4-0.1c0,0.2-0.1,0.4-0.1,0.5c0.4,1.8,0.1,3.6,0.1,5.4c-0.1,6.2,0.1,12.3-0.1,18.5    c-0.1,3.1,0,6.3,0,9.4c0,7.1,0,14.1,0,21.2c0,0.2,0,0.5,0.1,1c0.6-0.2,1-0.4,1.4-0.6c2.8-1.6,5.5-3.2,8.3-4.8    c4.5-2.6,9-5.1,13.4-7.7c5.1-2.9,10.2-5.9,15.4-8.9c3.2-1.8,6.3-3.6,9.5-5.5c0.2-0.1,0.3-0.2,0.5-0.3c0.3-0.2,0.3-0.8,0-1    c-0.5-0.3-1-0.6-1.5-0.9c-5.3-3.1-10.7-6.2-16-9.3c-3.8-2.2-7.6-4.4-11.4-6.6c-4.7-2.7-9.4-5.4-14-8.1    C503.9,344.5,502.6,343.6,501.2,342.8z M169.4,369.8c-0.3,0.2-0.6,0.4-0.8,0.7c0.1,0.2,0.1,0.4,0.2,0.4    c15.9,9.2,31.8,18.4,47.7,27.6c0.2,0.1,0.5,0.2,0.8,0.3c0.1-0.4,0.3-0.8,0.3-1.1c0-3.7-0.2-7.4-0.2-11.1c0-10,0-20,0-30    c0-4.3,0-8.6,0-12.8c0-0.4-0.1-0.7-0.1-1c-0.6-0.3-1,0-1.5,0.3c-1.8,1.1-3.7,2.2-5.5,3.2c-6.4,3.7-12.8,7.5-19.2,11.2    c-4.4,2.5-8.7,5-13.1,7.5C175,366.5,172.2,368.2,169.4,369.8z M391.7,371.3c1.8,4.6,3.4,9.2,4.7,13.9c1.3,4.7,2.5,9.4,3.4,14.1    c1,4.8,1.6,9.6,2.3,14.4c0.2,0,0.3,0,0.3,0c0.2-0.2,0.4-0.4,0.6-0.7c1.2-1.9,2.1-3.9,2.7-6c1.1-3.7,1.5-7.5,1.5-11.4    c0-6.1-0.3-12.2-1-18.3c-0.8-7.3-2.2-14.4-4.4-21.4c-2.4-7.7-5.5-15-9.1-22.1c-1.3-2.6-2.8-5.2-4.7-7.5c-0.7-0.9-1.5-1.9-2.8-2.5    c-2.3,7.1-4.5,14.1-6.7,21c2.5,4.5,4.9,8.8,7.1,13.1C388.1,362.3,389.9,366.8,391.7,371.3z M170,398.3c2.6,0.9,3.9,3.3,6.3,4.5    c-0.3-0.4-0.5-0.9-0.9-1.2c-1.5-1.4-2.4-3.2-3.8-4.6c-0.4-0.3-0.6-0.8-0.9-1.2c-0.3-0.4-0.6-0.8-0.9-1.2c-1.1-1.5-2.3-3-3.3-4.6    c-1-1.5-1.9-3-2.8-4.5c-0.8-1.4-1.5-2.7-2.3-4.1c-1.2-2.1-2.5-4.2-3.6-6.4c-2.3-4.5-4.4-9.2-6.3-13.9c-1.7-4.1-3.2-8.3-4.6-12.6    c-0.2-0.8-0.4-1.6-0.7-2.4c-0.7-2.5-1.6-4.9-2.1-7.4c-0.3-1.2-0.8-2.4-1-3.6c-0.2-1.8-0.7-3.6-1.1-5.4c-0.4-1.9-0.7-3.8-1.2-5.7    c-0.5-2.4-0.8-4.8-1.2-7.3c-0.3-2-0.4-4-0.7-6c-0.3-1.4-0.4-2.9-0.5-4.3c-0.1-2.6-0.3-5.3-0.4-7.9c-0.2-2.6-0.5-5.1-0.5-7.7    c-0.1-4.3,0-8.6,0-12.8c0-1.2,0.1-2.4,0.2-3.6c0.2-3.1,0.4-6.3,0.6-9.4c0.1-2.9,0.2-5.8,0.8-8.6c0.1-0.6,0.1-1.1,0.2-1.7    c0.3-2.6,0.6-5.2,1-7.9c0.1-0.6,0.2-1.2,0.3-1.9c0.1-1.3,0.1-2.6,0.7-3.9c0.1-0.3,0.2-0.6,0.1-0.9c-0.2-1.7,0.3-3.4,0.6-5    c0.6-3.6,1.3-7.2,1.9-10.8c0.2-1.1,0.5-2.2,0.7-3.3c0.2-0.9,0.3-1.7,0.5-2.6c0.1-0.4,0-0.8,0.2-1.1c0.5-1.7,0.8-3.4,1.2-5.1    c0.2-1,0.5-2,0.7-2.9c0.1-0.6,0.3-1.2,0-1.9c-0.2,0.1-0.4,0.2-0.5,0.4c-0.6,2-1.2,3.9-2.2,5.7c-0.1,0.2-0.1,0.4-0.1,0.5    c-0.4,2.6-1.5,4.9-2.2,7.4c-0.7,2.2-1.5,4.4-2.1,6.6c-0.8,3-1.6,6-2.3,8.9c-0.4,1.6-0.9,3.3-1.2,4.9c-0.3,1.2-0.4,2.5-0.6,3.7    c-0.2,0.9-0.5,1.8-0.6,2.8c-0.4,2.6-1,5.2-1.3,7.8c-0.4,3-1,5.9-1.3,9c-0.1,1.3-0.4,2.6-0.5,3.9c-0.2,3-0.4,6-0.6,9    c-0.2,3-0.4,5.9-0.4,8.9c0,3.9-0.1,7.8,0.4,11.7c0.5,4.4,0.2,8.9,1,13.3c0.5,3,0.5,6,1.4,8.9c0.1,0.4,0.1,0.7,0.2,1.1    c0.2,1.1,0.3,2.1,0.5,3.2c0.2,0.9,0.4,1.9,0.6,2.8c0.8,3.6,1.5,7.3,2.6,10.8c0.9,2.9,1.7,5.9,2.8,8.8c0.9,2.2,1.6,4.5,2.4,6.7    c1.2,3,2.4,6,3.8,8.9c2.2,4.4,4.4,8.8,7,12.9c1,1.5,1.8,3.2,2.9,4.7c1.4,2.1,3,4.1,4.5,6.1c2,2.7,4.1,5.4,6.4,7.9    C168.5,395.7,169.7,396.7,170,398.3z M584,337.4c0.6-1.7,1.2-3.4,1.7-5.2c0.6-2.4,1-4.8,1.5-7.2c0.3-1.2,0.5-2.5,0.8-3.7    c0.1-0.5,0.3-1,0.5-1.4c0.4-0.6-0.4-1-0.1-1.6c0.1-0.3,0.1-0.6,0.2-0.9c0.2-1.2,0.5-2.5,0.6-3.7c0.5-3.9,1.2-7.7,1.3-11.6    c0.1-1.7,0.2-3.4,0.3-5.1c0.5-6.4,0.5-12.7,0.2-19.1c-0.2-4.8-0.7-9.5-1-14.3c-0.1-1.5-0.4-3-0.6-4.5c-0.2-1.5-0.5-3-0.7-4.5    c-0.1-0.9-0.3-1.7-0.4-2.6c-0.2-1.7-0.2-3.5-0.9-5.2c-0.1-0.2-0.1-0.4-0.1-0.6c-0.3-3.1-1.1-6.1-1.8-9.1    c-0.9-4.2-2.1-8.4-3.2-12.6c-0.2-0.8-0.3-1.8-0.6-2.6c-0.7-1.8-1.2-3.7-1.9-5.5c-0.9-2.4-1.3-5-2.5-7.3c-0.2-0.4-0.2-0.9-0.3-1.3    c-0.1-0.5-0.1-1.2-0.5-1.6c-0.6-0.6-0.7-1.3-1-2c-0.1-0.2-0.2-0.4-0.6-0.3c0,0.9,0.4,1.7,0.6,2.5c0.2,0.9,0.4,1.7,0.5,2.6    c0.2,0.9,0.3,1.7,0.4,2.6c0,0.2,0.2,0.5,0.3,0.7c0.1,0.5,0.3,1,0.4,1.4c0.5,2.5,1,5,1.4,7.6c0.5,2.8,1.1,5.7,1.6,8.5    c0.3,1.9,0.6,3.8,1,5.8c0.2,0.9,0.3,1.9,0.4,2.8c0.2,1.3,0.3,2.6,0.5,3.9c0.4,3.1,0.8,6.2,1.1,9.4c0.4,3.5,0.7,7,0.9,10.5    c0.2,4.5,0.6,8.9,0.7,13.4c0.1,5.1,0,10.2-0.1,15.3c0,0.4,0.1,0.8-0.1,1.1c-0.5,1-0.3,2.1-0.4,3.2c0,1-0.1,2-0.1,3    c-0.1,1.4-0.2,2.8-0.3,4.1c-0.1,0.8-0.1,1.6-0.2,2.4c-0.3,2.9-0.7,5.7-1.1,8.6c-0.1,1-0.2,2-0.4,3c-0.8,4-1.3,8.1-2.5,12    c-0.1,0.2-0.1,0.5-0.1,0.7c-0.2,2.3-1,4.5-1.6,6.8c-0.6,2.4-1.3,4.7-1.9,7.1c-0.2,0.8-0.5,1.7-0.8,2.5c-0.8,2.3-1.7,4.6-2.5,6.9    c-1.2,3.2-2.3,6.4-3.7,9.5c-1.5,3.5-3.2,6.8-4.9,10.2c-0.9,1.7-1.9,3.4-2.8,5.1c-0.8,1.5-1.6,3-2.5,4.4c-1.5,2.4-3.1,4.7-4.7,7.1    c-0.4,0.6-0.9,1.2-1.4,1.8c-1.8,2.6-3.6,5.1-5.8,7.4c-0.2,0.3-0.4,0.6-0.7,0.9c0.1,0.1,0.2,0.2,0.3,0.3c1.4-1,2.6-2.3,4-3.4    c1-0.9,2-1.9,2.9-2.9c1-1.1,1.9-2.1,2.9-3.2c1.3-1.6,2.4-3.2,3.8-4.7c1.4-1.5,2.5-3.3,3.8-4.9c2-2.7,3.5-5.7,5.6-8.3    c0.2-0.2,0.2-0.5,0.3-0.7c0.3-0.7,0.7-1.4,1-2c0.8-1.4,1.6-2.8,2.4-4.3c0.8-1.5,1.4-3.1,2.2-4.6c1-2.1,2.1-4.2,2.9-6.3    c1.7-4.2,3.4-8.4,4.6-12.8C583.2,340,583.6,338.7,584,337.4z M408.3,452.6c0-3.1-0.7-6-1.9-8.8c-1.3-3-3.3-5.3-5.8-7.4    c-1.9-1.6-4-2.8-6.5-3.3c-1.7-0.4-3.5-0.6-5.2-0.5c-2.3,0.1-4.5,0.5-6.6,1.3c-2.7,1-5.2,2.2-7.7,3.7c-4.8,2.8-9.5,5.7-14.2,8.6    c-0.8,0.5-1.5,0.9-2.3,1.4c-1.2-0.8-2.6-1.3-3.6-2.3c3.6-2.2,7.1-4.4,10.6-6.6c3-1.9,6-3.9,9-5.9c2.6-1.6,5.2-3.1,8-4.2    c2.6-1,5.2-1.6,7.9-1.4c0.3,0,0.6,0,0.9,0c0.1,0,0.2-0.2,0.5-0.4c-0.5-0.2-0.8-0.3-1.1-0.4c-3.2-0.4-6.4-0.2-9.5,0.8    c-4.2,1.3-8,3.4-11.7,5.6c-5,3-10,6.1-15,9.2c-0.9,0.6-1.8,1-2.7,1.6c-2.1-1.2-4.2-2.4-6.2-3.5c-2-1.2-4-2.1-6.2-2.8    c-2.7-0.9-5.4-1.6-8.3-1.3c-2.2,0.2-4,1-5.1,3.1c-0.3,0.6-0.6,1.1-0.8,1.7c-0.9,2.8,0.1,4.8,2.6,6.2c0.2,0.1,0.6,0.1,1.1,0.1    c-0.3-0.4-0.5-0.7-0.7-0.9c-0.4-0.5-0.9-0.9-1.3-1.3c-0.9-1.1-1-2.2-0.4-3.5c1.3-2.9,4.1-4,6.5-3.5c2.8,0.5,5.5,1.5,8,2.8    c2.4,1.2,4.7,2.6,7,4.2c0.3,0.2,0.5,0.4,0.8,0.7c-3.5,2.2-7,4-10.6,5.7c-1.6,0.8-3.4,1.3-5.2,1.7c-3.1,0.7-6,0.6-8.6-1.4    c-0.3-0.2-0.6-0.5-1-0.2c0.2,0.9,0.2,0.9,0.7,1.4c1.4,1.1,3,1.7,4.7,1.9c1.6,0.1,3.3,0.2,4.9,0c3.7-0.4,7.2-1.9,10.6-3.4    c1.9-0.9,3.8-2,5.7-2.9c0.6-0.3,1.2-0.6,1.7-0.9c2,0.9,2.7,1.4,3.6,2.5c-0.3,0.2-0.6,0.4-0.9,0.6c-4.4,2.8-9,5.2-13.8,7.4    c-3.5,1.6-7.1,2.8-11,3.4c-1.1,0.2-2.1,0.4-3.2,0.3c-4.8-0.3-8.9-2.2-12.1-5.8c-2.7-3-4-6.5-3.6-10.6c0.7-6.4,4-10.9,10-13.3    c4.4-1.7,8.9-1.7,13.3-0.3c2.5,0.8,5,1.7,7.3,3c0.4,0.2,0.7,0.6,1.3,0.1c-0.2-0.3-0.4-0.6-0.7-0.8c-1.2-0.7-2.4-1.4-3.6-2    c-6-2.7-12.1-3.3-18.4-1.5c-2.7,0.8-5,2.3-6.9,4.4c-2.5,2.9-4,6.2-4.3,10.1c-0.2,2.3-0.1,4.6,0.5,6.7c1.3,4.3,4.1,7.4,7.9,9.7    c4.2,2.6,8.8,2.8,13.5,2.2c4-0.5,7.8-1.9,11.5-3.5c4-1.8,7.8-3.7,11.6-5.9c1.3-0.8,2.6-1.5,3.9-2.3c0.6-0.4,1.2-0.4,1.8,0    c0.8,0.5,1.6,1,2.5,1.5c-0.3,0.2-0.5,0.4-0.7,0.5c-7.2,4.6-14.6,8.8-22.1,12.6c-2.3,1.2-4.8,2-7.3,2.4c-2.5,0.4-4.9,0.1-7-1.4    c-0.4-0.2-0.7-0.5-1.1-0.7c-0.2-0.1-0.4,0-0.8,0c0.8,1.2,1.8,2,2.9,2.5c1.5,0.7,3.1,0.9,4.8,1c2.9,0.1,5.6-0.5,8.3-1.5    c4.2-1.4,8.2-3.5,12.1-5.6c4.3-2.3,8.5-4.7,12.5-7.4c0.5-0.3,1.1-0.6,1.6-0.9c0.8,0.4,1.5,0.7,2.1,1.1c3,1.5,6,2.9,9.2,4    c3.2,1.1,6.4,1.9,9.8,1.7c2.1-0.1,4.1-0.6,5.9-1.7c1.7-1.1,2.9-2.6,3.2-4.7c0.3-2.3-0.7-4.2-2.5-5.6c-0.9-0.7-1.9-1-3-0.8    c-0.3,0-0.5,0.2-1,0.5c0.7,0.2,1,0.2,1.4,0.3c1.5,0.3,2.5,1.2,3.2,2.4c0.9,1.6,0.8,3.2-0.4,4.6c-0.8,1.1-2,1.7-3.2,2.2    c-2.2,0.9-4.4,0.9-6.7,0.3c-2.9-0.7-5.7-1.7-8.4-2.9c-2.2-1-4.4-2-6.6-3.5c0.6-0.4,1-0.8,1.5-1.1c0.5-0.4,1.1-0.7,1.6-1    c3.4-2.2,6.7-4.4,10.4-6.1c2.4-1.1,4.9-1.7,7.5-1.6c0.7,0,1.4,0,2.1,0c0.2,0,0.5,0,0.6-0.3c-0.9-0.7-0.9-0.7-2-0.8    c-3.9-0.3-7.6,0.4-11.2,2c-3.6,1.6-7.1,3.5-10.5,5.6c-0.8,0.5-1.6,1-2.4,1.5c-0.5,0.3-1,0.3-1.4,0c-0.9-0.5-1.7-1.1-2.6-1.6    c0.2-0.2,0.3-0.4,0.4-0.5c5.7-3.7,11.4-7.4,17.4-10.6c1.6-0.9,3.3-1.6,5-2.2c1.6-0.6,3.2-1,5-1c4.3-0.1,8,1.4,11.2,4.2    c2.8,2.5,4.6,5.6,5.6,9.2c0.4,1.4,0.7,3,0.6,4.5c-0.1,3.5-1.4,6.6-4,9.1c-4,4-9,5.8-14.4,6.1c-4.3,0.3-8.3-0.7-11.7-3.5    c-0.2-0.2-0.4-0.3-0.6-0.4c-0.1-0.1-0.3,0-0.6,0.1c0.3,0.4,0.5,0.7,0.8,1c2.4,2.3,5.2,3.5,8.5,3.7c1.4,0.1,2.9,0.1,4.3,0.1    c5.1,0,9.8-1.6,13.8-4.8C406.3,461.4,408.3,457.5,408.3,452.6z M403.8,233c-0.2-0.1-0.5-0.1-0.7-0.1c-3.3-0.1-5.8-1.5-7.5-4.3    c-0.9-1.5-1.8-3.1-2.4-4.7c-2.7-6.7-5.4-13.4-8-20.2c-3.7-9.6-7.3-19.2-11-28.7c-0.8-2.1-1.7-4.2-2.5-6.3    c-0.2-0.5-0.4-0.9-0.7-1.3c-0.4-0.5-1.1-0.4-1.5,0c-0.2,0.2-0.3,0.5-0.5,0.8c-0.4,0.9-0.8,1.9-1.1,2.8c-1,2.8-2,5.7-3.1,8.5    c-2.1,5.6-4.1,11.2-6.2,16.8c-2.1,5.6-4.1,11.2-6.2,16.8c-1.4,3.7-2.7,7.5-4,11.2c-0.5,1.5-1.2,2.9-1.9,4.3    c-1.5,2.6-3.7,4-6.7,4.2c-0.6,0-1.1,0.1-1.6,0.1c-0.3,1.1-0.2,1.3,0.4,1.4c1,0.1,2,0.3,3,0.2c4.5-0.4,9.1-0.4,13.6-0.1    c0.8,0.1,1.5,0,2.5-0.3c0-0.4,0-0.7-0.1-1c-0.1-0.2-0.4-0.3-0.6-0.3c-0.5-0.1-1,0-1.5-0.1c-1.6-0.3-2.9-1.7-2.5-3.5    c0.4-1.6,0.7-3.3,1.3-4.9c0.9-2.6,1.8-5.2,2.7-7.9c0.7-2,1.3-3.9,2-5.9c0.4-1.3,0.8-2,2.6-1.9c0.2,0,0.4,0,0.6,0    c4.8,0,9.6,0,14.4,0c0.3,0,0.6,0,0.9,0c1.2,0,1.9,0.6,2.2,1.7c0.2,0.5,0.3,1,0.5,1.4c2.3,5.9,4.5,11.9,6.8,17.8    c0.5,1.2,1,2.3-0.4,3.3c-0.5,0.3-0.1,1.1,0.6,1.2c0.3,0,0.6,0,0.9,0c2.6,0.1,5.2,0,7.7,0.2c2.5,0.2,5,0,7.5,0c0.3,0,0.6,0,0.9-0.2    c0.3-0.1,0.5-0.5,0.4-0.8C404.2,233.3,404,233.1,403.8,233z M377.1,205.1c-2,0.4-13.7,0.4-16,0.1c-0.3-0.5-0.1-0.9,0-1.4    c0.6-1.9,1.2-3.8,1.9-5.7c1.6-4.8,3.1-9.6,4.7-14.3c0.3-0.8,0.6-1.6,0.9-2.5c0.2,0.2,0.4,0.3,0.5,0.5c2.9,7.6,5.5,15.3,8.1,22.9    C377.2,204.7,377.1,204.9,377.1,205.1z M235.3,182.4c3.1-5.2,7.5-8.7,13.4-10.3c2.8-0.7,5.7-1.1,8.6-1.2c5.1-0.2,10,0.6,14.8,2.5    c3.7,1.5,6.3,3.9,7.3,7.8c0.3,1,0.3,2,0.5,3c0.1,0.6,0.1,1.3,0.2,1.9c0.1,0.2,0.5,0.5,0.7,0.5c0.2,0,0.6-0.2,0.7-0.5    c0.2-0.5,0.3-1.1,0.3-1.6c0.1-2.4,0.1-4.8,0.2-7.2c0.1-1.8,0.3-3.6,0.4-5.4c0.1-0.6,0.2-1.2-0.3-2c-0.5-0.1-0.9-0.2-1.3-0.2    c-2.4-0.4-4.8-0.6-7.1-1.1c-3.8-0.9-7.7-1-11.6-1.2c-5-0.3-9.9,0.2-14.8,1.3c-4.9,1.2-9.2,3.3-13,6.6c-2.9,2.5-5.1,5.5-6.9,8.9    c-2.3,4.2-3.6,8.7-4,13.5c-0.5,5.7,0.1,11.3,2.1,16.7c1.3,3.5,3,6.6,5.5,9.4c0.7,0.7,1.4,1.4,2.1,2.1c2.9,3,6.4,5.1,10.2,6.7    c4.1,1.7,8.4,2.6,12.8,3c2.3,0.2,4.7,0.4,7,0.3c3.2-0.1,6.4-0.3,9.6-0.7c1.9-0.2,3.7-0.7,5.5-1.2c1.4-0.4,2.3-1.3,2.5-2.8    c0-0.1,0.1-0.2,0.1-0.4c0.9-3.2,1.1-6.4,1.7-9.7c0.1-0.5,0.1-1,0.1-1.5c0-0.8-0.3-1.2-0.9-1.2c-0.5,0-0.7,0.3-0.9,1    c-0.3,1.7-0.9,3.3-1.6,4.8c-0.7,1.5-1.7,2.8-3,3.8c-2.1,1.6-4.4,2.4-6.9,2.8c-2.3,0.3-4.6,0.5-7,0.5c-3.7,0-7.3-0.7-10.7-2    c-7.5-2.9-13-8-16.7-15.1c-2.1-4.1-3.3-8.4-3.5-13c-0.1-2.3,0-4.7,0.2-7C232.2,190,233.1,186,235.3,182.4z M477.7,231.9    c-3.1,0.6-6.3,0.3-9.2-1.1c-3.1-1.4-5.2-3.7-6-7.1c-0.3-1.2-0.3-2.4-0.3-3.6c0-0.7-0.3-1-0.9-1c-0.5,0-0.7,0.3-0.8,0.9    c0,0.3-0.1,0.6-0.1,0.9c-0.1,1.3-0.2,2.5-0.3,3.8c-0.1,2.2-0.1,4.4-0.2,6.6c0,1,0.4,1.7,1.3,2.1c0.6,0.3,1.3,0.6,1.9,0.8    c2.2,0.8,4.5,1.2,6.8,1.4c4.3,0.3,8.6,0.1,12.6-1.4c2.7-1,5.1-2.6,6.9-4.8c2.8-3.4,4.4-7.3,4.2-11.8c0-0.8,0-1.5,0-2.3    c-0.1-0.9-0.2-1.8-0.3-2.6c-0.8-3.9-2.9-7.1-5.5-9.9c-2.2-2.4-4.7-4.5-7.3-6.5c-2.6-2-5.2-4-7.5-6.3c-1.3-1.3-2.6-2.7-3.6-4.4    c-1.5-2.6-1.6-5.3-0.8-8c1-3.4,3.4-5.5,6.8-6.4c2.9-0.8,5.7-0.5,8.6,0.3c3.7,1.1,6,3.5,6.4,7.5c0,0.4,0.1,0.9,0.3,1.3    c0.1,0.4,0.8,0.5,1.1,0.2c0.2-0.2,0.3-0.4,0.3-0.6c0.1-1,0-2,0.1-3c0.1-1.9,0.2-3.9,0.3-5.8c0-0.7,0-1.4,0-2.2    c-1-0.2-1.9-0.2-2.8-0.4c-1.9-0.5-3.8-0.7-5.8-0.9c-3-0.3-6-0.2-9,0.3c-3.6,0.7-6.8,2.3-9.2,5.1c-2.2,2.5-3.4,5.4-3.4,8.8    c0,1.1,0,2.3,0,3.4c0,1.7,0.4,3.4,1,5c1.5,3.6,3.9,6.6,6.7,9.2c2.4,2.2,5,4.3,7.5,6.4c2.5,2.1,4.9,4.1,6.9,6.7    c1.5,1.9,2.5,4.1,2.8,6.5C487.9,224.7,484.4,230.6,477.7,231.9z M428.3,231.8c-3.1,0.6-6.3,0.4-9.3-1c-3.7-1.6-5.9-4.4-6.4-8.5    c-0.1-1-0.2-2-0.3-3.1c-1-0.1-1.2,0-1.3,0.5c-0.1,0.5-0.2,1-0.2,1.5c-0.4,3.3-0.3,6.7-0.3,10c0,1.1,0.5,1.8,1.4,2.2    c1.5,0.7,3.1,1.4,4.8,1.6c1.6,0.3,3.1,0.4,4.7,0.6c3.9,0.3,7.7,0,11.3-1.4c6.7-2.5,10.4-7.4,11.4-14.5c0.3-2.3,0.2-4.7-0.2-7    c-0.1-0.8-0.3-1.6-0.6-2.4c-0.7-1.8-1.6-3.4-2.7-5c-2.2-2.9-4.9-5.3-7.6-7.6c-1.7-1.4-3.5-2.7-5.2-4.1c-1.9-1.6-3.8-3.3-5.6-5.1    c-1.3-1.3-2.4-2.8-3-4.5c-1.3-3.7-0.8-7.1,1.7-10.1c2-2.4,4.7-3.3,7.7-3.5c2.5-0.1,4.9,0.3,7.2,1.3c2.4,1.1,4,2.8,4.6,5.4    c0.1,0.7,0.3,1.4,0.4,2c0.1,0.3,0.1,0.6,0.2,0.9c0.1,0.3,0.4,0.5,0.8,0.4c0.2-0.1,0.5-0.2,0.5-0.4c0.1-0.5,0.2-1.1,0.2-1.7    c0.2-2.9-0.1-5.8,0.4-8.7c0-0.2,0-0.5,0-0.8c-0.1-0.6-0.5-0.9-1-0.8c-0.9,0.2-1.6,0-2.4-0.2c-4.3-1-8.7-1.2-13.1-0.6    c-4.1,0.6-7.7,2.3-10.5,5.5c-1.7,1.9-2.8,4.2-3,6.8c-0.2,2.2-0.1,4.4,0,6.6c0,0.4,0.1,0.9,0.2,1.3c0.7,2.7,1.9,5.2,3.7,7.4    c2.9,3.6,6.3,6.5,9.9,9.3c2.7,2.2,5.3,4.4,7.6,7.1c1.6,1.8,2.7,3.9,3.2,6.3c0.8,3.8,0,7.1-2.3,10.1    C433.3,230,431,231.3,428.3,231.8z M314.3,234.4c6,0.4,12.1,0.3,18.1,0.3c2.8,0,3.4-0.8,3.9-3.4c0.4-2.3,0.7-4.6,1-6.9    c0.1-0.5,0-1,0-1.5c0-0.6-0.4-0.9-0.8-0.9c-0.4,0-0.7,0.3-0.9,0.8c-0.2,0.7-0.3,1.4-0.5,2c-1.1,3.3-3.1,5.4-6.7,5.9    c-0.6,0.1-1.2,0.2-1.9,0.2c-1.1,0.1-2.1,0.1-3.2,0.1c-2.4,0-4.8,0-7.1-0.4c-2.4-0.4-4.2-1.6-4.6-4.3c-0.2-1.9-0.6-3.7-0.7-5.6    c-0.1-3-0.1-5.9-0.1-8.9c0-7.1,0-14.2,0-21.3c0-4.9,0-9.8,0.1-14.7c0-0.9,0.2-1.9,0.4-2.8c0.3-1.3,1.1-2.1,2.4-2.5    c0.6-0.2,1.3-0.3,2-0.4c0.4-0.1,0.8,0,1.1,0c0.2,0,0.4,0,0.5-0.1c0.2-0.2,0.5-0.5,0.5-0.7c0-0.2-0.3-0.6-0.5-0.7    c-1-0.1-2-0.1-3-0.1c-5.2,0.1-10.3,0.3-15.5-0.2c-0.7-0.1-1.5,0-2.3,0c-0.3,0-0.6,0.2-0.9,0.3c-0.1,0.1-0.3,0.3-0.2,0.5    c0,0.2,0.2,0.5,0.3,0.6c0.3,0.1,0.6,0.1,0.9,0.2c0.8,0.1,1.6,0.1,2.4,0.3c2.4,0.6,3.6,2,3.8,4.5c0.1,1,0.1,2,0.1,3    c0,7.5,0,15,0,22.5c0,0.8,0,1.6,0,2.5c0,7.4,0,14.7-0.1,22.1c0,2-0.3,3.9-1,5.7c-0.3,0.9-0.9,1.6-1.7,1.8c-0.7,0.2-1.3,0.3-2,0.5    c-0.3,0.1-0.6,0-0.9,0.1c-0.2,0.1-0.4,0.3-0.4,0.5c-0.1,0.3,0,0.7,0.4,0.7c0.7,0.1,1.4,0.2,2,0.2    C304.4,234.1,309.4,234.1,314.3,234.4z M324.3,354.4c-0.4-0.3-0.7-0.7-1.4-0.5c-0.1,0.2-0.2,0.4-0.2,0.7    c-2.1,7.6-4.2,15.2-6.2,22.7c0,0.1,0,0.1,0,0.2c0,0.1,0,0.1,0.1,0.4c5.9,4.2,12,8.5,18.3,12.9c0.3-0.8,0.4-1.2,0.6-1.7    c1.9-7.2,3.8-14.3,5.7-21.5c0.1-0.4,0.1-0.7,0.1-1.1c-0.6-0.4-1.1-0.9-1.7-1.2c-1.7-1.2-3.4-2.4-5.1-3.6    C331.1,359.2,327.7,356.8,324.3,354.4z M352.3,303.2c3.9-1.6,6.9-4.3,9.1-7.9c2.3-3.7,3.4-7.8,3.4-12.2c-0.1-1.4-0.2-2.9-0.4-4.3    c-0.5-3.4-1.8-6.4-4-9c-3.2-3.7-7.2-5.9-12-6.6c-2.2-0.3-4.5-0.2-6.8-0.3c-0.9,0-1.8,0.1-2.6,0.3c-7,1.4-12,5.4-14.8,12    c-2.5,6-2.4,12,0,18c1.3,3.2,3.3,5.9,6.1,8c3.3,2.4,7.1,3.6,11.1,3.9C345.1,305.2,348.8,304.6,352.3,303.2z M328.8,289.6    c-1-3.4-1.3-6.9-0.9-10.5c0.5-4.1,2-7.8,5.2-10.6c2-1.8,4.4-3,7.1-3.3c1.1-0.1,2.1-0.2,3.2-0.2c3.6-0.1,6.8,1.3,9.4,3.7    c3,2.6,4.8,5.9,5.7,9.8c0.5,2.1,0.7,4.2,0.7,6.4c0,2.3-0.3,4.5-1,6.7c-0.6,1.9-1.4,3.8-2.6,5.4c-1.9,2.6-4.4,4.1-7.4,5    c-3.3,1.1-6.5,0.6-9.6-0.7C333.5,299,330.4,294.9,328.8,289.6z M413.5,115.4c-1.1,0.2-1.8,0.8-2.6,1.4c-0.8,0.7-1.3,1.7-1.6,2.7    c-0.4,1.2,0.1,2.3,0.7,3.4c1.3,2.2,2.9,2.6,5,2.5c1.5-0.1,2.6-0.9,3.3-2.2c0.2-0.4,0.5-0.7,0.8-1.2c29.3,0,58.6,0,87.9,0    c0.5,0.6,0.9,1.1,1.2,1.5c1.2,1.4,2.8,2.1,4.7,1.9c0.2,0,0.5-0.1,0.7-0.1c1.2-0.1,1.9-1.1,2.7-1.9c1.2-2.7,1.2-4.9-1.4-7.1    c-1.2-1-2.5-1.2-3.9-0.9c-0.8,0.2-1.5,0.5-2.1,1.2c-0.5,0.7-1.1,1.3-1.8,2.1c-0.7,0-1.4,0.1-2.2,0.1c-15.7,0-31.3,0-47,0    c-11,0-22,0.1-33,0.1c-1.3,0-2.6,0-4,0c-1.3,0-2.3-0.3-3.1-1.6C416.9,115.9,415.4,115.1,413.5,115.4z M206.5,125.1    c0.5,0.4,0.9,1,1.6,1.3c1.6,0.6,3.2,0.4,4.8-0.2c0.3-0.1,0.6-0.5,0.8-0.8c0.5-0.7,1-1.4,1.5-2.2c29.3,0,58.6,0,87.9,0    c0.6,0.7,1.1,1.4,1.7,2.1c0.2,0.3,0.5,0.7,0.8,0.8c1.2,0.4,2.4,0.7,3.7,0.5c1.2-0.2,2.1-0.8,2.7-1.7c0.2-0.3,0.4-0.5,0.6-0.7    c0.2-0.3,0.4-0.5,0.4-0.8c0.5-2,0.1-3.8-1.4-5.2c-0.5-0.5-1.3-0.8-1.9-1.2c-1-0.6-2-0.5-2.9,0c-1,0.5-2,1.1-2.6,2.1    c-0.4,0.6-1,1-1.6,1.2c-0.6,0.2-1.3,0.3-2,0.3c-12.7,0-25.3,0-38,0c-10.9,0-21.8,0-32.7,0c-4.3,0-8.6-0.1-12.8,0    c-1.3,0-2.3-0.4-2.8-1.5c-0.4-1-1.2-1.4-2-1.8c-1.6-0.7-3-0.6-4.5,0.3c-1.2,0.7-2.1,1.7-2.4,3.1    C204.9,122.2,205,123.8,206.5,125.1z M608.8,342.9c-0.9-0.2-1.7-0.4-2.6-0.4c-2.6,0-5.3,0-7.9,0.1c-1.2,0-2.4-0.1-3.5,0.7    c-0.2,0.1-0.5,0.2-0.7,0.2c-2,0-3.7,1-5.5,1.7c-0.5,0.2-1,0.5-1.6,0.6c-0.9,0.1-1.5,0.5-1.7,1.5c-0.1,0.3-0.4,0.6-0.6,0.9    c-0.3,0.5-0.7,1-1,1.6c-1.1,2.1-1.2,4.3-1.2,6.6c0,0.9,0.4,1.6,1.1,2.1c0.7,0.6,1.3,1.1,2,1.7c1.7,1.3,3.6,2.1,5.7,2    c2.1,0,4-0.4,5.6-1.8c0.2-0.2,0.4-0.3,0.6-0.4c2.3-1.4,3.9-3.5,5.8-5.4c0.4-0.4,0.6-1.1,1-1.5c1.9-2.4,3.2-5.3,4.8-7.8    c0.2-0.3,0.3-0.6,0.4-0.9C609.8,343.5,609.6,343.1,608.8,342.9z M137.1,350.8c-0.4-0.4-0.8-1-1.1-1.3c-0.8-0.4-1.4-0.7-2.1-1    c-0.3-0.2-0.7-0.3-1-0.4c-0.7-0.2-1.3-0.5-2-0.7c-2.4-0.5-4.8-1.2-7.2-1.4c-2.7-0.2-5.5-0.1-8.3,0c-0.8,0-1.6,0-2.3,0.3    c-0.3,0.7,0,1.2,0.2,1.7c0.6,1.7,3,5.9,4.1,7.4c2,2.6,4,5.3,6.7,7.4c0.8,0.6,1.6,1.1,2.5,1.6c0.6,0.4,1.4,0.6,2.1,0.9    c0.3,0.1,0.7,0.3,1.1,0.3c1.8,0.1,3.6,0.3,5.2-0.9c0.1-0.1,0.2-0.1,0.3-0.1c1.2-0.7,2.4-1.3,3.4-2.3c0.7-0.7,1.2-1.6,1.2-2.7    c0-0.7,0.1-1.4,0-2.1C139.6,354.9,138.9,352.6,137.1,350.8z M118.3,338.3c0.9,0.3,1.7,1,2.6,1.5c1.3,0.7,5.5,0.5,6.8-0.1    c0.3-0.2,0.7-0.4,1-0.5c1.3-0.4,2.3-1.3,3.2-2.2c0.4-0.4,0.6-0.8,0.6-1.3c0.1-2.1,0.2-4.1-0.1-6.2c-0.1-0.6-0.3-1.2-0.7-1.7    c-1.1-1.2-2-2.4-3.3-3.4c-1.2-0.9-2.6-1.6-4-2.1c-2.3-0.9-4.7-1.9-7.2-2.1c-0.4,0-0.8-0.2-1.3-0.4c-0.4-0.1-0.8-0.3-1.3-0.4    c-2.1-0.1-4.3-0.2-6.4-0.3c-0.3,0-0.6,0.1-1,0.2c0.2,1.8,0.8,3.2,1.4,4.7c1.7,4.4,3.9,8.5,7,12C116.4,337,117,337.9,118.3,338.3z     M607,316.5c-0.5,0.2-1,0.2-1.5,0.3c-0.7,0.1-1.4,0.2-2,0.4c-1.9,0.7-4,0.8-5.7,1.8c-0.2,0.1-0.4,0.2-0.5,0.2    c-1.3,0-2.2,0.6-3,1.6c-0.2,0.3-0.6,0.5-0.8,0.8c-0.9,1-1.9,1.8-2.6,3c-1.4,2.7-1.4,5.6-0.6,8.4c0.2,0.7,0.6,1.2,1.3,1.5    c0.9,0.4,1.7,1,2.5,1.6c0.5,0.4,1.1,0.6,1.7,0.6c1.6,0,3.1,0,4.7,0c0.4,0,0.8,0,1.1-0.2c1.3-0.8,2.8-1.5,3.9-2.6    c1.2-1.3,2.5-2.6,3.6-4.1c1.3-1.7,2.2-3.5,3.1-5.4c0.9-1.7,1.5-3.6,2.3-5.4c0.4-0.9,0.5-1.9,0.5-3c-0.4-0.1-0.5-0.2-0.7-0.2    C611.8,316,609.4,315.7,607,316.5z M113.3,311.5c1.7,1.7,3.7,3,6.2,3.1c1.9,0.1,3.8,0.3,5.4-1c0.2-0.1,0.5-0.2,0.7-0.3    c1.2-0.4,2.1-1.2,2.4-2.4c0.6-1.9,0.9-3.9,0.5-5.9c-0.2-1.1-0.4-2.1-0.6-3.1c-0.6-0.6-1.1-1-1.5-1.5c-0.5-0.6-0.9-1.4-1.5-1.9    c-0.6-0.5-1.4-0.8-2.1-1.2c-0.1,0-0.1-0.1-0.2-0.1c-1.3-0.9-2.9-1.4-4.3-2.3c-0.2-0.1-0.5-0.1-0.7-0.2c-1.5-0.4-2.9-1.2-4.5-1.3    c-0.2,0-0.4-0.1-0.5-0.2c-0.7-0.5-1.5-0.6-2.3-0.7c-1.4,0-2.7-0.3-4.1-0.5c-0.3-0.1-0.7,0-1.2,0c0.1,0.8,0.1,1.4,0.2,2    c0.7,3.8,1.6,7.5,3.4,10.9C110.1,307.3,111.4,309.7,113.3,311.5z M616.9,288.8c-0.4,0-0.8-0.1-1.1-0.1c-0.5,0.1-1,0.2-1.5,0.3    c-1.9,0.3-3.7,0.5-5.5,1.2c-2,0.7-4,1.3-6,2.1c-2.7,1.2-5,2.9-7.1,4.8c-0.3,0.2-0.6,0.5-0.7,0.9c-0.5,1.1-1,2.2-1.3,3.3    c-0.6,3,0.1,5.8,1.4,8.3c1.4,0.5,2.5,0.9,3.7,1.4c0.2,0.1,0.5,0.2,0.7,0.2c3.4,0.5,6.5,0,9-2.6c1.2-1.3,2.3-2.7,3.4-4    c0.2-0.2,0.3-0.4,0.4-0.7c0.7-1.7,1.4-3.3,2.2-5c1.1-2.4,1.7-4.9,2.4-7.3C617.3,290.8,617.3,289.8,616.9,288.8z M107.6,276.2    c0.1,0.5,0.3,1.1,0.5,1.6c0.2,0.6,0.5,1.2,0.8,1.7c1.3,2.9,2.7,5.8,5.4,7.8c1.1,0.8,2.4,1.5,3.7,1.7c1.7,0.3,3.4,0.3,5.1-0.2    c1.9-0.6,3.5-1.6,4.2-3.7c0.8-2.5,1.2-5,0.1-7.6c-0.1-1.5-0.9-2.5-2-3.4c-1.6-1.5-3.3-2.9-5.2-4c-0.9-0.5-1.7-1.1-2.5-1.6    c-0.3-0.2-0.6-0.2-0.9-0.3c-0.4-0.1-0.7-0.2-1.1-0.3c-2.1-0.8-4.1-2-6.4-2.2c-0.4,0-0.7-0.3-1-0.4c-0.6-0.3-1.3-0.4-2.1-0.3    c-0.1,0.3-0.2,0.7-0.2,1c0.2,1.8,0.3,3.5,0.6,5.3C107,273,107.3,274.6,107.6,276.2z M609.2,263.7c-2.6,1-5.1,2-7.5,3.4    c-2.2,1.3-4.1,2.9-5.6,4.9c-1.7,2.3-2.3,4.9-1.7,7.6c0.2,1.2,0.6,2.4,0.9,3.8c1.2,0.7,2.4,1.4,3.7,2c0.3,0.1,0.6,0.2,0.9,0.2    c1.3,0,2.5,0.1,3.8,0.1c0.7,0,1.4-0.2,2-0.5c2.4-1.1,4.2-2.9,5.7-5c0.3-0.5,0.7-0.9,0.9-1.4c0.8-1.9,1.6-3.8,2.2-5.8    c1-3.1,1.5-6.4,1.8-9.6c0-0.5,0-1,0-1.7c-1.4-0.2-2.5-0.2-3.4,0.5c-0.2,0.1-0.4,0.3-0.6,0.4C611.1,262.7,610.2,263.3,609.2,263.7z     M111.9,255.6c0.2,0.7,0.5,1.4,0.9,2c0.5,0.7,0.9,1.5,1.5,2.2c0.8,0.9,1.6,2,2.7,2.6c1.6,0.9,3.4,1.6,5.4,1.4    c1.1-0.1,2.1-0.2,3.2-0.2c1.3,0,2.1-0.7,2.6-1.8c0.3-0.7,0.7-1.3,1-2c1.1-2.3,1.3-4.8,0.3-7.1c-0.8-1.8-1.6-3.9-3.5-5    c-2.4-2.5-5.4-4.1-8.3-5.8c-1.1-0.6-2.3-1-3.4-1.5c-1.4-0.7-2.9-0.9-4.3-1.4c-0.1,0-0.2,0.1-0.4,0.1c-0.1,0.1-0.2,0.2-0.2,0.3    c0,0.1-0.1,0.2-0.1,0.4c0.1,3.8-0.1,7.7,1,11.4C110.9,252.5,111.5,254,111.9,255.6z M604,238.7c-1.7,0.9-3.3,1.9-4.7,3    c-2.2,1.7-4.6,3.2-5.7,5.9c0,0.1-0.1,0.2-0.2,0.3c-0.7,0.5-0.8,1.3-0.8,2c0,0.3,0,0.5-0.1,0.8c-0.6,1.8,0.1,3.5,0.3,5.2    c0,0.3,0.2,0.6,0.3,0.9c0.6,1,1.2,2,1.9,3.2c2.4,0.4,4.8,0.5,7.2,0.4c0.4,0,0.8-0.2,1.2-0.4c0.5-0.2,1-0.5,1.5-0.8    c1.2-0.9,2.4-1.8,3.3-3.1c1.3-2,2.2-4.1,2.9-6.3c0.1-0.4,0.1-0.8,0.3-1.1c0.8-1,0.8-2.2,0.9-3.4c0.1-2.5,0.2-4.9,0.3-7.4    c0-0.7,0-1.4,0-2.1c0-0.3-0.2-0.5-0.4-0.8c-1.8,0.9-3.6,1.3-5.3,2.2C606,237.8,605,238.2,604,238.7z M116.8,231.6    c0.4,0.8,0.8,1.7,1.3,2.5c1.3,1.8,2.8,3.6,5.1,4.2c0.2,0.1,0.5,0.1,0.7,0.3c1.2,1,2.6,0.7,4,0.5c1.2-0.2,2.4-0.7,3.6-1    c0.4-0.7,0.8-1.5,1.2-2.1c1.3-1.9,1.8-3.9,1.4-6.2c0-0.2,0-0.4,0-0.6c0-1.1-0.4-2.1-1-3c-0.8-1.3-1.6-2.5-2.4-3.8    c-0.1-0.1-0.1-0.2-0.2-0.3c-2.4-1.6-4.5-3.6-7-5.1c-2.4-1.4-5-2.6-7.5-4c-0.1-0.1-0.4,0-0.6,0c-0.1,0.3-0.2,0.7-0.3,1    c-0.5,5.5-0.4,10.9,1.2,16.3C116.4,230.7,116.6,231.2,116.8,231.6z M599.4,213.3c-1.9,1.3-3.9,2.5-5.6,4.1    c-1.4,1.3-2.9,2.6-3.9,4.3c-1.4,2.4-2,5-1.6,7.8c0,0.4,0.1,0.8,0.3,1.1c0.6,1.1,1.2,2.2,1.8,3.3c0.4,0.7,1,1.1,1.8,1.2    c0.5,0.1,1,0.2,1.4,0.4c1,0.5,2.1,0.4,3.1,0.2c0.9-0.2,1.7-0.5,2.6-0.7c1.8-0.4,2.7-1.9,4.2-2.8c0,0,0.1-0.1,0.1-0.2    c1.2-1.9,2.1-4,2.8-6.1c0.4-1.1,0.7-2.3,0.8-3.5c0.5-3.4,0.4-6.8,0.3-10.2c0-0.8-0.2-1.6-0.3-2.7c-0.6,0.2-0.9,0.2-1.1,0.3    c-0.6,0.2-1.3,0.5-1.9,0.7c-0.5,0.2-1,0.4-1.5,0.8c-0.7,0.6-1.6,0.9-2.4,1.4C599.9,213,599.6,213.1,599.4,213.3z M122.3,204.9    c0.8,2.5,2,4.8,3.5,6.9c0.2,0.3,0.5,0.5,0.8,0.7c0.6,0.4,1.3,0.8,2,1.1c1.9,0.9,3.8,1.4,6,1.2c1.8-0.2,3-1.2,4-2.6    c0.6-0.9,1-2,1.4-3.1c0.7-1.7,0.6-3.4,0.4-5.2c-0.1-0.9-0.9-1.4-1.1-2.1c-0.1-0.3-0.4-0.6-0.6-1c-1.4-2.5-3.4-4.5-5.6-6.3    c-1.6-1.3-3.3-2.4-5-3.6c-1.1-0.8-2.3-1.5-3.5-2.2c-0.6-0.3-1.2-0.7-2.1-0.6c-0.1,0.3-0.2,0.5-0.2,0.7c-0.9,5.1-0.8,10.1-0.3,15.2    C122.1,204.3,122.2,204.6,122.3,204.9z M584.9,210.2c0.5,0.5,1.1,1.1,1.9,1.1c1.7,0,3.5,0.4,5.2-0.5c0.4-0.2,0.8-0.2,1.3-0.3    c0.7-0.1,1.2-0.2,1.6-0.8c0.2-0.3,0.6-0.5,0.8-0.7c2-2,3.5-4.2,4.1-7.1c0.6-2.8,0.8-5.7,0.8-8.7c0-1.2-0.1-2.3-0.2-3.5    c-0.1-1.3-0.1-2.5-0.2-3.8c0-0.2,0-0.4-0.1-0.5c-0.2-0.5-0.8-0.8-1.2-0.5c-1.1,0.6-2.1,1.4-3.4,1.6c-0.2,0-0.3,0.2-0.4,0.3    c-1.6,1.2-3.3,2.5-4.9,3.8c-2.4,2-4.9,3.9-6.5,6.7c-0.9,1.7-1.6,3.4-1.9,5.3c0,0.3-0.1,0.6-0.1,0.9    C582.2,206,583.2,208.3,584.9,210.2z M533.9,448.5c0.4,0,0.8,0,1-0.5c0.1-0.3-0.4-0.5-1-0.5c-3.7-0.1-7.4-0.3-11.1-0.4    c-1.8-0.1-3.5-0.2-5.3-0.3c-3.8-0.1-7.7-0.2-11.5-0.3c-5.9-0.1-11.7-0.3-17.6-0.4c-6.4-0.1-12.7,0-19.1,0c-3.8,0-7.7,0.1-11.5,0.1    c-3.3,0.1-6.7,0.1-10,0.2c-2.6,0.1-5.2,0.2-7.7,0.2c-1.8,0-3.5,0-5.3,0.1c-3.6,0.2-7.3,0.4-10.9,0.6c-1.8,0.1-3.5,0.1-5.3,0.1    c-0.4,0-0.9,0-1.1,0.5c0.4,0.5,1,0.4,1.6,0.5c2.3,0.1,4.5,0.1,6.8,0.2c1.4,0.1,2.8,0.2,4.1,0.2c3,0.1,5.9,0.2,8.9,0.3    c3.8,0.1,7.7,0.3,11.5,0.4c2.8,0.1,5.5,0,8.3,0c6.2,0.1,12.3,0.2,18.5,0.3c1.4,0,2.8-0.1,4.1-0.1c6-0.1,12.1-0.1,18.1-0.2    c2,0,4,0,6-0.1c3.6-0.1,7.2-0.4,10.7-0.5c4.9-0.1,9.8-0.4,14.7-0.6C531.9,448.5,532.9,448.5,533.9,448.5z M279.7,449.1    c5.8-0.2,11.6-0.4,17.4-0.6c0.6,0,1.1,0,1.7-0.1c0.2,0,0.5-0.1,0.7-0.2c0.1,0,0.2-0.2,0.2-0.3c0-0.1-0.1-0.3-0.2-0.3    c-0.4-0.1-0.9-0.1-1.3-0.2c-2.5-0.1-4.9-0.2-7.4-0.3c-2.4-0.1-4.8-0.3-7.2-0.4c-4.8-0.2-9.7-0.3-14.5-0.4    c-2.8-0.1-5.7-0.1-8.5-0.2c-3.2-0.1-6.4-0.2-9.6-0.2c-5.5,0-11.1,0-16.6,0c-5.7,0-11.5-0.1-17.2,0.2c-1.3,0.1-2.5,0.1-3.8,0.1    c-4.6,0.1-9.2,0.2-13.8,0.3c-1.1,0-2.1,0-3.2,0.1c-3.4,0.2-6.8,0.4-10.2,0.6c-0.9,0.1-1.9,0-2.8,0c-0.5,0-1,0-1.4,0.6    c0.4,0.1,0.8,0.3,1.2,0.3c3.5,0.2,7,0.3,10.6,0.5c3.5,0.2,7,0.1,10.6,0.3c4.1,0.3,8.2,0.3,12.3,0.4c7.8,0.1,15.6,0.2,23.4,0.3    c1.4,0,2.8-0.1,4.1-0.1c6-0.1,12-0.1,17.9-0.2c3.8,0,7.5-0.2,11.3-0.3C275.5,449.4,277.6,449.2,279.7,449.1z M146.1,196.5    c1.4,1.9,3,3.6,5.8,3.1c0.2,0,0.5,0,0.8,0c1.8,0.1,3.2-0.9,4.8-1.5c0.2-0.1,0.3-0.2,0.4-0.4c0.7-0.7,1.5-1.4,2.2-2.1    c0.8-0.8,0.6-2,1-3c0.1-0.3,0.3-0.7,0.3-1.1c0.2-0.7,0.4-1.5,0.4-2.2c0.1-3,0.2-5.9-0.4-8.8c-0.5-2.3-0.9-4.6-1.4-7.1    c-1.3,0.3-2.3,0.7-3.3,1.3c-1.4,0.9-2.5,2.3-4.2,2.8c-0.3,0.1-0.5,0.4-0.7,0.6c-0.3,0.3-0.5,0.7-0.8,1c-0.9,0.9-1.8,1.7-2.7,2.6    c-2,2-3.3,4.4-4,7.2c-0.2,0.9-0.3,1.9-0.1,2.8C144.4,193.6,145.1,195.1,146.1,196.5z M566.3,195.4c0.3,0.1,0.5,0.3,0.8,0.4    c0.3,0.1,0.7,0.3,1.1,0.3c1.3,0.1,2.5,0.2,3.8,0.2c0.8,0,1.5-0.2,2.1-0.8c2-1.7,3.4-3.8,4.1-6.4c0.3-1.2,0.4-2.3-0.1-3.5    c-0.3-0.6-0.5-1.3-0.7-2c-0.8-2.5-2.4-4.4-4.2-6.2c-1.5-1.5-3.1-3-4.8-4.1c-1.7-1.1-3.3-2.5-5.2-3.2c-0.8,0.4-1.1,1-1.2,1.8    c-0.2,1.9-0.4,3.9-1,5.7c0,0.1,0,0.2,0,0.4c-0.1,1.8-0.2,3.5-0.3,5.3c-0.1,2.3,0.2,4.5,1.1,6.7    C562.5,192.4,563.8,194.5,566.3,195.4z M547.5,207.9c1.1,1.5,2.5,2.7,3.4,4.3c0.1,0.2,0.5,0.4,0.7,0.5c0.3,0.2,0.7,0.3,1,0.5    c1.1,0.9,2.2,1.6,3.5,2.2c0.6,0.3,1.3,0.6,1.9,0.7c0.7,0.1,1.5,0.2,2.2,0.3c1.5,0,3.1,0,4.4-0.6c1-0.5,2.1-0.9,3-1.1    c0.4-0.6,0.8-1,1.1-1.4c0.7-1.1,1.1-2.2,1-3.5c-0.3-2.2-1-4.3-1.9-6.3c-0.7-0.4-1.3-0.6-1.8-0.9c-1.4-1-2.8-1.8-4.6-2    c-0.3,0-0.7-0.1-0.9-0.2c-1.4-0.8-2.9-0.6-4.4-0.7c-1.4,0-2.9,0-4.3,0c-0.7,0-1.5,0.1-2.2,0.2c-1.7,0.3-3.3,0.6-5,0.9    c-0.3,0.1-0.7,0.2-1,0.3c-0.1,0.9,0.3,1.5,0.6,2C545.2,204.7,546.3,206.3,547.5,207.9z M159.7,204c-3,0.6-6.2,3.5-6.8,6.8    c-0.3,1.6-0.1,3.1,0.1,4.7c0.1,0.4,0.3,0.8,0.6,1.1c1.3,1.2,2.8,2.2,4.5,2.6c2.8,0.6,5.6,0.8,8.4-0.7c1.7-0.9,3.2-2.1,4.7-3.3    c0.2-0.2,0.5-0.4,0.7-0.6c1.1-1.4,2.2-2.7,3.3-4.1c1.1-1.5,2-3.2,3.1-4.7c0.8-1.2,0.2-1.6-0.8-1.7c-1.2-0.1-2.5-0.2-3.7-0.6    c-1.5-0.4-3.1-0.5-4.7-0.5c-0.6,0-1.1,0-2.1,0c-2.1,0.1-4.7-0.2-7,1C160,204,159.9,204,159.7,204z M571,224c-1-0.6-2-0.9-3-1.5    c-0.4-0.3-0.9-0.5-1.4-0.5c-3.6-0.3-7.3-0.5-10.9-0.4c-1.5,0-3,0.1-4.5,0.2c-1.3,0.1-1.4,0.7-1,1.6c1.4,3.2,3.1,6.1,5.4,8.8    c0.8,0.9,1.7,1.8,2.6,2.8c0.6,0.6,1.2,1.2,1.9,2c0.6,0.2,1.3,0.2,1.7,0.5c1.3,0.9,2.8,1,4.3,1.1c2.4,0.1,4.6-0.4,6.6-1.6    c1.5-0.8,2.4-1.9,2.4-3.7c0-0.6,0.1-1.1,0.1-1.7C575.7,228.4,573.7,225.5,571,224z M143.7,253.4c-0.4,0.7-0.8,1.5-0.8,2.3    c0,1.3,0.1,2.6,0.2,3.9c0.1,1.3,0.8,2,1.8,2.7c2.1,1.2,2.1,1.2,4.5,1.5c0.2,0,0.4,0,0.6,0.1c0.5,0.1,1.1,0.4,1.6,0.4    c0.5,0,1-0.4,1.6-0.4c1.1-0.1,2.1-0.5,3-1c0.9-0.4,1.6-0.9,2.3-1.6c0.6-0.5,1.3-0.8,1.8-1.4c0.9-1.1,1.6-2.2,2.4-3.3    c1.7-2.4,2.9-5.1,4.3-7.7c0.3-0.5,0.4-1.1,0.5-1.6c0.1-0.4-0.1-0.8-0.5-0.9c-0.5-0.1-1-0.2-1.5-0.3c-0.9,0-1.8,0-3,0    c-2.3-0.3-4.9,0.6-7.5,0.9c-1.5,0.2-3.1,0.2-4.5,1.1c-1,0.1-1.8,0.7-2.7,1.2C146,250.2,144.6,251.6,143.7,253.4z M375,301.3    c-0.2,0.9-0.7,1.4-1.6,1.6c-0.5,0.1-1,0.3-1.5,0.4c0.1,0.3,0.1,0.6,0.3,0.7c0.3,0.1,0.6,0.2,0.9,0.2c1.1,0,2.1-0.1,3.2-0.1    c2.6,0,5.2,0.1,7.7,0.2c0.4,0,0.9,0,1.3-0.1c0.1,0,0.3-0.3,0.3-0.4c0-0.2-0.2-0.5-0.4-0.5c-0.7-0.1-1.4-0.2-2-0.3    c-1.2-0.1-1.8-0.8-2.1-1.9c-0.2-0.8-0.3-1.6-0.4-2.4c-0.1-4.6-0.1-9.2-0.1-13.8c0-0.3,0.2-0.6,0.3-0.9c2.6-0.2,5.2-0.2,7.8,0.1    c1.6,0.2,2.6,1.2,2.9,2.8c0.1,0.3,0,0.6,0.2,0.9c0.1,0.2,0.4,0.3,0.6,0.4c0.1,0,0.3-0.2,0.4-0.3c0.1-0.1,0.1-0.2,0.1-0.4    c0-2.1,0.1-4.3,0.6-6.4c0-0.1,0-0.2,0-0.4c0-0.4-0.5-0.7-0.8-0.6c-0.2,0.1-0.4,0.1-0.5,0.3c-0.8,0.8-1.7,0.9-2.8,1    c-2.1,0-4.3,0.1-6.4,0.2c-0.7,0-1.5-0.1-2.2-0.4c0-0.3-0.1-0.5-0.1-0.8c0-4.5,0-9.1,0-13.6c0-0.1,0.1-0.2,0.2-0.5    c0.3-0.1,0.5-0.1,0.8-0.1c2.5,0,4.9,0,7.4,0.1c0.5,0,1,0.1,1.5,0.3c1.3,0.5,2.3,1.3,2.4,2.9c0,0.2,0,0.5,0.1,0.7    c0.1,0.1,0.3,0.3,0.4,0.3c0.2,0,0.4-0.1,0.5-0.2c0.1-0.1,0.2-0.3,0.2-0.5c0.2-1.9,0.4-3.8,0.6-5.6c0-0.3-0.2-0.7-0.3-1.1    c-1.9,0.7-3.7,0.6-5.5,0.6c-5.5,0-11-0.1-16.4-0.1c-0.3,0-0.6,0-0.9,0.1c-0.1,0-0.3,0.3-0.3,0.4c0,0.2,0.1,0.6,0.3,0.6    c0.3,0.1,0.7,0.1,1.1,0.2c2.6,0.4,2.6,1.2,3,3c0.1,0.2,0,0.5,0,0.8c0,1.1,0.1,2.1,0.1,3.2c0,8.6,0,17.3-0.1,25.9    C375.5,298.8,375.2,300,375,301.3z M148.3,239.3c0.9,0.5,1.8,1.1,2.7,1.6c0.4,0.2,0.9,0.5,1.4,0.5c1.9,0.1,3.9,0.1,5.8,0    c0.5,0,1-0.1,1.4-0.4c1.2-0.7,2.5-1.5,3.6-2.4c1.6-1.2,2.9-2.7,4.1-4.4c1.1-1.5,2.1-3,3.1-4.5c0.8-1.2,1.3-2.6,1.8-3.9    c0.1-0.2,0-0.4-0.1-0.6c-0.8-0.3-1.7-0.5-2.6-0.5c-3,0-6-0.1-9.1,0c-1.4,0-2.9,0.1-4.3,0.4c-1.3,0.3-2.4,1-3.8,1.1    c-0.2,0-0.3,0.1-0.5,0.3c-0.5,0.4-1,0.7-1.5,1.1c-1.2,0.9-2,2.1-2.8,3.2c-0.2,0.3-0.2,0.7-0.3,1.1c-0.6,2.1-0.2,4.1,0.1,6.2    C147.5,238.7,147.8,239.1,148.3,239.3z M576.8,247.6c-2.2-1.9-4.9-2.8-7.5-3.8c-0.5-0.2-1-0.1-1.5-0.1c-0.6-0.1-1.2,0-1.7-0.2    c-1.6-0.6-3.3-0.6-5-0.6c-1.2,0-2.4-0.1-3.6-0.1c-0.9,0-1.8-0.1-2.6,0.4c-0.3,0.9,0.1,1.7,0.4,2.5c0.5,1.2,1.3,2.3,1.7,3.5    c0.7,1.9,2.2,3.3,3.2,5.1c0.4,0.7,1,1.3,1.5,1.9c0.2,0.2,0.4,0.4,0.7,0.6c0.6,0.5,1.2,1,1.8,1.4c0.4,0.3,0.8,0.6,1.2,0.8    c0.4,0.2,0.8,0.3,1.2,0.5c3,1.5,6,1,9,0.2c0.7-0.2,1.4-0.6,2.2-0.9c0.1-0.2,0.3-0.5,0.5-0.8c1.2-1.9,1.3-4,0.9-6    C579,250.5,578.2,248.9,576.8,247.6z M141,279.6c0.1,1.5,0.5,3,1.2,4.3c0.5,1,1.2,1.7,2.4,1.8c0.5,0.1,1,0.1,1.4,0.4    c0.8,0.6,1.7,0.5,2.7,0.6c0.3,0,0.8,0,1.3-0.1c1.1-0.3,2.2-0.6,3.3-0.9c0.2-0.1,0.3-0.1,0.5-0.2c2.2-1.3,3.9-3.1,5.5-5.1    c1-1.3,1.6-2.7,2.3-4.1c0.8-1.6,1.6-3.3,2.3-5c0.4-0.9,0.5-1.9,0.7-2.9c0.1-0.4-0.2-0.7-0.6-0.8c-0.9-0.3-1.9-0.3-2.8,0    c-0.9,0.3-1.7,0.3-2.6,0.5c-1.6,0.2-3.2,0.3-4.8,0.7c-1.8,0.5-3.6,0.9-5.4,1.7c-2.4,1-4.6,2.3-6.1,4.5    C141.4,276.3,140.8,277.9,141,279.6z M581.5,275.3c-0.6-3.2-2.4-5.5-5.2-7c-2.2-1.1-4.3-2.4-6.8-2.5c-0.2,0-0.5-0.1-0.7-0.2    c-0.9-0.7-1.9-0.6-2.9-0.7c-0.9-0.1-1.8-0.1-2.6-0.2c-1.4-0.2-2.7-0.3-4.1-0.5c-1.3-0.2-1.7,0.4-1.2,1.7c0.5,1.2,1.1,2.4,1.4,3.7    c0.5,2.2,1.7,4,2.8,6c1.2,2.1,2.9,3.8,4.7,5.4c0.6,0.6,1.4,1.2,2.2,1.4c1.5,0.4,3.1,0.6,4.6,0.9c0,0,0-0.1,0-0.1    c0.3,0,0.5,0,0.8-0.1c1.5-0.3,3.1-0.6,4.6-0.8c0.7-0.1,1.1-0.5,1.3-1.2c0.3-1.1,0.7-2.3,1-3.4C581.4,276.9,581.6,276,581.5,275.3z     M142.7,306.5c0.3,1,0.7,1.6,1.8,1.6c0.3,0,0.6,0.1,0.9,0.3c0.9,0.5,1.8,0.6,2.7,0.6c1.5,0,3,0.1,4.4-0.7c1.3,0,2.1-0.9,3-1.6    c0.4-0.3,0.8-0.6,1.1-1c0.8-0.8,1.6-1.6,2.1-2.6c0.3-0.7,0.7-1.3,1.3-1.8c0.2-0.2,0.3-0.5,0.4-0.8c0.1-0.4,0.1-0.9,0.3-1.3    c1.1-2.3,1.6-4.8,2.4-7.1c0.3-1,0.5-2.1,0.4-3.2c-1.1-0.1-2.2-0.8-3.2,0.2c-0.1,0.1-0.3,0.2-0.5,0.2c-1.7,0.2-3.5,0.4-5.1,1.2    c-0.5,0.2-1.1,0.2-1.6,0.4c-1.8,0.7-3.5,1.4-5.2,2.1c-0.3,0.1-0.6,0.3-0.8,0.5c-1.2,1-2.5,1.9-3.7,2.9c-0.2,0.2-0.4,0.4-0.5,0.6    c-0.6,1.1-1.1,2.2-1.4,3.5c-0.2,1.1-0.4,2.2,0,3.3C142,304.5,142.5,305.5,142.7,306.5z M579,304.2c0.9-1.6,1.9-3.2,2-5    c0.1-2.9-0.9-5.3-3.1-7.1c-1.1-0.9-2.2-1.7-3.4-2.4c-1.9-1.1-3.9-2-6-2.5c-2.4-0.6-4.7-1.3-7.2-1.5c-0.5,0-1-0.2-1.5-0.3    c-0.3,0-0.6,0-1.1,0c0,0.5,0,0.9,0,1.2c0.3,1.6,0.6,3.2,0.9,4.8c0.1,0.4,0.2,0.7,0.4,1.1c0.3,0.6,0.6,1.2,0.9,1.9    c0.7,1.9,1.6,3.7,2.7,5.4c0.3,0.5,0.5,1.2,1,1.6c1.7,1.5,3.3,3.1,5.6,3.9c3,1,5.7,0.6,8.4-0.5C578.7,304.5,578.9,304.4,579,304.2z     M576.4,326.4c0.4-1.1,0.8-2.1,1.1-3.1c0.6-1.8,1-3.5,0-5.3c0-0.1,0-0.1-0.1-0.2c-0.2-1.7-1.4-2.8-2.5-3.9c-1-1-2.1-1.8-3.3-2.5    c-0.7-0.4-1.3-0.9-2.1-1.3c-1.8-0.8-3.6-1.6-5.5-2.4c-0.8-0.3-1.5-0.6-2.3-0.8c-0.6-0.1-1.2-0.4-1.8-0.6c-0.8-0.3-1.6-0.7-2.7-0.2    c-0.2,0.9-0.2,1.8,0,2.6c0.2,1,0.4,2.1,0.6,3.1c0.5,2.2,1,4.4,1.6,6.6c0,0.2,0.2,0.3,0.3,0.5c0.5,0.9,1.1,1.9,1.6,2.8    c1.7,3.1,4.5,5,7.8,5.8c2.2,0.5,4.5,0.7,6.6-0.8C575.9,326.6,576.2,326.5,576.4,326.4z M146.8,329.8c0.2,0.2,0.5,0.4,0.7,0.6    c1.7,1,3.6,0.7,5.5,0.6c0.2,0,0.3-0.2,0.5-0.3c0.3-0.1,0.5-0.4,0.8-0.4c1.1-0.1,1.9-0.7,2.7-1.2c1.5-0.9,3-1.8,3.7-3.6    c0.1-0.2,0.3-0.4,0.4-0.6c1.2-2.1,2.1-4.3,2.7-6.6c0.5-1.8,0.7-3.7,1-5.6c0.2-1.1,0.1-2.2,0.1-3.5c-0.4-0.1-0.6-0.1-0.8-0.1    c-1.6,0.5-3.2,1.1-4.9,1.2c-0.1,0-0.3,0.1-0.4,0.1c-1.2,0.9-2.9,0.8-4.1,1.9c-2.7,0.9-4.9,2.5-7,4.3c-0.9,0.8-1.7,1.7-2.3,2.7    c-0.8,1.4-1.5,2.9-1.4,4.6C144.4,326.3,145.4,328.1,146.8,329.8z M566.9,332.8c-2.8-1.9-5.5-3.9-8.7-5.2c-0.6-0.2-1.1-0.6-1.5-1    c-0.4-0.4-0.8-0.6-1.3-0.6c-0.6,0-1.1,0-1.8,0c-0.5,1.3-0.5,1.3-0.4,2.2c0,0.3,0,0.6,0.1,0.9c0.1,1.9,0.2,3.9,0.4,5.8    c0.3,3.6,1.4,6.9,3.5,9.8c0.3,0.4,0.7,0.7,1,1.1c0.5,0.5,1,1.2,1.6,1.6c0.7,0.4,1.5,0.6,2.3,0.8c0.5,0.2,1,0.6,1.6,0.6    c1.2,0.2,2.5,0.2,3.8,0.3c0.6,0,1.1-0.2,1.5-0.6c0.2-0.2,0.5-0.4,0.7-0.6c2.9-2.7,3.2-6.2,2-9.1c-0.5-1.2-1-2.3-1.8-3.3    C569,334.4,568,333.5,566.9,332.8z M151.9,350.5c0.7,1.1,1.7,1.8,3.1,1.9c2.2,0.1,4.4-0.1,6.4-1.2c1.6-0.9,3.2-2,4.2-3.6    c0.5-0.8,1.2-1.6,1.7-2.4c0.2-0.9,0.4-1.8,0.6-2.7c0.1-0.5,0.2-1,0.3-1.5c0.5-2.6,1-5.2,0.8-7.8c0-0.2,0-0.5,0-0.8    c0.2-1.2,0.1-2.4-0.1-3.6c-0.8,0.3-1.5,0.4-2.1,0.8c-1.1,0.5-2.2,1.2-3.3,1.7c-2.2,1-4.2,2.2-6.2,3.5c-2.4,1.6-4.5,3.6-5.9,6.2    c-1.5,2.8-1.7,5.6,0,8.4C151.5,349.7,151.7,350.1,151.9,350.5z M301.2,286.7c-0.1-1.2,0.1-2.3-0.2-3.5c-0.4-0.1-0.7-0.1-0.9-0.1    c-7,0-14.1,0-21.1,0c-15.1,0-30.2,0-45.3,0c-0.6,0-1.1,0-1.7,0c-0.4,0-0.7,0.1-1.1,0.2c-0.1,1.2-0.2,2.3,0.1,3.5    c0.5,0,0.9,0.1,1.4,0.1c17.1,0,34.3,0,51.4,0c1.1,0,2.1,0,3.2,0c4.3,0,8.7,0,13,0C300.3,286.9,300.7,286.8,301.2,286.7z     M418.2,286.9c6,0,12,0,17.9,0c15.7,0,31.5,0,47.2,0c0.6,0,1.1,0,1.7,0c0.4,0,0.7-0.1,1-0.1c0.3-1.5,0.3-2.1-0.1-3.7    c-0.8,0-1.5,0-2.1,0c-15,0-30,0-45,0c-3.7,0-7.4,0-11.1,0c-3.5,0-6.9,0-10.4,0c-0.4,0-0.8,0.1-1.4,0.2c0,1.2-0.2,2.3,0.1,3.4    C416.8,287,417.5,286.9,418.2,286.9z M391.7,500c-1.9-0.7-4.1,0-5.2,1.5c-1.3,1.8-2,3.8-1.9,6.1c-0.1,2.4,0.9,4.5,1.7,6    c0.9,1.5,2.2,2.6,3.8,3.2c2.4,0.9,4.5,0.2,6-1.9c0.5-0.7,0.8-1.4,1.1-2.2c1-2.9,0.7-5.7-0.7-8.4    C395.4,502.3,393.9,500.8,391.7,500z M211.7,451.3c-2.7-0.5-4.9,0.3-6.3,2.7c-0.4,0.6-0.8,1.3-1.1,2c-0.9,1.9-1.5,4-1.9,6.1    c-0.1,0.5,0,1,0,1.5c0.4,0,0.7,0.1,1,0.1c0.6-0.1,1.2-0.2,1.9-0.3c2.2-0.5,4.3-1.1,6.1-2.3c3-2,3.9-3.9,3-7.4    C214,452.2,213,451.5,211.7,451.3z M193.1,441.9c1.9,2.9,4.3,3.3,7.6,2.5c0.8-0.2,1.3-0.8,1.5-1.5c0.9-3.6,0.1-5.7-2.4-7.4    c-0.3-0.2-0.6-0.4-1-0.6c-1.8-1.1-3.8-1.6-5.8-2.1c-0.8-0.2-1.7-0.6-2.8-0.2c0,0.5-0.1,0.9,0,1.3c0.3,1.2,0.6,2.4,0.9,3.6    C191.5,439.1,192.2,440.6,193.1,441.9z M459.2,456.7c-0.6-1.6-1.5-2.9-2.7-4c-1-0.9-2.1-1.5-3.5-1.4c-0.4,0-0.8,0-1.2,0    c-1.9,0.2-2.8,1-3.2,2.9c-0.6,2.4,0.2,4.3,1.9,5.9c0.4,0.4,0.9,0.7,1.4,1c2.5,1.5,5.2,2.2,8,2.6c0.8,0.1,1.3-0.2,1-1.2    c-0.2-0.5-0.2-1-0.4-1.5C460.1,459.5,459.7,458.1,459.2,456.7z M472,432.4c-1.7,0.4-3.4,0.7-5.1,1.3c-1.7,0.6-3.4,1.3-4.7,2.6    c-1.6,1.6-2.2,4.5-1.2,6.6c0.4,0.9,1,1.4,1.9,1.6c3,0.8,4.9,0.1,6.8-2.4c0.3-0.3,0.5-0.7,0.7-1.1c1.3-2.3,2.1-4.8,2.4-7.5    c0-0.4,0-0.7,0-1.2C472.3,432.4,472.2,432.3,472,432.4z M187,444.4c0.9-0.2,1.4-0.8,1.7-1.6c0.9-2.9,0.3-5.3-2-7.1    c-1.3-1-2.6-1.7-4.2-2.2c-1.4-0.4-2.8-0.8-4.2-1.1c-0.5-0.1-1-0.1-1.5-0.1c-0.1,0.4-0.2,0.5-0.2,0.6c0.5,3.1,1.3,6,2.9,8.7    C181.4,444.8,183.8,445.2,187,444.4z M540.3,432.4c-0.6,0-1-0.1-1.4,0c-1.6,0.4-3.2,0.8-4.7,1.3c-1.5,0.4-2.8,1.2-4,2.1    c-2.3,1.8-2.7,4.3-1.8,7c0.3,0.9,1,1.5,1.9,1.7c2.5,0.6,4.8,0.4,6.5-1.8c0.3-0.4,0.6-0.8,0.9-1.2c1.5-2.6,2.3-5.4,2.7-8.4    C540.4,433,540.3,432.8,540.3,432.4z M253.6,451.9c-2.5-1.2-5-0.7-6.5,0.7c-1,0.9-1.7,2-2.3,3.2c-1.1,2.2-1.6,4.6-2.1,7    c-0.1,0.2,0,0.5,0.1,0.9c0.5,0,0.8,0.1,1.1,0c1.8-0.5,3.7-0.8,5.4-1.5c1.2-0.4,2.4-1.1,3.5-1.9c2.7-1.8,2.9-4.9,1.9-7.4    C254.4,452.5,254.1,452.1,253.6,451.9z M266.7,451.7c-2.7-1-5.2-0.5-7.1,1.8c-0.1,0.1-0.1,0.2-0.2,0.3c-1.8,2.8-2.8,5.9-3.2,9.1    c0,0.2,0.1,0.4,0.2,0.8c0.9-0.1,1.7-0.2,2.5-0.4c2.4-0.5,4.7-1.3,6.8-2.6c2.6-1.6,3.8-4.2,2.5-7.5    C268,452.5,267.5,452,266.7,451.7z M178.2,448.9c0.3-0.8,0.3-1.5-0.1-2.2c-1.2-2.1-2.8-3.5-5.4-3.4c-0.6,0-1.1,0.1-1.7,0.2    c-3,0.6-5.6,2.1-8.1,3.8c-0.1,0.1-0.2,0.1-0.3,0.2c-0.2,0.3-0.3,0.8,0,1c0.2,0.2,0.5,0.4,0.7,0.6c1.2,0.7,2.4,1.4,3.6,2.1    c1.8,0.9,3.7,1.4,5.8,1.4C175.5,452.6,177.3,451.4,178.2,448.9z M239.8,451.8c-1.9-0.9-4.6-0.9-6.5,1c-1,1.1-1.8,2.3-2.4,3.6    c-0.9,2.1-1.3,4.3-1.8,6.5c0,0.2,0.1,0.4,0.1,0.6c0.3,0.1,0.4,0.1,0.5,0.1c2.7-0.3,5.2-1,7.6-2.2c1-0.5,1.9-1.2,2.7-2    c2-2,2-4.5,0.8-6.8C240.7,452.3,240.3,452,239.8,451.8z M463.8,451.7c-0.4,0.2-0.9,0.5-1.1,0.9c-1.3,2-1,4.9,0.6,6.7    c0.7,0.7,1.5,1.4,2.3,1.9c2.5,1.5,5.2,2.1,8,2.5c0.2,0,0.3-0.1,0.6-0.2c0-0.3,0.1-0.6,0.1-0.9c-0.4-2.4-1-4.8-2.1-7    c-0.5-1.1-1.2-2-2.1-2.9C468.4,451.2,465.9,450.7,463.8,451.7z M511.2,453.3c-2-2.6-5.1-2.4-7.2-1.5c-0.5,0.2-0.8,0.5-1,1    c-0.9,2.2-0.9,4.3,0.5,6.3c0.6,0.8,1.5,1.4,2.3,1.9c2,1.2,4.2,1.9,6.5,2.4c0.7,0.1,1.4,0.5,2.4,0.1c0-0.6,0-1.2-0.1-1.7    c-0.5-2.3-1.1-4.6-2.3-6.7C512,454.4,511.6,453.9,511.2,453.3z M217.2,432.5c0,0.4,0,0.7,0,1c0.2,1,0.4,2,0.6,2.9    c0.5,1.9,1.2,3.7,2.3,5.3c1.5,2.3,3.5,3.5,6.4,3c1.8-0.3,2.6-1,3-2.8c0.1-0.3,0.1-0.6,0.1-0.9c0.3-1.8-0.3-3.3-1.6-4.6    c-1.2-1.1-2.5-2-4-2.5c-1.8-0.6-3.7-1.1-5.6-1.6C218,432.3,217.6,432.4,217.2,432.5z M226.2,451.7c-0.8-0.2-1.6-0.4-2.3-0.6    c-1.7,0-3.1,0.7-4.2,1.9c-0.5,0.6-0.9,1.2-1.3,1.8c-1.5,2.4-2.1,5.1-2.6,7.8c-0.1,0.7,0.2,1,1,1c2.8-0.3,5.5-1.1,8-2.6    c0.6-0.3,1.1-0.8,1.7-1.2c1.2-1,1.7-2.3,1.7-3.8c0-0.9-0.1-1.7-0.3-2.6C227.6,452.5,227,451.9,226.2,451.7z M487.5,441.2    c0.1,0.5,0.3,1,0.3,1.5c0.1,0.9,0.7,1.4,1.6,1.7c2.4,0.7,4.9,0.7,6.7-1.5c0.5-0.6,1-1.3,1.4-2c0.8-1.5,1.5-3,1.8-4.7    c0.2-1.2,0.7-2.3,0.6-3.7c-0.5,0-1-0.1-1.4,0c-1.3,0.3-2.5,0.7-3.8,1c-1.5,0.4-2.8,1-4.1,1.8C488.4,436.6,487.2,438.5,487.5,441.2    z M497.5,453.1c-1.1-1.2-2.4-2-4.2-2c-0.7,0.1-1.5,0.3-2.2,0.4c-1.1,0.3-1.7,1-1.9,2.1c-0.1,0.7-0.2,1.5-0.2,2.3    c-0.1,1.5,0.5,2.7,1.6,3.7c0.6,0.6,1.3,1,2,1.5c1.7,1.1,3.7,1.7,5.6,2.2c0.8,0.2,1.6,0.3,2.4,0.4c0.6,0.1,1-0.3,0.9-0.9    c-0.5-2.3-1-4.6-2-6.7C498.9,455.1,498.3,454,497.5,453.1z M531.9,460.4c2.7,1.9,5.9,2.7,9.1,3.3c0.7,0.1,1-0.3,0.8-1.1    c-0.2-1-0.4-2-0.7-2.9c-0.5-1.8-1.1-3.5-2-5c-1.3-2-2.8-3.6-5.4-3.4c-3.1,0.2-4.2,1-4.3,4.9C529.4,457.7,530.3,459.3,531.9,460.4z     M263.1,433.5c-1.3-0.3-2.6-0.7-3.8-1c-0.5-0.1-1-0.1-1.5-0.1c-0.1,0.4-0.1,0.5-0.1,0.6c0.4,3.2,1.2,6.2,3,8.9    c1.8,2.8,4,3.3,7.2,2.6c0.8-0.2,1.3-0.6,1.7-1.4c1.2-2.5,0.6-5.4-1.6-7.2C266.5,434.8,264.9,433.9,263.1,433.5z M249.9,433.5    c-1.3-0.4-2.7-0.7-4-1c-0.5-0.1-1-0.1-1.6-0.1c-0.1,0.5-0.1,0.6-0.1,0.8c0.3,2.2,0.8,4.3,1.8,6.3c0.5,1,1,2,1.6,3    c1.7,2.4,4,2.8,6.9,2c0.8-0.2,1.4-0.8,1.7-1.6c0.9-2.6,0.5-5.1-1.8-6.9C253,434.8,251.5,434,249.9,433.5z M485.8,455.8    c-0.6-1.3-1.5-2.5-2.6-3.4c-0.9-0.8-1.9-1.2-3.1-1.3c-0.9,0.2-1.8,0.4-2.7,0.6c-0.8,0.2-1.3,0.8-1.5,1.6c-0.1,0.4-0.3,0.8-0.3,1.3    c-0.3,1.9,0.1,3.6,1.5,5c0.6,0.6,1.2,1.1,1.9,1.5c1.9,1.2,4.1,1.8,6.3,2.3c0.6,0.1,1.1,0.2,1.7,0.3c0.7,0.1,1.1-0.3,1-1    c-0.2-0.8-0.4-1.6-0.5-2.4C487.1,458.7,486.4,457.3,485.8,455.8z M214.3,444.3c0.5-0.2,0.9-0.5,1.1-1c0.5-1.4,0.9-2.7,0.5-4.2    c-0.4-1.8-1.6-2.9-3.1-3.9c-1.9-1.2-4.1-2-6.3-2.4c-0.9-0.2-1.8-0.7-2.9-0.3c0,0.4-0.1,0.6-0.1,0.8c0.4,2.6,1.1,5.2,2.3,7.5    c0.4,0.8,1,1.5,1.6,2.1C209.3,444.9,212,445.3,214.3,444.3z M503,444.4c1,0.4,2.1,0.3,3.2,0.3c0.9,0,1.8-0.3,2.4-0.9    c0.7-0.6,1.3-1.2,1.8-1.9c1.9-2.7,2.6-5.8,3-9c0-0.1-0.1-0.2-0.2-0.5c-0.3,0-0.6-0.1-0.8,0c-1.8,0.5-3.7,0.9-5.4,1.5    c-1.1,0.3-2.1,0.9-3,1.5c-1.1,0.7-2.2,1.6-2.6,2.9c-0.4,1.5-0.4,3,0,4.5C501.6,443.6,502.2,444.1,503,444.4z M185.2,460.3    c2.4-1.7,3-4.6,1.9-7.4c-0.2-0.4-0.5-0.7-0.8-1c-2-1.2-4.9-0.9-6.7,0.7c-1.2,1.1-2,2.4-2.7,3.9c-0.8,1.9-1.2,4-1.6,6    c-0.1,0.3,0,0.7,0.1,1.3c1-0.2,1.9-0.3,2.6-0.4C180.6,462.8,183,461.9,185.2,460.3z M199.2,451.7c-3-1-5.6-0.3-7.3,2.3    c-0.3,0.4-0.5,0.8-0.8,1.3c-1.1,2.1-1.8,4.3-2.2,6.6c-0.1,0.5-0.4,1.1,0.1,1.9c0.7-0.1,1.5-0.2,2.2-0.3c2.4-0.4,4.6-1.2,6.7-2.5    c3-1.9,3.8-4.1,2.9-7.6C200.5,452.5,200,451.9,199.2,451.7z M475.2,444c1.8,1.1,5,1.1,6.4-0.2c0.9-0.8,1.7-1.7,2.3-2.7    c1.2-2.3,1.9-4.8,2.4-7.3c0.1-0.4,0-0.8,0-1.4c-0.4,0-0.7-0.1-1,0c-1.6,0.4-3.2,0.7-4.7,1.2c-1.2,0.4-2.4,0.9-3.4,1.6    c-2.9,1.9-4,4.4-2.6,8C474.7,443.5,475,443.9,475.2,444z M239.1,434.7c-2.3-1.4-4.9-1.8-7.5-2.4c-0.3-0.1-0.6,0.1-0.9,0.1    c-0.1,0.3-0.1,0.5-0.1,0.6c0.2,1.1,0.4,2.2,0.7,3.3c0.5,1.8,1.1,3.6,2.1,5.2c2,3,4.2,3.9,7.8,2.8c0.7-0.2,1.2-0.7,1.4-1.4    c0.8-2.4,0.8-4.6-1.1-6.4C240.8,435.9,239.9,435.3,239.1,434.7z M553.8,447.1c-1.5-0.9-2.9-1.7-4.4-2.5c-1.1-0.6-2.3-0.9-3.6-1.1    c-2.6-0.4-4.9,0.2-6.4,2.6c-0.3,0.5-0.5,1-0.5,1.6c-0.3,2.1,1.8,4.6,3.9,4.9c1.6,0.2,3.3,0.2,4.8-0.3c2.4-0.7,4.6-1.9,6.7-3.4    c0.2-0.1,0.3-0.4,0.4-0.5C554.7,447.6,554.2,447.3,553.8,447.1z M516.8,444.5c0.9,0.1,1.9,0.2,2.8,0.2c0.9,0.1,1.7-0.3,2.4-0.8    c1.1-0.8,2-1.9,2.6-3.2c1.1-2.1,1.7-4.3,2.1-6.6c0.1-0.5,0-1,0-1.6c-1-0.4-1.8,0-2.5,0.2c-2.3,0.5-4.5,1.1-6.5,2.3    c-3.1,1.9-3.6,4.2-2.9,7.6C515.1,443.7,515.8,444.4,516.8,444.5z M524.2,452.9c-1.9-2.1-4.8-1.9-6.6-1.1c-0.4,0.2-0.8,0.5-1,0.8    c-1.3,2.4-1,4.8,0.5,6.5c0.6,0.7,1.4,1.3,2.2,1.8c1.9,1.2,4.1,1.9,6.3,2.4c0.8,0.2,1.6,0.3,2.7,0.5c0-0.7,0-1,0-1.4    c-0.4-2.4-1.1-4.6-2.1-6.8C525.7,454.6,525,453.7,524.2,452.9z M458.3,432.4c-1.6,0.4-3.3,0.7-4.9,1.3c-1.5,0.5-3,1.2-4.3,2.3    c-2.1,1.7-2.5,4.2-1.7,6.8c0.3,0.9,0.9,1.5,1.8,1.7c2.4,0.6,4.6,0.4,6.4-1.6c0.5-0.6,1-1.3,1.4-2c1-1.8,1.6-3.8,2.1-5.8    c0.2-0.8,0.3-1.7,0-2.6C458.8,432.4,458.6,432.3,458.3,432.4z"/></g></g></svg>