<svg xmlns="http://www.w3.org/2000/svg" xmlns:xlink="http://www.w3.org/1999/xlink" class="badge__color__2" fill="currentColor" version="1.1" id="Shape_1_1_" x="0px" y="0px" viewBox="0 0 720 720" enable-background="new 0 0 720 720" xml:space="preserve"><g id="Shape_1"><g><path d="M153.7,562.3c-2.7-3-5.5-5.9-8.1-8.9c-2.7-3.2-5.3-6.5-7.9-9.9c-5.1-6.5-9.7-13.3-14.1-20.3c-4.5-7.2-8.7-14.6-12.5-22.2    c-2.1-4.3-4.1-8.8-6.1-13.2c-0.5-1.1-0.9-2.2-1.3-3.4c0.6-0.2,1.1-0.4,1.7-0.6c3.2-1,6.3-2.2,9.1-4c4.8-3,8.6-6.9,11.2-12    c1.6-3,2.7-6.2,3.5-9.5c1.3-5.3,2.1-10.6,2.1-16.1c0-0.3-0.2-0.7-0.2-1c-1.3-0.3-2.5,0.1-3.7,0.2c-3.8,0.4-7.4,1.2-11,2.7    c-2.2,0.9-4.3,2.1-6.2,3.5c-4.5,3.4-7.2,7.9-8.7,13.1c-1,3.6-1.7,7.2-1.7,11c0,0.3,0.1,0.6-0.4,0.9c-1.2-3.4-2.3-6.9-3.3-10.3    c-2.2-8-4.1-16.1-5.3-24.3c0-0.2,0.1-0.5,0.1-0.8c0.6-0.1,1.2-0.1,1.7-0.1c3-0.2,6-0.6,8.9-1.5c4.2-1.3,7.9-3.2,11.3-6    c2.7-2.2,4.9-4.9,6.8-7.8c3.6-5.6,6.1-11.7,8.1-18c0.1-0.4,0-0.8,0-1.3c-1.4-0.3-2.8-0.5-4.1-0.7c-4.9-0.7-9.8-0.6-14.6,0.7    c-2.8,0.7-5.5,1.9-7.8,3.6c-2.5,1.8-4.5,4-6.2,6.6c-2.4,3.6-4.1,7.5-5.3,11.7c-0.1,0.2,0,0.5-0.4,0.6c-1.3-10.7-1-21.5-0.1-32.2    c0.1-1.7,0.2-3.4,0.7-5.1c1.1,0.2,2.1,0.4,3.2,0.5c4.6,0.8,9.2,0.8,13.7-0.2c3.9-0.8,7.5-2.4,10.9-4.7c1.7-1.2,3.3-2.5,4.8-3.9    c4.6-4.3,8.4-9.2,11.7-14.5c0.1-0.2,0.2-0.3,0.3-0.5c0.3-0.6,0.1-1-0.4-1.3c-0.4-0.2-0.9-0.5-1.4-0.7c-2.1-1-4.3-1.8-6.5-2.4    c-3.3-0.9-6.6-1.6-10-1.4c-4.8,0.1-9.3,1.5-13.3,4.3c-4.3,3-7.6,6.9-10.4,11.3c-0.1,0.2-0.2,0.6-0.6,0.6c0-0.3,0-0.6,0-0.9    c0.6-3,1.1-6.1,1.8-9.1c0.7-3.1,1.6-6.1,2.4-9.1c1.5-5.3,3.4-10.5,5.3-15.7c0.1-0.2,0.3-0.4,0.4-0.7c0.4,0.2,0.8,0.3,1.1,0.5    c1.8,1,3.7,1.7,5.6,2.3c4.5,1.5,9.2,2.1,14,1.6c4-0.4,7.8-1.6,11.3-3.5c2.7-1.4,5.4-3,7.8-4.9c3.3-2.5,6.4-5.3,9.3-8.3    c0.3-0.3,0.5-0.7,0.7-1.1c-1.5-1.4-3-2.5-4.6-3.5c-4.3-2.8-8.8-4.8-13.9-5.6c-3.7-0.5-7.3-0.3-10.8,0.9c-4.8,1.6-9.2,4.1-12.9,7.6    c-0.7,0.7-1.5,1.3-2.4,2.2c0.1-1,0.5-1.7,0.9-2.4c3.1-6.5,6.3-12.9,10-19.1c0.8-1.3,1.7-2.3,3-3.1c6-4,11.5-8.6,16.1-14.2    c3.1-3.7,5.6-7.8,7.5-12.2c3.2-7.4,5.2-15.1,6-23.1c0-0.4,0-0.8-0.1-1.4c-0.4,0.1-0.7,0.1-1,0.2c-1.3,0.5-2.6,0.9-3.9,1.4    c-6.2,2.4-11.9,5.7-16.9,10.1c-2.6,2.3-5,4.8-7.1,7.6c-3.3,4.5-5.6,9.5-7.1,14.9c-0.9,3.5-1.6,7-1.8,10.6c-0.1,1.9-0.1,3.9,0,5.9    c0.1,1.1-0.2,2.1-0.8,3c-1.4,2.5-2.9,5-4.2,7.6c-1.9,3.8-3.8,7.7-5.6,11.5c-0.1,0.2-0.3,0.4-0.6,0.7c0.1-1.1,0.2-2.1,0.2-3    c0-3.1,0.1-6.2,0-9.3c-0.1-3.2-0.5-6.4-1.5-9.5c-1.4-4.7-3.8-8.9-7.3-12.4c-3.6-3.6-7.9-6-12.8-7.5c-0.3-0.1-0.6-0.1-1-0.1    c-0.3,0.7-0.5,1.3-0.8,2c-1.7,4.4-2.8,9-3.4,13.7c-0.7,4.8-0.9,9.6-0.3,14.5c0.4,3.5,1.4,6.8,3,9.9c2.6,4.8,6.5,8.3,11.4,10.6    c1.9,0.9,3.9,1.7,6,2.2c0.5,0.1,1.1,0.3,1.6,0.5c-0.1,1.1-0.6,2-0.9,2.9c-0.3,0.9-0.7,1.9-1,2.8c-0.3,0.9-0.6,1.8-0.9,2.7    c-0.3,1-0.7,1.9-1,2.9c-0.3,1-0.6,1.9-0.9,2.9c-0.3,1-0.6,1.9-0.9,2.9c-0.3,0.9-0.5,1.8-0.8,2.7c-0.3,1-0.5,1.9-0.8,2.9    c-0.2,1-0.5,2-0.7,2.9c-0.2,1-0.5,1.9-0.7,2.9c-0.2,0.9-0.4,1.8-0.6,2.8c-0.2,1-0.4,2-0.7,2.9c-0.3,0.9,0,2-0.8,3.1    c-0.2-1.2-0.3-2.1-0.5-3c-0.5-2.3-1.1-4.7-1.6-7c-0.9-3.9-2.3-7.7-4.3-11.3c-2.3-4.1-5.3-7.5-9.3-10c-2.7-1.7-5.5-3-8.6-3.8    c-1.9-0.5-3.8-0.9-5.8-1c-0.4,0-0.8,0.1-1.2,0.1c-0.1,0.3-0.2,0.5-0.2,0.6c-0.3,3.1-0.6,6.3-0.7,9.4c-0.2,3.7,0.2,7.3,0.7,10.9    c0.7,4.9,2,9.7,4.4,14.2c2.9,5.4,7.3,9.2,13.1,11.3c3.4,1.2,6.8,1.7,10.4,1.8c0.6,0,1.3-0.2,1.9,0.4c-1.5,12.7-1.5,25.4-0.6,38.6    c-0.4-0.5-0.5-0.7-0.6-0.9c-0.8-1.6-1.5-3.2-2.3-4.8c-2.1-4.1-4.5-8-7.5-11.5c-1.8-2.1-3.7-4-6-5.4c-6.6-4.4-13.9-5.7-21.6-4.5    c-0.5,0.1-1.1,0.3-1.6,0.5c0,0.7-0.1,1.2,0,1.8c0.2,1.4,0.4,2.7,0.7,4.1c1.1,5.6,2.7,11,5.1,16.1c2.1,4.3,4.6,8.4,8.1,11.8    c4.1,3.9,9,6.2,14.7,6.6c3.8,0.3,7.5-0.1,11.2-1c0.4-0.1,0.8-0.1,1.4-0.2c1,6.2,2.2,12.2,3.6,18.2c1.5,6,3.3,11.9,5.1,18    c-0.3-0.2-0.4-0.2-0.5-0.3c-2.4-3-5-5.8-7.7-8.5c-3.1-3.1-6.6-5.6-10.6-7.5c-2.2-1-4.4-1.7-6.8-2.2c-2.2-0.4-4.4-0.4-6.6-0.3    c-4.2,0.1-8.1,1.2-11.8,2.9c-0.3,0.1-0.6,0.4-0.8,0.7c0.8,1.9,1.5,3.8,2.4,5.6c1.1,2.4,2.5,4.7,3.8,6.9c2.5,4.1,5.4,7.8,8.8,11    c2.9,2.8,6.2,5.1,10,6.6c5,2,10,2.1,15.2,0.8c2.9-0.7,5.6-1.9,8.2-3.3c0.3-0.1,0.5-0.3,0.9-0.5c0.3,0.8,0.6,1.5,0.9,2.1    c2.2,5.1,4.4,10.2,6.9,15.1c2.4,4.9,4.9,9.8,7.8,14.5c2.6,4.3,5.2,8.7,7.9,12.9c2.7,4.2,5.6,8.2,8.5,12.3c1.5,2.2,3.1,4.3,4.8,6.3    c2.7,3.3,5.4,6.6,8.2,9.9c1.8,2.1,3.7,4.1,5.6,6.2c0.6,0.6,1.3,1.2,1.9,1.7c1.1-0.8,2.8-2.4,3.3-3.2c0.2-0.4,0.2-0.7-0.1-1    C154.1,562.8,153.9,562.6,153.7,562.3z M676.7,405.4c-0.2-0.1-0.5-0.2-0.8-0.3c-2.8-0.5-5.6-0.7-8.4-0.5    c-4.3,0.4-8.4,1.7-12.2,3.7c-4.1,2.3-7.3,5.6-10,9.3c-3.2,4.3-5.6,9.1-7.8,14c0,0.1-0.2,0.1-0.4,0.2c0.9-12.8,0.8-25.6-0.6-38.3    c0.2-0.2,0.3-0.3,0.4-0.3c0.5-0.1,1-0.1,1.5-0.1c3.7,0,7.2-0.6,10.7-1.9c5.3-1.9,9.4-5.4,12.2-10.2c2.3-3.9,3.7-8.1,4.5-12.5    c0.9-4.8,1.3-9.7,1.1-14.7c-0.1-3-0.5-5.9-0.8-8.8c-0.3-0.2-0.5-0.3-0.6-0.3c-5.2,0.3-10,1.7-14.5,4.4c-4.5,2.7-7.8,6.5-10.3,11.1    c-1.8,3.4-3.1,7-4,10.8c-0.7,2.9-1.2,5.8-1.9,8.7c-0.1,0.3-0.2,0.6-0.4,1.3c-0.5-2.4-0.9-4.5-1.4-6.6c-0.5-2.1-1-4.2-1.5-6.2    c-0.5-2.1-1-4.1-1.6-6.2c-0.6-2.1-1.2-4.1-1.8-6.1c-0.7-2-1.4-4-2.1-6.1c-0.7-2-1.4-4-2.2-6.1c0.5-0.2,0.8-0.3,1.2-0.4    c3-0.7,5.7-1.9,8.4-3.3c3.9-2.2,7-5.1,9.2-9c2.3-4,3.3-8.4,3.6-13c0.3-4.1,0-8.2-0.6-12.2c-0.5-3.6-1.4-7-2.4-10.5    c-0.5-1.7-0.9-3.4-1.9-5c-0.4,0.1-0.9,0.1-1.3,0.2c-4.7,1.6-8.9,4-12.5,7.5c-3.5,3.5-5.9,7.5-7.2,12.2c-1.1,4-1.5,8-1.6,12.1    c0,3,0.2,5.9,0.2,8.9c0,0.2,0.2,0.5-0.2,0.5c-1.5-3.1-2.9-6.1-4.5-9.2c-2.4-4.7-4.9-9.2-7.5-13.7c-0.4-0.7-0.8-1.4-0.9-2.3    c0-2-0.5-4-0.9-6c-1.2-6.1-3.5-11.7-6.9-16.9c-4.1-6.4-9.7-11.3-16.4-15c-5-2.7-10.3-4.4-15.8-5.6c-0.3-0.1-0.6,0.1-1,0.1    c0.1,0.7,0.3,1.3,0.4,1.9c1.4,7.3,3.8,14.2,7.1,20.8c3.3,6.6,7.9,12.1,13.5,16.8c4.8,4.1,10.2,7.3,15.9,10.1c0.9,0.5,1.6,1,2.2,2    c2.8,4.9,5.4,9.8,7.8,14.9c0.6,1.3,1.1,2.6,1.8,4.1c-0.4-0.2-0.5-0.2-0.6-0.3c-2.2-2.4-4.8-4.3-7.5-6c-3.2-2-6.5-3.4-10.3-4.2    c-4-0.8-7.9-0.4-11.7,0.7c-2.9,0.8-5.6,2.1-8.3,3.6c-2,1.2-3.9,2.5-5.6,4.1c-0.6,0.6-0.6,0.9,0,1.6c0.4,0.4,0.9,0.9,1.4,1.3    c3.4,3.4,7.1,6.6,11.2,9.2c5.5,3.5,11.4,6.1,18.1,6.3c1.9,0.1,3.8,0,5.6-0.3c4.2-0.6,8.2-1.9,12-3.9c0.3-0.1,0.5-0.2,0.8-0.3    c3,6.1,9.3,26.9,10.1,35.8c-0.3-0.4-0.5-0.6-0.6-0.9c-2-3.2-4.3-6.2-7.1-8.8c-5.9-5.4-12.9-7.7-20.9-6.7    c-4.7,0.6-9.2,2.1-13.5,4.2c-0.3,0.2-0.6,0.4-1,0.6c0.4,1,0.9,1.9,1.5,2.7c2.7,4.2,5.8,8.1,9.3,11.6c5.5,5.5,11.8,9.4,19.6,10.4    c3.3,0.4,6.6,0.5,10,0c1.5-0.2,3-0.5,4.5-0.7c0.1,0.3,0.3,0.5,0.3,0.8c0.9,8.8,1.5,17.6,1,26.4c-0.2,3.3-0.4,6.5-0.6,9.8    c0,0.1-0.2,0.1-0.3,0.2c-0.1-0.1-0.2-0.2-0.2-0.3c-1.1-4.8-3.3-9.1-6.1-13.1c-1.3-1.9-3-3.6-4.9-5c-4.3-3.2-9.3-4.8-14.6-5    c-3.8-0.2-7.6,0.1-11.3,0.8c-0.5,0.1-0.9,0.3-1.4,0.5c0.1,0.4,0.1,0.6,0.2,0.8c1,2.7,1.9,5.5,3,8.2c1.9,4.8,4.3,9.2,7.5,13.3    c2.4,3.1,5.2,5.6,8.6,7.5c4.7,2.7,9.7,4.2,15,4.5c0.6,0,1.3,0.1,1.9,0.2c0.3,0.1,0.7,0.2,1,0.3c-0.5,7.4-6.4,31.1-8.8,35.3    c0-0.2-0.1-0.4-0.1-0.5c0-3-0.5-6-1.1-9c-0.7-3.1-1.8-6.2-3.4-9c-2.9-4.9-7.2-8.2-12.5-10.2c-1.2-0.5-2.5-0.8-3.8-1.2    c-3.2-0.9-6.4-1.4-9.7-1.5c-0.4,0-0.7,0.1-1.2,0.2c0,0.7-0.1,1.3,0,2c0.2,2.4,0.4,4.9,0.7,7.3c0.7,4.9,1.8,9.8,3.6,14.4    c2.8,6.9,7.5,12,13.9,15.6c2.6,1.5,5.5,2.5,8.4,3.4c0.3,0.1,0.6,0.2,0.9,0.4c-0.2,0.6-0.4,1.1-0.6,1.6c-0.8,1.8-1.5,3.6-2.3,5.4    c-1.9,4.1-3.6,8.2-5.7,12.1c-3.6,7-7.5,13.8-11.7,20.5c-5.3,8.4-11,16.4-17.2,24.1c-3.9,4.8-7.9,9.5-12.2,13.9    c-0.5,0.5-1,0.9-1.2,1.7c0.3,0.7,0.9,1.2,1.4,1.7c2.3,2.5,2,2.2,4.1,0c3.6-3.7,7-7.6,10.3-11.6c5.4-6.5,10.4-13.3,15.1-20.3    c3.7-5.5,7.2-11.2,10.5-17c5.3-9.3,9.9-18.8,14-28.7c0.2-0.5,0.4-0.9,0.6-1.3c0.2,0,0.4,0,0.5,0c0.5,0.2,1,0.5,1.5,0.7    c2.8,1.5,5.8,2.5,8.9,3.1c2.8,0.6,5.6,0.6,8.5,0.2c3.9-0.5,7.3-2.1,10.6-4.3c4.2-2.9,7.6-6.6,10.6-10.7c3.6-4.9,6.5-10.2,8.7-15.9    c0.1-0.3,0.1-0.6,0.2-0.9c-0.3-0.2-0.5-0.4-0.8-0.5c-1.7-0.7-3.4-1.4-5.1-1.9c-3.7-1-7.4-1.3-11.2-0.9c-3.1,0.3-6,1.2-8.9,2.4    c-3.2,1.4-6,3.5-8.6,5.7c-2.8,2.4-5.4,5.1-7.7,8c-0.6,0.8-1.3,1.5-2.2,2.6c0.1-0.7,0.1-0.9,0.2-1.1c1.1-3.6,2.2-7.1,3.2-10.7    c2.1-7.8,3.8-15.6,5-23.6c0-0.3,0.3-0.6,0.4-0.9c4.8,1.3,9.5,1.9,14.3,1.1c4-0.6,7.6-2.1,10.8-4.7c3.1-2.6,5.7-5.5,7.7-9    c2.6-4.5,4.6-9.2,6-14.2c0.5-1.9,1-3.8,1.4-5.7c0.4-2,0.6-4.1,0.9-6.2C676.9,405.8,676.8,405.6,676.7,405.4z M573.1,132    c1.9-3,3.8-5.9,5.7-8.9c0.2-0.3,0.3-0.8,0.5-1.2c-1-0.3-1.9-0.7-2.8-0.9c-6.5-2-13-4-19.5-5.9c-6-1.7-12-3.4-18-5    c-5.2-1.4-10.5-2.6-15.8-3.8c-6.6-1.6-13.2-3.1-19.9-4.4c-4.3-0.8-8.6-1.7-13-2.5c-4.3-0.8-8.7-1.5-13-2.3    c-0.8-0.1-1.6-0.3-2.4-0.4c-4.2-0.7-8.4-1.3-12.7-2c-2.1-0.3-4.1-0.5-6.2-0.8c-4.4-0.6-8.7-1.2-13.1-1.7    c-4.6-0.5-9.1-0.9-13.7-1.4c-3.7-0.4-7.4-0.7-11.1-1c-2.2-0.2-4.4-0.3-6.6-0.5c-2.9-0.2-5.9-0.5-8.8-0.6c-1.6-0.1-3.3,0-4.9-0.1    c-4.5-0.2-8.9-0.5-13.4-0.6c-5.7-0.2-11.5-0.3-17.2-0.3c-7.4,0-14.7,0.1-22.1,0.2c-2.7,0-5.4,0.1-8.1,0.2    c-3.4,0.1-6.8,0.4-10.2,0.5c-2.1,0.1-4.2,0.1-6.2,0.2c-2.3,0.1-4.6,0.4-7,0.6c-7.5,0.5-14.9,1.2-22.4,1.9    c-5.4,0.6-10.8,1.2-16.1,1.8c-5.4,0.7-10.7,1.4-16.1,2.2c-4.7,0.7-9.3,1.4-14,2.2c-4.5,0.8-8.9,1.6-13.4,2.4    c-4.4,0.9-8.9,1.8-13.3,2.7c-6,1.3-11.9,2.6-17.9,4c-6.4,1.5-12.8,3.2-19.2,4.9c-4.8,1.3-9.6,2.6-14.4,4    c-6.2,1.8-12.4,3.8-18.6,5.7c-0.5,0.1-0.9,0.4-1.5,0.6c0.2,0.5,0.3,0.7,0.4,0.9c2.6,4.1,5.3,8.1,7.9,12.2c2.8,4.5,5.6,9,8.4,13.4    c0.5,0.7,0.7,1.4,0.7,2.3c0,2.2,0.1,4.4,0.2,6.6c0.2,3.5,0.4,6.9,0.6,10.4c0.3,4.5,0.5,8.9,0.7,13.4c0,0.2,0.1,0.3,0.3,0.7    c21.1-6.9,42.5-12.6,64.3-17.3c21.8-4.6,43.8-8.1,66-10.4c22.1-2.3,44.3-3.5,66.5-3.5c22.3,0,44.5,1.1,66.7,3.5    c22.1,2.3,44,5.8,65.8,10.4c21.8,4.6,43.3,10.4,64.6,17.3c0.1-0.4,0.3-0.7,0.4-1.1c0.2-3.8,0.4-7.5,0.6-11.3c0-0.6,0-1.3,0-1.9    c0.2-3.3,0.6-6.6,0.6-10c0-2.2,0.3-4.4,0.3-6.6c0-1,0.3-1.8,0.8-2.7c1.1-1.6,2.1-3.3,3.1-4.9C568.3,139.6,570.7,135.8,573.1,132z     M557.9,145.2c-1.1,1.6-1.6,3.3-1.6,5.2c-0.1,3.8-0.4,7.5-0.6,11.3c-0.2,3.4-0.3,6.8-0.5,10.2c0,0.7,0.1,1.4-0.4,2    c-1.1,0-2.1-0.5-3.1-0.8c-2.7-0.8-5.4-1.7-8.1-2.4c-3.7-1.1-7.5-2.1-11.3-3.2c-3.9-1.1-7.9-2.1-11.8-3.2c-2.6-0.7-5.3-1.3-7.9-1.9    c-3.8-0.9-7.6-1.8-11.4-2.7c-3-0.7-6-1.3-9.1-1.9c-5.1-1-10.2-2-15.4-3c-3.6-0.7-7.3-1.3-11-1.9c-3.4-0.5-6.7-1-10.1-1.5    c-4.4-0.6-8.8-1.3-13.3-1.8c-4.2-0.5-8.4-0.9-12.6-1.3c-0.8-0.1-1.6-0.2-2.4-0.3c-6-0.5-11.9-1.1-17.9-1.6c-2.5-0.2-5-0.3-7.5-0.4    c-2.3-0.1-4.5-0.3-6.8-0.5c-2.9-0.2-5.8-0.3-8.7-0.4c-5-0.1-9.9-0.3-14.9-0.4c-4.4-0.1-8.8,0-13.2,0c-5.2,0-10.3,0.1-15.5,0.2    c-5,0.1-10.1,0.4-15.1,0.7c-3.8,0.2-7.7,0.4-11.5,0.7c-5,0.4-10,0.8-15,1.2c-3.8,0.4-7.5,0.9-11.3,1.2c-1.6,0.2-3.1,0.1-4.7,0.2    c-0.6,0-1.1,0.1-1.6,0.3c-0.6,0.3-1.3,0.3-2,0.4c-1.9,0.3-3.7,0.5-5.6,0.7c-0.8,0.1-1.6,0.2-2.4,0.4c-3.7,0.6-7.3,1.1-11,1.7    c-3.5,0.6-7.1,1.1-10.6,1.7c-4.3,0.7-8.5,1.5-12.8,2.4c-4.4,0.9-8.8,1.8-13.1,2.7c-2.8,0.6-5.5,1.2-8.3,1.9    c-7.4,1.8-14.8,3.6-22.1,5.6c-6.4,1.7-12.8,3.6-19.2,5.5c-1.4,0.4-2.8,0.8-4.2,1.2c-0.3,0.1-0.6,0-1,0c-0.1-0.4-0.2-0.7-0.2-1.1    c-0.3-4.9-0.6-9.8-0.8-14.7c-0.1-2.8-0.3-5.7-0.4-8.5c0-1.3-0.4-2.4-1.1-3.5c-2.7-4.2-5.4-8.5-8-12.8c-1.5-2.4-3-4.8-4.5-7.2    c-0.1-0.2-0.2-0.4-0.4-0.8c0.3-0.2,0.6-0.4,1-0.5c5.5-1.7,11.1-3.3,16.6-5c1.5-0.4,3-0.9,4.5-1.3c6.1-1.6,12.1-3.3,18.3-4.8    c6.8-1.7,13.7-3.3,20.6-4.8c3.4-0.8,6.8-1.3,10.2-2c1.7-0.3,3.4-0.8,5.2-1.1c3.5-0.7,6.9-1.3,10.4-1.9c4-0.7,7.9-1.3,11.9-2    c1.7-0.3,3.3-0.6,5-0.8c3.3-0.5,6.6-0.9,9.9-1.4c2.4-0.3,4.7-0.7,7.1-0.9c3.9-0.5,7.9-0.9,11.8-1.3c2.7-0.3,5.4-0.6,8.1-0.9    c4.8-0.4,9.5-0.9,14.3-1.3c4.8-0.4,9.7-0.7,14.5-1c3.2-0.2,6.4-0.3,9.6-0.4c3.8-0.1,7.5-0.3,11.3-0.4c7.7-0.3,15.4-0.3,23-0.2    c6,0.1,12,0.2,17.9,0.4c3.3,0.1,6.7,0.2,10,0.4c3.7,0.2,7.4,0.4,11.1,0.6c5.3,0.4,10.7,0.8,16,1.3c3.7,0.3,7.4,0.7,11.1,1.1    c3.9,0.4,7.9,0.9,11.8,1.4c4.4,0.5,8.7,1,13.1,1.7c3.7,0.5,7.3,1.1,11,1.7c3.5,0.6,7.1,1.1,10.6,1.7c2.9,0.5,5.8,1,8.7,1.6    c4.8,0.9,9.6,1.9,14.4,2.9c4.2,0.9,8.4,1.8,12.5,2.7c4.8,1.1,9.7,2.2,14.5,3.4c3.9,1,7.8,2,11.7,3.1c5.8,1.6,11.5,3.2,17.3,4.8    c3,0.9,6,1.9,9,2.8c0.1,0,0.2,0.2,0.3,0.3c-0.2,0.8-0.7,1.5-1.2,2.3c-1.4,2.2-2.8,4.3-4.2,6.5    C562.6,137.7,560.3,141.6,557.9,145.2z M252.9,508c-3.7-7.4-8.9-13.6-15.3-18.7c-2.3-1.8-4.8-3.5-7.5-4.7    c-5.5-2.6-11.4-3.6-17.4-3.1c-8.9,0.7-16.2,4.4-21.9,11.2c-4.7,5.6-7.3,12.2-8.1,19.4c-0.2,1.6-0.4,3.2-0.2,4.9    c2.4,2.2,4.8,4.4,7.2,6.6c0.7,0.7,1.4,0.9,2.4,0.9c5.5,0,11.1,0,16.6,0c0.5,0,1-0.1,1.6-0.1c0.1-1.1,0.2-2.2,0.4-3.2    c0.3-2.3,1-4.6,2.2-6.6c1.3-2.1,3.1-3.7,5.4-4.5c2.4-0.8,4.8-1.1,7.3-0.7c1.8,0.3,2.5,0.9,2.8,2.8c0.2,1.6,0.2,3.3-0.1,4.9    c-0.5,2.4-1.8,4.2-3.8,5.4c-1.1,0.7-2.3,1.2-3.6,1.7c-1.3,0.5-2.6,0.8-4,1.2c-3.9,1.1-7.9,2.2-11.8,3.4c-7,2.1-12.6,6.4-17.1,12.1    c-3.8,4.8-5.5,10.3-5.5,16.3c0,11.9,0,23.8,0,35.7c0,0.5,0,1,0,1.5c2.7,2.4,5.2,4.7,7.8,7c0.4,0.4,0.9,0.6,1.5,0.6    c0.4,0,0.9,0,1.3,0c19.1,0,38.3,0,57.4,0c0.6,0,1.1,0,1.7,0c0.2,0,0.5-0.1,0.8-0.2c0-0.7,0.1-1.3,0.1-1.9c0-4.5,0-9.1,0-13.6    c0-1.3-0.1-2.6-0.1-4c-0.8-0.9-1.6-1.9-2.5-2.8c-1.4-1.6-2.8-3.1-4.1-4.7c-0.5-0.6-1-0.9-1.8-0.8c-0.4,0-0.9,0-1.3,0    c-8,0-16,0-24,0c-2.5,0-5,0-7.6,0c-0.4,0-0.8-0.1-1.4-0.2c0.1-3.4-0.2-6.8,0.2-10.1c0.4-3.8,2.3-6.6,5.9-8.2    c0.9-0.4,1.8-0.8,2.8-1.1c2.2-0.6,4.4-1.1,6.6-1.5c4.8-0.8,9.4-2.1,13.8-4.4c7.3-3.9,12.3-9.6,14.8-17.5c1.3-4.2,1.6-8.5,1.4-12.9    C255.4,514.5,254.5,511.2,252.9,508z M242.5,591.5c-0.4,0.1-0.7,0.2-1.1,0.2c-0.4,0-0.9,0-1.3,0c-17.6,0-35.1,0-52.7,0    c-0.7,0-1.5,0-2.3-0.1c-0.3-0.8-0.2-1.5-0.2-2.1c0-6.8,0-13.6,0-20.4c0-3.5,0-7.1,0-10.6c0-2.3,0.2-4.5,0.7-6.7    c0.6-2.9,1.7-5.5,3.4-7.9c3.1-4.3,6.9-7.8,11.6-10.4c2.3-1.3,4.8-2.2,7.3-3c3.6-1,7.2-2,10.7-3c1.3-0.4,2.7-0.7,4-1.2    c1-0.3,2-0.8,2.9-1.3c2.7-1.5,4.4-3.7,5.1-6.7c0.6-2.7,0.7-5.5,0.1-8.2c-1.3-5.5-4.9-9-10.2-10.7c-3.8-1.2-7.7-1.1-11.5,0.1    c-4.4,1.4-7,4.5-8.3,8.8c-0.4,1.3-0.5,2.7-0.7,4.1c-0.1,0.4-0.1,0.7-0.2,1.1c-0.9,0.4-1.8,0.1-2.8,0.1c-0.4-1.9-0.1-3.7,0.4-5.3    c2.1-7.1,6.9-11.4,14.2-12.8c4.8-0.9,9.4-0.2,13.7,2.3c4.5,2.7,7.2,6.7,8.3,11.9c0.5,2.6,0.5,5.1,0,7.7c-0.6,3.3-2.1,6-4.7,8.2    c-1.7,1.4-3.6,2.5-5.7,3.3c-2.7,1.1-5.6,2-8.5,2.6c-3,0.6-6,1.3-8.9,2.3c-7.1,2.5-12.2,7.3-15.9,13.8c-1.7,3.1-2.2,6.5-2.2,10    c0,8,0,16,0,24c0,1.7,0,3.4,0,5.1c0,0.5,0.1,1,0.1,1.5c0.3,0.1,0.5,0.2,0.8,0.2c0.6,0,1.3,0,1.9,0c16.5,0,33,0,49.5,0    c0.8,0,1.5,0,2.4,0c0,0.5,0.1,0.9,0.1,1.2C242.5,590.4,242.5,590.9,242.5,591.5z M242.4,585.4c-0.4,0.1-0.7,0.1-1,0.2    c-4.8,0.2-48.9,0.1-50.5-0.2c0-0.3-0.1-0.7-0.1-1c0-8.9-0.1-17.8,0-26.6c0.1-7,3.2-12.6,8.5-17c3.2-2.6,6.9-4.1,10.8-5.1    c2.3-0.6,4.5-1.1,6.8-1.5c3.2-0.6,6.2-1.7,9.1-3.1c2.5-1.2,4.6-2.8,6.4-4.9c2.6-2.9,3.9-6.3,4.3-10.1c0.4-4-0.1-7.8-1.8-11.4    c-2.2-4.7-5.8-8-10.6-10c-4.8-2-9.8-2.4-14.8-1.1c-7,1.8-11.6,6.2-14.3,12.9c-0.8,2.1-1.2,4.2-1.4,6.4c0,0.4-0.1,0.7-0.1,1.2    c-1,0.1-1.8,0.2-2.7-0.1c0-0.3-0.1-0.6-0.1-0.9c0.3-5.1,1.9-9.8,4.9-13.9c4.4-5.9,10.3-9.1,17.6-9.8c7.5-0.6,13.9,1.9,19.2,7.1    c5,4.9,7.3,11,7.1,18.1c-0.1,2.5-0.5,5-1.4,7.4c-1.3,3.5-3.5,6.2-6.3,8.5c-4,3.3-8.6,5.5-13.7,6.3c-3.5,0.5-6.9,1.2-10.3,2.3    c-5.6,1.8-12.2,7.7-13.8,14.9c-0.3,1.3-0.5,2.7-0.5,4.1c0,7.6,0,15.2,0,22.9c0,0.6,0.1,1.1,0.1,1.8c0.7,0,1.3,0.1,1.9,0.1    c5,0,10.1,0,15.1,0c9.8,0,19.6,0,29.5,0c0.7,0,1.4-0.1,2.1,0.1C242.6,583.7,242.5,584.5,242.4,585.4z M244.3,521.7    c-1.4,5.5-4.4,9.9-8.7,13.3c-4.6,3.7-9.8,6-15.7,7c-3.2,0.5-6.3,1.1-9.4,2.1c-2,0.7-3.9,1.7-5.7,2.9c-2.1,1.5-3.5,3.4-4.2,5.9    c-0.4,1.3-0.7,2.7-0.7,4.1c0,6.3,0,12.6,0,18.9c0,0.2,0,0.4,0.1,0.8c2.4,0.1,4.7,0,7.1,0.1c2.3,0,4.7,0,7,0c2.4,0,4.8,0,7.2,0    c2.3,0,4.7,0,7,0c2.3,0,4.7,0,7,0c2.3,0,4.6,0,6.9,0c0.4,1.2,0.4,1.2,0.1,2.7c-0.3,0-0.7,0.1-1,0.1c-1.3,0-2.6,0-4,0    c-12.7,0-25.3,0-38,0c-0.7,0-1.5,0.1-2.3-0.2c0-0.5-0.1-1-0.1-1.5c0-6.8-0.1-13.6,0-20.4c0.1-5.2,2.2-9.5,6.4-12.7    c3-2.3,6.3-3.6,9.9-4.4c2-0.4,4.1-0.8,6.1-1.2c4.2-0.8,8.1-2.2,11.7-4.5c5.6-3.6,9.1-8.6,10.5-15.1c0.9-4.2,1.1-8.5,0.1-12.7    c-1.7-7.7-6.1-13.4-13.1-17.2c-5.1-2.8-10.6-3.7-16.4-3.1c-5,0.5-9.6,2.1-13.6,5.2c-5.8,4.4-9.2,10.4-10.4,17.6    c-0.2,1.4-0.3,2.9-0.5,4.4c-0.7,0.4-1.5,0.2-2.4,0.2c-0.1-0.4-0.2-0.9-0.2-1.3c0.6-11.1,5.6-19.5,15.4-25    c4.5-2.5,9.4-3.5,14.5-3.6c5.1,0,9.9,0.8,14.5,3c9.7,4.7,15.1,12.4,15.8,23.3C245.6,514.3,245.3,518,244.3,521.7z M534.7,519.2    c-0.6-5.3-2.3-10.2-5.1-14.7c-4.4-7-10-12.9-16.9-17.6c-6.4-4.3-13.5-6.4-21.3-5.5c-2.5,0.3-5,0.8-7.3,1.7    c-9.9,3.9-16.9,10.7-20.8,20.7c-1.8,4.5-2.4,9.3-2,14.1c0.5,5.4,2.1,10.3,4.9,14.9c4.9,8.1,11.6,14.5,19.7,19.4    c5.4,3.3,11.3,4.8,17.7,4.4c1.1-0.1,2.1,0,3.1,0c0.1,0.2,0.2,0.3,0.2,0.4c0,3,0.1,6.1-0.1,9.1c-0.4,4.6-3.4,7.9-7.8,9.2    c-2.2,0.6-4.3,0.7-6.5,0.4c-1.7-0.2-1.9-0.9-2.1-2.2c-0.1-0.4,0-0.8,0-1.1c0-0.9,0-1.8,0-2.6c0.1-0.9-0.2-1.7-0.9-2.4    c-2-2.1-3.9-4.3-5.8-6.5c-0.3-0.4-0.7-0.7-1-1c-6.3-0.3-18.6-0.2-20.1,0.2c-0.1,0.1-0.2,0.2-0.2,0.3c-0.1,3.3-0.1,6.5,0.5,9.8    c0.8,4.7,2.7,8.9,5.4,12.8c4.2,6,9.4,11,15.5,15c3.2,2.2,6.6,3.8,10.4,4.8c4.5,1.2,9.1,1.4,13.7,0.8c5-0.7,9.7-2.3,13.8-5.2    c8.6-6.2,13.1-14.8,13.2-25.3c0.2-17,0.1-34,0-51C534.8,521.1,534.8,520.2,534.7,519.2z M471.2,562.9c1,0,1.9,0,2.7,0    c0.4,0.7,0.3,1.4,0.3,2.1c0,3.4,0.9,6.6,2.5,9.6c2.4,4.5,6.1,7.5,10.9,9c4.8,1.5,9.7,1.6,14.5,0c7.2-2.4,11.4-7.6,13-14.9    c0.3-1.4,0.4-2.9,0.4-4.3c0-11.8,0-23.6,0-35.3c0-0.5,0-1.1-0.1-1.6c-0.4,0-0.5,0.3-0.6,0.4c-0.4,0.8-0.8,1.5-1.3,2.3    c-2.7,4.4-6.4,7.4-11.3,8.9c-5.2,1.7-10.4,1.8-15.6,0.1c-7-2.4-11.9-7.1-14.8-13.9c-5.6-13.4,1.1-26.2,10.5-31.7    c10.3-6,24.1-4,31.7,7.2c3,4.4,4.5,9.2,4.5,14.6c0,16.2,0,32.4,0,48.6c0,6.4-2.2,11.9-6.5,16.4c-3.7,3.9-8.3,6.3-13.7,7    c-7.7,1.1-14.5-1.2-20.1-6.5c-4-3.7-6.3-8.4-6.9-13.9C471.1,565.7,470.9,564.4,471.2,562.9z M516.7,584.6    c-3.4,3.8-7.7,6.3-12.5,7.7c-7.3,2.2-14.6,1.9-21.6-1.1c-9.4-4.1-14.8-11.4-16.9-21.3c-0.4-1.9-0.5-3.9-0.5-5.8    c0-0.4,0.1-0.7,0.1-1.3c0.7,0,1.2,0,1.7,0c0.2,0,0.5,0.1,0.7,0.1c0.4,0.6,0.2,1.3,0.2,1.9c0.1,6.7,2.5,12.5,7.1,17.4    c3.9,4.2,8.7,6.8,14.4,7.8c9,1.7,17.1-0.4,23.8-6.5c5.2-4.7,8-10.7,8.4-17.8c0.1-1.6,0.1-3.1,0.1-4.7c0-14.9,0-29.7,0-44.6    c0-1.9,0-3.9-0.4-5.8c-1.7-9.9-7.2-16.9-16.3-20.9c-6.5-2.8-13.2-3.2-19.9-0.6c-5.2,2-9.5,5.4-12.8,9.9c-2.9,4-4.8,8.4-5.4,13.3    c-0.5,4.3,0.1,8.5,1.6,12.6c2,5.3,5.1,9.8,9.7,13.2c4.6,3.5,9.8,5.2,15.6,5.2c2.2,0,4.4-0.1,6.6-0.5c4.1-0.7,7.5-2.7,10.4-5.7    c0.4-0.4,0.9-0.9,1.3-1.3c0.5,0.3,0.4,0.6,0.4,0.9c0,9.1,0,18.3,0,27.4c0,4.1-1.3,7.8-3.9,11c-2.6,3.2-5.9,5.1-9.9,5.9    c-6,1.2-11.4-0.1-16-4.2c-3-2.6-4.7-6-5.3-9.9c-0.2-1.3-0.4-2.6-0.2-3.9c1.2-0.4,1.2-0.4,2.7-0.1c0,0.5,0.1,0.9,0.1,1.4    c0.1,1.2,0.2,2.5,0.4,3.7c1.1,5.1,4.2,8.4,9.2,9.7c3.5,1,7.1,1,10.6,0c4.8-1.3,7.8-4.4,8.9-9.3c0.3-1.3,0.4-2.7,0.5-4.1    c0-6.9,0-13.9,0-20.8c0-0.5,0.1-1.1-0.3-1.8c-0.3,0.2-0.6,0.3-0.8,0.5c-2.8,2-6,3.1-9.4,3.7c-14.2,2.4-25.9-5.2-31.5-15.9    c-2.3-4.3-3.5-8.9-3.8-13.7c-0.2-4.6,0.6-9,2.6-13.2c3.7-8.2,9.8-14.1,18.2-17.2c10-3.8,19.5-2.2,28,4.2    c6.7,5.1,10.6,12,11.8,20.4c0.2,1.5,0.3,3,0.3,4.5c0,16.2,0,32.5,0,48.7C524.6,571.9,522,578.8,516.7,584.6z M428.4,490.8    c-2-2.2-4.1-4.5-6.1-6.8c-0.6-0.7-1.2-0.9-2.1-0.9c-3.7,0-7.3,0-11,0c-1.9,0-3.8,0-5.7,0c-0.8,0-1.3,0.2-1.8,0.8    c-0.1,0.2-0.3,0.4-0.5,0.6c-5,5.7-10,11.5-15,17.2c-0.4,0.5-0.8,1-1.2,1.5c5.3,5,10.6,10,15.9,14.9c0,25.4,0,50.8,0,76.1    c2.6,2.4,5.2,4.7,7.8,7c0.6,0.6,1.3,0.6,2.1,0.6c5.5,0,11,0,16.4,0c0.5,0,1,0,1.7-0.1c0-1,0-1.8,0-2.6c0-35.1,0-70.2,0-105.2    c0-0.4,0-0.9,0-1.3C429.2,491.9,428.9,491.3,428.4,490.8z M390.8,504.8c-0.8-0.3-1.3-1-1.8-1.7c0.8-1.2,12.7-15,14.9-17.2    c1.1,0,2.1,0,3.2,0c-0.1,0.3-0.1,0.6-0.3,0.7c-5.3,6-10.5,12-15.8,17.9C391,504.7,391,504.7,390.8,504.8z M406.6,589.2    c0,0.7,0,1.5,0,2.3c-1,0.3-1.7,0.2-2.6,0.1c-0.1-0.4-0.1-0.8-0.2-1.1c0-0.6,0-1.3,0-1.9c0-25.7,0-51.4,0-77.1c0-0.7,0-1.4-0.1-2.1    c-1,0.4-1,0.4-2.1,1.6c-0.6,0.6-1.1,1.2-1.7,1.8c-0.9-0.4-1.5-1-2.1-1.8c0.7-1.2,1.8-2.1,2.7-3.2c0.9-1.1,1.9-2.2,2.9-3.3    c0.9-1,1.8-2.1,2.9-3.2c0.1,0.4,0.3,0.6,0.3,0.9c0,0.6,0,1.1,0,1.7C406.6,532.4,406.6,560.8,406.6,589.2z M412.6,591.6    c-0.9,0.2-1.7,0.2-2.6,0c-0.1-0.4-0.2-0.7-0.2-1.1c0-0.6,0-1.3,0-1.9c0-31.2,0-62.3,0-93.5c0-0.7-0.1-1.4-0.1-2.1    c0,0-0.1-0.1-0.3-0.1c-0.7,0.6-1.3,1.4-2,2.1c-0.7,0.8-1.4,1.6-2.1,2.4c-0.7,0.8-1.3,1.5-2,2.3c-0.7,0.8-1.3,1.5-2,2.3    c-0.7,0.8-1.3,1.5-2,2.3c-0.7,0.8-1.4,1.6-2.1,2.4c-0.7,0.7-1.3,1.6-2.1,2.3c-0.6-0.6-1.2-1.2-1.8-1.8c0.3-0.4,0.5-0.7,0.7-1    c5.6-6.4,11.1-12.9,16.7-19.3c0.2-0.2,0.4-0.5,0.6-0.7c0.4-0.4,0.8-0.4,1.2-0.2C412.8,487.5,412.8,589.5,412.6,591.6z     M418.8,589.2c0,0.8,0,1.5,0,2.2c-1,0.6-1.9,0.2-2.9,0.3c-0.1-0.5-0.2-0.9-0.2-1.2c0-0.5,0-1,0-1.5c0-33.4,0-66.9,0-100.3    c0-0.8,0-1.6,0-2.7c1.1,0,2,0,2.9,0c0.1,0.4,0.1,0.7,0.2,1.1c0,0.4,0,0.9,0,1.3C418.8,522,418.8,555.6,418.8,589.2z M364.2,375.2    c0-2.4-0.1-4.8-0.7-7.1c-0.4-1.8-1-3.6-1.8-5.4c-1.4-2.8-3.3-5.3-6-6.9c-2.8-1.8-6-3-9.4-2.9c-0.8,0-1.5-0.1-2.3-0.1    c-2.1-0.2-4.2,0-6.2,0.4c-3.7,0.8-7,2.3-9.7,5.1c-0.5,0.5-0.9,1-1.3,1.6c-2.9,4.3-4.1,9.1-4.2,14.3c0,4.7,0,9.4,0,14.2    c0,4.7-0.1,9.4,0,14.1c0.1,7,0,14,0,20.9c0,3.2,0.4,6.4,1.6,9.4c2.7,7.3,8,11.2,15.6,12.1c2.5,0.3,5,0.3,7.5,0    c5.8-0.8,10.6-3.4,13.6-8.7c0.7-1.2,1.3-2.5,1.7-3.8c0.7-2,1.2-4,1.3-6.1c0.1-2.6,0.2-5.2,0.2-7.7c0-6.6,0-13.2,0-19.8    C364.2,390.9,364.3,383.1,364.2,375.2z M354,420c0.1,3,0.1,6-1,8.9c-1.1,3.2-3.1,5.4-6.5,6.3c-2.4,0.6-4.7,0.6-7.1-0.2    c-2.5-0.9-4.3-2.6-5.4-5c-0.7-1.4-1-2.9-1.2-4.5c-0.3-2.2-0.2-4.4-0.2-6.6c0-7.1,0-14.2,0-21.3c0,0,0,0,0,0c0-6.8,0-13.6,0-20.4    c0-1.9,0.1-3.8,0.3-5.6c0.3-2.1,1-4.1,2.4-5.9c2.1-2.9,7.5-4.7,11.3-3.1c1.4,0.6,2.9,1.1,4,2.4c1.5,1.6,2.4,3.5,2.8,5.7    c0.4,2.7,0.6,5.4,0.6,8.1c0,11,0,21.9,0,32.9c0,1.6-0.1,3.1-0.1,4.7C353.9,417.5,353.9,418.8,354,420z M346.5,493.8    c-7.3-8.3-16.6-12.3-27.5-12.5c-2.8-0.1-5.7,0.3-8.4,1c-8.3,2.1-14.9,6.5-19.6,13.8c-3.2,5.1-4.9,10.6-4.9,16.6    c0,8.7,0,17.4,0,26.1c0,8.8,0,17.5,0,26.3c0,2.7,0.4,5.3,1.1,7.8c1.6,6,4.8,11.1,9.1,15.4c4.7,4.7,10,8.6,15.9,11.8    c2.1,1.2,4.3,2.1,6.6,2.7c5.1,1.4,10.3,1.5,15.5,0.3c7.2-1.5,13.3-5,17.9-10.8c4.6-5.8,7-12.4,7-19.9c0-17,0-34,0-51    c0-4.8-1.1-9.4-3.2-13.7C353.5,502.7,350.2,498,346.5,493.8z M349,539c0,8.1,0,16.1,0,24.2c0,2.7-0.1,5.4-0.8,8.1    c-3.2,11.5-10.5,18.9-22.1,21.7c-7,1.7-13.9,0.9-20.5-2.1c-8.7-4-15.1-12.6-16.4-22.1c-0.2-1.6-0.4-3.3-0.4-4.9    c0-16.6,0-33.2,0-49.9c0-5.5,1.3-10.6,4-15.3c4.2-7.2,10.5-11.7,18.5-13.6c7.6-1.8,15-1.1,22,2.5c7.8,4,12.6,10.4,14.8,18.8    c0.7,2.7,0.9,5.5,0.9,8.2C349,522.8,349,530.9,349,539z M386.2,405.1c5.7,0,11.3,0,17,0c0.5,0,1,0.1,1.5-0.4c0-2.7,0-5.6,0-8.4    c0-0.2-0.2-0.3-0.3-0.5c-2.3,0-4.5,0-6.8,0c-2.3,0-4.5,0.1-6.8,0c-2.2,0-4.5,0.2-6.9-0.2c-0.3-10.4,0.1-20.7,0-31    c0-0.4,0.1-0.9,0.1-1.4c0.4-0.1,0.7-0.2,1-0.2c1.8,0.2,3.6-0.1,5.5,0c2.4,0.1,4.8,0,7.2,0c3.5,0,6.9,0,10.4,0    c0.5,0,1.1,0.2,1.6-0.4c0.2-2.3,0.1-7.6-0.1-8.9c-0.3,0-0.6-0.1-0.9-0.1c-0.5,0-1,0.1-1.5,0.1c-4.1,0-8.2-0.1-12.3-0.1    c-0.8,0-1.6,0.1-2.5,0.1c-1.4,0-2.8-0.1-4.1-0.1c-0.8,0-1.5-0.1-2.3,0c-1.4,0.2-2.8,0.2-4.1,0c-0.7-0.1-1.5-0.1-2.3,0    c-1.7,0.2-3.4,0.3-5.1-0.1c-0.3-0.1-0.7,0.1-1.1,0.2c0,0.5-0.1,1-0.1,1.4c0,3.4,0.1,6.8,0.1,10.2c0,1.8,0,3.6,0,5.5    c0.1,3.7,0.2,7.4,0.2,11.1c0,6.9,0,13.8,0,20.8c0,5.8,0,11.6,0,17.4c0,6.4,0,12.8,0,19.3c0,1.3-0.1,2.6-0.1,4c0,0.7,0.2,1,1,1    c0.1,0,0.1,0,0.2,0c2.6,0,5.3,0,7.9,0c0.3,0,0.6-0.1,1.2-0.2c0-1.1,0.1-2.1,0.1-3.1c0-5-0.1-9.9-0.1-14.9c0-4.2,0-8.3,0.1-12.5    c0-1.6,0-3.3-0.1-4.9c0-1.1,0-2.2,0.2-3.3C384.9,404.9,385.6,405.1,386.2,405.1z M253.2,234.3c0.1,3.2,0,6.4,0.1,9.6    c0,0.3,0.1,0.6,0.1,1c1.9,0.1,3.7,0.2,5.5-0.1c0-0.6,0.1-1,0.1-1.4c0-2.9-0.1-5.8-0.1-8.7c-0.1-3.9-0.7-7.6-1.9-11.3    c-1.5-4.9-4.1-9.2-8.2-12.4c-1.6-1.2-3.2-2.4-5.1-3.3c-2.9-1.3-5.9-1.9-9-2.1c-4.3-0.2-8.5,0.1-12.6,1.6c-2.8,1-5.4,2.4-7.6,4.4    c-4.2,3.8-6.5,8.7-7.8,14.2c-1,4.1-1.2,8.3-1.2,12.6c0,15.2,0,30.5,0,45.7c0,1.5,0,3,0.1,4.5c0.2,5.1,1.1,10.1,3.2,14.9    c2.7,6.1,7.2,10.4,13.5,12.6c1.7,0.6,3.5,1.1,5.3,1.3c3.4,0.3,6.8,0.4,10.2-0.1c2.5-0.3,4.9-1,7.1-2.3c2.4-1.4,4.6-3.1,6.5-5.1    c1.2-1.3,2.2-2.6,3.1-4.1c2.8-4.8,4-10,4.3-15.5c0.2-3.6,0.1-7.2,0.2-10.8c0-0.4-0.1-0.7-0.1-1.2c-1.5,0-2.8,0-4.2,0    c-0.4,0-0.7,0-1.3,0.1c0,0.5-0.1,0.9-0.1,1.3c0,2.3,0,4.5,0,6.8c0,2.1-0.1,4.1-0.4,6.2c-0.6,3.6-1.6,7.1-3.4,10.3    c-2.2,3.8-5.3,6.5-9.5,7.9c-3.6,1.3-7.4,1.4-11.2,0.9c-1.8-0.2-3.6-0.7-5.3-1.3c-2.2-0.9-4.2-2.2-5.7-3.9c-1.9-2.1-3.4-4.4-4.3-7    c-1.4-3.7-2.1-7.6-2.1-11.6c0-16.8,0-33.5,0-50.3c0-3.5,0.2-7,1.1-10.5c0.9-3.9,2.5-7.5,5.3-10.4c2.2-2.2,4.7-3.8,7.7-4.6    c4.4-1.3,8.8-1.3,13.2-0.2c5.1,1.3,8.9,4.3,11.4,8.9c0.7,1.2,1.1,2.5,1.6,3.8C252.5,227.9,253.1,231.1,253.2,234.3z M371,275    c1.3,5.5,2.6,11,3.9,16.5c1,4.4,2,8.8,3,13.2c0.9,4,1.9,8.1,2.8,12.1c0.1,0.3,0.2,0.6,0.4,1c1,0,1.9,0.1,2.8,0    c0.9-0.1,1.9,0.3,2.9-0.2c-0.1-0.6-0.2-1.1-0.3-1.7c-0.7-2.8-1.4-5.5-2-8.3c-1.3-5.8-2.6-11.7-4-17.5c-1.6-6.9-3.2-13.7-4.8-20.6    c-1-4.2-1.9-8.5-2.9-12.7c-0.9-3.9-1.9-7.7-2.7-11.6c-1.6-6.9-3.2-13.7-4.7-20.6c-1.2-5.3-2.4-10.5-3.7-15.8    c-0.3-1.1-0.3-2.2-1-3.3c-3.7,0-7.4,0-11.3,0c-0.1,0.3-0.3,0.5-0.3,0.8c-8.6,36.9-17.2,73.9-25.7,110.8c0,0.1,0,0.1,0,0.2    c0,0.1,0.1,0.1,0.1,0.2c1.4,0.3,4.4,0.2,5.6-0.1c2-8.7,4.1-17.5,6.1-26.2c2-8.8,4.1-17.5,6.1-26.3c2-8.8,4-17.5,6.1-26.3    c2-8.7,4-17.5,6.1-26.3c1.1-0.2,2-0.2,2.9,0c0.1,0.4,0.3,0.7,0.4,1.1c0.9,3.7,1.8,7.3,2.6,11c1.6,6.9,3.1,13.7,4.7,20.6    c1,4.4,2.1,8.7,3.1,13c0.4,1.7,0.8,3.4,1.2,5.1C369.3,267.3,370.1,271.2,371,275z M453.2,286.3c0,3.1,0.2,6.2,0.8,9.2    c0.8,4.7,2.3,9.1,5.2,13c2.1,2.8,4.7,5.1,7.8,6.7c2.8,1.3,5.7,2.3,8.9,2.4c0.9,0.1,1.9,0.1,2.8,0.2c2.9,0.2,5.8-0.1,8.6-0.7    c3.2-0.8,6.2-2.1,8.8-4.2c4.2-3.3,7-7.5,8.7-12.5c0.9-2.7,1.5-5.4,1.8-8.3c0.4-3.8,0.5-7.5-0.2-11.3c-0.6-3.3-1.6-6.5-3.2-9.4    c-1.4-2.6-3.3-4.7-5.4-6.8c-2.6-2.6-5.6-4.7-9-6.2c-2.3-1-4.6-2-6.9-3c-3.4-1.4-6.6-3.1-9.3-5.7c-2.1-2-3.5-4.3-4.2-7    c-0.6-2-0.7-4.1-0.5-6.2c0.1-1.2,0.2-2.4,0.3-3.6c0.5-3.9,1.9-7.3,4.8-10c1.2-1.1,2.5-1.9,4.1-2.2c2.4-0.6,4.9-0.4,7.3,0.1    c1,0.2,1.9,0.7,2.7,1.3c2,1.4,3.1,3.4,3.9,5.7c0.5,1.4,0.7,2.9,0.9,4.4c0.4,2.4,0.5,4.7,0.5,7.1c0,1.5,0,3,0,4.5    c0,0.4,0.1,0.7,0.2,1.1c0.4,0.1,0.7,0.1,1,0.1c1.4,0,2.8,0,4.2,0c0.1-0.5,0.2-0.9,0.2-1.3c0.1-3.9,0.1-7.8-0.3-11.7    c-0.4-3.3-1.1-6.4-2.5-9.4c-1.8-3.7-4.7-6-8.5-7.2c-2.7-0.8-5.4-1.1-8.2-0.8c-3.5,0.3-6.6,1.5-9.2,3.9c-2.6,2.4-4.3,5.4-5.4,8.7    c-1.4,4.3-1.6,8.8-1.4,13.3c0.1,1.3,0.3,2.6,0.7,3.9c1.8,6.2,5.7,10.7,11.4,13.7c2.9,1.6,6,2.9,9.1,4.1c2.2,0.9,4.4,1.9,6.4,3.3    c3.6,2.5,6.5,5.5,8.6,9.4c1.8,3.2,2.6,6.7,2.8,10.3c0.1,2.3,0,4.6-0.4,7c-0.8,4.5-2.1,8.6-4.8,12.3c-3,4.1-7,6.4-11.9,7.4    c-1.7,0.3-3.5,0.3-5.3,0.3c-2.7,0-5.3-0.5-7.7-1.5c-3.1-1.3-5.6-3.2-7.6-6c-2.4-3.3-3.5-7.1-4.1-11c-0.4-2.8-0.7-5.6-0.6-8.5    c0.1-1.8,0-3.5,0-5.3c0-0.4-0.1-0.7-0.1-1.1c-0.4-0.1-0.6-0.2-0.8-0.2c-1.4,0-2.8,0-4.1,0.1c-0.1,0-0.3,0.2-0.5,0.4    C453.2,281.5,453.2,283.9,453.2,286.3z M407.3,215.6c3.4-2.9,7.5-4,11.9-4.2c2.7-0.1,5.3,0.3,7.8,1c2.9,0.8,5.4,2.4,7.5,4.6    c2,2.1,3.5,4.6,4.5,7.4c0.6,1.8,1.1,3.6,1.4,5.5c0.5,3.2,0.6,6.5,0.6,9.8c0,1.4,0,2.9,0,4.3c0,0.4,0.1,0.7,0.2,1.2    c1.8,0,3.5,0.1,5.4-0.1c0.1-0.6,0.2-1.1,0.2-1.6c0-2.4,0.1-4.8,0-7.2c-0.2-3.6-0.5-7.3-1.4-10.8c-0.7-2.8-1.7-5.4-3.1-7.9    c-2-3.7-5-6.5-8.6-8.6c-1-0.6-2.1-1.1-3.2-1.6c-2.6-1.1-5.3-1.5-8.1-1.7c-3.7-0.3-7.3,0-10.8,1.2c-6.4,2.2-11.2,6.2-14.4,12.1    c-2.5,4.7-3.7,9.7-4.2,15c-0.4,4.5-0.1,9.1,1.1,13.5c2.3,8,7.3,13.9,14.4,17.9c2.7,1.5,5.7,2.7,8.5,4.1c2.5,1.2,5.1,2.2,7.4,3.7    c4.8,3.2,7.5,7.5,7.5,13.4c0,2.2-0.3,4.4-0.6,6.6c-0.5,3.2-2.1,5.9-4.6,8c-1.3,1.1-2.9,1.9-4.6,2c-1.8,0.1-3.7,0.1-5.5,0    c-3-0.3-5.1-1.9-6.6-4.5c-0.8-1.4-1.4-2.9-1.8-4.6c-0.6-2.8-0.9-5.7-0.9-8.6c0-1.8,0-3.7,0-5.5c0-0.4-0.1-0.7-0.1-1    c-1.9-0.4-4-0.3-5.3,0.1c0,0.2-0.1,0.3-0.1,0.5c0,2.4,0,4.8,0,7.2c0,3.2,0.4,6.3,1.1,9.4c0.7,3.1,2,6,4.2,8.3    c2.4,2.6,5.4,3.9,8.8,4.3c2.1,0.2,4.3,0.2,6.4,0.1c3-0.2,5.8-1.2,8.2-3.1c4-3.2,5.9-7.6,6.7-12.5c0.3-2,0.4-4.1,0.5-6.2    c0.1-3.3-0.4-6.5-1.9-9.5c-2.4-5-6.2-8.6-11.3-10.9c-4-1.8-7.9-3.6-11.8-5.4c-3.4-1.6-6.2-4-8.6-6.9c-3.6-4.3-5.4-9.4-5.6-14.9    c-0.2-4.9,0.5-9.8,2.3-14.4C402.2,221.2,404.4,218.1,407.3,215.6z M505.9,227c-0.7-3-1.6-5.9-3-8.7c-2.9-5.6-7.5-9.2-13.3-11.3    c-2-0.7-4-1-6.1-1.2c-4.8-0.4-9.4,0-13.9,2c-3.2,1.4-6.1,3.4-8.4,6c-3.2,3.5-5.1,7.6-6.4,12.1c-1.3,4.7-1.6,9.4-1.5,14.2    c0.1,1.5,0.2,3,0.5,4.5c0.5,2.8,1.4,5.5,2.7,8c2.9,5.8,7.3,10.2,13.1,13.2c3.6,1.9,7.3,3.5,10.9,5.2c2,0.9,3.8,1.9,5.6,3.2    c4.5,3.2,6.2,7.6,6.3,12.9c0,2-0.3,4-0.6,6c-0.4,2.5-1.5,4.8-3.1,6.8c-1.4,1.7-3.2,2.9-5.4,3.3c-2.5,0.5-5,0.5-7.5-0.2    c-1.8-0.5-3.4-1.5-4.6-3.1c-1.4-1.9-2.3-4.1-2.7-6.4c-0.4-2.1-0.5-4.3-0.6-6.4c-0.1-2.4,0-4.8,0-7.2c0-0.3-0.2-0.7-0.3-1.1    c-1.5,0-2.9,0-4.2,0c-0.3,0-0.7,0.2-1,0.2c-0.1,0.3-0.1,0.5-0.1,0.7c0,2.9,0.1,5.8,0.1,8.7c0,4.3,0.8,8.4,2.6,12.3    c1,2.1,2.2,4,4.1,5.3c2.6,1.7,5.5,2.9,8.6,2.9c1.4,0,2.8,0,4.2,0c1.8,0,3.5-0.4,5.2-1c2.1-0.8,4-2,5.5-3.6    c2.2-2.3,3.7-5.1,4.5-8.2c1-3.9,1.4-7.9,1-12c-0.4-4.6-2.3-8.5-5.2-11.9c-2.2-2.5-4.9-4.3-7.9-5.7c-2.6-1.1-5.2-2.2-7.8-3.4    c-2.9-1.4-5.8-2.7-8.4-4.7c-3.8-2.9-6.4-6.6-8.2-10.9c-1.2-2.9-1.5-6-1.6-9.1c0-2,0.2-4,0.4-6c0.6-5,2.3-9.5,5.3-13.5    c2.6-3.4,6-5.7,10.2-6.7c3.6-0.9,7.2-0.9,10.8-0.1c6.4,1.4,10.6,5.2,13.2,11.1c1.7,3.9,2.3,8.1,2.5,12.3c0.1,2.8,0,5.5,0,8.3    c0,0.4,0.1,0.8,0.1,1.3c1.8,0.4,3.5,0.2,5.4,0.2c0.1-0.6,0.1-1,0.1-1.4c0-2,0-4,0-6C506.9,234.1,506.6,230.5,505.9,227z     M446,294.8c0.5-3,0.7-6.1,0.7-9.2c-0.1-2.4-0.4-4.8-0.9-7.1c-1.6-6.7-5.4-12-10.7-16.2c-1.4-1.1-2.9-2.2-4.6-3    c-3.5-1.7-7-3.2-10.5-4.7c-2.4-1.1-4.7-2.4-6.7-4.2c-3.2-2.8-5.2-6.2-5.6-10.5c-0.3-3.4,0.1-6.8,1-10.1c0.6-2.3,1.8-4.4,3.4-6.2    c3.1-3.5,9.8-4.4,14-2c2.3,1.3,3.7,3.4,4.6,5.8c1.1,3,1.4,6.1,1.4,9.3c0,2.5,0,4.9,0,7.4c0,0.3,0.1,0.7,0.2,1.1c1.8,0,3.5,0,5.2,0    c0.5-0.4,0.4-1,0.4-1.6c0-4.1,0.1-8.2-0.4-12.3c-0.4-3.4-1.3-6.7-3.1-9.6c-1.3-2.2-3.1-4.1-5.6-5.2c-4.1-1.9-8.5-2.3-12.9-1.5    c-1.4,0.3-2.8,0.8-4,1.5c-3,1.8-5.2,4.3-6.8,7.4c-1.4,2.7-2.2,5.6-2.6,8.6c-0.5,3.4-0.6,6.8,0,10.1c0.9,5.1,3.7,9.2,7.5,12.5    c1.5,1.3,3.2,2.5,5,3.3c2.7,1.2,5.4,2.5,8.1,3.6c4.1,1.8,7.9,3.8,11.1,7.1c2.2,2.2,3.9,4.8,5.1,7.6c0.7,1.6,1.3,3.3,1.4,5.1    c0.2,2.3,0.4,4.5,0.3,6.8c-0.2,3-0.6,6-1.6,8.9c-1.1,3.6-3.1,6.6-5.6,9.3c-2.6,2.7-5.8,4.3-9.6,4.9c-1.8,0.3-3.6,0.3-5.5,0.3    c-3.1,0-6.1-0.8-9-2c-1.9-0.8-3.6-2.1-5-3.7c-1.8-2-3.2-4.3-4.1-6.9c-0.7-2-1.2-4-1.5-6c-0.3-2.4-0.5-4.8-0.6-7.1    c-0.1-1.9,0-3.9,0-5.9c0-0.6-0.1-1.1-0.1-1.6c-1.6-0.4-4-0.4-5.3,0c0,0.5-0.1,1-0.1,1.5c0,1.8,0,3.5,0,5.3    c-0.1,3.5,0.2,7,0.9,10.5c0.9,4.7,2.5,9.1,5.5,12.9c2.9,3.7,6.6,6.2,11.1,7.5c1.8,0.5,3.7,0.9,5.6,1c4.5,0.4,8.9,0.2,13.2-1.2    c3.5-1.2,6.5-3.1,9-5.7C442.5,306.3,444.9,300.8,446,294.8z M244.3,244.8c0.3,0.1,0.5,0.3,0.7,0.3c1.6-0.2,3.2,0,4.9-0.3    c0-1.3,0.1-2.4,0.1-3.6c0-2.1-0.1-4.1-0.1-6.2c-0.1-4.5-0.9-8.7-3-12.7c-1.3-2.5-3.2-4.4-5.6-5.7c-4-2.1-8.2-2.3-12.5-1.7    c-0.9,0.1-1.7,0.3-2.6,0.6c-2.2,0.7-4.2,1.7-5.9,3.3c-1.4,1.3-2.4,2.9-3.2,4.6c-1.5,3.2-2.3,6.6-2.4,10c-0.2,4-0.1,8.1-0.1,12.1    c0,2.1,0,4.2,0,6.2c0,2.7,0,5.4,0,8.1c0,2.5,0.1,5,0.1,7.6c0,3.3-0.1,6.7-0.1,10c0,3.5,0.1,6.9,0.1,10.4c0,1.9,0.2,3.8,0.5,5.6    c0.5,3.1,1.5,6.1,3.2,8.8c1.3,2.1,3,3.7,5.2,4.8c1.2,0.6,2.5,0.9,3.7,1.3c2,0.6,4.1,0.4,6.2,0.4c1.8,0,3.6-0.3,5.4-0.8    c2.8-0.8,4.9-2.4,6.7-4.6c1.6-2,2.6-4.3,3.2-6.8c0.8-3.1,1.2-6.2,1.2-9.3c0-2.7,0.1-5.4,0.1-8.1c0-0.2-0.1-0.3-0.2-0.5    c-1.7-0.3-4.2-0.2-5.4,0.1c0,0.1-0.1,0.2-0.1,0.3c0,2.9-0.1,5.8,0,8.7c0,2.6-0.5,5.1-1.1,7.6c-0.3,1.4-0.9,2.6-1.7,3.7    c-1.7,2.4-3.9,3.9-6.9,4c-0.4,0-0.8,0-1.1,0.1c-1.9,0.3-3.8-0.1-5.6-0.5c-0.5-0.1-0.9-0.3-1.4-0.6c-2.4-1.4-3.9-3.5-4.8-6.1    c-1-2.9-1.5-6-1.5-9.1c0-16.5,0-33,0-49.5c0-2.1,0.2-4.3,0.5-6.4c0.3-1.9,0.9-3.7,1.7-5.4c1.4-2.8,3.6-4.6,6.8-5.1    c1.3-0.2,2.6-0.3,3.9-0.2c1.3,0.1,2.5,0.2,3.7,0.5c2.1,0.6,3.6,1.9,4.8,3.8c1.7,2.8,2.4,5.9,2.6,9.2c0.2,3.4,0.4,6.8,0,10.2    C244.2,244.3,244.3,244.6,244.3,244.8z M267.6,298.9c0,3.1,0.1,6.3,0.1,9.4c0,3.1-0.1,6.1,0,9.3c16,0,32,0,47.9,0    c0.3,0,0.6-0.1,1-0.2c0-1.5,0-2.8,0-4.2c0-0.9-0.2-1.1-1.1-1.1c-2.1,0-4.2,0-6.2,0c-11.1,0-22.3,0-33.4,0c-0.5,0-1,0-1.5-0.1    c-0.4,0-0.7-0.2-1.1-0.3c0-1.7-0.1-3.3-0.1-5c0-4.8,0.1-9.6,0.1-14.4c0-5.3,0-10.6-0.1-15.9c0-3.5,0.1-7,0.1-10.6    c0-6.2,0-12.3-0.1-18.5c0-4.3,0-8.7,0-13c0-9.3,0-18.5,0-27.8c0-0.4-0.1-0.7-0.1-1.1c-1-0.2-1.8-0.1-2.7-0.1    c-0.9,0-1.9-0.3-2.7,0.3c0,3.1,0,6.2,0,9.3c0,3.1,0,6.2,0,9.3c0,3.1,0,6.3,0,9.4c0,3.1,0,6.2,0,9.3c0,3.1,0,6.2,0,9.3    c0,3.1,0,6.2,0,9.3c0,3.1,0,6.3,0,9.4c0,3.1,0,6.2,0,9.2c0,3.1,0,6.2,0,9.3C267.7,292.7,267.6,295.8,267.6,298.9z M276.6,307.7    c0,0.3,0.2,0.7,0.3,1.1c0.5,0,0.8,0,1.2,0c12.3,0,24.6,0,36.8,0c0.2,0,0.4,0,0.6,0c0.4-0.1,0.7-0.2,1.1-0.3c0-1.7,0-3.2,0-4.8    c0-0.2-0.2-0.3-0.3-0.5c-1.5,0-3,0-4.5,0c-2.3,0-4.5,0-6.8,0c-3.3,0-6.5,0-9.8,0c-3.9,0-7.8,0-11.7,0c-0.4,0-0.7-0.1-1.2-0.2    c0-0.8-0.1-1.4-0.1-2.1c0-7.4,0-14.7,0-22.1c0-17.4,0-34.8,0-52.2c0-6.7,0-13.4,0-20c0-0.3-0.1-0.6-0.2-0.9c-1.8,0-3.5,0-5.4,0    c0,1.1,0,1.9,0,2.8c0,32.5,0,65,0,97.5C276.6,306.5,276.6,307.1,276.6,307.7z M284.8,370.8c-3.4,0-6.8,0.1-10.2,0.1    c-2.3,0-4.5,0.1-6.8,0.1c-5.8,0-11.6-0.1-17.4-0.2c-2.9,0-5.8,0.1-8.7,0.1c-1,0-2-0.1-3-0.1c-4.8,0-9.6,0-14.3,0    c-0.6,0-1.3,0.1-1.9,0.1c-0.6,0.1-1.2-0.1-1.9,0.3c0,3.2,0,6.4,0,9.7c0.3,0.1,0.5,0.2,0.6,0.2c21.3,0,42.5,0,63.8,0    c0.1,0,0.1-0.1,0.2-0.1c0,0,0.1-0.1,0.3-0.3c0-0.2,0-0.6,0-0.9c0-2.6-0.1-5.1,0.1-7.7c0-0.2,0-0.4,0-0.6    C285.7,371.1,285.4,370.8,284.8,370.8z M433.7,379.5c0,1.6-0.1,1.8,1.7,1.8c20.7,0,41.4,0,62.1,0c0.3,0,0.6,0,1-0.1    c0.1-0.3,0.2-0.5,0.2-0.7c0.1-2.8,0.1-5.7,0.1-8.5c0-0.8-0.3-1.2-1.1-1.1c-1.1,0-2.1,0.2-3.2,0.2c-5.4-0.1-10.8-0.2-16.2,0    c-0.5,0-1,0-1.5-0.1c-3.1,0-6.2-0.1-9.2-0.1c-1.7,0-3.5,0-5.2,0c-0.5,0-1,0-1.5,0c-1,0-2,0.1-3,0.1c-1.8,0-3.5-0.1-5.3-0.1    c-0.9,0-1.8,0.1-2.6,0.1c-4.1-0.2-8.2-0.1-12.3,0c-1,0-2-0.1-3-0.2c-0.2,0-0.5,0-0.8,0c-0.1,0.5-0.2,0.9-0.2,1.3    C433.7,374.6,433.8,377,433.7,379.5z M497.8,409.4c0.3,0,0.6-0.1,0.8-0.1c0.1-0.2,0.2-0.4,0.2-0.5c0-2.9,0-5.8,0-8.7    c0-0.3-0.2-0.6-0.3-0.9c-1.5,0-2.9,0-4.4,0c-5.2,0-10.4,0.1-15.7,0.1c-3.9,0-7.8-0.1-11.7-0.1c-3.3,0-6.7,0.1-10,0.1    c-6.7,0-13.5,0-20.2,0c-0.6,0-1.3-0.1-1.9-0.1c-0.6,0-0.9,0.3-0.9,0.9c0,2.4,0.1,4.8,0.1,7.2c0,0.6,0,1.2,0.1,2.1    c0.7,0,1.2,0,1.7,0c14.9,0,29.7,0,44.6,0C486,409.4,491.9,409.4,497.8,409.4z M285.6,400c0-0.5-0.3-0.8-0.8-0.8    c-0.2,0-0.4,0-0.6,0c-4.7,0-9.3,0.1-14,0.1c-6.8,0-13.6-0.1-20.4-0.1c-2.6,0-5.2,0-7.7,0c-6.7,0-13.5,0-20.2,0    c-0.4,0-0.7,0.1-1.1,0.2c-0.1,0.3-0.2,0.4-0.2,0.6c0,2.8,0,5.5,0,8.3c0,0.4,0.1,0.7,0.2,1.1c21.5,0,43,0,64.7,0    c0.1-0.6,0.1-1,0.1-1.5c0-2.2,0-4.4-0.1-6.6C285.6,400.8,285.6,400.4,285.6,400z M355,221.2c-0.3,0.2-0.4,0.3-0.4,0.4    c-0.5,2.4-1,4.8-1.6,7.2c-1.6,6.9-3.2,13.7-4.8,20.6c-0.6,2.6-1.3,5.3-1.9,7.9c-0.6,2.7-1.2,5.4-1.8,8.1    c-0.9,3.7-1.8,7.5-2.6,11.2c-0.1,0.3,0,0.7,0,1c1.7,0.2,21,0.3,25.2,0.2c0.3,0,0.6-0.1,0.9-0.1c0.1-0.2,0.2-0.3,0.1-0.4    c-4.2-18.4-8.5-36.8-12.7-55.2C355.3,221.8,355.2,221.6,355,221.2z M359.9,272c-1.7,0-3.4,0-5.1,0c-1.6,0-3.1,0-4.7,0    c-0.4,0-0.7-0.1-1.2-0.2c1.9-8.5,3.9-16.8,5.8-25.1c0.1,0,0.3,0,0.4,0c1.9,8.3,3.9,16.6,5.9,25C360.6,271.8,360.3,272,359.9,272z     M377.5,317.7c0-1.2-0.4-2.3-0.7-3.5c-1.4-6.3-2.9-12.5-4.4-18.8c-0.6-2.5-1.1-5-1.7-7.5c-0.5-2-0.9-4-1.4-6.1    c-0.2-0.7-0.5-0.9-1.2-0.9c-0.9,0-1.8,0.1-2.6,0.1c-2.7,0-5.4-0.1-8.1-0.1c-2.7,0-5.4,0-8.1,0c-1,0-2,0-3,0c-1.3,0-2.5,0-3.8,0    c-0.5,0-1,0.1-1.5,0.1c-2.8,12.2-5.7,24.2-8.5,36.3c0,0.1,0,0.1,0.1,0.2c0,0.1,0.1,0.1,0.2,0.3c1.8,0.2,3.7,0.1,5.6,0    c1.2-5.3,2.5-10.4,3.6-15.5c1.3-5.9,3.1-14,3.7-15.4c1.4-0.2,16.9-0.3,18.9,0c1.5,5.1,2.5,10.3,3.7,15.4    c1.2,5.1,2.4,10.3,3.6,15.4C373.7,318,376.2,317.9,377.5,317.7z M459.8,126.5c-1.3,1.4-2.6,2.8-4.1,4.2c-1.8,1.7-3.5,2.6-5,2.8    c0.6-1.4,1.4-2.7,2.2-4c0.7-1.3,1.4-2.5,2.1-3.8c0.7-1.3,1.5-2.6,2.2-3.9c0.7-1.3,1.6-2.5,2.1-4.1c-2.4,0.2-4.6,1.1-6.9,1.3    c-0.2-0.2-0.3-0.3-0.3-0.4c-1.6-2.7-3.8-3.5-6.7-2.6c-1.6,0.5-2.9,1.5-4,2.7c-1.2,1.3-2.1,2.7-2.9,4.2c-0.2,0.4-0.4,0.9-0.8,1    c-0.6,0.2-0.9,0.7-1.2,1.1c-1.1,1.4-2.2,2.7-3.6,3.8c-0.6,0.5-1.2,0.9-1.9,1.2c-0.9,0.4-1.5,0-1.3-1c0.1-0.4,0.2-0.7,0.3-1.1    c0.4-0.9,0.8-1.8,1.3-2.7c0.9-1.8,1.9-3.6,2.7-5.4c0.4-0.8,0.6-1.6,0.6-2.5c0-1.6-0.6-2.5-2.1-2.9c-0.4-0.1-0.9-0.2-1.3-0.2    c-1.6-0.1-3.1,0.3-4.6,0.9c-0.6,0.3-1.1,0.5-1.7,0.8c-1.6-0.7-3.2-1.4-4.9-2.2c-0.3,0.6-0.6,1.1-0.9,1.6c-1,2-2,3.9-3,5.9    c-0.2,0.3-0.4,0.8-0.6,0.9c-0.9,0.2-1.1,1-1.6,1.5c-1,1.1-2,2.3-3,3.4c-0.5,0.5-1.2,0.9-1.8,1.3c-0.4,0.3-1,0.4-1.4,0.1    c-0.4-0.3-0.3-0.8-0.2-1.2c0.3-0.9,0.6-1.8,1-2.6c1.3-2.7,2.6-5.3,3.9-8c0.5-1,0.9-1.9,1.4-2.9c-1.3-0.6-3.3-0.7-5.9-0.5    c-0.3,0.5-0.6,1-0.9,1.6c-0.9,1.8-1.7,3.5-2.6,5.3c-0.3,0.7-0.5,1.4-1.5,1.6c-0.2,0-0.4,0.4-0.6,0.7c-0.7,0.9-1.4,1.8-2.1,2.6    c-0.8,0.8-1.6,1.6-2.5,2.3c-0.4,0.3-1,0.6-1.5,0.7c-1,0.2-1.5-0.3-1.3-1.2c0.2-0.9,0.5-1.8,0.9-2.7c1.3-2.7,2.6-5.5,3.9-8.2    c0.5-1,1-2,1.4-3c1.1-0.4,2.2,0.2,3.2-0.3c0.4-0.7,0.9-1.5,1.1-2.5c-0.9-0.2-1.7-0.3-2.7-0.5c0.5-1,1-1.9,1.4-2.8    c0.1-0.3,0.2-0.7,0.3-1.1c-2-0.1-3.9-0.2-5.8-0.3c-0.7,1.4-1.4,2.8-2.1,4.1c-1.1,0-2,0-3,0c-0.6,0.9-1.1,1.7-1.2,2.8    c0.9,0.1,1.7,0.2,2.5,0.2c0,0.2,0.1,0.5,0,0.6c-1.1,2.3-2.2,4.7-3.3,7c-0.1,0.3-0.3,0.6-0.6,0.7c-0.7,0.2-0.9,0.8-1.3,1.3    c-0.8,1-1.6,2.1-2.5,3.1c-0.6,0.7-1.3,1.2-2,1.8c-0.3,0.3-0.8,0.4-1.2,0.6c-0.5,0.1-0.9-0.2-0.9-0.7c0.1-0.6,0.1-1.3,0.3-1.8    c0.3-1,0.7-1.9,1.2-2.8c1.4-3,2.7-6,4.1-8.9c0.1-0.3,0.4-0.6,0.1-1.1c-1,0.3-2.1,0.7-3.2,1c-1.1,0.3-2.2,0.9-3.4,0.9    c-0.3-0.4-0.5-0.8-0.8-1.2c-0.7-0.9-1.6-1.4-2.7-1.6c-1.9-0.3-3.8,0.1-5.4,1.3c-1,0.8-1.9,1.7-2.6,2.8c-0.7,1.2-1.4,2.5-2,3.8    c-0.2,0.3-0.3,0.8-0.5,0.9c-0.9,0.4-1.2,1.3-1.7,1.9c-1,1.2-1.9,2.5-3,3.7c-0.4,0.5-1,0.8-1.5,1.1c-0.3,0.2-0.8,0.2-1.2,0.2    c-0.5-0.8-0.3-1.6-0.1-2.3c0.3-0.8,0.6-1.7,0.9-2.5c1.3-3.2,2.7-6.4,4-9.6c0.1-0.3,0.2-0.7,0.3-1c-1.9-0.3-4.5-0.3-5.9,0.1    c-0.2,0.4-0.4,0.8-0.5,1.2c-1,2.4-2,4.8-3,7.1c-0.8,1.9-2,3.6-3.3,5.2c-0.4,0.4-0.8,0.8-1.3,1.1c-0.3,0.2-0.7,0.2-1.1,0.1    c-0.4-0.1-0.4-0.6-0.3-1c0-0.3,0.1-0.6,0.2-0.9c0.2-0.7,0.4-1.3,0.7-2c1.3-3.3,2.7-6.6,4.1-10c0.1-0.3,0.2-0.7,0.3-1    c-1.8-0.3-3.8-0.3-5.9,0.2c-0.2,0.5-0.5,1.1-0.7,1.7c-0.8,1.9-1.5,3.7-2.3,5.6c-0.2,0.4-0.3,0.9-0.7,1.1c-0.6,0.3-0.8,0.9-1.2,1.4    c-0.9,1.3-1.8,2.6-2.8,3.8c-0.5,0.6-1.2,1.1-1.8,1.6c-0.4,0.3-0.9,0.4-1.4,0.1c-0.4-0.7-0.2-1.5,0-2.2c0.3-1.1,0.7-2.1,1.1-3.2    c2.1-5.3,4.3-10.6,6.4-15.9c0.2-0.4,0.5-0.8,0.1-1.2c-1.9,0-3.8,0-5.7,0c-0.3,0.8-0.6,1.6-1,2.3c-0.3,0.8-0.6,1.5-0.9,2.3    c-0.3,0.8-0.6,1.5-0.9,2.3c-0.3,0.7-0.4,1.5-1,2.2c-0.3-0.3-0.4-0.5-0.6-0.6c-1.2-1.4-2.7-1.8-4.4-1.6c-1.5,0.2-2.8,0.8-3.9,1.8    c-0.8,0.8-1.6,1.8-2.3,2.8c-0.7,1.2-1.3,2.6-1.9,3.9c-0.2,0.3-0.3,0.9-0.5,0.9c-0.8,0.3-0.9,1-1.3,1.5c-0.9,1.3-1.8,2.6-2.7,3.8    c-0.5,0.6-1.2,1.1-1.8,1.6c-0.4,0.3-0.8,0.4-1.2,0.2c-0.5-0.3-0.4-0.8-0.3-1.2c0.3-1.2,0.6-2.5,1-3.6c1.1-3.2,2.3-6.4,3.5-9.6    c0.1-0.3,0.4-0.7,0-1.1c-2.1,0.6-4.1,1.8-6.3,2.3c-0.2-0.3-0.4-0.5-0.6-0.8c-0.7-1-1.7-1.5-2.9-1.7c-1.6-0.3-3.1,0.1-4.5,0.9    c-1.4,0.8-2.4,2-3.2,3.4c-0.7,1.4-1.3,2.9-1.9,4.3c-0.1,0.3-0.2,0.8-0.5,1c-0.7,0.4-0.9,1-1.2,1.6c-0.7,1.2-1.4,2.5-2.2,3.7    c-0.4,0.6-0.9,1.2-1.5,1.7c-0.2,0.2-0.6,0.3-0.8,0.3c-0.4-0.1-0.6-0.5-0.5-0.9c0.1-0.9,0.2-1.7,0.4-2.6c0.3-1.2,0.7-2.3,1.1-3.4    c0.7-2.3,0.4-3.5-1.6-4.9c-1-0.7-2.1-1.3-3.2-2c-0.4-0.3-0.8-0.5-1.1-0.8c0-1.1,0.8-2,0.5-3.1c-0.8-0.3-1.5-0.6-2.2-0.9    c-1.5,0.7-2.4,1.5-3,2.8c-0.5,1.1-0.5,2.2,0.3,3.2c0.2,0.2,0.4,0.5,0.6,0.8c-0.6,1.8-1.3,3.5-2.1,5.3c-0.1,0.2-0.3,0.5-0.5,0.5    c-0.7,0.1-0.8,0.7-1.1,1.2c-1.3,2.3-3,4.2-5,5.9c-0.2,0.2-0.5,0.3-0.9,0.6c0.1-0.6,0.2-0.9,0.3-1.3c0.6-2,1.2-4.1,1.9-6.1    c0.1-0.3,0.2-0.6-0.2-0.9c-1.7,0.5-3.4,1-5.2,1.5c-0.5,0.1-0.7,0.4-0.9,0.9c-0.8,2.3-2.5,3.9-4.4,5.3c-0.4,0.3-0.9,0.5-1.3,0.7    c-1.3,0.6-2.4-0.1-2.6-1.5c-0.2-1.3-0.2-2.6,0-3.8c0.2-0.1,0.3-0.2,0.4-0.2c0.4-0.1,0.9-0.1,1.3-0.2c3.7-0.6,7.2-1.8,10.3-3.9    c1.9-1.3,3.5-2.8,4.8-4.8c1.4-2.2,2-4.6,1.6-7.2c-0.4-2.4-1.6-4.2-4-5c-1.1-0.4-2.2-0.5-3.3-0.5c-3.4,0.2-6.3,1.6-8.7,4    c-1.1,1.1-2.1,2.3-3,3.6c-1.6,2.2-2.7,4.7-3.6,7.3c-0.2,0.6-0.4,1.2-0.6,1.7c-1.1,0-1.9-0.5-2.7-1c-1.8-1.4-2.8-3.9-0.6-6.2    c0.3-0.4,0.7-0.7,1.1-1.1c-1.2-1.3-2.2-2.5-3.5-3.4c-1.3,0.8-2,1.8-2.7,3c-2.1,3.7-1.6,10,4.2,12.6c0.6,0.3,1.3,0.5,2,0.7    c0.5,0.2,0.9,0.3,1.4,0.5c0,1.5,0,2.8,0,4.2c0.1,1.5,0.6,2.8,1.4,4c1,1.4,2.3,2.1,4,2.2c1.8,0.1,3.3-0.5,4.8-1.4    c0.3-0.2,0.6-0.6,1.1-0.6c-0.1,1.4-0.6,2.3-1.9,2.9c-1.2,0.5-2.3,1.3-3.4,2c-1,0.6-1.8,1.3-2.5,2.3c-1.1,1.6-1.2,3.3-0.3,5    c0.9,1.7,2.3,2.4,4.2,2.4c1.6,0,3.1-0.5,4.3-1.6c0.6-0.5,1.2-1.2,1.6-1.9c0.6-0.9,1-1.9,1.4-2.9c0.5-1.4,0.9-2.9,1.3-4.4    c0.3-1,0.7-1.8,1.6-2.4c0.8-0.5,1.5-1.1,2.3-1.7c2.4-2,4.4-4.3,6-7c0.5-0.8,0.7-1.9,1.8-2.3c0.2-0.1,0.3-0.5,0.5-0.8    c0.5-1.3,1.1-2.6,1.6-3.8c0.1-0.3,0.4-0.6,0.5-0.9c1.9,1.3,2,1.5,1.4,3.5c-0.4,1.4-0.8,2.8-1.2,4.2c-0.3,1-0.3,2.1-0.2,3.2    c0.3,2.1,1.7,3.4,3.8,3.5c1.7,0.1,3.1-0.4,4.3-1.5c0.9-0.8,1.7-1.8,2.5-2.8c0.2-0.2,0.4-0.4,0.6-0.7c0.1,0.3,0.2,0.4,0.3,0.6    c0.1,0.2,0.1,0.4,0.1,0.6c0.9,2.6,2.9,3.6,5.5,2.8c1.2-0.4,2.3-1.1,3.2-1.9c0.3-0.3,0.5-0.7,1.1-0.7c0.2,0.2,0.4,0.5,0.6,0.7    c0.9,1.1,2,1.5,3.3,1.5c1.8,0,3.4-0.5,4.8-1.5c1.1-0.8,2-1.7,2.9-2.7c0.2-0.3,0.3-0.7,0.8-0.6c0.1,0,0.1,0.1,0.1,0.1    c0.1,0.3,0.2,0.6,0.2,0.9c0.7,2.6,2.8,3.8,5.4,3.1c1.1-0.3,2-0.8,2.9-1.4c0.5-0.4,1-0.8,1.5-1.2c0.2,0.2,0.4,0.4,0.5,0.6    c0.9,1.4,2.1,1.9,3.7,1.9c1.6,0,3-0.3,4.3-1.2c0.8-0.6,1.6-1.2,2.4-1.9c0.4-0.3,0.7-0.6,1.2-1c0.1,0.3,0.2,0.5,0.2,0.6    c0.3,2.3,2.3,3.5,4.8,3.2c1.3-0.2,2.5-0.7,3.6-1.5c0.5-0.4,1.1-0.9,1.6-1.3c0.1,0.2,0.2,0.3,0.3,0.4c1.3,2.2,2.7,2.8,5.2,2.3    c1.6-0.3,3-1.1,4.2-2.1c0.9-0.7,1.7-1.5,2.6-2.4c0.2,0.7,0.3,1.3,0.5,1.9c0.5,1.8,1.9,2.8,3.8,2.9c1.3,0.1,2.5-0.3,3.6-1    c0.7-0.5,1.5-1,2.2-1.5c0.1,0.1,0.2,0.2,0.3,0.3c1.1,2.2,3,2.7,5.3,2.4c2.2-0.3,3.9-1.4,5.5-2.8c0.4-0.3,0.7-0.6,1.2-1    c0.1,0.4,0.1,0.7,0.1,0.9c0.3,1.9,1.4,2.9,3.2,3.3c1.5,0.4,3,0.1,4.4-0.5c1.4-0.5,2.5-1.4,3.6-2.3c0.3-0.3,0.7-0.5,1.1-0.7    c0.1,0.5,0.1,0.8,0.2,1.1c0.4,2,1.5,2.9,3.5,3.2c1.2,0.2,2.4,0,3.5-0.5c0.8-0.4,1.6-0.8,2.3-1.2c0.1,0,0.2,0,0.4,0.1    c-0.1,0.2-0.2,0.5-0.3,0.7c-0.1,0.2-0.1,0.5-0.1,0.8c2,0.1,3.8,0.5,5.7,0.3c0.3-0.6,0.6-1.2,0.9-1.7c1.5-3,3-6,4.5-8.9    c0.9-1.8,2.5-2.6,4.3-3.1c0.9-0.2,1.5,0.5,1.2,1.3c-0.5,1.1-1,2.2-1.6,3.2c-0.8,1.5-1.5,2.9-1.9,4.5c-0.2,0.9-0.3,1.9-0.3,2.8    c0.1,1.7,0.9,2.6,2.5,3.1c1.9,0.6,3.7,0.2,5.5-0.7c1.3-0.6,2.3-1.5,3.4-2.4c0.2-0.2,0.4-0.5,0.8-0.3c0.1,0.6,0.2,1.2,0.4,1.8    c0.6,2.2,2.6,3.4,4.8,2.9c0.7-0.2,1.3-0.5,1.9-0.7c0.2-0.1,0.4-0.1,0.7-0.1c-0.2,0.8-0.5,1.3-1.2,1.5c-0.8,0.2-1.7,0.5-2.5,0.8    c-1.2,0.4-2.4,0.8-3.4,1.6c-0.7,0.5-1.3,1-1.7,1.8c-1.5,2.5-0.3,5.4,2.6,6c2.2,0.5,4.3,0.1,6-1.4c0.8-0.7,1.5-1.5,2.2-2.3    c0.7-0.9,1.3-1.9,1.7-2.9c0.5-1,1.1-1.7,2.2-1.9c0.2,0,0.5-0.2,0.7-0.2c4.2-1.5,7.6-4.1,10.4-7.6c0.3-0.3,0.5-0.7,0.7-1    C460.9,126.9,460.9,126.9,459.8,126.5z M270.4,111.5c0.7-0.7,1.5-1.3,2.5-1.6c0.6-0.2,1.2-0.3,1.8-0.3c0.9,0,1.4,0.5,1.5,1.4    c0.2,0.8,0,1.6-0.3,2.4c-0.4,1-1,1.9-1.8,2.6c-2.3,2.3-5.1,3.6-8.3,4.2c-0.1,0-0.2,0-0.4,0c-0.1,0-0.1-0.1-0.2-0.1    c0-0.1-0.1-0.3-0.1-0.4C266.5,116.7,268,113.8,270.4,111.5z M266.3,143.4c-0.5,0.8-1.4,1.1-1.9,0.6c-0.4-0.4-0.4-1.2,0.2-1.9    c0.7-0.8,1.6-1.4,2.9-2C267.3,141.5,266.9,142.5,266.3,143.4z M312.2,119.5c-0.5,1.5-1.1,3.1-1.6,4.6c-0.4,1.2-1.3,2-2.2,2.7    c-0.3,0.3-0.8,0.4-1.2,0.5c-0.7,0.2-1.3-0.2-1.4-0.9c0-0.2-0.1-0.5-0.1-0.8c0.3-2.7,1.2-5.3,2.9-7.5c0.4-0.5,0.9-0.9,1.4-1.2    c0.5-0.3,1.1-0.3,1.6,0.1c0.5,0.4,0.8,1,0.8,1.6C312.4,119,312.3,119.2,312.2,119.5z M335.2,118.2c-0.2,0.7-0.5,1.3-0.7,1.9    c-0.4,1-0.8,2-1.2,3c-0.4,1.1-1.2,1.9-2.1,2.6c-0.4,0.3-0.9,0.5-1.4,0.6c-0.8,0.2-1.3-0.3-1.4-1.1c0-0.1,0-0.3,0-0.7    c0.1-0.3,0.2-0.9,0.3-1.5c0.4-1.8,1.1-3.5,2.2-5c0.5-0.6,1.1-1.2,1.7-1.7c0.6-0.4,1.3-0.5,1.9-0.1    C335.2,116.6,335.4,117.4,335.2,118.2z M380.2,118.3c-0.8,1.8-1.5,3.6-2.4,5.3c-0.4,0.8-1.2,1.5-2,2c-0.3,0.2-0.6,0.3-0.9,0.4    c-1.3,0.4-2-0.1-1.9-1.6c0-0.1,0-0.5,0.1-0.8c0.6-2.1,1.4-4.2,2.9-5.9c0.5-0.6,1.1-1.1,1.7-1.5c0.6-0.4,1.3-0.5,2,0    C380.2,116.6,380.5,117.5,380.2,118.3z M439.1,141.8c-0.3,0.1-0.6,0.2-0.9,0.3c-0.6,0.1-1-0.6-0.8-1.2c0.1-0.2,0.3-0.4,0.4-0.6    c0.7-0.7,1.9-1.2,3.3-1.4C440.8,140.2,440,141.2,439.1,141.8z M450.1,122.9c-0.1,0.2-0.2,0.5-0.3,0.7c-0.8,1.4-1.5,2.8-2.3,4.1    c-0.6,1.1-1.5,1.9-2.6,2.4c-0.4,0.2-0.8,0.3-1,0.3c-1.2,0-1.8-0.6-1.6-1.6c0.7-2.9,2.1-5.4,4.4-7.4c0.3-0.3,0.7-0.5,1.1-0.7    c0.6-0.3,1.2-0.3,1.8,0.2C450.1,121.5,450.3,122.2,450.1,122.9z M228.9,136.9c-0.3-0.6-0.3-1.2,0-1.8c0.8-1.7,1.5-3.3,2.2-5    c0.1-0.3,0.1-0.5,0.2-0.9c-2.6,0-5,0.8-7.4,0.9c-1.7-1.5-3.3-2.9-4.9-4.3c-0.2-0.2-0.5-0.2-0.8-0.4c-0.2,1.3-0.4,2.5-0.6,3.7    c-0.2,1.2-0.4,2.3-0.7,3.5c-0.8,0.4-1.5,0.9-2.2,1.3c-0.7,0.4-1.4,0.8-2.1,1.2c-0.7,0.4-1.4,0.7-2.1,1.4c2.3,1.2,4.4,2.4,6.6,3.5    c0.5,2.2,0.9,4.3,1.4,6.3c0.1,0.3,0.2,0.5,0.4,0.9c1.9-1.8,3.6-3.5,5.4-5.1c2.5,0.2,4.8,0.5,7.4,0.7c-0.2-0.6-0.3-1-0.5-1.4    C230.4,139.9,229.7,138.4,228.9,136.9z M485.4,121.7c-0.4,0.5-0.7,0.8-0.9,1.1c-0.9,1.4-1.9,2.8-2.8,4.3c-0.4,0.7-1,1.1-1.8,1.1    c-1.5,0.1-3,0.3-4.5,0.4c-0.5,0.1-1.1,0-1.6,0.5c0.1,0.2,0.2,0.4,0.4,0.6c1.1,1.3,2.1,2.7,3.2,4c0.7,0.8,0.8,1.6,0.6,2.6    c-0.3,1.4-0.6,2.8-0.9,4.2c-0.1,0.5-0.1,1-0.1,1.6c0.4-0.1,0.7-0.2,1-0.3c1.6-0.6,3.2-1.1,4.8-1.8c0.9-0.4,1.5-0.3,2.3,0.2    c1.5,0.9,2.9,1.7,4.4,2.5c0.3,0.2,0.6,0.2,1,0.3c0-1.3,0-2.5,0-3.7c0-1.2-0.1-2.4-0.2-3.5c1.8-1.9,3.8-3.3,5.5-5.3    c-2.5-0.8-4.9-1.3-7.2-2.1C487.5,126.3,486.6,124.1,485.4,121.7z M413.1,111.7c2.1,0.1,3.5-1.7,3.5-3.2c-0.1-1.8-1.4-3.1-3.3-3.1    c-2,0-3.3,1.2-3.3,3C409.8,110.1,411.1,111.7,413.1,111.7z M551.3,171.2c-0.1,0.1-0.3,0.2-0.4,0.4c0,0-0.1,0.1-0.1,0.2    c0,0,0.1,0.1,0.1,0.1c0.2-0.1,0.4-0.2,0.6-0.4c0-0.1-0.1-0.2-0.1-0.2C551.5,171.2,551.4,171.2,551.3,171.2z M172.7,172.6l0.1,0    L172.7,172.6L172.7,172.6z M515.4,511.5c-1.2-7.6-5.3-13.2-12.5-16.3c-2.6-1.1-5.4-1.6-8.3-1.7c-6.3-0.1-11.7,2-15.9,6.6    c-5.4,6-7.2,13-5.2,20.9c2.6,10.2,11.7,16.7,20.7,16.2c1.7,0,3.4-0.1,5.2-0.5c6.6-1.5,11.4-5.3,14.2-11.5    C515.7,520.8,516.2,516.2,515.4,511.5z M512.1,520.1c-1.1,5.2-4,9.2-8.8,11.6c-4,2-8.3,2.7-12.7,1.8c-6.4-1.2-11-4.9-13.3-11    c-2.7-7.4-1.6-14.3,3.6-20.3c3-3.4,6.8-5.3,11.4-5.6c4.7-0.4,9,0.6,12.8,3.4c4.7,3.4,7,8.1,7.3,13.8c0,0.5,0,1,0,1.5    c0,0,0.1,0,0.1,0C512.5,516.9,512.4,518.5,512.1,520.1z M345.9,539c0-8.7,0-17.4,0-26.1c0-7.3-2.9-13.4-8.1-18.3    c-6.7-6.3-14.7-8.5-23.7-7.1c-6.2,1-11.5,3.9-15.8,8.6c-4.6,5-6.8,11-6.8,17.7c0,16.4,0,32.9,0,49.3c0,1.3,0.1,2.5,0.2,3.8    c0.6,6.2,3.1,11.6,7.7,15.8c8.4,7.8,18.3,10,29.2,6.1c11.2-3.9,17.6-14.8,17.4-24.8C345.8,555.7,345.9,547.3,345.9,539z     M325,586.8c-12.5,3.4-25.5-3.9-29.2-16c-0.6-2-1-4-1-6.1c0-17.1,0-34.3,0-51.4c0-5.7,2.1-10.7,5.8-15c3.8-4.2,8.5-6.9,14.1-7.8    c7.9-1.3,14.9,0.9,20.7,6.3c3.9,3.6,6.3,8.1,7.1,13.4c0.2,1.2,0.2,2.4,0.2,3.6c0,8.4,0,16.7,0,25.1c0,8.2-0.2,16.5,0,24.7    C343.1,573.5,336.5,583.7,325,586.8z M498.5,500c-1.4-0.2-2.7-0.3-4.1-0.5c0,0,0,0.1,0,0.1c-0.4,0-0.8,0-1.1,0    c-6.4,0.1-11.5,3.9-13.4,10c-1.3,4.2-1.2,8.3,0.4,12.4c1.9,4.9,5.5,7.9,10.7,8.8c2.3,0.4,4.6,0.4,6.9-0.1    c4.5-0.8,7.9-3.2,10.1-7.2c2.8-5.2,2.8-10.7,0.4-16C506.4,503.3,503,500.8,498.5,500z M496.5,528c-1.7,0.2-3.4,0.1-5.1,0    c-0.5,0-1.1-0.2-1.8-0.4c-0.6-3-0.7-5.8,0.1-8.6c1.8-6.4,6.9-9.7,13.6-9.1c2.3,0.2,3.4,1.3,3.7,3.6C508,519.9,504.2,527,496.5,528    z M339.9,514.1c0-1.8-0.1-3.7-0.5-5.4c-1.6-6.7-5.5-11.5-12-14c-5.5-2.1-11.1-2.1-16.6-0.2c-4.9,1.7-8.5,5-10.8,9.7    c-1.4,2.9-2.1,6-2.1,9.3c0,16.9,0,33.9,0,50.8c0,1.4,0.1,2.9,0.4,4.3c1.5,6.5,5.1,11.4,11.3,14.2c4.5,2,9.1,2.4,13.9,1.4    c7.6-1.5,12.8-5.9,15.4-13.2c0.8-2.3,1.1-4.6,1.1-7.1c0-8.3,0-16.6,0-24.9C339.9,530.7,339.9,522.4,339.9,514.1z M336.9,538.9    c0,8.4,0,16.9,0,25.3c0,4.4-1.5,8.1-4.3,11.4c-2.3,2.6-5.1,4.3-8.4,5.2c-3.8,1.1-7.6,1-11.3-0.2c-6.8-2.2-11.6-7.9-12-16    c0-0.4,0-0.8,0-1.1c0-16.4,0-32.7,0-49.1c0-2.4,0.3-4.8,1.2-7c1.3-3.5,3.5-6.2,6.6-8.2c6.2-4,14.8-3.9,20.9,0.3    c4.7,3.3,7.1,7.9,7.3,13.6c0.1,1.9,0,3.9,0,5.9C336.9,525.6,336.9,532.2,336.9,538.9z M333.7,510.5c-0.8-5.4-4.5-9.5-9.8-10.8    c-3-0.8-6.1-0.9-9.2-0.2c-5.8,1.2-9.5,4.7-10.7,10.6c-0.3,1.3-0.3,2.6-0.3,3.9c0,8.3,0,16.6,0,24.9c0,8.4,0,16.7,0,25.1    c0,0.9,0,1.9,0.1,2.8c0.7,5.4,3.5,9.1,8.7,10.8c4.4,1.5,8.8,1.4,13.1-0.2c3.9-1.5,6.5-4.3,7.6-8.3c0.5-1.8,0.7-3.6,0.7-5.4    c0-16.5,0-33,0-49.5C334,513,333.9,511.7,333.7,510.5z M331.1,563.5c0,1.2-0.1,2.5-0.4,3.7c-0.8,4-3.3,6.6-7.1,7.9    c-2.3,0.8-4.7,1-7.1,0.6c-1.8-0.3-2.3-0.9-2.5-2.7c-0.1-0.7-0.1-1.4-0.1-2.1c0-16.1,0-32.2,0-48.4c0-1.6,0.1-3.3,0.5-4.9    c1-3.5,3.2-6,6.6-7.3c2.5-1,5-1.1,7.6-0.8c1.5,0.1,2.1,0.7,2.3,2.3c0.1,0.9,0.1,1.8,0.1,2.6c0,8.2,0,16.4,0,24.6    C331.1,547.2,331.1,555.3,331.1,563.5z"/></g></g></svg>