<svg xmlns="http://www.w3.org/2000/svg" xmlns:xlink="http://www.w3.org/1999/xlink" class="badge__color__2" fill="currentColor" version="1.1" id="Shape_1_1_" x="0px" y="0px" viewBox="0 0 720 720" enable-background="new 0 0 720 720" xml:space="preserve"><g id="Shape_1"><g><path d="M504.2,592.6c-3.1-6.7-6.1-13.4-9.1-20c-2.6-5.8-5.2-11.7-7.9-17.5c-2.4-5.3-5-10.5-7.4-15.8c-0.5-1.2-1.1-1.1-2-0.7    c-5.8,2-11.6,4-17.5,6.1c0,0,0-0.1,0-0.1l0,0.1c0,0,0,0,0,0c0,0,0,0,0,0l0,0c-1.4,0.5-2.8,1.1-4.2,1.4c-3.3,0.9-6.6,1.7-9.9,2.5    c-1.4,0.3-2.8,0.7-4.2,1c-2.3,0.4-4.7,0.8-7,1.2c-5,1-10,2.2-15.1,2.9c-6.4,0.9-12.9,1.7-19.4,2.2c-7,0.6-14,1.2-21.1,1.1    c-14.6-0.1-29.3,0.8-43.9-0.5c-6.3-0.6-12.7-0.7-19-1.2c-4.3-0.3-8.6-0.9-12.9-1.4c-1.5-0.2-3-0.1-4.4-0.3    c-3.1-0.5-6.1-1.2-9.2-1.7c-2.9-0.5-5.9-0.9-8.9-1.5c-2-0.4-4-0.9-6-1.4c-1.9-0.5-3.7-1.1-5.5-1.6c-3.7-1-7.5-1.9-11.2-2.9    c-3-0.9-6-1.8-8.9-2.9c-2.2-0.8-4.3-1.8-6.5-2.8c-1.1-0.5-2-0.6-2.7,0.7c-0.3,0.6-0.7,1.2-1,1.8c-1.3,2.7-2.5,5.5-3.8,8.2    c-1.5,3.2-3.2,6.4-4.7,9.6c-2.1,4.7-4.1,9.6-6.3,14.3c-1.4,3.1-3,6.1-4.4,9.1c-2.4,5.1-4.7,10.3-7.1,15.4    c-0.9,1.9-0.7,3.9,0.7,4.5c4.1,1.7,8.1,3.5,12.2,5.2c3.1,1.3,6.2,2.6,9.4,3.7c4,1.4,8.1,2.5,12.2,3.6c3.9,1.1,7.8,2.1,11.7,3.1    c1.9,0.5,3.9,0.8,5.8,1.3c2.9,0.7,5.7,1.6,8.6,2.1c2.9,0.5,5.8,0.8,8.7,1.2c3,0.4,6,0.8,8.9,1.2c3.9,0.6,7.7,1.3,11.6,1.7    c4.9,0.5,9.9,0.8,14.8,1.1c8.1,0.5,16.3,1.2,24.4,1.3c18.6,0.2,37.3,0.3,55.9-0.8c2.5-0.2,5-0.3,7.5-0.5    c5.6-0.5,11.2-1.1,16.8-1.8c4.6-0.6,9.1-1.4,13.7-2.1c6.1-1,12.2-2.1,18.3-3.2c2.2-0.4,4.3-0.9,6.4-1.4c2.1-0.5,4.3-0.9,6.4-1.5    c3.1-0.9,6.1-1.8,9.1-2.8c3.6-1.1,7.2-2.1,10.6-3.4c4.6-1.7,9.1-3.7,13.7-5.6c1.5-0.6,2.8-1.6,4.3-2.1c2.3-0.8,3-2.4,1.8-4.5    C506.1,596.2,505,594.5,504.2,592.6z M215.3,576c2.5-5.3,5.1-10.6,7.6-15.9c1.6-3.4,3-6.9,4.6-10.2c2.5-5.4,5.3-10.7,7.8-16    c2.4-5,4.6-10,6.9-15c1.1-2.4,0.9-3.1-1.6-3.7c-0.2,0-0.4-0.1-0.5-0.2c-3.7-1.4-7.4-2.9-11-4.3c-2.2-0.9-4.5-1.8-6.7-2.8    c-4.2-1.9-8.4-3.9-12.5-6c-3.7-1.9-7.3-3.9-10.9-6.1c-2.3-1.4-4.2-3.3-6.4-4.8c-0.6-0.4-1.5-0.3-2.2-0.4c-0.1,0.8-0.3,1.5-0.3,2.3    c0.1,0.8,0.4,1.6,0.5,2.4c0.4,3.9,0.7,7.9,1,11.8c0.5,6.6,1,13.3,1.5,19.9c0.1,2,0.2,4,0.5,6c0.3,2-0.5,2.9-2.5,3.1    c-1.4,0.1-2.9,0.3-4.3,0.6c-4.1,0.9-8.1,1.9-12.2,2.8c-3,0.6-6.1,0.9-9.1,1.4c-2.1,0.4-4.1,0.9-6.2,1.3c-2.6,0.5-5.1,1-7.7,1.5    c0-0.2-0.1-0.4-0.1-0.5c-1.7,0.6-3.5,1.1-5.2,1.7c-0.4,0.2-0.8,0.5-1.2,0.7c0.3,0.5,0.6,1.1,1,1.4c1.6,1.2,3.3,2.4,4.9,3.5    c3.3,2.4,6.6,5,10,7.3c2.4,1.6,5,3,7.6,4.3c4.5,2.4,8.9,4.8,13.4,7.1c3.6,1.8,7.2,3.4,10.8,5.1c2.6,1.2,5.2,2.5,7.9,3.6    c2.9,1.2,6,2.1,8.9,3.2c1.9,0.7,2.8,0.6,3.8-1.2C214.2,578.6,214.7,577.3,215.3,576z M574.9,544.9c-1-0.4-2-0.8-3-1    c-2.6-0.5-5.3-0.8-7.9-1.3c-3.4-0.6-6.8-1.4-10.3-2.1c-2.1-0.4-4.3-0.8-6.4-1.2c-3.3-0.6-6.6-1.3-9.9-1.9    c-2.8-0.5-5.5-1.2-8.3-1.4c-1.6-0.2-2.1-0.7-2-2.2c0.4-4.2,0.8-8.3,1.2-12.5c0.5-6.4,0.8-12.9,1.3-19.3c0.3-3.9,0.7-7.9,1.1-11.8    c-1,0.3-2.3,0.3-2.9,1c-3.8,3.7-8.5,5.9-13,8.4c-3.9,2.2-8,4-12.1,5.9c-3.9,1.8-7.9,3.6-11.9,5.3c-1.7,0.7-3.6,1.1-5.3,1.8    c-1.9,0.8-3.7,1.8-5.6,2.5c-2.2,0.7-2.5,1.1-1.5,3.2c1.3,2.9,2.7,5.8,4,8.7c2.4,5.3,4.8,10.7,7.3,16c2.7,5.8,5.6,11.6,8.3,17.5    c3.1,6.5,6.1,12.9,9.1,19.4c0.7,1.5,2.1,1.9,3.7,1.3c4.6-1.8,9.2-3.6,13.7-5.5c4.7-2,9.3-4.1,13.9-6.4c5.4-2.7,10.8-5.6,16-8.6    c3.6-2,7-4.4,10.4-6.7c3.5-2.5,6.8-5.2,10.2-7.8C575.1,545.8,575,544.9,574.9,544.9z M304.1,118.2c1.8,0.8,3.7,1.6,5.5,2.3    c5.8,2.5,11.6,5,17.4,7.4c4.6,2,9.2,3.9,13.7,5.9c5.2,2.3,10.4,4.6,15.6,6.9c1.2,0.5,2.4,0.9,3.3,1.2c1.4-0.2,2.4-0.2,3.2-0.5    c3.7-1.6,7.4-3.5,11.1-5.1c7.4-3.2,14.8-6.2,22.2-9.3c1.4-0.6,2.8-0.9,4.2-1.5c3.5-1.6,7-3.3,10.5-4.9c1.8-0.8,3.6-1.4,5.3-2.2    c0.8-0.4,1.6-1,0.4-1.8c-2.1-1.2-4.2-2.4-6.4-3.3c-3.4-1.4-6.9-2.5-10.2-3.9c-6-2.5-12-5.1-18-7.7c-6.3-2.8-12.6-5.6-19-8.4    c-1.6-0.7-3.4-1.1-5.2-0.1c-2.8,1.5-5.8,2.8-8.7,4.1c-2.9,1.3-5.8,2.4-8.7,3.6c-7.5,3.1-15,6.1-22.5,9.3c-4.6,2-9.2,4.2-13.8,6.3    c-0.3,0.2-0.8,0.6-0.8,0.8C303.3,117.6,303.7,118,304.1,118.2z M396,131c-1.8,0.7-3.6,1.4-5.3,2.3c-2.6,1.3-5,2.7-7.6,3.9    c-6.9,3.2-13.8,6.4-20.7,9.4c-1,0.4-2.4,0.6-3.4,0.2c-4.8-2-9.5-4.1-14.1-6.3c-4.5-2-8.9-4.2-13.3-6.2c-2.4-1.1-4.8-2.1-7.3-3.1    c-0.9-0.4-1.8-0.4-1.7,1c0.1,2.6,0.3,5.1,0.4,7.7c0.1,2.9,0.1,5.8,0,8.7c-0.1,2.3-0.3,4.6-0.4,6.9c0,0.7,0.2,1.7,0.7,2    c1.2,0.8,2.5,1.4,3.8,2c6.2,2.9,12.4,5.8,18.6,8.7c3.8,1.8,7.6,3.4,11.3,5.4c2.4,1.3,4.6,2.1,6.9,0.1c0.1-0.1,0.4-0.1,0.5-0.2    c2.8-1.3,5.6-2.5,8.3-3.8c3.3-1.6,6.6-3.4,10-5c3.6-1.8,7.3-3.4,10.9-5.1c0.3-0.2,0.7-0.3,1.1-0.4c2.8-0.5,3.3-1.2,3.3-3.9    c0-3.3,0-6.7,0-10c-0.1,0-0.2,0-0.3,0c0-4.3,0-8.7,0-13C397.6,131.4,397.3,130.5,396,131z M272.6,471.6c1,0.4,2,1,2.9,1.7    c1.9,1.3,3.6,2.7,5.6,3.8c8.7,4.7,18-0.2,19.1-10c0.6-4.8-2.1-11.2-8.3-10.5c-2.3,0.2-4.5,2-5,4.2c-0.6,2.6,0.4,4.6,2.7,5.9    c0.4,0.2,0.7,0.5,1,0.7c-0.4,0.2-0.8,0.7-1.3,0.7c-0.8,0-1.7-0.1-2.3-0.4c-1.3-0.7-2.5-1.4-3.6-2.3c-4.5-3.7-10.6-5-15.5-0.6    c-0.2,0.2-0.4,0.2-0.7,0.3c0-0.3-0.1-0.7,0-0.8c0.9-1,1.8-2.2,2.9-2.8c2.6-1.2,5.3-2,7.9-3c4.3-1.7,8.7-3,12.7-5.3    c9.5-5.5,9.4-18.1,0.1-23.9c-4-2.5-8.6-3.2-11.9-3.1c-7.4,0-13.1,1.1-17.9,5.2c-3.3,2.8-4.6,6.4-3.9,10.7c0.5,3.1,2.2,5.3,5.2,6.1    c2.9,0.8,5.7,0.4,7.8-2c2-2.2,2.4-4.8,1.1-7.5c-0.5-0.9-0.2-1.3,0.7-1.7c2.7-1,5.5-1.2,8.3-0.3c1.9,0.6,3.4,1.7,3.6,3.9    c0.2,2.2-0.7,4-2.7,5c-2.4,1.2-4.9,2.2-7.3,3.4c-3.9,2-7.9,3.7-11.4,6.2c-4.9,3.4-7.6,8.3-7,14.6c0.4,3.9,2,7.2,5.8,8.9    c4.9,2.3,10.7-0.7,9.6-5.6C270.7,471.5,271.7,471.3,272.6,471.6z M437,469.9c-1.2-0.1-1.6-0.6-1.8-1.8c-0.3-1.3-1.1-2.9-2.1-3.7    c-2.8-2.3-7.9-1.8-10.2,1c-0.9,1.1-1.5,2.6-1.7,4c-0.4,3.7,1.9,5.8,4.8,7.4c3.4,1.9,7.2,2.5,10.9,2.4c11,0,18.8-4.4,22.6-13.3    c1.6-3.6,2.4-7.7,2.8-11.6c0.7-5.7-0.3-11.3-2.8-16.5c-7-14.2-25.6-13.9-33.6-7.7c-8,6.2-9.6,18.3-3.1,25.9    c4.9,5.7,13.2,7.7,21.1,4.9c1.4-0.5,2.7-1.1,4-1.6c0.2-0.1,0.9,0.5,0.8,0.6C447.6,466,444.6,470.2,437,469.9z M439.9,451.7    c-4.6,0-8.3-3.4-8.3-7.8c-0.1-4.2,3.9-8,8.4-8.1c4.6,0,8.6,3.7,8.6,8C448.6,448.3,444.8,451.7,439.9,451.7z M357.4,448.9    c-0.8-12.9-8.4-23.2-23.2-22.9c-8.9,0.2-15.8,4.6-19.2,12.8c-2.6,6.1-3,12.5-2.1,18.9c0.4,3.4,1.2,6.9,2.7,9.9    c4,8.6,11.3,11.7,20.5,11.6c9-0.2,15.8-4.7,19.1-13c1.8-4.5,2.4-9.1,2.2-13.9C357.4,451.1,357.5,450,357.4,448.9z M342.7,463.1    c-1.2,3.4-3.8,5.5-7.5,5.6c-3.8,0.1-6.4-2-7.7-5.3c-2.9-7.2-2.9-14.5,0.1-21.6c1.3-3.2,3.9-5.2,7.4-5.2c3.6,0,6.4,1.9,7.6,5.3    c1.2,3.4,1.8,7.1,2.7,10.7C344.4,456.2,343.8,459.7,342.7,463.1z M379.7,468.1c-1.3,0-2.5-0.1-3.8-0.1c-2.4,0-4,1.5-4.4,3.8    c-0.7,4.3,2.5,7,7.4,6.5c3.5-0.4,7-0.7,10.5-0.6c3.7,0,7.4,0.6,11.1,0.6c3.4,0.1,5.3-2.2,5.3-5.7c0-3.3-1.6-4.7-5.2-4.6    c-0.6,0-1.3,0-1.9,0.1c-2.6,0.3-3.2-0.2-3.2-2.8c0-5.5,0-11,0-16.4c0,0,0,0,0,0c0-5.6,0-11.2,0-16.8c0-0.6-0.1-1.1-0.2-1.7    c-0.3-3-1.6-4.1-4.5-3.4c-3.9,1-7.7,0.8-11.6,0.1c-1.3-0.2-2.8-0.2-4.1,0.2c-3,0.8-4.4,4-3.5,7.2c0.7,2.5,2.6,3.5,5.8,2.9    c0.7-0.1,1.4-0.2,2.1-0.3c1.7-0.2,2.7,0.5,3,2.2c0.2,1,0.3,2.1,0.3,3.2c0,6.2,0,12.5,0,18.7c0,1.4-0.1,2.9-0.2,4.3    C382.4,467.5,381.7,468.1,379.7,468.1z M497.7,475.5c3.5-3.9,6.6-8.3,9.4-12.7c4.5-7.1,8.8-14.3,12-22.1    c3.7-9.1,7.3-18.2,9.2-27.8c1.6-8,3-16,4-24.1c0.8-6.7,0.8-13.4,1.3-21.5c-0.6-8.2-1.2-17.7-1.9-27.3c0-0.4-0.3-0.8-0.5-1.3    c-0.1,0.5-0.3,0.9-0.3,1.4c-0.3,8.2-0.6,16.3-1,24.5c-0.1,3-0.4,6-0.8,9c-0.2,1.9-0.8,3.7-1,5.5c-0.3,3.4-0.2,6.8-0.8,10.2    c-1.3,7.3-2.5,14.6-4.5,21.7c-2.3,8.4-5,16.8-8.3,24.8c-3,7.4-6.8,14.6-10.8,21.5c-3.3,5.8-7.1,11.2-10.9,16.6    c-2.1,3-4.8,5.7-7.3,8.5c-1,1.2-2.3,2.1-3.3,3.4c-3.4,4.3-7.4,7.9-11.9,10.9c-0.9,0.6-1.5,1.6-2.2,2.4c0.9-0.3,1.8-0.6,2.7-0.9    c0.2-0.1,0.4-0.1,0.5-0.2c4.3-3.1,8.8-6,12.8-9.4C489,484.3,493.6,480.1,497.7,475.5z M230.9,483.6c3.1,3,6.6,5.7,10,8.4    c2.1,1.7,4.4,3,6.7,4.5c1.3,0.8,2.6,1.6,3.9,2.4c0.2,0.1,0.4,0,0.7,0c0-0.2,0-0.4-0.1-0.5c-0.6-0.7-1.2-1.4-1.9-2    c-3.5-3-7.1-5.7-10.4-8.9c-2.7-2.6-5.1-5.6-7.6-8.6c-3.5-4.3-7-8.6-10.2-13.1c-2.1-2.9-3.8-6.2-5.5-9.4c-2.7-4.9-5.4-9.7-7.8-14.7    c-4.3-8.6-7.1-17.8-9.8-27c-1.8-6.2-3.3-12.5-4.4-18.8c-1.5-8.6-2.7-17.2-3.5-25.9c-0.8-8.8-0.8-17.6-1.2-26.3    c-0.1-1.6,0-3.1-0.1-4.7c0-0.3-0.3-0.6-0.4-1c-0.2,0.3-0.4,0.6-0.4,1c-0.4,4.6-0.9,9.3-1.1,13.9c-0.5,12.1-1,24.3,0.7,36.3    c1,7.2,2,14.4,3.6,21.5c0.9,4,1.1,8.3,3.1,12.1c1,1.9,1.3,4.2,2,6.2c1.8,4.8,3.7,9.6,5.5,14.4l0,0c1.3,2.4,2.5,4.8,3.8,7.1    c4.3,8.1,9.2,15.9,15.3,22.9C224.6,477,227.6,480.5,230.9,483.6z M366.9,327.8c-1.9,0.1-2.6,0.8-2.6,2.7c0.1,1.9,1.4,3.2,3.4,2.7    c4.1-0.9,8.2-1.1,12.3,0c1.7,0.4,2.9-0.7,3-2.5c0.2-1.9-0.8-2.9-3-2.9c-3.1,0-3.2-0.1-4.2-3.1c-0.1-0.4-0.2-0.7-0.3-1.1    c-2-8-4-16-6.1-24c-1.3-5.1-2.6-10.1-4-15.1c-0.4-1.5-1.4-2.4-3.1-2.4c-1.8,0-2.9,0.8-3.5,2.3c-0.3,0.8-0.6,1.7-0.8,2.5    c-1.8,6.4-3.4,12.8-5.2,19.1c-1.8,6.3-3.5,12.6-5.5,18.8c-0.9,2.9-1.4,3-4.4,3c-2.1,0-3,0.9-2.8,3c0.2,2.1,1.6,3,4.2,2.3    c3.4-0.8,6.8-1,10.2,0c0.4,0.1,0.7,0.1,1.1,0.1c2.1,0.1,3-0.9,2.9-3c-0.1-1.8-1-2.5-2.8-2.5c-2.4,0-2.9-0.6-2.4-3    c0.2-1.3,0.6-2.6,0.9-3.9c1.6-6.8,1.4-5.7,7.5-5.8c1.3,0,2.6,0,4,0c1.3-0.1,2.1,0.4,2.4,1.8c0.5,2.4,1.2,4.8,1.6,7.2    C370.3,326.9,369.7,327.7,366.9,327.8z M364.8,310.1c-0.9,0-1.9,0-2.8,0c-5.4,0-4.9,0.2-3.7-4.8c1.1-4.3,2.2-8.5,3.3-12.8    c0.1-0.4,0.4-0.7,0.6-1.1c0.2,0.4,0.5,0.7,0.5,1.1c1.2,5.2,2.3,10.4,3.5,15.6C366.5,309.4,366.1,310.1,364.8,310.1z M442.1,329.3    c0.3,0.2,0.6,0.4,0.9,0.6c1.7,1,3.2,2.3,5,3c7.5,2.6,15.5-1.9,17.3-9.9c2-8.8,0-15.6-10-18.1c-2.5-0.6-5-1.4-7.4-2.2    c-4.2-1.5-5.4-3.3-5.1-7.9c0.3-4.3,3.5-7.4,7.8-7.4c4.4,0,7.7,3.1,7.9,7.5c0.1,1.5-0.1,3,0,4.5c0.1,1.2,0.5,2.1,1.9,2.2    c1.4,0.1,2.5-0.2,2.9-1.8c0.2-0.7,0.3-1.4,0.3-2c0-1.9,0-3.9,0-5.8c-0.1,0-0.1,0-0.2,0c0.1-0.8,0.2-1.6,0.1-2.4    c0-1.8,0.1-3.7-0.3-5.4c-0.1-0.7-1.3-1.6-2.1-1.6c-0.7,0-1.9,0.7-2.2,1.4c-0.5,1.2-0.7,1.5-1.8,0.6c-4.8-3.7-11.1-3.2-15.5,0.9    c-6.1,5.6-7.1,19.2,4.9,23c2.7,0.8,5.5,1.5,8.2,2.3c2.5,0.7,4.7,2,5.5,4.7c1.2,3.7,0.8,7.3-2.2,10.1c-2.9,2.8-6.4,3-10,1.7    c-3.5-1.3-5.8-4.8-5.9-8.5c0-1.6,0.2-3.1,0.2-4.7c-0.1-2-1.1-2.9-2.8-2.8c-1.8,0.1-2.3,1.3-2.3,2.9c0,3.4,0.2,6.8,0.2,10.2    c0,2.1-0.2,4.3-0.2,6.4c0,1.4,0.4,2.7,2.2,2.7c1.8,0,2.2-1.1,2.3-2.6c0-0.1,0-0.3,0-0.4C441.9,330,442,329.7,442.1,329.3z     M421.8,324.1c2.5-7.7,1.6-16.7-9.8-19.4c-2.8-0.7-5.5-1.6-8.3-2.6c-2.7-1-4-3-4.1-5.9c-0.2-4.9,2.9-8.7,7.5-8.9    c4.8-0.2,8.3,3.3,8.3,8.3c0,1.3-0.1,2.5,0,3.8c0.1,1.6,1,2.3,2.6,2.2c1.6-0.1,2.5-1.5,2.4-3.8c-0.1-1.9,0-3.8,0-5.7c0,0,0,0,0,0    c0-1.9,0-3.9,0-5.8c0-0.7,0.1-1.7-0.3-2.2c-0.5-0.7-1.4-1.6-2.2-1.6c-0.7,0-1.9,0.8-2.2,1.5c-0.5,1.4-0.9,1.3-1.9,0.5    c-4.6-3.4-10.7-3.2-14.9,0.6c-4.5,4-5.8,9.2-4.3,14.9c1.4,5.5,5.8,7.7,10.8,9.2c2.3,0.7,4.6,1.2,6.9,1.9c2.1,0.7,3.8,2,4.6,4.1    c1.4,3.7,0.9,7.2-1.8,10.2c-2.5,2.7-6.7,3.4-10.3,1.9c-3.4-1.4-5.7-4.8-5.7-8.6c0-1.4,0.2-2.8,0.2-4.1c0-2.1-0.9-3.3-2.5-3.3    c-1.8,0-2.6,0.9-2.6,3.1c0,3.4,0.1,6.8,0.1,10.2c0,2-0.1,4-0.1,6c0,1.4,0.2,2.7,2,2.8c1.9,0.1,2.3-1.1,2.4-2.7    c0-0.5,0.2-1,0.3-1.4c0.4,0.2,0.9,0.4,1.2,0.7C407.8,336.5,418.7,333.7,421.8,324.1z M255.3,289.1c-3.7,5.7-4.6,12-4.6,18.9    c0.1,6.3,0.9,12.8,4.5,18.5c4.5,7.1,11.9,8.6,18.2,5.9c6.7-2.9,10.1-10.5,9.7-17.4c-0.1-1.5-0.9-2.3-2.4-2.4    c-1.6,0-2.4,0.9-2.7,2.4c-0.4,2.2-0.6,4.5-1.3,6.6c-1.1,3.5-3.5,5.8-7.3,6.3c-3.7,0.5-6.7-1-8.8-4c-1-1.4-1.8-3-2.4-4.7    c-2.1-5.9-2.4-12-1.3-18.1c0.6-3.3,1.7-6.6,3.3-9.5c2-3.7,5.7-5.1,9.5-4.2c3.9,0.9,5.8,3.7,6.4,7.4c0.4,2.5,0.3,5,0.5,7.5    c0.1,1.3,0.6,2.3,2.1,2.5c1.5,0.1,2.5-0.6,2.6-2.1c0.1-1.4-0.1-2.7,0-4.1c0.1-4.3,0.1-8.7,0.3-13c0.1-2.2-0.6-3.6-2-3.7    c-2.2-0.2-2.4,1.3-2.6,2.9c0,0.3-0.1,0.6-0.2,0.9c-0.3-0.2-0.7-0.3-0.9-0.5c-2-2.1-4.4-3.2-7.4-3.4    C262.5,281.7,258.3,284.4,255.3,289.1z M298.6,327.7c-1.9-0.4-3,0.3-3.2,1.9c-0.3,2,0.8,3.3,2.8,3.3c2.5,0,5-0.4,7.5-0.3    c6.5,0.1,12.9,0.2,19.4,0.3c3,0,3.7-0.8,3.6-3.7c-0.1-3.5,0-6.9,0-10.4c0-1.6,0.2-3.3-0.1-4.9c-0.2-0.8-1.2-1.7-2-2    c-1.2-0.4-2.3,0.3-2.6,1.6c-0.3,1.2-0.2,2.5-0.2,3.7c-0.1,2.4,0,4.9-0.1,7.3c-0.1,1.8-1.2,3-3,3.1c-2.9,0.2-5.9,0.4-8.8,0.4    c-3.4,0-4-0.6-4-4c0-5.4,0-10.8,0-16.2c0,0,0,0,0,0c0-5.4-0.1-10.8,0-16.2c0.1-3.6,0.4-3.8,3.9-3.7c1.6,0.1,2.7-0.4,2.9-2.2    c0.1-1.7-1.1-3.1-2.8-3.1c-1.1,0-2.2,0.2-3.4,0.3c-2.1,0.1-4.1,0.2-6.2,0.1c-1.3,0-2.6-0.4-3.9-0.4c-2.1-0.1-3.1,0.9-3,2.9    c0.1,1.8,0.9,2.5,3,2.4c3.1-0.1,3.7,0.3,3.7,3.6c0.1,5.7,0.3,11.4,0.3,17.2c0,5.4-0.1,10.8-0.3,16.2    C302,327.8,301.3,328.2,298.6,327.7z M367.6,398.1c-0.7,0-1.7,0.4-2,0.9c-0.3,0.7-0.2,1.8,0.1,2.5c0.8,1.6,2.4,1.4,3.8,1.2    c3.1-0.5,6.1-0.7,9.2,0c0.6,0.1,1.3,0.1,1.9,0.1c1.3,0,1.9-0.8,2.2-1.9c0.4-2.1-0.7-3-3.5-2.7c-2.3,0.3-3.2-0.3-3.3-2.6    c-0.1-3.7-0.1-7.4,0-11.1c0-0.5,0.4-1.5,0.7-1.6c1.4-0.1,2.9-0.3,4.2,0.1c0.7,0.2,1,1.7,1.2,2.7c0.2,1.2-0.2,2.6,0.2,3.7    c0.2,0.8,1.1,1.7,1.9,1.9c1.2,0.3,1.7-0.8,1.7-1.9c0-0.8,0-1.6,0-2.5c-0.1-2.8-0.2-5.5-0.2-8.3c0-2.2,0.2-4.4,0.2-6.6    c0-1.2-0.2-2.3-1.8-2.3c-1.6,0-2,1.1-2,2.4c0,1.1,0.1,2.1,0.1,3.2c0,2-1.3,2.8-4,2.8c-1.9,0-2.3-1.1-2.2-2.7c0.1-2.8,0-5.7,0-8.5    c0-1.6,0.8-2.6,2.3-2.7c2.5-0.2,5-0.3,7.5-0.1c2.8,0.2,3.5,1.1,3.6,4c0.1,2.3-0.1,4.5-0.1,6.8c0,1.8,0.9,2.7,2.5,2.7    c1.8-0.1,1.9-1.3,1.9-2.7c0-4,0-8,0-12.1c0-2.7-0.6-3.2-3.4-3.3c-7.4-0.2-14.8,1.1-22.2-0.4c-1.8-0.3-3,0.9-3,2.6    c0,1.6,1,2.4,3,2.1c2-0.3,2.7,0.5,2.7,2.3c0,5,0,9.9,0,14.9c0,0,0.1,0,0.1,0c0,4.7,0.1,9.3-0.1,14    C370.9,398.1,370.7,398.1,367.6,398.1z M196.5,148.3c2.8,1,4.9,0.2,6.7-2c0.9-1.1,1.8-1.3,3.1-1.3c29.3,0,58.6,0,87.8,0.1    c1.8,0,3.7-0.9,5.2,1.8c0.9,1.7,3.8,2.7,6.4,1.6c2.4-1,3.1-2.9,3.1-4.6c0.2-4.8-3.8-7.4-7.6-5.7c-0.7,0.3-1.7,0.8-1.9,1.4    c-0.6,2.2-2.2,2.2-4,2.2c-29.5,0-58.9,0-88.4,0c-0.6,0-1.3,0.1-1.9,0c-0.4-0.1-1-0.3-1.2-0.7c-1.9-2.6-3.9-4.2-7.4-2.7    c-2.2,0.9-3.6,2.6-3.6,5.4C192.8,145.6,194.7,147.7,196.5,148.3z M354.6,378.7c-0.3-6-1.4-11.8-5.6-16.4    c-4.5-4.9-12.2-4.9-16.5,0.3c-1.6,2-3,4.4-3.8,6.9c-2.2,6.2-2.1,12.7-1.1,19.2c0.6,4,2,7.7,4.7,10.8c2.1,2.4,4.6,3.8,7.8,4    c5.7,0.3,9.2-2.7,11.6-7.4c2.4-4.6,3-9.7,2.9-14.8C354.6,380.3,354.6,379.5,354.6,378.7z M347.9,392.6c-0.1,0.7-0.5,1.4-0.9,2.1    c-1.4,2.4-3.4,4.1-6.3,4.1c-3,0-4.9-1.8-6.2-4.3c-2.5-4.9-2.7-10.2-2.5-15.5c0.1-4,0.6-7.9,2.5-11.5c1.1-2,2.6-3.6,5-4    c3.1-0.6,5.7,0.7,7.5,3.9c2.4,4.3,2.6,9,2.8,15.6C349.4,385,348.7,388.8,347.9,392.6z M415.4,136.6c-2.8,0.8-3.5,1.9-3.7,5.1    c-0.1,2.7,0.6,4.6,2.4,5.1c3,0.8,5.2,1.1,6.9-1.3c1.1-1.6,2.5-1.8,4.2-1.8c14.6,0,29.2,0,43.8,0c0,0,0-0.1,0-0.1    c14.5,0,29,0,43.4,0c2,0,3.9-0.1,5.1,2c0.3,0.5,1.1,0.8,1.7,1.2c2.3,1.3,5.7,0.5,7.5-1.7c1.4-1.7,1.1-5.2-0.8-6.9    c-2.7-2.4-5.6-2.3-8.2,0.2c-1.5,1.5-3,2.3-5.1,2.3c-2.8,0-5.7,0-8.5,0c-26.5-0.1-53-0.1-79.5-0.2c-1.1,0-2.4-0.8-3.1-1.6    C419.8,136.8,417.7,135.9,415.4,136.6z M467.1,242.1c-1.1,2-1.9,2.8-4.1,1.3c-0.5-0.3-2-0.2-2.3,0.3c-0.7,1-0.1,2,1,2.6    c2.9,1.6,5.8,3.2,8.8,4.6c0.7,0.3,2.1,0,2.6-0.5c0.9-0.9,0-1.7-0.9-2.2c-0.3-0.2-0.5-0.3-0.8-0.4c-1.4-0.5-1.6-1.5-1-2.7    c2.9-5.6,5.9-11.2,8.9-16.9c0.1-0.2,0.4-0.4,0.6-0.6c0.1,0.3,0.3,0.7,0.3,1c-0.1,2.1-0.3,4.1-0.5,6.2c-0.7,5.7-1.4,11.5-2.1,17.2    c-0.3,2.5,0.7,4.1,2.6,4.7c2.1,0.6,2.9-1,3.8-2.3c3.8-5.8,7.5-11.6,11.3-17.4c1.5-2.2,1.9-2.1,4.2-0.9c0.7,0.3,1.8,0,2.7-0.1    c-0.3-0.9-0.3-2.1-0.9-2.5c-3-2.1-6.2-4-9.3-6c-1-0.6-2.1-0.9-2.9,0.2c-0.8,1.2,0.2,2,1.1,2.6c2.4,1.5,2.6,2.4,1.1,4.8    c-2.9,4.7-5.8,9.4-8.7,14.2c-0.2,0.4-0.6,0.6-0.8,1c-0.1-0.5-0.2-0.9-0.2-1.4c0-0.4,0.1-0.9,0.2-1.3c0.9-7.2,1.8-14.3,2.7-22.2    c-0.3-0.7-0.6-2.1-1.5-2.7c-2.3-1.6-4.8-2.8-7.2-4.1c-1.1-0.6-2.3-0.9-3,0.4c-0.7,1.4,0.5,2,1.5,2.5c2.5,1.2,2.7,1.6,1.5,4    C472.9,231.1,470,236.6,467.1,242.1z M245.3,229.3c-1.4-2.4-3.4-3.8-7.2-3.8c-0.9,0.3-2.8,0.6-4.3,1.5c-4.9,2.9-9.8,6-14.6,9    c-1,0.7-2,1.6-1,2.9c1,1.3,2,0.3,2.9-0.3c2.1-1.6,2.6-1.7,4.2,0.6c3.3,4.8,6.5,9.6,9.7,14.4c0.7,1.1,1.5,2.4,1.5,3.5    c0,0.8-1.5,1.5-2.1,2.3c-0.4,0.5-0.7,1.4-0.4,1.8c0.3,0.5,1.2,0.9,1.8,0.9c0.6,0,1.2-0.6,1.8-0.9c2.3-1.5,4.6-3,6.9-4.5    c0.4-0.3,1.1-0.4,1.2-0.8c0.3-0.8,0.4-1.7,0.5-2.5c-0.8-0.1-1.7-0.4-2.3-0.1c-2.8,1.4-2.8,1.5-4.6-1.1c-0.3-0.4-0.6-0.8-0.8-1.3    c-3.5-5.6-4.7-4.3,2.4-8.4c2.9-1.7,4.2-1.1,6,1.8c1.2,1.9,2.4,3.7,3.7,5.4c0.9,1.2,2.2,1.5,3.5,1c1.2-0.5,2.3-1,3.4-1.6    c1.1-0.6,1.9-1.5,1.2-2.7c-0.8-1.3-1.9-0.8-2.8-0.1c-1.5,1.1-2.5,0.5-3.3-0.8c-1-1.5-1.9-3-2.9-4.4c-0.9-1.4-1.9-2.8-3.8-2.7    c-1.7,0.1-1.6-0.4-0.8-1.6C246.9,234.3,246.7,231.8,245.3,229.3z M241.1,237.6c-2.2,1.8-4.6,3.3-6.9,4.8c-0.3,0.2-1.2-0.2-1.5-0.6    c-1.3-1.8-2.4-3.7-3.6-5.5c-0.7-1.1-0.4-2.2,0.5-2.8c1.9-1.3,3.8-2.7,5.9-3.6c3.5-1.4,6.6,1.1,6.8,5    C241.9,235.7,241.8,237,241.1,237.6z M526,253.5c-2.5-5.2-6.5-8.1-13.3-8.7c-1.4,0.5-3.9,1-5.8,2.2c-4.8,3-7.9,7.4-9.3,12.8    c-1.5,5.8,0.6,10.9,5.5,13.9c1.5,0.9,3.4,1.1,5.1,1.8c0.3,0.1,0.8,0.8,0.7,0.9c-1,1.3-0.6,2.3,0.6,3c1.3,0.8,2.1-0.1,2.8-1    c1.7-2.1,3.5-4.2,5.2-6.2c1.1-1.3,2.4-1.6,3.6-0.1c0.8,0.9,1.8,1.7,2.9,0.5c1-1.1,0.3-2.1-0.6-2.9c-3-2.5-5.9-5-8.9-7.6    c-0.1-0.1-0.3-0.3-0.5-0.3c-0.7,0-1.5,0.1-2.2,0.1c0,0.8-0.1,1.7,0.2,2.4c0.3,0.6,1.1,1,1.7,1.4c1.6,1.2,1.7,2,0.5,3.6    c-1.9,2.5-4.7,3.5-7.5,2.6c-3.1-1-5.3-3.8-5.4-7c-0.2-6.2,5.2-13.7,11.1-15.5c3.6-1.1,7.5,0.5,10,4c1.7,2.5,1.4,4.5-1.2,8    c-0.1,0.1-0.2,0.2-0.2,0.3c-0.8,1-0.5,1.9,0.3,2.6c0.9,0.8,1.9,1.1,2.8,0.1c2.1-2.3,4.3-4.6,6.3-7c0.4-0.4,0.3-1.7-0.1-2.1    c-0.5-0.6-1.9-1.1-2.3-0.9C526.6,255.4,526.5,254.4,526,253.5z M203.1,279.7c5.6,2.4,11.5,1,15.1-3.7c1-1.3,1.4-2.9,2.2-4.3    c0.1-0.3,0.9-0.5,1-0.4c1,1.1,2,1,2.9,0c1-1.1,0.5-2-0.3-3c-1.8-2-3.6-4.1-5.2-6.2c-1.1-1.4-1.3-2.7,0.5-3.8    c1-0.6,1.9-1.5,0.8-2.8c-1.1-1.2-2-0.5-2.9,0.3c-2.9,2.4-5.8,4.8-8.6,7.3c-0.2,0.2-0.6,0.4-0.6,0.7c-0.1,0.7-0.4,1.7-0.1,2    c0.5,0.4,1.5,0.6,2.1,0.4c0.7-0.2,1.2-1,1.8-1.6c1.4-1.3,2.3-1.3,3.7,0.1c2.2,2.3,2.7,5.2,1.4,7.8c-1.4,2.8-4.7,4.6-7.6,4.2    c-6.2-0.9-12.3-6.6-13.6-12.7c-0.9-4.5,2.3-9.5,6.9-10.5c1.8-0.4,3.5,0,4.9,1.3c0.6,0.6,1.1,1.2,1.6,1.8c0.9,1,1.8,0.9,2.8,0.1    c1-0.8,1.2-1.7,0.4-2.8c-1.9-2.4-3.7-4.8-5.7-7.1c-0.4-0.5-1.7-0.8-2.2-0.5c-0.6,0.4-1.4,1.7-1.2,2.2c0.8,1.6-0.3,1.6-1.2,1.8    c-6.4,1.6-10.6,6.9-11,13.3c0.6,2,0.8,4.1,1.7,5.9C194.8,274.3,198.4,277.7,203.1,279.7z M312.8,197c-5.5,0.8-10.8,2.1-16.2,3.3    c-1.1,0.2-2.3,0.9-1.8,2.3c0.5,1.5,1.7,1.2,2.9,0.8c0.2-0.1,0.5-0.1,0.7-0.2c1.4-0.6,2.3,0,2.6,1.3c1.8,6.8,3.5,13.5,5.2,20.3    c0.3,1.4-0.2,2.3-1.8,2.4c-1.2,0.1-2.5,0.4-2.1,2c0.4,1.5,1.6,1.4,2.9,1.1c3.5-0.9,6.9-1.8,10.4-2.4c8.3-1.4,12.7-6.9,12.1-15.1    c-0.4-2.1-0.6-4.2-1.2-6.3C324.6,199.5,319.7,196,312.8,197z M322.2,207.3c0.7,2.1,0.9,4.3,1.2,5.7c-0.3,4.9-0.9,8.9-5.2,10.7    c-1.8,0.8-3.9,1.1-5.8,1.2c-0.7,0.1-1.9-0.9-2.1-1.6c-1.6-6.3-3.1-12.6-4.5-18.9c-0.4-1.8,0.4-2.9,2.1-3.4    c1.2-0.3,2.3-0.6,3.5-0.8C317,199.6,320.5,201.8,322.2,207.3z M350.1,223.5c5.5,0.4,12.4-1.4,12.4-10c0-5.1,0.2-10.2,0.3-15.3    c0.1-2.8,0.1-2.8,2.9-3.2c1.1-0.1,1.8-0.5,1.7-1.8c-0.1-1.2-0.8-1.6-1.9-1.6c-3.6,0-7.1,0-10.7,0c-0.4,0-0.9,0-1.1,0.2    c-0.5,0.5-1.2,1.2-1.2,1.7c0,0.5,0.9,1,1.5,1.4c0.2,0.1,0.6,0.1,0.9,0.1c2.1-0.3,3,0.8,3.1,2.8c0.1,2.9,0.3,5.8,0.4,8.8    c-0.1,2.9-0.1,5.9-0.5,8.9c-0.4,3-2.7,4.7-6,4.9c-3.2,0.1-5.9-1.6-6.2-4.6c-0.7-5.8-1.2-11.6-1.5-17.5c-0.1-2.3,0.4-2.7,2.9-3    c1.1-0.1,2.4-0.3,2.3-1.7c-0.1-1.6-1.4-1.7-2.7-1.7c-0.3,0-0.5,0.1-0.7,0.1c-2.8,0.2-5.6,0.5-8.4,0.7c-0.6,0-1.3-0.1-1.6,0.2    c-0.6,0.5-1.3,1.3-1.3,1.9c0,0.4,1.1,1.2,1.7,1.2c2.9,0.2,3.2,0.5,3.5,3.5c0.5,5.1,0.9,10.1,1.5,15.2    C342.1,220.8,344.3,223.1,350.1,223.5z M267.2,240.6c-0.6,0.2-1.2,1.5-1.1,2.1c0.2,1.3,1.4,1.3,2.4,0.8c3.1-1.3,6.2-2.6,9.2-4.1    c0.5-0.3,0.7-1.4,1-2.1c-0.7-0.3-1.5-1-2.2-0.9c-2.8,0.5-2.8,0.5-3.1-2.3c-0.1-0.9-0.2-1.7-0.3-2.6c-0.2-1.5,0.4-2.4,1.9-2.9    c1.8-0.6,3.5-1.4,5.3-2c0.6-0.2,1.6,0,1.9,0.4c1.1,1.2,1.9,2.5,2.8,3.8c0.7,1.1,0.6,2-0.8,2.5c-1.1,0.4-2.3,0.9-1.6,2.4    c0.7,1.3,1.9,1,3,0.6c2.8-1,5.7-2,8.5-2.9c1.1-0.4,1.8-1,1.5-2.2c-0.3-1.3-1.3-1.5-2.4-1c-2,1-3.2,0.1-4.3-1.4    c-2.3-3.1-4.5-6.2-6.9-9.2c-2.7-3.5-5.5-6.9-8.3-10.3c-0.8-1-1.8-1.6-3.3-1.1c-2.1,0.8-2.7,2.1-2.5,5.2c0.5,7.6,1,15.3,1.4,22.9    C269.7,238.3,269.4,239.9,267.2,240.6z M272.7,214c0.4,0.4,0.6,0.6,0.8,0.9c1.8,2.4,3.6,4.8,5.5,7.2c0.8,1,0.5,1.6-0.6,2    c-1.3,0.5-2.6,1-3.9,1.5c-1,0.4-1.6,0.1-1.7-1c-0.1-3.1-0.3-6.3-0.4-9.4C272.4,214.8,272.5,214.5,272.7,214z M391.1,221.5    c-0.6,0-1.6,0.7-1.7,1.2c-0.1,0.6,0.6,1.3,1.1,1.9c0.2,0.2,0.7,0.2,1.1,0.2c2.9,0.5,5.8,0.9,8.7,1.4c1.2,0.2,2.1,0.1,2.4-1.1    c0.4-1.4-0.5-2.1-1.7-2.1c-2.2,0-2.7-1.4-3-3.2c-0.5-3.5-1-7.1-1.6-10.6c-0.8-4.6-1.7-9.3-2.6-13.9c-0.3-1.7-1.5-2.3-3.1-2.4    c-2.1-0.1-2.7,1.6-3.4,3c-3.2,7-6.4,14.1-9.6,21.2c-0.8,1.8-1.7,3.6-4.4,2.9c-0.4-0.1-1.6,0.8-1.6,1.3c0,0.7,0.7,1.5,1.3,1.9    c0.5,0.3,1.3,0.1,2,0.1c2,0.1,4,0.2,6,0.3c0.9,0.1,1.9,0.4,2.8,0.3c0.5-0.1,1.2-0.8,1.2-1.3c0.1-0.5-0.4-1.2-0.8-1.6    c-0.2-0.3-0.8-0.3-1.2-0.3c-1.4,0-1.8-0.8-1.4-2c0.4-1.1,0.9-2.2,1.3-3.4c0.5-1.7,1.6-2.5,3.4-2.2c0.9,0.1,1.7,0.2,2.6,0.4    c4.5,0.7,4.5,0.8,4.8,5.4C393.7,221.2,393.5,221.3,391.1,221.5z M391.5,210.4c-2-0.2-3.3-0.4-4.7-0.5c-1.3-0.1-1.4-0.7-0.9-1.8    c1.3-2.8,2.5-5.6,3.8-8.4c0.1-0.3,0.5-0.5,0.7-0.8c0.2,0.3,0.4,0.6,0.5,1c0.5,3,1,6.1,1.3,9.1    C392.2,209.5,391.6,210.1,391.5,210.4z M438.2,203.5c-1.4-0.4-2.9-0.7-4.4-1.1c-5.4-1.5-10.8-2.9-16.2-4.4c-2.4-0.6-3-0.2-3.4,2.3    c-0.4,2.4-1,4.8-1.5,7.2c-0.3,1.3-0.3,2.4,1.2,2.9c1.6,0.5,2.3-0.5,2.6-1.9c0.4-1.6,0.6-3.2,1.2-4.7c0.3-0.8,1.3-1.7,2-1.8    c1-0.1,2.2,0.3,3.2,0.8c0.6,0.3,1,1.1,1.3,1.5c-0.1,0.8-0.1,1.2-0.2,1.6c-1.6,6.2-3.2,12.4-4.9,18.6c-0.4,1.7-1.3,2.5-3.2,1.7    c-1-0.4-2.3-0.6-2.6,0.9c-0.4,1.5,0.7,2.1,2,2.4c2.9,0.7,5.8,1.5,8.7,2.3c1.3,0.4,2.5,0.4,2.9-1c0.5-1.4-0.7-2-1.8-2.1    c-2-0.3-2.3-1.4-1.9-3.1c1.7-6.3,3.4-12.6,5.2-18.9c0.6-2,1.5-2.2,4.1-1.4c2,0.6,2.6,1.5,2,3.3c-0.4,1.5-1.1,2.9-1.6,4.4    c-0.5,1.4-0.2,2.5,1.4,3c1.5,0.4,2.2-0.3,2.7-1.6c0.8-2.6,1.6-5.3,2.6-7.9C440.2,204.8,439.6,204,438.2,203.5z M541.9,444.7    c0.7-0.8,1.2-2.1,1.1-3.2c-0.1-0.5-1.6-1-2.6-1.2c-1.5-0.3-3.1-0.5-4.7-0.5c-4.9-0.2-9.8-0.5-13.9,2.9c-2.7,2.2-3.2,5.2-3.6,8.4    c0,0.2,0.1,0.3,0.2,0.5c1.9,3.1,4.6,4.6,9.5,4.5c1.8-0.3,4.7-1.1,6.8-3.4C537.2,450,539.6,447.4,541.9,444.7z M519.5,475.6    c5.1-2.4,9.6-5.5,12.8-10.3c0.4-0.6,1.1-1.6,0.9-1.8c-0.5-0.6-1.3-1.2-2.1-1.4c-3.7-0.7-7.4-1.1-11.1-1.7    c-5.2,0.1-5.8,0.3-8.5,1.9c-2.3,1.3-3,3.6-3.8,5.8c-0.8,2.2,0.4,3.6,1.7,5.2C511.6,476,516.2,477.1,519.5,475.6z M184.1,451.1    c2.6,2.9,5.8,5.1,10,5.2c5,0.1,8.2-3.5,7.5-8.4c-0.1-0.5-0.2-1-0.2-1.5c-0.4-2.8-2.5-4.4-4.7-5.2c-3-1-6.2-1.2-9.5-1.7    c-2.8,0.5-5.5,1-8.3,1.4c-1.8,0.2-1.7,1.2-1,2.2C179.8,445.7,181.8,448.5,184.1,451.1z M189.5,467c2.8,2.9,5.6,5.8,9.3,7.5    c3.5,1.6,7,2.7,10.8,0.3c5.4-3.4,3.5-10.8-0.9-13.1c-2.7-1.4-5.4-0.6-8.7-1.4c-3,0.5-6.6,1-10.2,1.7c-0.7,0.1-1.3,0.5-1.8,0.9    c-0.3,0.2-0.5,0.9-0.3,1.1C188.1,465.1,188.6,466.2,189.5,467z M546.3,427.2c1.6-2.4,2.6-5.2,3.7-7.9c0.4-1-0.2-1.5-1.2-1.5    c-1.6,0-3.3,0-4.9,0c-3.7-0.2-7.2,0.4-10.8,1.9c-5.2,2.2-6.3,6-5.9,10.9c0.1,0.9,0.9,1.8,1.7,2.5c0.8,0.7,1.8,1,2.8,1.5    c2,1,7.2,0.5,8.8-1C542.4,431.4,544.7,429.5,546.3,427.2z M179.3,432.4c3.4,2.8,7,3.5,11,1.4c1.2-0.6,2.6-1.7,2.9-2.8    c0.9-3.6,0.6-8-3.7-10.3c-4.1-2.2-8.4-3.4-13-3c-1.6,0-3.2,0-4.8,0c-1.6,0-2,0.7-1.3,2.2C172.6,424.6,175.1,429.1,179.3,432.4z     M170.2,406.5c2.2,3.9,5.4,6.4,10.1,6.5c0.7,0,1.5,0.2,2.1,0c1.6-0.6,3.9-1,4.5-2.2c1.8-4,1.2-9.6-3.5-12.3    c-4.8-2.8-10.2-3-15.5-4c-1.8-0.3-2.3,0.6-2,2.4C166.4,400.5,168.5,403.4,170.2,406.5z M552.5,394.6c-2,0.2-4.1,0.6-6.1,0.9    c-4.6,0.5-8.9,1.8-12.2,5.3c-1,1.1-2.2,7.4-1.5,8.7c0.1,0.2,0.3,0.4,0.5,0.6c1.9,2.5,4.6,3,7.8,3c3.1,0.6,5.3-1.6,6.9-3.8    c2.6-3.6,4.7-7.7,6.8-11.6C555.7,395.7,554.8,394.4,552.5,394.6z M179.9,390.7c1.3-0.3,3-0.8,3.6-1.7c2.5-3.8,0.6-10.4-3.4-12.6    c-1.7-0.9-3.4-1.8-5.2-2.4c-2.8-0.9-5.6-1.6-8.4-2.4c0,0.1-0.1,0.3-0.1,0.4c-0.6,0-1.2-0.2-1.7-0.1c-0.4,0.1-0.9,0.6-0.9,0.8    c0.1,1.4,0,3,0.6,4.2c1.4,2.9,2.1,6,4,8.7C171.2,390,175.3,391.8,179.9,390.7z M555.2,348.4c-2.7,0.9-5.3,1.7-7.9,2.8    c-2.5,1.1-5.1,2.1-7.1,3.8c-2.2,1.8-3.4,4.5-2.8,7.3c0,1.1-0.1,1.9,0,2.7c0.1,1.3,0.6,2.1,2,2.8c2.8,1.4,5.5,0.9,8.3,0.7    c0.4,0,1,0,1.3-0.3c1.7-1.9,3.6-3.5,4.8-6c1.8-4,2.9-8.1,3.6-12.4c0.1-0.4-0.1-1.1-0.4-1.3C556.5,348.3,555.7,348.3,555.2,348.4z     M555.1,371.9c-5,0-9.6,1.8-14,3.9c-2,1-4.4,2.5-4.7,5.1c-0.3,2.5,0.1,5.1,0.3,7.6c0,0.4,0.4,0.9,0.7,1c1.8,0.6,3.7,1.1,5.1,1.6    c3.2-0.3,5.7-0.9,7.7-3.2c3.5-4.1,5.8-8.7,6.6-14.1C557.1,372.3,556.7,371.9,555.1,371.9z M168.3,341.6c2.1,3.3,4.5,5,8.1,5.2    c4.9,0.3,7.6-2.2,7.6-6.7c0-2.7-1.1-4.8-3-6.8c-4-4.2-9.4-5.4-14.5-7.4c-1.5-0.6-2.5,0.2-2.2,1.5    C165.4,332.2,165.5,337.1,168.3,341.6z M164.2,355.5c1.4,4.3,2.8,8.5,6.3,11.7c2.1,1.9,8.7,2.2,10.8,0.4c0.6-0.5,1.2-1.3,1.4-2.1    c0.3-1.1,0.4-2.2,0.5-3.3c0-4-1.9-6.5-5.2-8.5c-4.2-2.5-8.6-4.1-13.4-4.9c-1.8-0.3-1.9,0.6-1.7,2    C163.4,352.4,163.7,354,164.2,355.5z M536.9,342.4c0.3,1.9,1.2,3.3,3.3,3.8c3.5,0.9,8.6,1.1,10.8-3.1c1.4-2.7,2.7-5.5,3.7-8.4    c0.7-2.1,0.9-4.4,1.4-6.6c0.4-1.7,0.1-2.3-2.2-2.4c-0.4,0.2-1.3,0.6-2.2,0.9c-4,1.6-7.9,3.2-11.3,6    C537,335.4,536.2,338.5,536.9,342.4z M186,328.6c2.7,2,5.7,2.8,8.5,0.9c1.1-0.8,2.4-1.6,2.9-2.7c0.7-1.6,0.8-3.5,1.2-5.3    c0.2-5.1-2-9.4-4.1-13.7c-0.8-1.6-1.9-1.7-3.1-0.2c-2,2.5-3.7,5.2-5.8,7.5c-1.9,2.1-2,4.6-2.1,7    C183.5,324.3,183.5,326.7,186,328.6z M528.3,307c-0.3-0.3-1.5-0.3-1.8,0c-0.8,0.9-1.5,1.9-1.9,3c-0.9,2.7-1.6,5.5-2.4,8.3    c-1.2,3.9,0.1,8.8,3.4,10.9c1.7,1,3.7,2.2,6,1.3c3.7-1.6,5.4-4.4,5.4-8.4c-0.2-1.2-0.1-2.6-0.6-3.7    C534.6,314,531.8,310.2,528.3,307z M214.2,329c-2.8,0.2-5.6,0.7-8.3,1c-4,0.5-7.4,2-9.9,5.3c-0.8,1.1-1.1,7.1-0.3,8.3    c0.2,0.2,0.4,0.5,0.7,0.6c1.7,0.6,3.4,1.2,5.1,1.8c0.1-0.2,0.1-0.3,0.2-0.5c5.3,0.9,9.2-3.5,11-7.1c1.1-2.2,2.1-4.5,3.2-6.7    C216.7,329.9,216.2,328.8,214.2,329z M515.3,330.1c-3.1-0.6-6.4-0.7-9.5-1.2c-1.5-0.3-1.3,0.4-1.1,1.2c1,5.1,3,9.7,7,13.2    c1.1,1,2.3,2.1,3.6,2.3c2,0.3,4.1-0.1,6.2-0.1c2-0.1,3.3-1.1,3.7-3.1c0.2-1,0.2-2,0.2-3c0,0,0.1,0,0.1,0c-0.2-1.4,0-3.3-0.8-4.1    C522.2,332.4,518.9,330.7,515.3,330.1z M201.3,385.5c4.4,0,5.3-0.1,8.1-3.1c3.4-3.7,4.8-8.4,5.2-13.4c0.2-2.1-0.6-2.6-2.6-1.9    c-3.7,1.3-7.4,2.7-11,4.1c-4.2,1.7-5.9,5.4-5.7,8.6c0.2,3.7,2,5.5,5.6,5.6C201,385.5,201.1,385.5,201.3,385.5z M194.2,359.1    c0.6,5.8,1.1,6.2,7.5,6.4c3.6,0.5,6.3-1.7,8.4-4.8c1.4-2.2,2.5-4.8,3.5-7.2c0.5-1.3,0.8-2.7,1.1-4.1c0.2-1.3-0.5-1.9-1.8-1.6    c-1.5,0.3-3,0.9-4.5,1.1c-4.6,0.5-8.5,2.4-12,5.3C194.7,355.5,194,357.3,194.2,359.1z M522.4,352.5c-4.5-2.6-9.4-4-14.5-4.7    c-1.8-0.2-2.5,0.7-1.9,2.4c0.9,2.7,1.8,5.5,3.1,8.1c2.1,4.2,4.8,7.7,10.1,7.1c6.1-0.2,6.1-0.2,6.8-4.4    C526.6,357.5,525.6,354.4,522.4,352.5z M214.7,385.6c-1.4,0.4-2.6,1-4,1.6c-2.3,0.9-4.5,1.7-6.8,2.6l0,0c-0.5,0.6-1,1.3-1.6,1.7    c-5.4,3.4-5,7.6-2.9,12.5c0.1,0.3,0.4,0.7,0.7,0.8c2.9,0.6,5.8,1.3,8.6-0.3c2.9-1.7,5-4.1,5.7-7.5c0.6-3.2,1.3-6.4,1.9-9.6    C216.5,386.3,216.1,385.2,214.7,385.6z M504.3,386.3c-0.3,1.3-0.6,2.8-0.3,4.1c0.6,2.6,1.6,5.1,2.4,7.6c1.1,3.7,5.9,8,10.5,7.3    c2.6,0.7,3.8-0.9,4.8-3.4c1.5-3.8-0.4-9.3-4.1-11c-3.9-1.8-7.8-3.5-11.8-5.2C505.5,385.6,504.4,386,504.3,386.3z M501.5,414.9    c0,2.4,1.5,4,2.7,5.8c0.6,0.9,1.6,1.8,2.6,2.2c1.8,0.7,3.7,1,5.6,1.4c2.4,0.5,6.1-2.6,5.6-5.1c-0.4-2.5-1.3-4.9-2.2-7.3    c-0.3-0.7-1.1-1.4-1.8-1.8c-2.9-1.8-5.8-3.6-8.9-5.2c-1.1-0.6-2.5-0.7-3.8-0.6c-0.3,0-0.4,1.9-0.6,2.9c0,0.2,0,0.5,0.1,0.7    c-0.1,0-0.1,0-0.2,0C501,410.3,501.5,412.6,501.5,414.9z M222.7,421.7c-1.8,1.1-3.4,2.5-5.3,3.4c-3.4,1.8-5.2,4.8-7.3,7.8    c-1.4,2-0.7,3.7-0.2,5.5c0.6,1.8,1.4,3.9,3.4,4.4c2.8,0.7,5.7,0,7.8-1.7c2.2-1.9,3.9-4.6,4-7.8c0.1-1.7,0-3.4,0-5.1    c0,0,0.1,0,0.1,0c0-1.8,0.1-3.5,0-5.3C225,421,224.3,420.7,222.7,421.7z M219.5,404.3c-0.7-0.3-1.9-0.2-2.7,0.2    c-3.2,1.7-6.4,3.4-9.4,5.4c-2.2,1.5-4,3.4-4.6,6.4c-0.7,4.1,1.6,7.9,5.2,7.9c5.9,0.2,8.7-2.1,10.2-7.4c0.9-3.3,1.2-6.8,1.7-10.2    C220,405.9,219.9,404.5,219.5,404.3z M230.2,438.1c-3.4,2.4-6.5,5-9.1,8.3c-1.6,2-2.1,4.2-2.5,6.5c-0.6,3.7,2.6,7.3,6.4,7.2    c1.3-0.1,2.5-1,3.8-1.7c2.3-1.1,3.8-2.9,4.3-5.4c0.3-1.8,0.4-3.6,0.7-5.7c-0.3-2.5-0.6-5.3-1.1-8.1    C232.4,437.4,231.6,437.1,230.2,438.1z M495.4,422.6c-0.1,2.6-0.2,5.3-0.1,7.9c0.2,5.1,1.4,9.6,6.8,11.8c4.2,1.7,7,0.3,8.4-3.7    c0.3-0.8,0.3-1.7,0.4-2.4c0-0.7,0.1-1.2,0-1.7c-1.1-3.8-3.9-6.4-6.7-8.8c-2-1.7-4.7-2.6-6.9-4    C495.9,420.7,495.4,421.4,495.4,422.6z M490.7,438.1c-1.3-1.1-2.8-0.4-2.9,1.4c-0.2,4.4-0.4,8.9-0.2,13.3c0.2,3.6,5,7.5,9,7.6    c0.2-0.1,0.8-0.2,1.4-0.5c3.7-2.2,5-5.9,3.1-10.3C499,444.5,494.5,441.6,490.7,438.1z M445.6,232.7c-1,2.3-1.2,2.3-3.7,1.4    c-1-0.4-2-0.6-2.5,0.7c-0.5,1.3,0.4,2,1.4,2.5c0.1,0.1,0.2,0.1,0.4,0.1c2.9,1.2,5.8,2.3,8.7,3.5c1.1,0.5,2.2,0.6,2.8-0.6    c0.6-1.3-0.3-2-1.4-2.4c-2.2-1-2.4-1.2-1.5-3.5c2.4-5.9,4.8-11.7,7.3-17.6c1.1-2.5,1.5-2.6,4-1.5c0.3,0.2,0.7,0.4,1,0.4    c0.7-0.2,1.6-0.3,1.8-0.8c0.2-0.5-0.1-1.4-0.5-1.9c-0.3-0.4-0.9-0.6-1.4-0.8c-3.1-1.3-6.3-2.5-9.4-3.8c-0.6-0.2-1.2-0.4-2.1-0.7    c-0.4,0.4-1.2,0.8-1.3,1.3c-0.1,0.6,0.5,1.3,0.9,1.8c0.2,0.3,0.7,0.3,1,0.4c2.4,0.9,2.7,1.1,1.8,3.5    C450.4,220.8,448.1,226.8,445.6,232.7z M243.9,534.4c1.7,0.9,3.4,1.9,5.3,2.4c4,1,8.1,1.8,12.2,2.7c0.4,0.1,0.8,0,1.2-0.1    c-0.1-0.5,0-1.2-0.3-1.6c-0.4-0.7-1.1-1.1-1.6-1.8c-3.5-4.8-7-9.6-10.5-14.4c-0.8-1.1-1.4-1.1-2,0.2c-0.8,1.6-1.7,3.1-2.4,4.7    c-1,2.2-1.8,4.4-2.8,6.7C243.3,533.5,243.5,534.1,243.9,534.4z M476,534.5c1.1-0.7,1.5-1.6,0.8-2.9c-1.5-3.2-2.9-6.5-4.4-9.8    c-0.2-0.4-0.4-0.7-0.6-1.1c-0.4,0.2-0.9,0.4-1.2,0.7c-1.6,2-3.1,4.1-4.7,6.1c-2.5,3.2-5.1,6.3-7.6,9.5c-0.3,0.4-0.7,0.8-0.8,1.2    c-0.1,0.4,0.3,0.9,0.4,1.2C463.2,539.4,472,537,476,534.5z M409.6,382.2c18.3,0,36.6,0.1,54.9,0.1c0.5,0,1.2-0.4,1.4-0.8    c0.8-1.4,0.2-2.3-1.7-2.3c-9.1,0-18.3,0-27.4,0c-9.1,0-18.1,0-27.2,0c-1,0-1.9,0-1.9,1.4C407.8,381.9,408.4,382.2,409.6,382.2z     M312.6,380.7c0-1.4-0.7-1.7-1.9-1.6c-1.7,0.1-3.4,0-5.1,0c-16.4,0-32.7,0-49.1,0c-1.1,0-2-0.1-2,1.5c0,1.5,0.8,1.5,1.9,1.5    c9,0,18,0,27,0c0,0,0,0,0,0c9.1,0,18.2,0,27.4,0C311.9,382.2,312.6,382.1,312.6,380.7z M204.2,389.2c0,0-0.1,0-0.1,0.1    c-0.1,0.2-0.1,0.4-0.1,0.5c0,0,0,0,0,0C204,389.6,204.1,389.4,204.2,389.2z M275.6,622c0.1,0,0.1,0,0.1,0c0,0,0-0.1,0.1-0.1    c0,0-0.1,0-0.1-0.1C275.6,621.8,275.6,621.9,275.6,622z M523.6,310.2c0.1-0.1,0.1-0.1,0.2-0.2c0,0-0.1,0-0.1,0    C523.6,310,523.6,310.1,523.6,310.2z M530.7,490.1C530.7,490.1,530.6,490.2,530.7,490.1C530.6,490.2,530.6,490.2,530.7,490.1    C530.6,490.2,530.6,490.2,530.7,490.1C530.6,490.2,530.6,490.2,530.7,490.1L530.7,490.1z M513.6,384.8    C513.6,384.8,513.6,384.8,513.6,384.8c2.5,0.2,5.1,0.4,7.6,0.6c1.8,0.2,2.7-0.9,3.2-2.4c1.7-5.2,0.2-9.6-5-11.8    c-3.7-1.6-7.6-2.9-11.4-4.3c-1.4-0.5-2.5,0.2-2.3,1.5C506.9,374.6,508.3,380.6,513.6,384.8c0,0-0.1,0-0.1,0    C513.5,384.8,513.6,384.8,513.6,384.8z M202.6,443.6C202.6,443.6,202.6,443.6,202.6,443.6C202.6,443.6,202.6,443.6,202.6,443.6z"/></g></g></svg>